<svg width="20" height="20" viewBox="0 0 20 20" fill="none" xmlns="http://www.w3.org/2000/svg">
<path fill-rule="evenodd" clip-rule="evenodd" d="M10 19.5999C12.5461 19.5999 14.9879 18.5885 16.7882 16.7881C18.5886 14.9878 19.6 12.546 19.6 9.9999C19.6 7.45382 18.5886 5.01203 16.7882 3.21168C14.9879 1.41133 12.5461 0.399902 10 0.399902C7.45395 0.399902 5.01215 1.41133 3.2118 3.21168C1.41145 5.01203 0.400024 7.45382 0.400024 9.9999C0.400024 12.546 1.41145 14.9878 3.2118 16.7881C5.01215 18.5885 7.45395 19.5999 10 19.5999ZM14.4484 8.4483C14.667 8.22198 14.788 7.91886 14.7852 7.60422C14.7825 7.28959 14.6563 6.98861 14.4338 6.76612C14.2113 6.54363 13.9103 6.41743 13.5957 6.41469C13.2811 6.41196 12.9779 6.53291 12.7516 6.7515L8.80002 10.7031L7.24842 9.1515C7.0221 8.93291 6.71898 8.81196 6.40434 8.81469C6.08971 8.81743 5.78873 8.94363 5.56624 9.16612C5.34375 9.38861 5.21755 9.68959 5.21482 10.0042C5.21208 10.3189 5.33303 10.622 5.55162 10.8483L7.95162 13.2483C8.17666 13.4733 8.48183 13.5996 8.80002 13.5996C9.11822 13.5996 9.42339 13.4733 9.64842 13.2483L14.4484 8.4483Z" fill="#5DC5C5"/>
</svg>
