<svg width="25" height="21" viewBox="0 0 25 21" fill="none" xmlns="http://www.w3.org/2000/svg">
<path d="M22.2344 5.34323C22.2501 5.56336 22.2501 5.78354 22.2501 6.00367C22.2501 12.718 17.1397 20.4545 7.79934 20.4545C4.92175 20.4545 2.24861 19.621 0 18.1744C0.408851 18.2216 0.801923 18.2373 1.2265 18.2373C3.60086 18.2373 5.78659 17.4354 7.53201 16.0674C5.29914 16.0202 3.42792 14.5578 2.78321 12.545C3.09772 12.5922 3.41219 12.6237 3.74243 12.6237C4.19843 12.6237 4.65447 12.5607 5.079 12.4507C2.75179 11.9789 1.00632 9.93478 1.00632 7.46604V7.40317C1.68245 7.78056 2.46874 8.01642 3.30207 8.04783C1.93404 7.1358 1.03779 5.57909 1.03779 3.81794C1.03779 2.87449 1.28933 2.00965 1.72964 1.25487C4.22984 4.33686 7.98801 6.34956 12.2021 6.56974C12.1235 6.19235 12.0763 5.79927 12.0763 5.40615C12.0763 2.60717 14.3407 0.327148 17.1553 0.327148C18.6177 0.327148 19.9385 0.940401 20.8663 1.93104C22.0142 1.71091 23.1149 1.28633 24.0898 0.704538C23.7124 1.8839 22.9105 2.87454 21.8569 3.50347C22.879 3.39346 23.8697 3.11035 24.7817 2.71728C24.0899 3.72361 23.225 4.61986 22.2344 5.34323Z" fill="#27326F"/>
</svg>
