<svg width="462" height="304" viewBox="0 0 462 304" fill="none" xmlns="http://www.w3.org/2000/svg">
<g filter="url(#filter0_d_120_294)">
<rect x="27" y="27" width="243" height="169" rx="7.89144" fill="white"/>
<rect x="27.45" y="27.45" width="242.1" height="168.1" rx="7.44144" stroke="#E1EDED" stroke-width="0.9"/>
</g>
<line x1="41.4" y1="89.6887" x2="230.328" y2="89.6887" stroke="#F5F5F5" stroke-width="0.570778"/>
<line x1="41.4" y1="113.261" x2="255.442" y2="113.261" stroke="#F5F5F5" stroke-width="0.570778"/>
<line x1="41.4" y1="136.912" x2="255.442" y2="136.912" stroke="#F5F5F5" stroke-width="0.570778"/>
<line x1="41.4" y1="160.563" x2="255.442" y2="160.563" stroke="#F5F5F5" stroke-width="0.570778"/>
<mask id="mask0_120_294" style="mask-type:alpha" maskUnits="userSpaceOnUse" x="41" y="98" width="215" height="77">
<rect x="41.4" y="98.4023" width="214.2" height="76.1976" fill="white"/>
</mask>
<g mask="url(#mask0_120_294)">
<path opacity="0.24" d="M255.442 102.531C229.757 102.531 237.462 140.203 219.197 140.203C200.932 140.203 209.209 126.551 188.946 126.551C182.953 126.551 176.212 126.467 172.964 126.551C168.398 126.551 172.964 112.853 168.2 112.853H151.56C130.917 112.853 148.257 173.308 120.167 173.308H255.442V102.531Z" fill="url(#paint0_linear_120_294)"/>
<path d="M120.167 173.308C148.257 173.308 130.917 112.853 151.56 112.853C153.024 112.853 164.973 112.853 168.2 112.853C172.964 112.853 168.398 126.551 172.964 126.551C176.212 126.467 182.953 126.551 188.946 126.551C209.209 126.551 200.932 140.203 219.197 140.203C237.462 140.203 229.757 102.531 255.442 102.531" stroke="#00BB29" stroke-width="1.0274" stroke-linecap="round"/>
<path opacity="0.24" d="M78.7467 146.661C54.0752 146.661 65.6188 172.917 41.4 172.917H120.167C91.1141 172.917 103.418 146.661 78.7467 146.661Z" fill="url(#paint1_linear_120_294)"/>
<path d="M42.2466 173.488C66.4653 173.488 54.9218 146.661 79.5932 146.661C104.265 146.661 91.1808 173.488 121.014 173.488" stroke="#00BB29" stroke-width="1.0274" stroke-linecap="round"/>
<rect x="41.4" y="89.4033" width="38.8129" height="172.946" fill="url(#paint2_linear_120_294)"/>
</g>
<path d="M235.045 92.6062C234.766 92.6062 234.518 92.5582 234.299 92.4623C234.081 92.3663 233.909 92.2332 233.782 92.063C233.656 91.8914 233.589 91.6927 233.579 91.4671H234.216C234.224 91.59 234.265 91.6968 234.339 91.7873C234.415 91.8765 234.514 91.9454 234.635 91.9941C234.757 92.0427 234.892 92.067 235.041 92.067C235.204 92.067 235.349 92.0387 235.474 91.9819C235.601 91.9251 235.701 91.8461 235.772 91.7448C235.844 91.6421 235.88 91.5238 235.88 91.39C235.88 91.2509 235.844 91.1286 235.772 91.0232C235.702 90.9164 235.599 90.8326 235.462 90.7718C235.327 90.711 235.164 90.6806 234.972 90.6806H234.621V90.1698H234.972C235.126 90.1698 235.261 90.1421 235.377 90.0867C235.495 90.0313 235.587 89.9543 235.653 89.8557C235.719 89.7557 235.752 89.6388 235.752 89.505C235.752 89.3766 235.723 89.2652 235.665 89.1706C235.608 89.0746 235.527 88.9996 235.422 88.9456C235.318 88.8915 235.195 88.8645 235.053 88.8645C234.918 88.8645 234.791 88.8895 234.674 88.9395C234.558 88.9882 234.463 89.0584 234.39 89.1503C234.317 89.2408 234.278 89.3496 234.272 89.4766H233.666C233.673 89.2523 233.739 89.055 233.865 88.8848C233.992 88.7145 234.16 88.5814 234.368 88.4855C234.576 88.3895 234.807 88.3416 235.061 88.3416C235.327 88.3416 235.557 88.3936 235.75 88.4976C235.945 88.6003 236.095 88.7375 236.2 88.9091C236.307 89.0807 236.36 89.2685 236.358 89.4726C236.36 89.705 236.295 89.9023 236.164 90.0644C236.034 90.2266 235.861 90.3354 235.645 90.3908V90.4232C235.92 90.4651 236.134 90.5746 236.285 90.7516C236.438 90.9286 236.514 91.1482 236.512 91.4103C236.514 91.6387 236.45 91.8434 236.322 92.0245C236.195 92.2055 236.021 92.3481 235.801 92.4521C235.581 92.5548 235.328 92.6062 235.045 92.6062ZM238.659 88.3416C238.844 88.3429 239.026 88.3767 239.206 88.4429C239.386 88.5091 239.548 88.6172 239.692 88.7672C239.838 88.9172 239.955 89.1199 240.041 89.3753C240.129 89.6293 240.173 89.9455 240.175 90.3239C240.175 90.6874 240.138 91.011 240.065 91.2948C239.992 91.5772 239.888 91.8157 239.751 92.0103C239.616 92.2049 239.452 92.3528 239.259 92.4542C239.065 92.5555 238.848 92.6062 238.606 92.6062C238.359 92.6062 238.139 92.5575 237.947 92.4603C237.755 92.363 237.599 92.2285 237.479 92.0569C237.359 91.8839 237.284 91.6853 237.254 91.461H237.872C237.913 91.6394 237.995 91.7839 238.12 91.8947C238.245 92.0042 238.407 92.0589 238.606 92.0589C238.91 92.0589 239.147 91.9265 239.317 91.6617C239.488 91.3955 239.574 91.0238 239.575 90.5468H239.542C239.472 90.6631 239.384 90.7631 239.279 90.8468C239.175 90.9306 239.058 90.9955 238.928 91.0414C238.799 91.0874 238.66 91.1103 238.513 91.1103C238.274 91.1103 238.056 91.0516 237.86 90.934C237.664 90.8164 237.508 90.655 237.392 90.4496C237.276 90.2442 237.218 90.0097 237.218 89.7462C237.218 89.4841 237.277 89.2462 237.396 89.0327C237.516 88.8192 237.684 88.6503 237.899 88.526C238.115 88.4004 238.368 88.3389 238.659 88.3416ZM238.661 88.8686C238.503 88.8686 238.36 88.9078 238.233 88.9861C238.107 89.0632 238.008 89.1679 237.935 89.3003C237.862 89.4314 237.826 89.5773 237.826 89.7381C237.826 89.8989 237.861 90.0449 237.931 90.1759C238.003 90.3056 238.1 90.409 238.223 90.486C238.347 90.5617 238.489 90.5995 238.649 90.5995C238.767 90.5995 238.878 90.5766 238.981 90.5306C239.084 90.4847 239.174 90.4212 239.251 90.3401C239.328 90.2577 239.388 90.1644 239.431 90.0604C239.474 89.9563 239.496 89.8469 239.496 89.732C239.496 89.5793 239.459 89.4375 239.386 89.3064C239.315 89.1753 239.216 89.0699 239.09 88.9902C238.965 88.9091 238.822 88.8686 238.661 88.8686ZM242.31 92.6062C242.019 92.6062 241.762 92.5562 241.539 92.4562C241.318 92.3562 241.144 92.2184 241.019 92.0427C240.893 91.867 240.831 91.6671 240.832 91.4427C240.831 91.2671 240.867 91.1056 240.939 90.9583C241.014 90.8097 241.114 90.686 241.242 90.5874C241.369 90.4874 241.51 90.4239 241.667 90.3969V90.3725C241.46 90.3225 241.295 90.2117 241.171 90.0401C241.046 89.8685 240.985 89.6712 240.986 89.4483C240.985 89.2361 241.041 89.0469 241.154 88.8807C241.269 88.7132 241.427 88.5814 241.627 88.4855C241.827 88.3895 242.054 88.3416 242.31 88.3416C242.562 88.3416 242.788 88.3902 242.987 88.4875C243.187 88.5834 243.344 88.7152 243.459 88.8828C243.574 89.049 243.632 89.2375 243.633 89.4483C243.632 89.6712 243.568 89.8685 243.443 90.0401C243.317 90.2117 243.154 90.3225 242.952 90.3725V90.3969C243.108 90.4239 243.247 90.4874 243.372 90.5874C243.497 90.686 243.597 90.8097 243.672 90.9583C243.747 91.1056 243.786 91.2671 243.787 91.4427C243.786 91.6671 243.722 91.867 243.597 92.0427C243.471 92.2184 243.297 92.3562 243.074 92.4562C242.852 92.5562 242.598 92.6062 242.31 92.6062ZM242.31 92.0934C242.481 92.0934 242.63 92.065 242.756 92.0083C242.881 91.9501 242.979 91.8697 243.047 91.7671C243.116 91.663 243.152 91.5414 243.153 91.4022C243.152 91.2576 243.114 91.1299 243.039 91.0191C242.966 90.9083 242.867 90.8212 242.741 90.7576C242.616 90.6941 242.472 90.6624 242.31 90.6624C242.146 90.6624 242.001 90.6941 241.874 90.7576C241.747 90.8212 241.647 90.9083 241.574 91.0191C241.501 91.1299 241.465 91.2576 241.466 91.4022C241.465 91.5414 241.498 91.663 241.566 91.7671C241.635 91.8697 241.733 91.9501 241.86 92.0083C241.987 92.065 242.137 92.0934 242.31 92.0934ZM242.31 90.1617C242.448 90.1617 242.57 90.134 242.677 90.0786C242.783 90.0232 242.867 89.9462 242.928 89.8476C242.99 89.7489 243.022 89.6334 243.023 89.501C243.022 89.3712 242.991 89.2577 242.93 89.1604C242.87 89.0632 242.787 88.9882 242.681 88.9355C242.574 88.8814 242.45 88.8544 242.31 88.8544C242.166 88.8544 242.041 88.8814 241.933 88.9355C241.826 88.9882 241.743 89.0632 241.683 89.1604C241.624 89.2577 241.595 89.3712 241.596 89.501C241.595 89.6334 241.625 89.7489 241.685 89.8476C241.746 89.9462 241.83 90.0232 241.937 90.0786C242.045 90.134 242.169 90.1617 242.31 90.1617ZM245.187 91.9819L245.157 92.2028C245.137 92.365 245.102 92.5339 245.054 92.7096C245.006 92.8866 244.957 93.0508 244.906 93.2021C244.856 93.3534 244.814 93.4737 244.782 93.5629H244.352C244.37 93.4791 244.394 93.3656 244.425 93.2224C244.456 93.0805 244.487 92.9217 244.516 92.746C244.546 92.5704 244.569 92.3913 244.583 92.2089L244.604 91.9819H245.187ZM247.33 92.6062C247.051 92.6062 246.803 92.5582 246.584 92.4623C246.366 92.3663 246.194 92.2332 246.067 92.063C245.941 91.8914 245.874 91.6927 245.864 91.4671H246.501C246.509 91.59 246.55 91.6968 246.624 91.7873C246.7 91.8765 246.799 91.9454 246.92 91.9941C247.042 92.0427 247.177 92.067 247.326 92.067C247.489 92.067 247.634 92.0387 247.76 91.9819C247.887 91.9251 247.986 91.8461 248.058 91.7448C248.129 91.6421 248.165 91.5238 248.165 91.39C248.165 91.2509 248.129 91.1286 248.058 91.0232C247.987 90.9164 247.884 90.8326 247.747 90.7718C247.612 90.711 247.449 90.6806 247.257 90.6806H246.906V90.1698H247.257C247.411 90.1698 247.546 90.1421 247.662 90.0867C247.78 90.0313 247.872 89.9543 247.938 89.8557C248.004 89.7557 248.037 89.6388 248.037 89.505C248.037 89.3766 248.008 89.2652 247.95 89.1706C247.893 89.0746 247.812 88.9996 247.707 88.9456C247.603 88.8915 247.48 88.8645 247.338 88.8645C247.203 88.8645 247.076 88.8895 246.959 88.9395C246.843 88.9882 246.748 89.0584 246.675 89.1503C246.602 89.2408 246.563 89.3496 246.558 89.4766H245.952C245.958 89.2523 246.025 89.055 246.15 88.8848C246.277 88.7145 246.445 88.5814 246.653 88.4855C246.861 88.3895 247.092 88.3416 247.346 88.3416C247.612 88.3416 247.842 88.3936 248.035 88.4976C248.23 88.6003 248.38 88.7375 248.485 88.9091C248.592 89.0807 248.645 89.2685 248.643 89.4726C248.645 89.705 248.58 89.9023 248.449 90.0644C248.319 90.2266 248.146 90.3354 247.93 90.3908V90.4232C248.205 90.4651 248.419 90.5746 248.57 90.7516C248.723 90.9286 248.799 91.1482 248.797 91.4103C248.799 91.6387 248.735 91.8434 248.607 92.0245C248.48 92.2055 248.306 92.3481 248.086 92.4521C247.866 92.5548 247.614 92.6062 247.33 92.6062ZM249.563 92.5494V92.0954L250.968 90.6401C251.118 90.482 251.242 90.3435 251.339 90.2246C251.438 90.1043 251.511 89.9901 251.56 89.882C251.609 89.7739 251.633 89.6591 251.633 89.5374C251.633 89.3996 251.601 89.2807 251.536 89.1807C251.471 89.0794 251.382 89.0017 251.27 88.9476C251.158 88.8922 251.032 88.8645 250.891 88.8645C250.742 88.8645 250.613 88.8949 250.502 88.9557C250.391 89.0165 250.306 89.1023 250.247 89.2131C250.187 89.3239 250.157 89.4537 250.157 89.6023H249.559C249.559 89.3496 249.618 89.1287 249.734 88.9395C249.85 88.7503 250.009 88.6037 250.212 88.4997C250.415 88.3943 250.645 88.3416 250.903 88.3416C251.164 88.3416 251.394 88.3936 251.592 88.4976C251.792 88.6003 251.948 88.7409 252.061 88.9192C252.173 89.0963 252.229 89.2962 252.229 89.5192C252.229 89.6733 252.2 89.8239 252.142 89.9712C252.085 90.1185 251.986 90.2827 251.844 90.4637C251.702 90.6435 251.505 90.8617 251.252 91.1184L250.427 91.9819V92.0123H252.296V92.5494H249.563Z" fill="#979EA7"/>
<rect x="174.45" y="92.9501" width="59.4156" height="19.8493" rx="9.92467" fill="#00BB29"/>
<path d="M184.467 106.482C183.915 106.482 183.424 106.388 182.994 106.198C182.567 106.009 182.23 105.746 181.982 105.408C181.734 105.071 181.602 104.681 181.587 104.239H183.029C183.042 104.451 183.112 104.636 183.24 104.795C183.367 104.951 183.538 105.072 183.75 105.159C183.962 105.246 184.2 105.289 184.463 105.289C184.744 105.289 184.994 105.241 185.211 105.144C185.428 105.044 185.598 104.906 185.721 104.729C185.844 104.553 185.904 104.35 185.901 104.12C185.904 103.882 185.842 103.672 185.717 103.491C185.592 103.309 185.41 103.167 185.173 103.065C184.937 102.963 184.654 102.912 184.321 102.912H183.627V101.815H184.321C184.595 101.815 184.834 101.767 185.038 101.673C185.245 101.578 185.408 101.445 185.525 101.274C185.643 101.1 185.701 100.899 185.698 100.672C185.701 100.449 185.651 100.256 185.548 100.093C185.449 99.9265 185.307 99.7973 185.123 99.7053C184.941 99.6133 184.728 99.5672 184.482 99.5672C184.242 99.5672 184.019 99.6107 183.815 99.6976C183.61 99.7846 183.445 99.9086 183.32 100.07C183.195 100.228 183.128 100.417 183.121 100.637H181.752C181.762 100.197 181.888 99.8114 182.131 99.479C182.377 99.1441 182.704 98.8833 183.113 98.6966C183.522 98.5074 183.981 98.4128 184.49 98.4128C185.014 98.4128 185.469 98.5113 185.855 98.7081C186.244 98.9025 186.544 99.1645 186.757 99.4944C186.969 99.8242 187.075 100.189 187.075 100.587C187.077 101.03 186.947 101.4 186.684 101.7C186.423 101.999 186.08 102.194 185.656 102.286V102.348C186.208 102.424 186.631 102.629 186.925 102.961C187.222 103.291 187.369 103.702 187.366 104.193C187.366 104.632 187.241 105.026 186.991 105.374C186.742 105.719 186.4 105.99 185.963 106.187C185.528 106.384 185.029 106.482 184.467 106.482ZM188.541 104.917V103.786L191.874 98.5202H192.817V100.131H192.242L189.998 103.686V103.748H194.65V104.917H188.541ZM192.288 106.375V104.572L192.303 104.066V98.5202H193.646V106.375H192.288ZM198.606 106.482C198.095 106.482 197.637 106.386 197.233 106.195C196.829 106 196.509 105.734 196.271 105.397C196.036 105.059 195.91 104.673 195.895 104.239H197.276C197.301 104.561 197.441 104.824 197.694 105.029C197.947 105.231 198.251 105.332 198.606 105.332C198.885 105.332 199.133 105.268 199.35 105.14C199.568 105.012 199.739 104.834 199.864 104.607C199.99 104.379 200.051 104.12 200.048 103.828C200.051 103.532 199.988 103.268 199.861 103.038C199.733 102.808 199.558 102.628 199.335 102.497C199.113 102.364 198.857 102.298 198.568 102.298C198.333 102.295 198.101 102.339 197.874 102.428C197.646 102.518 197.466 102.635 197.333 102.781L196.048 102.57L196.459 98.5202H201.015V99.7091H197.636L197.41 101.792H197.456C197.602 101.62 197.807 101.478 198.073 101.366C198.339 101.251 198.631 101.193 198.948 101.193C199.423 101.193 199.848 101.306 200.221 101.531C200.594 101.753 200.888 102.06 201.103 102.451C201.318 102.843 201.425 103.29 201.425 103.794C201.425 104.313 201.305 104.775 201.065 105.182C200.827 105.586 200.496 105.904 200.072 106.137C199.65 106.367 199.161 106.482 198.606 106.482ZM204.092 105.301L204.042 105.723C204.006 106.045 203.942 106.372 203.85 106.705C203.761 107.04 203.666 107.348 203.566 107.629C203.467 107.91 203.386 108.131 203.325 108.292H202.389C202.425 108.136 202.473 107.924 202.535 107.656C202.599 107.387 202.66 107.086 202.719 106.751C202.778 106.416 202.817 106.076 202.838 105.73L202.865 105.301H204.092ZM208.202 106.482C207.826 106.48 207.459 106.414 207.101 106.287C206.744 106.156 206.421 105.945 206.135 105.654C205.849 105.36 205.621 104.97 205.452 104.484C205.284 103.996 205.2 103.391 205.203 102.67C205.203 101.997 205.275 101.398 205.418 100.871C205.561 100.345 205.767 99.8996 206.035 99.5365C206.304 99.1709 206.627 98.8922 207.006 98.7005C207.387 98.5087 207.812 98.4128 208.283 98.4128C208.776 98.4128 209.213 98.51 209.594 98.7043C209.978 98.8986 210.287 99.1645 210.523 99.502C210.758 99.837 210.903 100.215 210.96 100.637H209.56C209.488 100.336 209.341 100.095 209.119 99.9162C208.899 99.7347 208.62 99.6439 208.283 99.6439C207.738 99.6439 207.319 99.8804 207.025 100.353C206.733 100.826 206.586 101.476 206.584 102.302H206.637C206.763 102.077 206.925 101.884 207.124 101.723C207.324 101.562 207.549 101.438 207.799 101.351C208.053 101.261 208.32 101.216 208.601 101.216C209.061 101.216 209.474 101.326 209.84 101.546C210.208 101.766 210.499 102.069 210.714 102.455C210.929 102.839 211.035 103.278 211.033 103.774C211.035 104.291 210.918 104.755 210.68 105.167C210.442 105.576 210.111 105.898 209.686 106.133C209.262 106.368 208.767 106.485 208.202 106.482ZM208.195 105.332C208.473 105.332 208.723 105.264 208.942 105.128C209.162 104.993 209.336 104.81 209.464 104.58C209.592 104.35 209.654 104.092 209.652 103.805C209.654 103.524 209.593 103.27 209.468 103.042C209.345 102.814 209.175 102.634 208.958 102.501C208.74 102.368 208.492 102.302 208.214 102.302C208.007 102.302 207.814 102.341 207.635 102.421C207.456 102.5 207.3 102.61 207.167 102.75C207.034 102.889 206.929 103.05 206.852 103.234C206.778 103.415 206.74 103.61 206.737 103.817C206.74 104.09 206.804 104.342 206.929 104.572C207.054 104.802 207.227 104.986 207.447 105.124C207.667 105.263 207.916 105.332 208.195 105.332ZM215.06 106.482C214.548 106.482 214.091 106.386 213.687 106.195C213.283 106 212.962 105.734 212.724 105.397C212.489 105.059 212.363 104.673 212.348 104.239H213.729C213.754 104.561 213.894 104.824 214.147 105.029C214.4 105.231 214.704 105.332 215.06 105.332C215.338 105.332 215.586 105.268 215.804 105.14C216.021 105.012 216.192 104.834 216.318 104.607C216.443 104.379 216.504 104.12 216.502 103.828C216.504 103.532 216.442 103.268 216.314 103.038C216.186 102.808 216.011 102.628 215.788 102.497C215.566 102.364 215.31 102.298 215.021 102.298C214.786 102.295 214.555 102.339 214.327 102.428C214.099 102.518 213.919 102.635 213.786 102.781L212.501 102.57L212.912 98.5202H217.468V99.7091H214.089L213.863 101.792H213.909C214.055 101.62 214.261 101.478 214.526 101.366C214.792 101.251 215.084 101.193 215.401 101.193C215.876 101.193 216.301 101.306 216.674 101.531C217.048 101.753 217.342 102.06 217.556 102.451C217.771 102.843 217.878 103.29 217.878 103.794C217.878 104.313 217.758 104.775 217.518 105.182C217.28 105.586 216.949 105.904 216.525 106.137C216.103 106.367 215.614 106.482 215.06 106.482ZM224.373 107.357V97.5384H225.002V107.357H224.373ZM226.187 100.679C226.152 100.345 226.001 100.084 225.735 99.8971C225.472 99.7104 225.129 99.6171 224.707 99.6171C224.411 99.6171 224.156 99.6618 223.944 99.7513C223.732 99.8408 223.569 99.9623 223.457 100.116C223.344 100.269 223.287 100.444 223.284 100.641C223.284 100.805 223.321 100.947 223.395 101.067C223.472 101.187 223.576 101.289 223.706 101.374C223.836 101.455 223.981 101.524 224.139 101.581C224.298 101.637 224.458 101.684 224.619 101.723L225.355 101.907C225.652 101.976 225.937 102.069 226.211 102.187C226.487 102.304 226.733 102.453 226.951 102.632C227.171 102.811 227.344 103.027 227.472 103.28C227.6 103.533 227.664 103.829 227.664 104.17C227.664 104.63 227.546 105.035 227.311 105.385C227.076 105.733 226.736 106.005 226.291 106.202C225.849 106.396 225.313 106.494 224.684 106.494C224.073 106.494 223.542 106.399 223.092 106.21C222.645 106.021 222.295 105.745 222.042 105.381C221.791 105.018 221.656 104.576 221.635 104.054H223.035C223.055 104.328 223.14 104.556 223.288 104.737C223.436 104.919 223.629 105.054 223.867 105.144C224.108 105.233 224.376 105.278 224.673 105.278C224.982 105.278 225.253 105.232 225.486 105.14C225.721 105.045 225.905 104.915 226.038 104.749C226.171 104.58 226.239 104.383 226.241 104.158C226.239 103.953 226.179 103.785 226.061 103.652C225.943 103.516 225.778 103.404 225.566 103.314C225.357 103.222 225.111 103.14 224.83 103.069L223.936 102.839C223.289 102.672 222.778 102.421 222.402 102.083C222.029 101.743 221.842 101.292 221.842 100.729C221.842 100.267 221.967 99.8613 222.218 99.5135C222.471 99.1658 222.815 98.8961 223.25 98.7043C223.684 98.51 224.177 98.4128 224.726 98.4128C225.284 98.4128 225.772 98.51 226.191 98.7043C226.613 98.8961 226.944 99.1633 227.185 99.5059C227.425 99.8459 227.549 100.237 227.557 100.679H226.187Z" fill="white"/>
<line x1="255.15" y1="102.15" x2="234.45" y2="102.15" stroke="#312A91" stroke-width="0.9" stroke-linecap="round" stroke-dasharray="1.8 1.8"/>
<path d="M45.6094 53H46.8849V44.7499H50.0737V43.583H42.4071V44.7499H45.6094V53ZM52.9523 53.1357C54.8384 53.1357 56.3174 51.6566 56.3174 49.757C56.3174 47.8844 54.8248 46.4189 52.9523 46.4189C51.0526 46.4189 49.5871 47.8844 49.5871 49.757C49.5871 51.6431 51.0662 53.1357 52.9523 53.1357ZM52.9523 51.9552C51.731 51.9552 50.849 51.0325 50.849 49.757C50.849 48.5086 51.731 47.5994 52.9523 47.5994C54.1599 47.5994 55.0555 48.495 55.0555 49.757C55.0555 51.0325 54.1735 51.9552 52.9523 51.9552ZM58.8923 53H60.1135V47.6673H61.7011V46.5546H60.1135V43.8543H58.8923V46.5546H57.3047V47.6673H58.8923V53ZM65.8468 53.1357C66.7695 53.1357 67.5293 52.7558 67.9907 52.1316V53H69.2255V46.5546H67.9907V47.4366C67.5293 46.7989 66.7559 46.4189 65.8468 46.4189C64.0692 46.4189 62.6987 47.898 62.6987 49.7841C62.6987 51.6702 64.0692 53.1357 65.8468 53.1357ZM66.0503 51.9823C64.8291 51.9823 63.9606 51.0596 63.9606 49.7705C63.9606 48.4814 64.8155 47.5723 66.0367 47.5723C67.258 47.5723 68.0721 48.4679 68.0721 49.7841C68.0721 51.0867 67.258 51.9823 66.0503 51.9823ZM71.4106 53H72.6318V43.3116H71.4106V53ZM78.2724 53H84.5413V51.833H79.5479V48.7393H84.0936V47.6266H79.5479V44.7499H84.4735V43.583H78.2724V53ZM89.0878 53.1357C90.0105 53.1357 90.7704 52.7558 91.2317 52.1316V53H92.4665V46.5546H91.2317V47.4366C90.7704 46.7989 89.9969 46.4189 89.0878 46.4189C87.3102 46.4189 85.9397 47.898 85.9397 49.7841C85.9397 51.6702 87.3102 53.1357 89.0878 53.1357ZM89.2913 51.9823C88.0701 51.9823 87.2016 51.0596 87.2016 49.7705C87.2016 48.4814 88.0565 47.5723 89.2777 47.5723C90.499 47.5723 91.3131 48.4679 91.3131 49.7841C91.3131 51.0867 90.499 51.9823 89.2913 51.9823ZM94.6516 53H95.8728V49.3227C95.8728 48.1558 96.5106 47.5723 97.4197 47.5723C97.8404 47.5723 98.1524 47.6944 98.4374 47.9794L99.238 47.1517C98.7902 46.636 98.2746 46.4189 97.6232 46.4189C96.8362 46.4189 96.2392 46.7446 95.8728 47.3145V46.5546H94.6516V53ZM100.531 53H101.753V49.2413C101.753 48.2643 102.458 47.5587 103.435 47.5587C104.412 47.5587 105.091 48.2508 105.091 49.2413V53H106.312V48.9971C106.312 47.6537 105.267 46.4189 103.788 46.4189C102.933 46.4189 102.214 46.7853 101.753 47.3959V46.5546H100.531V53ZM108.997 45.2655C109.444 45.2655 109.77 44.9263 109.77 44.4785C109.77 44.0443 109.444 43.7051 108.997 43.7051C108.549 43.7051 108.223 44.0443 108.223 44.4785C108.223 44.9263 108.549 45.2655 108.997 45.2655ZM108.386 53H109.607V46.5546H108.386V53ZM111.814 53H113.035V49.2413C113.035 48.2643 113.741 47.5587 114.718 47.5587C115.695 47.5587 116.373 48.2508 116.373 49.2413V53H117.594V48.9971C117.594 47.6537 116.55 46.4189 115.071 46.4189C114.216 46.4189 113.497 46.7853 113.035 47.3959V46.5546H111.814V53ZM122.328 52.8914C123.264 52.8914 124.024 52.5251 124.499 51.8873V52.7422C124.499 53.9363 123.671 54.669 122.355 54.669C121.365 54.669 120.646 54.3026 120.13 53.6378L119.343 54.4383C119.967 55.3339 120.998 55.836 122.328 55.836C124.35 55.836 125.72 54.6012 125.72 52.7422V46.5546H124.499V47.423C124.024 46.7853 123.264 46.4189 122.315 46.4189C120.564 46.4189 119.234 47.8166 119.234 49.6484C119.234 51.5074 120.564 52.8914 122.328 52.8914ZM122.572 51.7381C121.351 51.7381 120.496 50.8832 120.496 49.6484C120.496 48.4272 121.338 47.5723 122.559 47.5723C123.766 47.5723 124.567 48.4136 124.567 49.662C124.567 50.9103 123.766 51.7381 122.572 51.7381Z" fill="#4F4F4F"/>
<path d="M54.2575 76.5795C54.2575 70.7447 46.7492 72.3278 46.7492 69.2747C46.7492 68.1439 47.586 67.5785 49.0786 67.5785C50.1415 67.5785 51.0914 68.1439 51.996 69.1616L54.0088 67.1488C53.0589 66.0633 51.6568 65.2492 50.0737 65.023V62.9198H47.9252V65.0682C45.4828 65.4527 43.7866 67.0584 43.8092 69.5235C43.8092 75.1547 51.2497 73.4585 51.2497 76.8282C51.2497 78.0495 50.232 78.7279 48.6263 78.7279C47.0432 78.7279 45.8898 77.9364 44.94 76.6925L42.9498 78.7053C44.2842 80.3336 45.822 81.193 47.9252 81.3287V83.3641H50.0737V81.2156C52.6971 80.7407 54.2575 79.0898 54.2575 76.5795ZM62.6266 81.1025H66.132L70.542 74.725C71.5597 73.2776 72.012 71.9433 72.012 70.4733C72.012 67.3976 69.5243 64.9552 66.2677 64.9552C63.0337 64.9552 60.5008 67.4428 60.5008 70.5412C60.5008 73.5942 62.8076 75.7427 65.6345 75.7427C65.9737 75.7427 66.2677 75.7201 66.5165 75.6748L62.6266 81.1025ZM66.2677 73.3907C64.7073 73.3907 63.5313 72.1921 63.5313 70.5864C63.5313 68.9581 64.6846 67.7368 66.2677 67.7368C67.8282 67.7368 68.9816 68.9581 68.9816 70.5864C68.9816 72.1921 67.8282 73.3907 66.2677 73.3907ZM78.7428 81.3287C82.0898 81.3287 84.2609 79.3838 84.2609 76.6925C84.2609 74.8607 83.3337 73.3907 81.728 72.6444C82.9492 71.9659 83.5825 70.6542 83.5825 69.2747C83.5825 66.7418 81.5697 64.9552 78.7428 64.9552C75.8932 64.9552 73.8805 66.7418 73.8805 69.2747C73.8805 70.6542 74.5137 71.9659 75.7123 72.6444C74.1292 73.3907 73.202 74.8607 73.202 76.6925C73.202 79.3838 75.3731 81.3287 78.7428 81.3287ZM78.7428 71.5588C77.5441 71.5588 76.7074 70.7221 76.7074 69.5235C76.7074 68.3475 77.5441 67.5107 78.7428 67.5107C79.9188 67.5107 80.7555 68.3701 80.7555 69.5461C80.7555 70.7447 79.9188 71.5588 78.7428 71.5588ZM78.7428 78.6375C77.2275 78.6375 76.142 77.6424 76.142 76.2628C76.142 74.8833 77.2275 73.8882 78.7428 73.8882C80.258 73.8882 81.3209 74.8833 81.3209 76.2628C81.3209 77.6424 80.258 78.6375 78.7428 78.6375ZM90.3222 81.3287C93.918 81.3287 96.3153 79.1802 96.3153 76.0367C96.3153 73.3002 94.5513 71.491 92.2219 71.3553L96.0665 66.9679V65.2039H86.0253V67.8725H91.7922L88.4677 71.7398V73.5038C88.8974 73.3681 89.5533 73.2776 90.1186 73.2776C92.0636 73.2776 93.2396 74.2727 93.2396 75.9236C93.2396 77.5293 92.0636 78.5696 90.277 78.5696C88.9879 78.5696 87.7666 77.9816 87.1786 77.077L85.1433 79.0898C86.3645 80.5372 88.1737 81.3287 90.3222 81.3287ZM97.8619 83.7938L99.3998 84.6079L101.141 81.3965C101.639 80.4919 101.774 79.9492 101.774 79.5195C101.774 78.4339 100.892 77.5745 99.8973 77.5745C98.8118 77.5745 97.9976 78.4565 97.9976 79.5195C97.9976 80.3788 98.5856 81.0573 99.2415 81.2156L97.8619 83.7938ZM103.499 81.1025H114.626V78.4339H108.249L111.731 74.8833C113.631 72.9384 114.287 71.7624 114.287 69.7948C114.287 66.9001 112.252 64.9552 109.131 64.9552C106.666 64.9552 104.788 66.0633 103.522 68.2118L105.625 69.9984C106.552 68.4379 107.57 67.7368 108.972 67.7368C110.329 67.7368 111.279 68.551 111.279 69.8627C111.279 70.8804 110.759 71.7398 109.492 73.0741L103.499 79.3385V81.1025ZM121.043 81.3287C124.639 81.3287 127.036 79.1802 127.036 76.0367C127.036 73.3002 125.272 71.491 122.943 71.3553L126.787 66.9679V65.2039H116.746V67.8725H122.513L119.188 71.7398V73.5038C119.618 73.3681 120.274 73.2776 120.839 73.2776C122.784 73.2776 123.96 74.2727 123.96 75.9236C123.96 77.5293 122.784 78.5696 120.998 78.5696C119.709 78.5696 118.487 77.9816 117.899 77.077L115.864 79.0898C117.085 80.5372 118.894 81.3287 121.043 81.3287ZM128.434 81.1025H139.56V78.4339H133.183L136.666 74.8833C138.565 72.9384 139.221 71.7624 139.221 69.7948C139.221 66.9001 137.186 64.9552 134.065 64.9552C131.6 64.9552 129.723 66.0633 128.456 68.2118L130.56 69.9984C131.487 68.4379 132.504 67.7368 133.907 67.7368C135.264 67.7368 136.213 68.551 136.213 69.8627C136.213 70.8804 135.693 71.7398 134.427 73.0741L128.434 79.3385V81.1025ZM143.693 81.3287C144.756 81.3287 145.525 80.5145 145.525 79.4516C145.525 78.3887 144.756 77.5745 143.693 77.5745C142.608 77.5745 141.839 78.3887 141.839 79.4516C141.839 80.5145 142.608 81.3287 143.693 81.3287ZM147.604 81.1025H158.731V78.4339H152.353L155.836 74.8833C157.735 72.9384 158.391 71.7624 158.391 69.7948C158.391 66.9001 156.356 64.9552 153.235 64.9552C150.77 64.9552 148.893 66.0633 147.626 68.2118L149.73 69.9984C150.657 68.4379 151.675 67.7368 153.077 67.7368C154.434 67.7368 155.383 68.551 155.383 69.8627C155.383 70.8804 154.863 71.7398 153.597 73.0741L147.604 79.3385V81.1025ZM163.157 81.1025H166.188V65.2039H160.036V67.8725H163.157V81.1025Z" fill="#27326F"/>
<g filter="url(#filter1_d_120_294)">
<rect x="183" y="150" width="160" height="109" rx="7.89144" fill="white"/>
<rect x="183.45" y="150.45" width="159.1" height="108.1" rx="7.44144" stroke="#E1EDED" stroke-width="0.9"/>
</g>
<path d="M199.984 174H205.216V172.968H201.112V165.672H199.984V174ZM207.325 167.16C207.721 167.16 208.009 166.86 208.009 166.464C208.009 166.08 207.721 165.78 207.325 165.78C206.929 165.78 206.641 166.08 206.641 166.464C206.641 166.86 206.929 167.16 207.325 167.16ZM206.785 174H207.865V168.3H206.785V174ZM212.253 174.12C213.057 174.12 213.729 173.784 214.149 173.232V176.388H215.229V168.3H214.149V169.08C213.729 168.516 213.045 168.18 212.241 168.18C210.669 168.18 209.457 169.488 209.457 171.156C209.457 172.824 210.669 174.12 212.253 174.12ZM212.421 173.1C211.341 173.1 210.573 172.284 210.573 171.144C210.573 170.004 211.341 169.2 212.421 169.2C213.489 169.2 214.209 169.992 214.209 171.156C214.209 172.308 213.489 173.1 212.421 173.1ZM219.477 174.12C220.917 174.12 221.913 173.1 221.913 171.612V168.3H220.833V171.564C220.833 172.512 220.329 173.076 219.477 173.076C218.625 173.076 218.109 172.5 218.109 171.564V168.3H217.029V171.612C217.029 173.088 218.037 174.12 219.477 174.12ZM224.272 167.16C224.668 167.16 224.956 166.86 224.956 166.464C224.956 166.08 224.668 165.78 224.272 165.78C223.876 165.78 223.588 166.08 223.588 166.464C223.588 166.86 223.876 167.16 224.272 167.16ZM223.732 174H224.812V168.3H223.732V174ZM229.176 174.12C229.98 174.12 230.676 173.784 231.084 173.22V174H232.176V165.432H231.084V169.092C230.664 168.528 229.98 168.18 229.164 168.18C227.604 168.18 226.404 169.476 226.404 171.156C226.404 172.824 227.604 174.12 229.176 174.12ZM229.356 173.1C228.276 173.1 227.52 172.296 227.52 171.144C227.52 170.004 228.276 169.2 229.344 169.2C230.424 169.2 231.156 170.004 231.156 171.156C231.156 172.296 230.424 173.1 229.356 173.1ZM234.66 167.16C235.056 167.16 235.344 166.86 235.344 166.464C235.344 166.08 235.056 165.78 234.66 165.78C234.264 165.78 233.976 166.08 233.976 166.464C233.976 166.86 234.264 167.16 234.66 167.16ZM234.12 174H235.2V168.3H234.12V174ZM238.028 174H239.108V169.284H240.512V168.3H239.108V165.912H238.028V168.3H236.624V169.284H238.028V174ZM242.17 176.388H243.37L244.45 174.048L247.114 168.3H245.914L244.174 172.344L242.53 168.3H241.33L243.574 173.508L242.17 176.388ZM252.126 174H253.206V169.284H255.018V168.3H253.206V167.448C253.206 166.74 253.602 166.32 254.286 166.32C254.646 166.32 254.886 166.452 255.102 166.668L255.81 165.972C255.402 165.552 254.946 165.312 254.298 165.312C253.014 165.312 252.126 166.188 252.126 167.448V168.3H250.722V169.284H252.126V174ZM258.559 174.12C259.375 174.12 260.047 173.784 260.455 173.232V174H261.547V168.3H260.455V169.08C260.047 168.516 259.363 168.18 258.559 168.18C256.987 168.18 255.775 169.488 255.775 171.156C255.775 172.824 256.987 174.12 258.559 174.12ZM258.739 173.1C257.659 173.1 256.891 172.284 256.891 171.144C256.891 170.004 257.647 169.2 258.727 169.2C259.807 169.2 260.527 169.992 260.527 171.156C260.527 172.308 259.807 173.1 258.739 173.1ZM263.479 174H264.559V170.748C264.559 169.716 265.123 169.2 265.927 169.2C266.299 169.2 266.575 169.308 266.827 169.56L267.535 168.828C267.139 168.372 266.683 168.18 266.107 168.18C265.411 168.18 264.883 168.468 264.559 168.972V168.3H263.479V174ZM268.679 174H269.759V170.544C269.759 169.704 270.383 169.188 271.163 169.188C271.955 169.188 272.531 169.704 272.531 170.556V174H273.611V170.544C273.611 169.704 274.235 169.188 275.027 169.188C275.807 169.188 276.383 169.704 276.383 170.556V174H277.475V170.34C277.475 169.008 276.503 168.18 275.279 168.18C274.463 168.18 273.743 168.564 273.347 169.212C272.975 168.564 272.291 168.18 271.475 168.18C270.767 168.18 270.155 168.468 269.759 168.96V168.3H268.679V174ZM279.857 167.16C280.253 167.16 280.541 166.86 280.541 166.464C280.541 166.08 280.253 165.78 279.857 165.78C279.461 165.78 279.173 166.08 279.173 166.464C279.173 166.86 279.461 167.16 279.857 167.16ZM279.317 174H280.397V168.3H279.317V174ZM282.348 174H283.428V170.676C283.428 169.812 284.052 169.188 284.916 169.188C285.78 169.188 286.38 169.8 286.38 170.676V174H287.46V170.46C287.46 169.272 286.536 168.18 285.228 168.18C284.472 168.18 283.836 168.504 283.428 169.044V168.3H282.348V174ZM291.646 173.904C292.474 173.904 293.146 173.58 293.566 173.016V173.772C293.566 174.828 292.834 175.476 291.67 175.476C290.794 175.476 290.158 175.152 289.702 174.564L289.006 175.272C289.558 176.064 290.47 176.508 291.646 176.508C293.434 176.508 294.646 175.416 294.646 173.772V168.3H293.566V169.068C293.146 168.504 292.474 168.18 291.634 168.18C290.086 168.18 288.91 169.416 288.91 171.036C288.91 172.68 290.086 173.904 291.646 173.904ZM291.862 172.884C290.782 172.884 290.026 172.128 290.026 171.036C290.026 169.956 290.77 169.2 291.85 169.2C292.918 169.2 293.626 169.944 293.626 171.048C293.626 172.152 292.918 172.884 291.862 172.884Z" fill="#4F4F4F"/>
<path d="M199.501 207H203.057L204.309 203.719H211.547L212.799 207H216.43L209.368 189.394H206.588L199.501 207ZM205.411 200.864L207.966 194.203L210.47 200.864H205.411ZM218.51 207H221.916V200.464H225.447C228.803 200.464 231.357 198.31 231.357 194.929C231.357 191.548 228.803 189.394 225.447 189.394H218.51V207ZM225.096 192.174C226.724 192.174 227.951 193.226 227.951 194.929C227.951 196.657 226.724 197.684 225.096 197.684H221.916V192.174H225.096ZM233.771 207H237.176V199.637H237.752L243.387 207H247.519L241.634 199.587C244.514 199.211 246.367 197.308 246.367 194.528C246.367 191.548 244.063 189.394 240.657 189.394H233.771V207ZM240.357 192.174C242.035 192.174 242.987 193.226 242.987 194.578C242.987 196.081 242.035 196.983 240.357 196.983H237.176V192.174H240.357ZM251.492 199.687C252.695 199.687 253.546 198.786 253.546 197.609C253.546 196.432 252.695 195.53 251.492 195.53C250.29 195.53 249.439 196.432 249.439 197.609C249.439 198.786 250.29 199.687 251.492 199.687ZM251.492 207.25C252.695 207.25 253.546 206.349 253.546 205.172C253.546 203.995 252.695 203.093 251.492 203.093C250.29 203.093 249.439 203.995 249.439 205.172C249.439 206.349 250.29 207.25 251.492 207.25ZM266.883 207.25C270.59 207.25 272.994 205.097 272.994 202.117C272.994 200.088 271.967 198.46 270.189 197.634C271.541 196.882 272.243 195.43 272.243 193.902C272.243 191.097 270.014 189.119 266.883 189.119C263.728 189.119 261.499 191.097 261.499 193.902C261.499 195.43 262.2 196.882 263.527 197.634C261.774 198.46 260.748 200.088 260.748 202.117C260.748 205.097 263.152 207.25 266.883 207.25ZM266.883 196.432C265.556 196.432 264.629 195.505 264.629 194.178C264.629 192.875 265.556 191.949 266.883 191.949C268.186 191.949 269.112 192.901 269.112 194.203C269.112 195.53 268.186 196.432 266.883 196.432ZM266.883 204.27C265.205 204.27 264.003 203.168 264.003 201.641C264.003 200.113 265.205 199.011 266.883 199.011C268.561 199.011 269.738 200.113 269.738 201.641C269.738 203.168 268.561 204.27 266.883 204.27ZM277.519 207.25C278.696 207.25 279.547 206.349 279.547 205.172C279.547 203.995 278.696 203.093 277.519 203.093C276.317 203.093 275.465 203.995 275.465 205.172C275.465 206.349 276.317 207.25 277.519 207.25ZM287.773 207.25C291.354 207.25 294.159 204.521 294.159 201.065C294.159 197.709 291.604 195.33 288.474 195.33C288.098 195.33 287.773 195.355 287.497 195.405L291.805 189.394H287.898L283.014 196.457C281.912 198.059 281.412 199.537 281.412 201.14C281.412 204.571 284.166 207.25 287.773 207.25ZM287.773 204.195C286.02 204.195 284.742 202.843 284.742 201.04C284.742 199.262 286.02 197.909 287.773 197.909C289.501 197.909 290.803 199.237 290.803 201.04C290.803 202.843 289.501 204.195 287.773 204.195ZM299.427 196.382C301.505 196.382 303.083 194.779 303.083 192.75C303.083 190.722 301.48 189.144 299.427 189.144C297.398 189.144 295.821 190.722 295.821 192.75C295.821 194.779 297.423 196.382 299.427 196.382ZM296.296 207H299.402L310.321 189.394H307.215L296.296 207ZM299.452 194.002C298.726 194.002 298.25 193.502 298.25 192.75C298.25 192.024 298.726 191.498 299.452 191.498C300.153 191.498 300.654 192.024 300.654 192.75C300.654 193.502 300.178 194.002 299.452 194.002ZM307.14 207.25C309.219 207.25 310.797 205.673 310.797 203.619C310.797 201.591 309.194 200.013 307.14 200.013C305.087 200.013 303.509 201.591 303.509 203.619C303.509 205.673 305.112 207.25 307.14 207.25ZM307.14 204.871C306.439 204.871 305.938 204.345 305.938 203.619C305.938 202.918 306.439 202.392 307.14 202.392C307.841 202.392 308.392 202.918 308.392 203.619C308.392 204.345 307.867 204.871 307.14 204.871Z" fill="#27326F"/>
<rect x="199" y="222" width="57" height="23" rx="11.5" fill="#74FFC5"/>
<path d="M212.366 236.602V230.705H213.705V236.602H212.366ZM210.087 234.322V232.984H215.984V234.322H210.087ZM221.076 238.166C220.374 238.166 219.772 237.989 219.269 237.634C218.769 237.276 218.384 236.76 218.114 236.087C217.847 235.411 217.713 234.597 217.713 233.645C217.716 232.693 217.851 231.884 218.118 231.216C218.388 230.545 218.773 230.034 219.273 229.682C219.776 229.33 220.377 229.153 221.076 229.153C221.775 229.153 222.375 229.33 222.878 229.682C223.381 230.034 223.766 230.545 224.033 231.216C224.303 231.886 224.438 232.696 224.438 233.645C224.438 234.599 224.303 235.415 224.033 236.091C223.766 236.764 223.381 237.278 222.878 237.634C222.378 237.989 221.777 238.166 221.076 238.166ZM221.076 236.832C221.621 236.832 222.051 236.564 222.367 236.027C222.685 235.487 222.844 234.693 222.844 233.645C222.844 232.952 222.772 232.369 222.627 231.898C222.482 231.426 222.277 231.071 222.013 230.832C221.749 230.591 221.436 230.47 221.076 230.47C220.533 230.47 220.104 230.74 219.789 231.28C219.473 231.817 219.314 232.605 219.311 233.645C219.309 234.341 219.378 234.926 219.52 235.401C219.665 235.875 219.87 236.233 220.134 236.474C220.398 236.713 220.712 236.832 221.076 236.832ZM226.481 238.094C226.223 238.094 226.001 238.003 225.816 237.821C225.632 237.639 225.541 237.418 225.544 237.156C225.541 236.901 225.632 236.682 225.816 236.5C226.001 236.318 226.223 236.227 226.481 236.227C226.731 236.227 226.949 236.318 227.133 236.5C227.321 236.682 227.416 236.901 227.419 237.156C227.416 237.33 227.37 237.487 227.282 237.629C227.197 237.771 227.083 237.885 226.941 237.97C226.802 238.053 226.649 238.094 226.481 238.094ZM231.895 229.153C232.313 229.156 232.719 229.23 233.114 229.375C233.512 229.517 233.87 229.75 234.188 230.074C234.506 230.395 234.759 230.825 234.946 231.365C235.134 231.905 235.228 232.572 235.228 233.368C235.23 234.118 235.151 234.788 234.989 235.379C234.83 235.967 234.601 236.464 234.303 236.871C234.005 237.277 233.645 237.587 233.225 237.8C232.804 238.013 232.331 238.119 231.806 238.119C231.255 238.119 230.766 238.011 230.34 237.795C229.917 237.58 229.574 237.284 229.313 236.909C229.051 236.534 228.891 236.105 228.831 235.622H230.387C230.466 235.969 230.628 236.244 230.873 236.449C231.12 236.651 231.431 236.751 231.806 236.751C232.411 236.751 232.877 236.489 233.203 235.963C233.53 235.437 233.694 234.707 233.694 233.773H233.634C233.495 234.023 233.314 234.239 233.093 234.42C232.871 234.599 232.62 234.737 232.338 234.834C232.06 234.93 231.765 234.979 231.452 234.979C230.941 234.979 230.48 234.857 230.071 234.612C229.665 234.368 229.343 234.033 229.104 233.607C228.868 233.18 228.749 232.693 228.746 232.145C228.746 231.577 228.877 231.067 229.138 230.615C229.402 230.161 229.77 229.803 230.242 229.541C230.713 229.277 231.265 229.148 231.895 229.153ZM231.9 230.432C231.593 230.432 231.316 230.507 231.069 230.658C230.824 230.805 230.631 231.007 230.489 231.263C230.35 231.516 230.28 231.798 230.28 232.111C230.283 232.42 230.353 232.702 230.489 232.955C230.628 233.207 230.817 233.408 231.056 233.555C231.297 233.703 231.573 233.777 231.882 233.777C232.113 233.777 232.327 233.733 232.526 233.645C232.725 233.557 232.898 233.435 233.046 233.278C233.196 233.119 233.313 232.939 233.395 232.737C233.48 232.536 233.522 232.322 233.519 232.098C233.519 231.8 233.448 231.524 233.306 231.271C233.167 231.018 232.975 230.815 232.73 230.662C232.489 230.509 232.212 230.432 231.9 230.432ZM241.313 236.364V235.903C241.313 235.565 241.384 235.254 241.526 234.97C241.671 234.686 241.881 234.457 242.157 234.284C242.432 234.111 242.766 234.024 243.158 234.024C243.561 234.024 243.9 234.111 244.172 234.284C244.445 234.455 244.651 234.682 244.79 234.966C244.932 235.25 245.003 235.562 245.003 235.903V236.364C245.003 236.702 244.932 237.013 244.79 237.297C244.648 237.581 244.439 237.81 244.164 237.983C243.891 238.156 243.556 238.243 243.158 238.243C242.76 238.243 242.424 238.156 242.148 237.983C241.873 237.81 241.664 237.581 241.522 237.297C241.382 237.013 241.313 236.702 241.313 236.364ZM242.425 235.903V236.364C242.425 236.588 242.479 236.794 242.587 236.982C242.695 237.169 242.885 237.263 243.158 237.263C243.434 237.263 243.623 237.17 243.725 236.986C243.83 236.798 243.882 236.591 243.882 236.364V235.903C243.882 235.676 243.833 235.469 243.733 235.281C243.634 235.091 243.442 234.996 243.158 234.996C242.891 234.996 242.702 235.091 242.591 235.281C242.48 235.469 242.425 235.676 242.425 235.903ZM236.877 231.369V230.909C236.877 230.568 236.949 230.256 237.094 229.972C237.239 229.687 237.449 229.46 237.725 229.29C238 229.116 238.334 229.03 238.726 229.03C239.127 229.03 239.463 229.116 239.736 229.29C240.012 229.46 240.219 229.687 240.358 229.972C240.498 230.256 240.567 230.568 240.567 230.909V231.369C240.567 231.71 240.496 232.023 240.354 232.307C240.215 232.588 240.007 232.814 239.732 232.984C239.456 233.155 239.121 233.24 238.726 233.24C238.326 233.24 237.988 233.155 237.712 232.984C237.439 232.814 237.232 232.587 237.09 232.303C236.948 232.018 236.877 231.707 236.877 231.369ZM237.998 230.909V231.369C237.998 231.597 238.05 231.804 238.155 231.991C238.263 232.176 238.453 232.268 238.726 232.268C238.999 232.268 239.186 232.176 239.289 231.991C239.394 231.804 239.446 231.597 239.446 231.369V230.909C239.446 230.682 239.397 230.474 239.297 230.287C239.198 230.097 239.007 230.001 238.726 230.001C238.456 230.001 238.267 230.097 238.159 230.287C238.051 230.477 237.998 230.685 237.998 230.909ZM237.363 238L243.363 229.273H244.428L238.428 238H237.363Z" fill="#27326F"/>
<g filter="url(#filter2_d_120_294)">
<rect x="290" y="28" width="127" height="101" rx="7.89144" fill="white"/>
<rect x="290.45" y="28.45" width="126.1" height="100.1" rx="7.44144" stroke="#E1EDED" stroke-width="0.9"/>
</g>
<path d="M309.3 52.12C311.028 52.12 312.12 51.244 312.12 49.768C312.12 46.684 308.052 47.68 308.052 45.724C308.052 45.016 308.616 44.608 309.516 44.608C310.26 44.608 310.8 44.896 311.292 45.472L312.06 44.704C311.508 44.02 310.632 43.552 309.54 43.552C308.052 43.552 306.924 44.392 306.924 45.796C306.924 48.772 310.98 47.704 310.98 49.852C310.98 50.608 310.32 51.064 309.336 51.064C308.328 51.064 307.68 50.68 307.152 49.948L306.384 50.716C307.092 51.628 307.98 52.12 309.3 52.12ZM314.684 52H315.764V47.284H317.168V46.3H315.764V43.912H314.684V46.3H313.28V47.284H314.684V52ZM320.834 52.12C321.65 52.12 322.322 51.784 322.73 51.232V52H323.822V46.3H322.73V47.08C322.322 46.516 321.638 46.18 320.834 46.18C319.262 46.18 318.05 47.488 318.05 49.156C318.05 50.824 319.262 52.12 320.834 52.12ZM321.014 51.1C319.934 51.1 319.166 50.284 319.166 49.144C319.166 48.004 319.922 47.2 321.002 47.2C322.082 47.2 322.802 47.992 322.802 49.156C322.802 50.308 322.082 51.1 321.014 51.1ZM325.755 52H326.835V49.18L329.403 52H330.795L328.059 49.036L330.687 46.3H329.379L326.835 48.988V43.432H325.755V52ZM332.432 45.16C332.828 45.16 333.116 44.86 333.116 44.464C333.116 44.08 332.828 43.78 332.432 43.78C332.036 43.78 331.748 44.08 331.748 44.464C331.748 44.86 332.036 45.16 332.432 45.16ZM331.892 52H332.972V46.3H331.892V52ZM334.924 52H336.004V48.676C336.004 47.812 336.628 47.188 337.492 47.188C338.356 47.188 338.956 47.8 338.956 48.676V52H340.036V48.46C340.036 47.272 339.112 46.18 337.804 46.18C337.048 46.18 336.412 46.504 336.004 47.044V46.3H334.924V52ZM344.222 51.904C345.05 51.904 345.722 51.58 346.142 51.016V51.772C346.142 52.828 345.41 53.476 344.246 53.476C343.37 53.476 342.734 53.152 342.278 52.564L341.582 53.272C342.134 54.064 343.046 54.508 344.222 54.508C346.01 54.508 347.222 53.416 347.222 51.772V46.3H346.142V47.068C345.722 46.504 345.05 46.18 344.21 46.18C342.662 46.18 341.486 47.416 341.486 49.036C341.486 50.68 342.662 51.904 344.222 51.904ZM344.438 50.884C343.358 50.884 342.602 50.128 342.602 49.036C342.602 47.956 343.346 47.2 344.426 47.2C345.494 47.2 346.202 47.944 346.202 49.048C346.202 50.152 345.494 50.884 344.438 50.884Z" fill="#4F4F4F"/>
<path d="M306.4 80H309.24L310.24 77.38H316.02L317.02 80H319.92L314.28 65.94H312.06L306.4 80ZM311.12 75.1L313.16 69.78L315.16 75.1H311.12ZM321.581 80H324.301V74.78H327.121C329.801 74.78 331.841 73.06 331.841 70.36C331.841 67.66 329.801 65.94 327.121 65.94H321.581V80ZM326.841 68.16C328.141 68.16 329.121 69 329.121 70.36C329.121 71.74 328.141 72.56 326.841 72.56H324.301V68.16H326.841ZM333.768 80H336.488V74.12H336.948L341.448 80H344.748L340.048 74.08C342.348 73.78 343.828 72.26 343.828 70.04C343.828 67.66 341.988 65.94 339.268 65.94H333.768V80ZM339.028 68.16C340.368 68.16 341.128 69 341.128 70.08C341.128 71.28 340.368 72 339.028 72H336.488V68.16H339.028ZM347.921 74.16C348.881 74.16 349.561 73.44 349.561 72.5C349.561 71.56 348.881 70.84 347.921 70.84C346.961 70.84 346.281 71.56 346.281 72.5C346.281 73.44 346.961 74.16 347.921 74.16ZM347.921 80.2C348.881 80.2 349.561 79.48 349.561 78.54C349.561 77.6 348.881 76.88 347.921 76.88C346.961 76.88 346.281 77.6 346.281 78.54C346.281 79.48 346.961 80.2 347.921 80.2ZM357.872 80H360.552V65.94H355.112V68.3H357.872V80ZM362.516 80H372.356V77.64H366.716L369.796 74.5C371.476 72.78 372.056 71.74 372.056 70C372.056 67.44 370.256 65.72 367.496 65.72C365.316 65.72 363.656 66.7 362.536 68.6L364.396 70.18C365.216 68.8 366.116 68.18 367.356 68.18C368.556 68.18 369.396 68.9 369.396 70.06C369.396 70.96 368.936 71.72 367.816 72.9L362.516 78.44V80ZM376.011 80.2C376.951 80.2 377.631 79.48 377.631 78.54C377.631 77.6 376.951 76.88 376.011 76.88C375.051 76.88 374.371 77.6 374.371 78.54C374.371 79.48 375.051 80.2 376.011 80.2ZM384.2 80.2C387.06 80.2 389.3 78.02 389.3 75.26C389.3 72.58 387.26 70.68 384.76 70.68C384.46 70.68 384.2 70.7 383.98 70.74L387.42 65.94H384.3L380.4 71.58C379.52 72.86 379.12 74.04 379.12 75.32C379.12 78.06 381.32 80.2 384.2 80.2ZM384.2 77.76C382.8 77.76 381.78 76.68 381.78 75.24C381.78 73.82 382.8 72.74 384.2 72.74C385.58 72.74 386.62 73.8 386.62 75.24C386.62 76.68 385.58 77.76 384.2 77.76ZM393.507 71.52C395.167 71.52 396.427 70.24 396.427 68.62C396.427 67 395.147 65.74 393.507 65.74C391.887 65.74 390.627 67 390.627 68.62C390.627 70.24 391.907 71.52 393.507 71.52ZM391.007 80H393.487L402.207 65.94H399.727L391.007 80ZM393.527 69.62C392.947 69.62 392.567 69.22 392.567 68.62C392.567 68.04 392.947 67.62 393.527 67.62C394.087 67.62 394.487 68.04 394.487 68.62C394.487 69.22 394.107 69.62 393.527 69.62ZM399.667 80.2C401.327 80.2 402.587 78.94 402.587 77.3C402.587 75.68 401.307 74.42 399.667 74.42C398.027 74.42 396.767 75.68 396.767 77.3C396.767 78.94 398.047 80.2 399.667 80.2ZM399.667 78.3C399.107 78.3 398.707 77.88 398.707 77.3C398.707 76.74 399.107 76.32 399.667 76.32C400.227 76.32 400.667 76.74 400.667 77.3C400.667 77.88 400.247 78.3 399.667 78.3Z" fill="#27326F"/>
<rect x="306" y="94" width="64" height="23" rx="11.5" fill="#74FFC5"/>
<path d="M319.366 108.602V102.705H320.705V108.602H319.366ZM317.087 106.322V104.984H322.984V106.322H317.087ZM324.545 110V108.858L327.575 105.888C327.865 105.595 328.106 105.335 328.299 105.108C328.493 104.881 328.637 104.661 328.734 104.447C328.831 104.234 328.879 104.007 328.879 103.766C328.879 103.49 328.816 103.254 328.691 103.058C328.566 102.859 328.395 102.706 328.176 102.598C327.957 102.49 327.708 102.436 327.43 102.436C327.143 102.436 326.892 102.496 326.676 102.615C326.46 102.732 326.292 102.898 326.173 103.114C326.056 103.33 325.998 103.587 325.998 103.885H324.494C324.494 103.331 324.62 102.849 324.873 102.44C325.126 102.031 325.474 101.714 325.917 101.49C326.363 101.266 326.875 101.153 327.451 101.153C328.037 101.153 328.551 101.263 328.994 101.482C329.437 101.7 329.781 102 330.025 102.381C330.272 102.761 330.396 103.196 330.396 103.685C330.396 104.011 330.333 104.332 330.208 104.648C330.083 104.963 329.863 105.312 329.548 105.696C329.235 106.08 328.797 106.544 328.231 107.089L326.727 108.619V108.679H330.528V110H324.545ZM332.966 110.094C332.707 110.094 332.485 110.003 332.301 109.821C332.116 109.639 332.025 109.418 332.028 109.156C332.025 108.901 332.116 108.682 332.301 108.5C332.485 108.318 332.707 108.227 332.966 108.227C333.216 108.227 333.433 108.318 333.618 108.5C333.805 108.682 333.9 108.901 333.903 109.156C333.9 109.33 333.855 109.487 333.767 109.629C333.681 109.771 333.568 109.885 333.426 109.97C333.287 110.053 333.133 110.094 332.966 110.094ZM338.318 110.119C337.704 110.119 337.159 110.014 336.681 109.804C336.207 109.594 335.832 109.301 335.556 108.926C335.281 108.551 335.135 108.118 335.118 107.626H336.72C336.734 107.862 336.812 108.068 336.954 108.244C337.096 108.418 337.285 108.553 337.521 108.649C337.757 108.746 338.021 108.794 338.314 108.794C338.626 108.794 338.903 108.74 339.145 108.632C339.386 108.521 339.575 108.368 339.711 108.172C339.848 107.976 339.914 107.75 339.912 107.494C339.914 107.23 339.846 106.997 339.707 106.795C339.568 106.594 339.366 106.436 339.102 106.322C338.841 106.209 338.525 106.152 338.156 106.152H337.385V104.933H338.156C338.46 104.933 338.725 104.881 338.953 104.776C339.183 104.67 339.363 104.523 339.494 104.332C339.625 104.139 339.689 103.916 339.686 103.663C339.689 103.416 339.633 103.202 339.52 103.02C339.409 102.835 339.251 102.692 339.047 102.589C338.845 102.487 338.608 102.436 338.335 102.436C338.068 102.436 337.821 102.484 337.593 102.581C337.366 102.678 337.183 102.815 337.044 102.994C336.904 103.17 336.831 103.381 336.822 103.625H335.301C335.312 103.136 335.453 102.707 335.723 102.338C335.995 101.966 336.359 101.676 336.814 101.469C337.268 101.259 337.778 101.153 338.343 101.153C338.926 101.153 339.431 101.263 339.86 101.482C340.292 101.697 340.626 101.989 340.862 102.355C341.098 102.722 341.216 103.126 341.216 103.57C341.218 104.061 341.074 104.473 340.781 104.805C340.491 105.138 340.11 105.355 339.639 105.457V105.526C340.252 105.611 340.723 105.838 341.049 106.207C341.379 106.574 341.542 107.03 341.539 107.575C341.539 108.064 341.4 108.501 341.122 108.888C340.846 109.271 340.466 109.572 339.98 109.791C339.497 110.01 338.943 110.119 338.318 110.119ZM343.002 110V108.858L346.032 105.888C346.322 105.595 346.563 105.335 346.756 105.108C346.95 104.881 347.094 104.661 347.191 104.447C347.288 104.234 347.336 104.007 347.336 103.766C347.336 103.49 347.273 103.254 347.148 103.058C347.023 102.859 346.852 102.706 346.633 102.598C346.414 102.49 346.165 102.436 345.887 102.436C345.6 102.436 345.349 102.496 345.133 102.615C344.917 102.732 344.749 102.898 344.63 103.114C344.513 103.33 344.455 103.587 344.455 103.885H342.951C342.951 103.331 343.077 102.849 343.33 102.44C343.583 102.031 343.931 101.714 344.374 101.49C344.82 101.266 345.332 101.153 345.908 101.153C346.494 101.153 347.008 101.263 347.451 101.482C347.894 101.7 348.238 102 348.482 102.381C348.729 102.761 348.853 103.196 348.853 103.685C348.853 104.011 348.79 104.332 348.665 104.648C348.54 104.963 348.32 105.312 348.005 105.696C347.692 106.08 347.254 106.544 346.688 107.089L345.184 108.619V108.679H348.985V110H343.002ZM355.121 108.364V107.903C355.121 107.565 355.192 107.254 355.335 106.97C355.479 106.686 355.69 106.457 355.965 106.284C356.241 106.111 356.575 106.024 356.967 106.024C357.37 106.024 357.708 106.111 357.981 106.284C358.254 106.455 358.46 106.682 358.599 106.966C358.741 107.25 358.812 107.562 358.812 107.903V108.364C358.812 108.702 358.741 109.013 358.599 109.297C358.457 109.581 358.248 109.81 357.972 109.983C357.7 110.156 357.364 110.243 356.967 110.243C356.569 110.243 356.232 110.156 355.957 109.983C355.681 109.81 355.472 109.581 355.33 109.297C355.191 109.013 355.121 108.702 355.121 108.364ZM356.234 107.903V108.364C356.234 108.588 356.288 108.794 356.396 108.982C356.504 109.169 356.694 109.263 356.967 109.263C357.242 109.263 357.431 109.17 357.533 108.986C357.638 108.798 357.691 108.591 357.691 108.364V107.903C357.691 107.676 357.641 107.469 357.542 107.281C357.442 107.091 357.251 106.996 356.967 106.996C356.7 106.996 356.511 107.091 356.4 107.281C356.289 107.469 356.234 107.676 356.234 107.903ZM350.685 103.369V102.909C350.685 102.568 350.758 102.256 350.903 101.972C351.048 101.687 351.258 101.46 351.533 101.29C351.809 101.116 352.143 101.03 352.535 101.03C352.935 101.03 353.272 101.116 353.545 101.29C353.82 101.46 354.028 101.687 354.167 101.972C354.306 102.256 354.376 102.568 354.376 102.909V103.369C354.376 103.71 354.305 104.023 354.163 104.307C354.023 104.588 353.816 104.814 353.54 104.984C353.265 105.155 352.93 105.24 352.535 105.24C352.134 105.24 351.796 105.155 351.521 104.984C351.248 104.814 351.04 104.587 350.898 104.303C350.756 104.018 350.685 103.707 350.685 103.369ZM351.806 102.909V103.369C351.806 103.597 351.859 103.804 351.964 103.991C352.072 104.176 352.262 104.268 352.535 104.268C352.808 104.268 352.995 104.176 353.097 103.991C353.202 103.804 353.255 103.597 353.255 103.369V102.909C353.255 102.682 353.205 102.474 353.106 102.287C353.006 102.097 352.816 102.001 352.535 102.001C352.265 102.001 352.076 102.097 351.968 102.287C351.86 102.477 351.806 102.685 351.806 102.909ZM351.171 110L357.171 101.273H358.237L352.237 110H351.171Z" fill="#27326F"/>
<defs>
<filter id="filter0_d_120_294" x="2.86102e-06" y="2.86102e-06" width="315" height="241" filterUnits="userSpaceOnUse" color-interpolation-filters="sRGB">
<feFlood flood-opacity="0" result="BackgroundImageFix"/>
<feColorMatrix in="SourceAlpha" type="matrix" values="0 0 0 0 0 0 0 0 0 0 0 0 0 0 0 0 0 0 127 0" result="hardAlpha"/>
<feOffset dx="9" dy="9"/>
<feGaussianBlur stdDeviation="18"/>
<feComposite in2="hardAlpha" operator="out"/>
<feColorMatrix type="matrix" values="0 0 0 0 0.133611 0 0 0 0 0.181567 0 0 0 0 0.433333 0 0 0 0.1 0"/>
<feBlend mode="normal" in2="BackgroundImageFix" result="effect1_dropShadow_120_294"/>
<feBlend mode="normal" in="SourceGraphic" in2="effect1_dropShadow_120_294" result="shape"/>
</filter>
<filter id="filter1_d_120_294" x="156" y="123" width="232" height="181" filterUnits="userSpaceOnUse" color-interpolation-filters="sRGB">
<feFlood flood-opacity="0" result="BackgroundImageFix"/>
<feColorMatrix in="SourceAlpha" type="matrix" values="0 0 0 0 0 0 0 0 0 0 0 0 0 0 0 0 0 0 127 0" result="hardAlpha"/>
<feOffset dx="9" dy="9"/>
<feGaussianBlur stdDeviation="18"/>
<feComposite in2="hardAlpha" operator="out"/>
<feColorMatrix type="matrix" values="0 0 0 0 0.133611 0 0 0 0 0.181567 0 0 0 0 0.433333 0 0 0 0.1 0"/>
<feBlend mode="normal" in2="BackgroundImageFix" result="effect1_dropShadow_120_294"/>
<feBlend mode="normal" in="SourceGraphic" in2="effect1_dropShadow_120_294" result="shape"/>
</filter>
<filter id="filter2_d_120_294" x="263" y="1" width="199" height="173" filterUnits="userSpaceOnUse" color-interpolation-filters="sRGB">
<feFlood flood-opacity="0" result="BackgroundImageFix"/>
<feColorMatrix in="SourceAlpha" type="matrix" values="0 0 0 0 0 0 0 0 0 0 0 0 0 0 0 0 0 0 127 0" result="hardAlpha"/>
<feOffset dx="9" dy="9"/>
<feGaussianBlur stdDeviation="18"/>
<feComposite in2="hardAlpha" operator="out"/>
<feColorMatrix type="matrix" values="0 0 0 0 0.133611 0 0 0 0 0.181567 0 0 0 0 0.433333 0 0 0 0.1 0"/>
<feBlend mode="normal" in2="BackgroundImageFix" result="effect1_dropShadow_120_294"/>
<feBlend mode="normal" in="SourceGraphic" in2="effect1_dropShadow_120_294" result="shape"/>
</filter>
<linearGradient id="paint0_linear_120_294" x1="187.805" y1="102.531" x2="187.805" y2="173.308" gradientUnits="userSpaceOnUse">
<stop stop-color="#00BB29"/>
<stop offset="1" stop-color="#00BB29" stop-opacity="0"/>
</linearGradient>
<linearGradient id="paint1_linear_120_294" x1="80.7837" y1="172.917" x2="80.7837" y2="146.661" gradientUnits="userSpaceOnUse">
<stop stop-color="#00BB29" stop-opacity="0"/>
<stop offset="1" stop-color="#00BB29"/>
</linearGradient>
<linearGradient id="paint2_linear_120_294" x1="47.5284" y1="180.427" x2="80.213" y2="180.427" gradientUnits="userSpaceOnUse">
<stop stop-color="white"/>
<stop offset="1" stop-color="white" stop-opacity="0"/>
</linearGradient>
</defs>
</svg>
