<svg width="462" height="304" fill="none" xmlns="http://www.w3.org/2000/svg"><g filter="url(#a)"><rect x="27" y="27" width="243" height="169" rx="7.891" fill="#fff"/><rect x="27.45" y="27.45" width="242.1" height="168.1" rx="7.441" stroke="#E1EDED" stroke-width=".9"/></g><path stroke="#F5F5F5" stroke-width=".571" d="M41.4 89.689h188.928M41.4 113.261h214.042M41.4 136.912h214.042M41.4 160.563h214.042"/><mask id="b" style="mask-type:alpha" maskUnits="userSpaceOnUse" x="41" y="98" width="215" height="77"><path fill="#fff" d="M41.4 98.402h214.2V174.6H41.4z"/></mask><g mask="url(#b)"><path opacity=".24" d="M255.442 102.531c-25.685 0-17.98 37.672-36.245 37.672-18.265 0-9.988-13.652-30.251-13.652-5.993 0-12.734-.084-15.982 0-4.566 0 0-13.698-4.764-13.698h-16.64c-20.643 0-3.303 60.455-31.393 60.455h135.275v-70.777Z" fill="url(#c)"/><path d="M120.167 173.308c28.09 0 10.75-60.455 31.393-60.455h16.64c4.764 0 .198 13.698 4.764 13.698 3.248-.084 9.989 0 15.982 0 20.263 0 11.986 13.652 30.251 13.652s10.56-37.672 36.245-37.672" stroke="#00BB29" stroke-width="1.027" stroke-linecap="round"/><path opacity=".24" d="M78.747 146.661c-24.672 0-13.128 26.256-37.347 26.256h78.767c-29.053 0-16.749-26.256-41.42-26.256Z" fill="url(#d)"/><path d="M42.247 173.488c24.218 0 12.675-26.827 37.346-26.827 24.672 0 11.588 26.827 41.421 26.827" stroke="#00BB29" stroke-width="1.027" stroke-linecap="round"/><path fill="url(#e)" d="M41.4 89.403h38.813v172.946H41.4z"/></g><path d="M235.045 92.606a1.84 1.84 0 0 1-.746-.144 1.264 1.264 0 0 1-.517-.399 1.062 1.062 0 0 1-.203-.596h.637a.55.55 0 0 0 .123.32c.076.09.175.158.296.207.122.049.257.073.406.073.163 0 .308-.028.433-.085a.706.706 0 0 0 .298-.237.603.603 0 0 0 .108-.355.635.635 0 0 0-.108-.367.695.695 0 0 0-.31-.251 1.187 1.187 0 0 0-.49-.091h-.351v-.511h.351a.93.93 0 0 0 .405-.083.661.661 0 0 0 .276-.231.622.622 0 0 0 .099-.351.627.627 0 0 0-.087-.334.588.588 0 0 0-.243-.225.79.79 0 0 0-.369-.081.957.957 0 0 0-.379.075.702.702 0 0 0-.284.21.546.546 0 0 0-.118.327h-.606c.007-.225.073-.422.199-.592.127-.17.295-.304.503-.4.208-.096.439-.143.693-.143.266 0 .496.052.689.156.195.102.345.24.45.411.107.172.16.36.158.564a.899.899 0 0 1-.194.591.945.945 0 0 1-.519.327v.032c.275.042.489.152.64.329a.96.96 0 0 1 .227.658c.002.229-.062.433-.19.615a1.3 1.3 0 0 1-.521.427c-.22.103-.473.154-.756.154Zm3.614-4.264c.185 0 .367.035.547.1.18.067.342.175.486.325.146.15.263.353.349.608.088.254.132.57.134.949 0 .363-.037.687-.11.97a2.18 2.18 0 0 1-.314.716 1.374 1.374 0 0 1-.492.444 1.387 1.387 0 0 1-.653.152 1.44 1.44 0 0 1-.659-.146 1.251 1.251 0 0 1-.468-.403 1.34 1.34 0 0 1-.225-.596h.618a.8.8 0 0 0 .248.434.71.71 0 0 0 .486.164.801.801 0 0 0 .711-.397c.171-.267.257-.638.258-1.115h-.033a1.182 1.182 0 0 1-.614.495 1.23 1.23 0 0 1-.415.068c-.239 0-.457-.058-.653-.176a1.298 1.298 0 0 1-.468-.484 1.405 1.405 0 0 1-.174-.704c0-.262.059-.5.178-.713.12-.214.288-.383.503-.507.216-.126.469-.187.76-.184Zm.002.527a.8.8 0 0 0-.428.117.831.831 0 0 0-.298.314.884.884 0 0 0-.109.438c0 .16.035.307.105.438a.84.84 0 0 0 .292.31.801.801 0 0 0 .426.114.806.806 0 0 0 .332-.07.84.84 0 0 0 .27-.19.923.923 0 0 0 .18-.28.86.86 0 0 0-.045-.754.845.845 0 0 0-.296-.316.77.77 0 0 0-.429-.121Zm3.649 3.737c-.291 0-.548-.05-.771-.15a1.257 1.257 0 0 1-.52-.413.995.995 0 0 1-.187-.6 1.074 1.074 0 0 1 .107-.485c.075-.148.175-.272.303-.37a.931.931 0 0 1 .425-.191v-.025a.835.835 0 0 1-.496-.332.97.97 0 0 1-.185-.592.977.977 0 0 1 .168-.567c.115-.168.273-.3.473-.395.2-.097.427-.144.683-.144.252 0 .478.048.677.145.2.096.357.228.472.396a.979.979 0 0 1 .174.565.988.988 0 0 1-.19.592.845.845 0 0 1-.491.332v.025c.156.027.295.09.42.19a1.092 1.092 0 0 1 .415.856 1.018 1.018 0 0 1-.19.6 1.26 1.26 0 0 1-.523.413c-.222.1-.476.15-.764.15Zm0-.513c.171 0 .32-.028.446-.085a.688.688 0 0 0 .291-.24.654.654 0 0 0 .106-.366.676.676 0 0 0-.114-.383.757.757 0 0 0-.298-.261.94.94 0 0 0-.431-.096.961.961 0 0 0-.436.096.756.756 0 0 0-.3.261.672.672 0 0 0-.108.383c-.001.14.032.261.1.365a.69.69 0 0 0 .294.241c.127.057.277.085.45.085Zm0-1.931c.138 0 .26-.028.367-.083a.635.635 0 0 0 .346-.578.637.637 0 0 0-.093-.34.6.6 0 0 0-.249-.225.812.812 0 0 0-.371-.082.83.83 0 0 0-.377.082.596.596 0 0 0-.25.224.634.634 0 0 0-.087.341.645.645 0 0 0 .089.347.63.63 0 0 0 .252.23.805.805 0 0 0 .373.084Zm2.877 1.82-.03.22c-.02.163-.055.332-.103.508a8.576 8.576 0 0 1-.148.492c-.05.151-.092.272-.124.36h-.43l.073-.34c.031-.141.062-.3.091-.476.03-.176.053-.355.067-.537l.021-.227h.583Zm2.143.624a1.84 1.84 0 0 1-.746-.144 1.264 1.264 0 0 1-.517-.399 1.062 1.062 0 0 1-.203-.596h.637a.55.55 0 0 0 .123.32c.076.09.175.158.296.207.122.049.257.073.406.073.163 0 .308-.028.434-.085a.712.712 0 0 0 .298-.237.61.61 0 0 0 .107-.355.641.641 0 0 0-.107-.367.703.703 0 0 0-.311-.251 1.187 1.187 0 0 0-.49-.091h-.351v-.511h.351a.93.93 0 0 0 .405-.083.661.661 0 0 0 .276-.231.622.622 0 0 0 .099-.351.627.627 0 0 0-.087-.334.588.588 0 0 0-.243-.225.79.79 0 0 0-.369-.081.957.957 0 0 0-.379.075.702.702 0 0 0-.284.21.539.539 0 0 0-.117.327h-.606c.006-.225.073-.422.198-.592.127-.17.295-.304.503-.4.208-.096.439-.143.693-.143.266 0 .496.052.689.156.195.102.345.24.45.411.107.172.16.36.158.564a.899.899 0 0 1-.194.591.945.945 0 0 1-.519.327v.032c.275.042.489.152.64.329a.96.96 0 0 1 .227.658c.002.229-.062.433-.19.615a1.3 1.3 0 0 1-.521.427c-.22.103-.472.154-.756.154Zm2.233-.057v-.454l1.405-1.455c.15-.158.274-.296.371-.415.099-.12.172-.235.221-.343a.824.824 0 0 0 .073-.345.64.64 0 0 0-.097-.356.64.64 0 0 0-.266-.233.842.842 0 0 0-.379-.083.795.795 0 0 0-.389.09.62.62 0 0 0-.255.258c-.06.11-.09.24-.09.39h-.598c0-.253.059-.474.175-.663a1.18 1.18 0 0 1 .478-.44c.203-.106.433-.158.691-.158.261 0 .491.052.689.156.2.102.356.243.469.421.112.177.168.377.168.6 0 .154-.029.305-.087.452a1.99 1.99 0 0 1-.298.493c-.142.18-.339.398-.592.654l-.825.864v.03h1.869v.537h-2.733Z" fill="#979EA7"/><rect x="174.45" y="92.95" width="59.416" height="19.849" rx="9.925" fill="#00BB29"/><path d="M184.467 106.482c-.552 0-1.043-.094-1.473-.284a2.455 2.455 0 0 1-1.012-.79 2.043 2.043 0 0 1-.395-1.169h1.442a.957.957 0 0 0 .211.556c.127.156.298.277.51.364.212.087.45.13.713.13.281 0 .531-.048.748-.145.217-.1.387-.238.51-.415.123-.176.183-.379.18-.609a1.057 1.057 0 0 0-.184-.629 1.228 1.228 0 0 0-.544-.426 2.138 2.138 0 0 0-.852-.153h-.694v-1.097h.694c.274 0 .513-.048.717-.142.207-.095.37-.228.487-.399.118-.174.176-.375.173-.602a1.034 1.034 0 0 0-.575-.967 1.402 1.402 0 0 0-.641-.138c-.24 0-.463.044-.667.13-.205.088-.37.212-.495.373a.937.937 0 0 0-.199.567h-1.369c.01-.44.136-.826.379-1.158.246-.335.573-.596.982-.782.409-.19.868-.284 1.377-.284.524 0 .979.098 1.365.295.389.195.689.457.902.786.212.33.318.695.318 1.093.002.443-.128.813-.391 1.113a1.84 1.84 0 0 1-1.028.586v.062c.552.076.975.281 1.269.613.297.33.444.741.441 1.232 0 .439-.125.833-.375 1.181a2.502 2.502 0 0 1-1.028.813c-.435.197-.934.295-1.496.295Zm4.074-1.565v-1.131l3.333-5.266h.943v1.611h-.575l-2.244 3.555v.062h4.652v1.169h-6.109Zm3.747 1.458v-1.803l.015-.506V98.52h1.343v7.855h-1.358Zm6.318.107c-.511 0-.969-.096-1.373-.287a2.458 2.458 0 0 1-.962-.798 2.113 2.113 0 0 1-.376-1.158h1.381c.025.322.165.585.418.79.253.202.557.303.912.303.279 0 .527-.064.744-.192.218-.128.389-.306.514-.533.126-.228.187-.487.184-.779.003-.296-.06-.56-.187-.79a1.41 1.41 0 0 0-.526-.541 1.464 1.464 0 0 0-.767-.199 1.825 1.825 0 0 0-.694.13c-.228.09-.408.207-.541.353l-1.285-.211.411-4.05h4.556v1.19h-3.379l-.226 2.082h.046a1.61 1.61 0 0 1 .617-.426c.266-.115.558-.173.875-.173.475 0 .9.113 1.273.338.373.222.667.529.882.92.215.392.322.839.322 1.343 0 .519-.12.981-.36 1.388a2.556 2.556 0 0 1-.993.955c-.422.23-.911.345-1.466.345Zm5.486-1.181-.05.422c-.036.322-.1.649-.192.982-.089.335-.184.643-.284.924-.099.281-.18.502-.241.663h-.936l.146-.636c.064-.269.125-.57.184-.905.059-.335.098-.675.119-1.021l.027-.429h1.227Zm4.11 1.181a3.325 3.325 0 0 1-1.101-.195 2.605 2.605 0 0 1-.966-.633c-.286-.294-.514-.684-.683-1.17-.168-.488-.252-1.093-.249-1.814 0-.673.072-1.272.215-1.799.143-.526.349-.971.617-1.334.269-.366.592-.645.971-.837a2.798 2.798 0 0 1 1.277-.287c.493 0 .93.097 1.311.291.384.195.693.46.929.798.235.335.38.713.437 1.135h-1.4a1.277 1.277 0 0 0-.441-.72c-.22-.182-.499-.273-.836-.273-.545 0-.964.236-1.258.709-.292.473-.439 1.123-.441 1.949h.053c.126-.225.288-.418.487-.579a2.382 2.382 0 0 1 1.477-.507 2.358 2.358 0 0 1 2.113 1.239c.215.384.321.823.319 1.319a2.71 2.71 0 0 1-.353 1.393 2.558 2.558 0 0 1-.994.966c-.424.235-.919.352-1.484.349Zm-.007-1.15c.278 0 .528-.068.747-.204a1.47 1.47 0 0 0 .522-.548c.128-.23.19-.488.188-.775a1.536 1.536 0 0 0-.184-.763 1.405 1.405 0 0 0-.51-.541 1.4 1.4 0 0 0-.744-.199 1.443 1.443 0 0 0-1.047.448c-.133.139-.238.3-.315.484a1.59 1.59 0 0 0-.115.583c.003.273.067.525.192.755.125.23.298.414.518.552.22.139.469.208.748.208Zm6.865 1.15c-.512 0-.969-.096-1.373-.287a2.461 2.461 0 0 1-.963-.798 2.113 2.113 0 0 1-.376-1.158h1.381c.025.322.165.585.418.79.253.202.557.303.913.303.278 0 .526-.064.744-.192.217-.128.388-.306.514-.533.125-.228.186-.487.184-.779.002-.296-.06-.56-.188-.79a1.41 1.41 0 0 0-.526-.541 1.464 1.464 0 0 0-.767-.199 1.829 1.829 0 0 0-.694.13c-.228.09-.408.207-.541.353l-1.285-.211.411-4.05h4.556v1.19h-3.379l-.226 2.082h.046c.146-.172.352-.314.617-.426.266-.115.558-.173.875-.173.475 0 .9.113 1.273.338.374.222.668.529.882.92.215.392.322.839.322 1.343 0 .519-.12.981-.36 1.388a2.556 2.556 0 0 1-.993.955c-.422.23-.911.345-1.465.345Zm9.313.875v-9.819h.629v9.819h-.629Zm1.814-6.678a1.045 1.045 0 0 0-.452-.782c-.263-.187-.606-.28-1.028-.28a1.96 1.96 0 0 0-.763.134c-.212.09-.375.211-.487.365a.883.883 0 0 0-.062.951c.077.12.181.222.311.307.13.081.275.15.433.207.159.056.319.103.48.142l.736.184c.297.069.582.162.856.28.276.117.522.266.74.445.22.179.393.395.521.648s.192.549.192.89c0 .46-.118.865-.353 1.215-.235.348-.575.62-1.02.817-.442.194-.978.292-1.607.292-.611 0-1.142-.095-1.592-.284a2.363 2.363 0 0 1-1.05-.829c-.251-.363-.386-.805-.407-1.327h1.4c.02.274.105.502.253.683.148.182.341.317.579.407.241.089.509.134.806.134.309 0 .58-.046.813-.138.235-.095.419-.225.552-.391a.943.943 0 0 0 .203-.591.745.745 0 0 0-.18-.506 1.328 1.328 0 0 0-.495-.338 4.692 4.692 0 0 0-.736-.245l-.894-.23c-.647-.167-1.158-.418-1.534-.756-.373-.34-.56-.791-.56-1.354 0-.462.125-.868.376-1.216a2.482 2.482 0 0 1 1.032-.809 3.58 3.58 0 0 1 1.476-.291c.558 0 1.046.097 1.465.291.422.192.753.46.994.802.24.34.364.731.372 1.173h-1.37Z" fill="#fff"/><path stroke="#312A91" stroke-width=".9" stroke-linecap="round" stroke-dasharray="1.8 1.8" d="M255.15 102.15h-20.7"/><path d="M45.61 53h1.275v-8.25h3.189v-1.167h-7.667v1.167h3.202V53Zm7.342.136c1.886 0 3.365-1.48 3.365-3.379 0-1.873-1.492-3.338-3.365-3.338-1.9 0-3.365 1.465-3.365 3.338 0 1.886 1.48 3.379 3.365 3.379Zm0-1.18c-1.221 0-2.103-.924-2.103-2.199 0-1.248.882-2.158 2.103-2.158 1.208 0 2.104.896 2.104 2.158 0 1.276-.883 2.198-2.104 2.198ZM58.892 53h1.221v-5.333h1.588v-1.112h-1.587v-2.7h-1.222v2.7h-1.587v1.112h1.587V53Zm6.955.136c.922 0 1.682-.38 2.144-1.004V53h1.234v-6.445h-1.234v.882c-.462-.638-1.235-1.018-2.144-1.018-1.778 0-3.148 1.479-3.148 3.365 0 1.886 1.37 3.352 3.148 3.352Zm.203-1.154c-1.22 0-2.09-.922-2.09-2.212 0-1.289.855-2.198 2.077-2.198 1.221 0 2.035.896 2.035 2.212 0 1.303-.814 2.198-2.022 2.198ZM71.41 53h1.222v-9.688H71.41V53Zm6.862 0h6.27v-1.167h-4.994v-3.094h4.546v-1.112h-4.546V44.75h4.925v-1.167h-6.2V53Zm10.816.136c.922 0 1.682-.38 2.144-1.004V53h1.234v-6.445h-1.234v.882c-.462-.638-1.235-1.018-2.144-1.018-1.778 0-3.148 1.479-3.148 3.365 0 1.886 1.37 3.352 3.148 3.352Zm.203-1.154c-1.22 0-2.09-.922-2.09-2.212 0-1.289.856-2.198 2.077-2.198s2.035.896 2.035 2.212c0 1.303-.814 2.198-2.022 2.198ZM94.651 53h1.222v-3.677c0-1.167.638-1.75 1.547-1.75.42 0 .732.121 1.017.406l.801-.827c-.448-.516-.963-.733-1.615-.733-.787 0-1.384.326-1.75.896v-.76h-1.221V53Zm5.88 0h1.222v-3.759c0-.977.705-1.682 1.682-1.682s1.656.692 1.656 1.682V53h1.221v-4.003c0-1.343-1.045-2.578-2.524-2.578-.855 0-1.574.366-2.035.977v-.841h-1.222V53Zm8.466-7.734c.447 0 .773-.34.773-.788a.756.756 0 0 0-.773-.773.757.757 0 0 0-.774.773c0 .448.326.788.774.788ZM108.386 53h1.221v-6.445h-1.221V53Zm3.428 0h1.221v-3.759c0-.977.706-1.682 1.683-1.682.977 0 1.655.692 1.655 1.682V53h1.221v-4.003c0-1.343-1.044-2.578-2.523-2.578-.855 0-1.574.366-2.036.977v-.841h-1.221V53Zm10.514-.109c.936 0 1.696-.366 2.171-1.004v.855c0 1.194-.828 1.927-2.144 1.927-.99 0-1.709-.366-2.225-1.031l-.787.8c.624.896 1.655 1.398 2.985 1.398 2.022 0 3.392-1.235 3.392-3.094v-6.187h-1.221v.868c-.475-.638-1.235-1.004-2.184-1.004-1.751 0-3.081 1.398-3.081 3.23 0 1.858 1.33 3.242 3.094 3.242Zm.244-1.153c-1.221 0-2.076-.855-2.076-2.09 0-1.22.842-2.076 2.063-2.076 1.207 0 2.008.842 2.008 2.09 0 1.248-.801 2.076-1.995 2.076Z" fill="#4F4F4F"/><path d="M54.258 76.58c0-5.835-7.509-4.252-7.509-7.305 0-1.131.837-1.697 2.33-1.697 1.063 0 2.012.566 2.917 1.584l2.013-2.013a6.503 6.503 0 0 0-3.935-2.126V62.92h-2.149v2.148c-2.442.385-4.138 1.99-4.116 4.456 0 5.63 7.44 3.934 7.44 7.304 0 1.221-1.017 1.9-2.623 1.9-1.583 0-2.736-.792-3.686-2.035l-1.99 2.012c1.334 1.629 2.872 2.488 4.975 2.624v2.035h2.149v-2.148c2.623-.475 4.184-2.126 4.184-4.636Zm8.369 4.523h3.505l4.41-6.378c1.018-1.447 1.47-2.782 1.47-4.252 0-3.075-2.488-5.518-5.744-5.518-3.234 0-5.767 2.488-5.767 5.586 0 3.053 2.307 5.202 5.134 5.202.339 0 .633-.023.881-.068l-3.89 5.428Zm3.64-7.712c-1.56 0-2.736-1.199-2.736-2.805 0-1.628 1.154-2.85 2.737-2.85 1.56 0 2.714 1.222 2.714 2.85 0 1.606-1.154 2.805-2.714 2.805Zm12.476 7.938c3.347 0 5.518-1.945 5.518-4.636 0-1.832-.927-3.302-2.533-4.049 1.221-.678 1.855-1.99 1.855-3.37 0-2.532-2.013-4.319-4.84-4.319-2.85 0-4.862 1.787-4.862 4.32 0 1.38.633 2.69 1.831 3.37-1.583.746-2.51 2.216-2.51 4.047 0 2.692 2.171 4.637 5.54 4.637Zm0-9.77c-1.199 0-2.036-.837-2.036-2.035 0-1.177.837-2.013 2.036-2.013 1.176 0 2.013.86 2.013 2.035 0 1.199-.837 2.013-2.013 2.013Zm0 7.079c-1.515 0-2.601-.996-2.601-2.375 0-1.38 1.086-2.375 2.6-2.375 1.516 0 2.579.995 2.579 2.375s-1.063 2.374-2.578 2.374Zm11.58 2.69c3.595 0 5.992-2.148 5.992-5.291 0-2.737-1.764-4.546-4.093-4.682l3.845-4.387v-1.764H86.025v2.669h5.767l-3.324 3.867v1.764c.43-.136 1.085-.226 1.65-.226 1.946 0 3.122.995 3.122 2.646 0 1.605-1.176 2.646-2.963 2.646-1.29 0-2.51-.588-3.098-1.493l-2.036 2.013c1.222 1.447 3.03 2.239 5.18 2.239Zm7.539 2.466 1.538.814 1.741-3.212c.498-.904.633-1.447.633-1.877 0-1.085-.882-1.945-1.877-1.945-1.085 0-1.9.883-1.9 1.945 0 .86.589 1.538 1.245 1.697l-1.38 2.578Zm5.637-2.691h11.127v-2.67h-6.377l3.482-3.55c1.9-1.945 2.556-3.12 2.556-5.088 0-2.895-2.035-4.84-5.156-4.84-2.465 0-4.343 1.108-5.609 3.257l2.103 1.786c.927-1.56 1.945-2.261 3.347-2.261 1.357 0 2.307.814 2.307 2.126 0 1.017-.52 1.877-1.787 3.211l-5.993 6.264v1.765Zm17.544.226c3.596 0 5.993-2.149 5.993-5.292 0-2.737-1.764-4.546-4.093-4.682l3.844-4.387v-1.764h-10.041v2.669h5.767l-3.325 3.867v1.764c.43-.136 1.086-.226 1.651-.226 1.945 0 3.121.995 3.121 2.646 0 1.605-1.176 2.646-2.962 2.646-1.289 0-2.511-.588-3.099-1.493l-2.035 2.013c1.221 1.447 3.03 2.239 5.179 2.239Zm7.391-.226h11.126v-2.67h-6.377l3.483-3.55c1.899-1.945 2.555-3.12 2.555-5.088 0-2.895-2.035-4.84-5.156-4.84-2.465 0-4.342 1.108-5.609 3.257l2.104 1.786c.927-1.56 1.944-2.261 3.347-2.261 1.357 0 2.306.814 2.306 2.126 0 1.017-.52 1.877-1.786 3.211l-5.993 6.264v1.765Zm15.259.226c1.063 0 1.832-.814 1.832-1.877 0-1.063-.769-1.877-1.832-1.877-1.085 0-1.854.814-1.854 1.877 0 1.063.769 1.877 1.854 1.877Zm3.911-.226h11.127v-2.67h-6.378l3.483-3.55c1.899-1.945 2.555-3.12 2.555-5.088 0-2.895-2.035-4.84-5.156-4.84-2.465 0-4.342 1.108-5.609 3.257l2.104 1.786c.927-1.56 1.945-2.261 3.347-2.261 1.357 0 2.306.814 2.306 2.126 0 1.017-.52 1.877-1.786 3.211l-5.993 6.264v1.765Zm15.553 0h3.031v-15.9h-6.152v2.67h3.121v13.23Z" fill="#27326F"/><g filter="url(#f)"><rect x="183" y="150" width="160" height="109" rx="7.891" fill="#fff"/><rect x="183.45" y="150.45" width="159.1" height="108.1" rx="7.441" stroke="#E1EDED" stroke-width=".9"/></g><path d="M199.984 174h5.232v-1.032h-4.104v-7.296h-1.128V174Zm7.341-6.84c.396 0 .684-.3.684-.696a.669.669 0 0 0-.684-.684c-.396 0-.684.3-.684.684 0 .396.288.696.684.696Zm-.54 6.84h1.08v-5.7h-1.08v5.7Zm5.468.12c.804 0 1.476-.336 1.896-.888v3.156h1.08V168.3h-1.08v.78c-.42-.564-1.104-.9-1.908-.9-1.572 0-2.784 1.308-2.784 2.976s1.212 2.964 2.796 2.964Zm.168-1.02c-1.08 0-1.848-.816-1.848-1.956 0-1.14.768-1.944 1.848-1.944 1.068 0 1.788.792 1.788 1.956 0 1.152-.72 1.944-1.788 1.944Zm7.056 1.02c1.44 0 2.436-1.02 2.436-2.508V168.3h-1.08v3.264c0 .948-.504 1.512-1.356 1.512-.852 0-1.368-.576-1.368-1.512V168.3h-1.08v3.312c0 1.476 1.008 2.508 2.448 2.508Zm4.795-6.96c.396 0 .684-.3.684-.696a.669.669 0 0 0-.684-.684c-.396 0-.684.3-.684.684 0 .396.288.696.684.696Zm-.54 6.84h1.08v-5.7h-1.08v5.7Zm5.444.12c.804 0 1.5-.336 1.908-.9v.78h1.092v-8.568h-1.092v3.66c-.42-.564-1.104-.912-1.92-.912-1.56 0-2.76 1.296-2.76 2.976 0 1.668 1.2 2.964 2.772 2.964Zm.18-1.02c-1.08 0-1.836-.804-1.836-1.956 0-1.14.756-1.944 1.824-1.944 1.08 0 1.812.804 1.812 1.956 0 1.14-.732 1.944-1.8 1.944Zm5.304-5.94c.396 0 .684-.3.684-.696a.669.669 0 0 0-.684-.684c-.396 0-.684.3-.684.684 0 .396.288.696.684.696Zm-.54 6.84h1.08v-5.7h-1.08v5.7Zm3.908 0h1.08v-4.716h1.404v-.984h-1.404v-2.388h-1.08v2.388h-1.404v.984h1.404V174Zm4.142 2.388h1.2l1.08-2.34 2.664-5.748h-1.2l-1.74 4.044-1.644-4.044h-1.2l2.244 5.208-1.404 2.88Zm9.956-2.388h1.08v-4.716h1.812v-.984h-1.812v-.852c0-.708.396-1.128 1.08-1.128.36 0 .6.132.816.348l.708-.696c-.408-.42-.864-.66-1.512-.66-1.284 0-2.172.876-2.172 2.136v.852h-1.404v.984h1.404V174Zm6.433.12c.816 0 1.488-.336 1.896-.888V174h1.092v-5.7h-1.092v.78c-.408-.564-1.092-.9-1.896-.9-1.572 0-2.784 1.308-2.784 2.976s1.212 2.964 2.784 2.964Zm.18-1.02c-1.08 0-1.848-.816-1.848-1.956 0-1.14.756-1.944 1.836-1.944s1.8.792 1.8 1.956c0 1.152-.72 1.944-1.788 1.944Zm4.74.9h1.08v-3.252c0-1.032.564-1.548 1.368-1.548.372 0 .648.108.9.36l.708-.732c-.396-.456-.852-.648-1.428-.648-.696 0-1.224.288-1.548.792v-.672h-1.08v5.7Zm5.2 0h1.08v-3.456c0-.84.624-1.356 1.404-1.356.792 0 1.368.516 1.368 1.368V174h1.08v-3.456c0-.84.624-1.356 1.416-1.356.78 0 1.356.516 1.356 1.368V174h1.092v-3.66c0-1.332-.972-2.16-2.196-2.16-.816 0-1.536.384-1.932 1.032-.372-.648-1.056-1.032-1.872-1.032-.708 0-1.32.288-1.716.78v-.66h-1.08v5.7Zm11.178-6.84c.396 0 .684-.3.684-.696a.669.669 0 0 0-.684-.684c-.396 0-.684.3-.684.684 0 .396.288.696.684.696Zm-.54 6.84h1.08v-5.7h-1.08v5.7Zm3.031 0h1.08v-3.324c0-.864.624-1.488 1.488-1.488s1.464.612 1.464 1.488V174h1.08v-3.54c0-1.188-.924-2.28-2.232-2.28-.756 0-1.392.324-1.8.864v-.744h-1.08v5.7Zm9.298-.096c.828 0 1.5-.324 1.92-.888v.756c0 1.056-.732 1.704-1.896 1.704-.876 0-1.512-.324-1.968-.912l-.696.708c.552.792 1.464 1.236 2.64 1.236 1.788 0 3-1.092 3-2.736V168.3h-1.08v.768c-.42-.564-1.092-.888-1.932-.888-1.548 0-2.724 1.236-2.724 2.856 0 1.644 1.176 2.868 2.736 2.868Zm.216-1.02c-1.08 0-1.836-.756-1.836-1.848 0-1.08.744-1.836 1.824-1.836 1.068 0 1.776.744 1.776 1.848s-.708 1.836-1.764 1.836Z" fill="#4F4F4F"/><path d="M199.501 207h3.556l1.252-3.281h7.238l1.252 3.281h3.631l-7.062-17.606h-2.78L199.501 207Zm5.91-6.136 2.555-6.661 2.504 6.661h-5.059ZM218.51 207h3.406v-6.536h3.531c3.356 0 5.91-2.154 5.91-5.535 0-3.381-2.554-5.535-5.91-5.535h-6.937V207Zm6.586-14.826c1.628 0 2.855 1.052 2.855 2.755 0 1.728-1.227 2.755-2.855 2.755h-3.18v-5.51h3.18ZM233.771 207h3.405v-7.363h.576l5.635 7.363h4.132l-5.885-7.413c2.88-.376 4.733-2.279 4.733-5.059 0-2.98-2.304-5.134-5.71-5.134h-6.886V207Zm6.586-14.826c1.678 0 2.63 1.052 2.63 2.404 0 1.503-.952 2.405-2.63 2.405h-3.181v-4.809h3.181Zm11.135 7.513c1.203 0 2.054-.901 2.054-2.078 0-1.177-.851-2.079-2.054-2.079-1.202 0-2.053.902-2.053 2.079s.851 2.078 2.053 2.078Zm0 7.563c1.203 0 2.054-.901 2.054-2.078 0-1.177-.851-2.079-2.054-2.079-1.202 0-2.053.902-2.053 2.079s.851 2.078 2.053 2.078Zm15.391 0c3.707 0 6.111-2.153 6.111-5.133 0-2.029-1.027-3.657-2.805-4.483 1.352-.752 2.054-2.204 2.054-3.732 0-2.805-2.229-4.783-5.36-4.783-3.155 0-5.384 1.978-5.384 4.783 0 1.528.701 2.98 2.028 3.732-1.753.826-2.779 2.454-2.779 4.483 0 2.98 2.404 5.133 6.135 5.133Zm0-10.818c-1.327 0-2.254-.927-2.254-2.254 0-1.303.927-2.229 2.254-2.229 1.303 0 2.229.952 2.229 2.254 0 1.327-.926 2.229-2.229 2.229Zm0 7.838c-1.678 0-2.88-1.102-2.88-2.629 0-1.528 1.202-2.63 2.88-2.63s2.855 1.102 2.855 2.63c0 1.527-1.177 2.629-2.855 2.629Zm10.636 2.98c1.177 0 2.028-.901 2.028-2.078 0-1.177-.851-2.079-2.028-2.079-1.202 0-2.054.902-2.054 2.079s.852 2.078 2.054 2.078Zm10.254 0c3.581 0 6.386-2.729 6.386-6.185 0-3.356-2.555-5.735-5.685-5.735-.376 0-.701.025-.977.075l4.308-6.011h-3.907l-4.884 7.063c-1.102 1.602-1.602 3.08-1.602 4.683 0 3.431 2.754 6.11 6.361 6.11Zm0-3.055c-1.753 0-3.031-1.352-3.031-3.155 0-1.778 1.278-3.131 3.031-3.131 1.728 0 3.03 1.328 3.03 3.131 0 1.803-1.302 3.155-3.03 3.155Zm11.654-7.813c2.078 0 3.656-1.603 3.656-3.632 0-2.028-1.603-3.606-3.656-3.606-2.029 0-3.606 1.578-3.606 3.606 0 2.029 1.602 3.632 3.606 3.632ZM296.296 207h3.106l10.919-17.606h-3.106L296.296 207Zm3.156-12.998c-.726 0-1.202-.5-1.202-1.252 0-.726.476-1.252 1.202-1.252.701 0 1.202.526 1.202 1.252 0 .752-.476 1.252-1.202 1.252Zm7.688 13.248c2.079 0 3.657-1.577 3.657-3.631 0-2.028-1.603-3.606-3.657-3.606-2.053 0-3.631 1.578-3.631 3.606 0 2.054 1.603 3.631 3.631 3.631Zm0-2.379c-.701 0-1.202-.526-1.202-1.252 0-.701.501-1.227 1.202-1.227s1.252.526 1.252 1.227c0 .726-.525 1.252-1.252 1.252Z" fill="#27326F"/><rect x="199" y="222" width="57" height="23" rx="11.5" fill="#74FFC5"/><path d="M212.366 236.602v-5.897h1.339v5.897h-1.339Zm-2.279-2.28v-1.338h5.897v1.338h-5.897Zm10.989 3.844c-.702 0-1.304-.177-1.807-.532-.5-.358-.885-.874-1.155-1.547-.267-.676-.401-1.49-.401-2.442.003-.952.138-1.761.405-2.429.27-.671.655-1.182 1.155-1.534.503-.352 1.104-.529 1.803-.529.699 0 1.299.177 1.802.529.503.352.888.863 1.155 1.534.27.67.405 1.48.405 2.429 0 .954-.135 1.77-.405 2.446-.267.673-.652 1.187-1.155 1.543-.5.355-1.101.532-1.802.532Zm0-1.334c.545 0 .975-.268 1.291-.805.318-.54.477-1.334.477-2.382 0-.693-.072-1.276-.217-1.747-.145-.472-.35-.827-.614-1.066a1.345 1.345 0 0 0-.937-.362c-.543 0-.972.27-1.287.81-.316.537-.475 1.325-.478 2.365-.002.696.067 1.281.209 1.756.145.474.35.832.614 1.073.264.239.578.358.942.358Zm5.405 1.262a.915.915 0 0 1-.665-.273.884.884 0 0 1-.272-.665.875.875 0 0 1 .272-.656.915.915 0 0 1 .665-.273c.25 0 .468.091.652.273a.896.896 0 0 1 .149 1.129.977.977 0 0 1-.341.341.88.88 0 0 1-.46.124Zm5.414-8.941c.418.003.824.077 1.219.222.398.142.756.375 1.074.699.318.321.571.751.758 1.291.188.54.282 1.207.282 2.003.002.75-.077 1.42-.239 2.011-.159.588-.388 1.085-.686 1.492a3.03 3.03 0 0 1-1.078.929 3.098 3.098 0 0 1-1.419.319c-.551 0-1.04-.108-1.466-.324a2.744 2.744 0 0 1-1.027-.886 2.815 2.815 0 0 1-.482-1.287h1.556c.079.347.241.622.486.827.247.202.558.302.933.302.605 0 1.071-.262 1.397-.788.327-.526.491-1.256.491-2.19h-.06c-.139.25-.32.466-.541.647a2.472 2.472 0 0 1-.755.414 2.694 2.694 0 0 1-.886.145c-.511 0-.972-.122-1.381-.367a2.676 2.676 0 0 1-.967-1.005c-.236-.427-.355-.914-.358-1.462 0-.568.131-1.078.392-1.53a2.85 2.85 0 0 1 1.104-1.074c.471-.264 1.023-.393 1.653-.388Zm.005 1.279a1.591 1.591 0 0 0-1.411.831 1.73 1.73 0 0 0-.209.848c.003.309.073.591.209.844.139.252.328.453.567.6.241.148.517.222.826.222a1.572 1.572 0 0 0 1.164-.499c.15-.159.267-.339.349-.541.085-.201.127-.415.124-.639 0-.298-.071-.574-.213-.827a1.635 1.635 0 0 0-.576-.609 1.516 1.516 0 0 0-.83-.23Zm9.413 5.932v-.461c0-.338.071-.649.213-.933a1.72 1.72 0 0 1 .631-.686c.275-.173.609-.26 1.001-.26.403 0 .742.087 1.014.26.273.171.479.398.618.682.142.284.213.596.213.937v.461c0 .338-.071.649-.213.933a1.694 1.694 0 0 1-.626.686c-.273.173-.608.26-1.006.26s-.734-.087-1.01-.26a1.694 1.694 0 0 1-.626-.686 2.08 2.08 0 0 1-.209-.933Zm1.112-.461v.461c0 .224.054.43.162.618.108.187.298.281.571.281.276 0 .465-.093.567-.277.105-.188.157-.395.157-.622v-.461c0-.227-.049-.434-.149-.622-.099-.19-.291-.285-.575-.285-.267 0-.456.095-.567.285a1.2 1.2 0 0 0-.166.622Zm-5.548-4.534v-.46c0-.341.072-.653.217-.937.145-.285.355-.512.631-.682.275-.174.609-.26 1.001-.26.401 0 .737.086 1.01.26.276.17.483.397.622.682.14.284.209.596.209.937v.46c0 .341-.071.654-.213.938a1.64 1.64 0 0 1-.622.677c-.276.171-.611.256-1.006.256-.4 0-.738-.085-1.014-.256a1.666 1.666 0 0 1-.622-.681 2.064 2.064 0 0 1-.213-.934Zm1.121-.46v.46c0 .228.052.435.157.622.108.185.298.277.571.277.273 0 .46-.092.563-.277.105-.187.157-.394.157-.622v-.46a1.3 1.3 0 0 0-.149-.622c-.099-.19-.29-.286-.571-.286-.27 0-.459.096-.567.286-.108.19-.161.398-.161.622Zm-.635 7.091 6-8.727h1.065l-6 8.727h-1.065Z" fill="#27326F"/><g filter="url(#g)"><rect x="290" y="28" width="127" height="101" rx="7.891" fill="#fff"/><rect x="290.45" y="28.45" width="126.1" height="100.1" rx="7.441" stroke="#E1EDED" stroke-width=".9"/></g><path d="M309.3 52.12c1.728 0 2.82-.876 2.82-2.352 0-3.084-4.068-2.088-4.068-4.044 0-.708.564-1.116 1.464-1.116.744 0 1.284.288 1.776.864l.768-.768c-.552-.684-1.428-1.152-2.52-1.152-1.488 0-2.616.84-2.616 2.244 0 2.976 4.056 1.908 4.056 4.056 0 .756-.66 1.212-1.644 1.212-1.008 0-1.656-.384-2.184-1.116l-.768.768c.708.912 1.596 1.404 2.916 1.404Zm5.384-.12h1.08v-4.716h1.404V46.3h-1.404v-2.388h-1.08V46.3h-1.404v.984h1.404V52Zm6.15.12c.816 0 1.488-.336 1.896-.888V52h1.092v-5.7h-1.092v.78c-.408-.564-1.092-.9-1.896-.9-1.572 0-2.784 1.308-2.784 2.976s1.212 2.964 2.784 2.964Zm.18-1.02c-1.08 0-1.848-.816-1.848-1.956 0-1.14.756-1.944 1.836-1.944s1.8.792 1.8 1.956c0 1.152-.72 1.944-1.788 1.944Zm4.741.9h1.08v-2.82l2.568 2.82h1.392l-2.736-2.964 2.628-2.736h-1.308l-2.544 2.688v-5.556h-1.08V52Zm6.677-6.84c.396 0 .684-.3.684-.696a.669.669 0 0 0-.684-.684c-.396 0-.684.3-.684.684 0 .396.288.696.684.696Zm-.54 6.84h1.08v-5.7h-1.08V52Zm3.032 0h1.08v-3.324c0-.864.624-1.488 1.488-1.488s1.464.612 1.464 1.488V52h1.08v-3.54c0-1.188-.924-2.28-2.232-2.28-.756 0-1.392.324-1.8.864V46.3h-1.08V52Zm9.298-.096c.828 0 1.5-.324 1.92-.888v.756c0 1.056-.732 1.704-1.896 1.704-.876 0-1.512-.324-1.968-.912l-.696.708c.552.792 1.464 1.236 2.64 1.236 1.788 0 3-1.092 3-2.736V46.3h-1.08v.768c-.42-.564-1.092-.888-1.932-.888-1.548 0-2.724 1.236-2.724 2.856 0 1.644 1.176 2.868 2.736 2.868Zm.216-1.02c-1.08 0-1.836-.756-1.836-1.848 0-1.08.744-1.836 1.824-1.836 1.068 0 1.776.744 1.776 1.848s-.708 1.836-1.764 1.836Z" fill="#4F4F4F"/><path d="M306.4 80h2.84l1-2.62h5.78l1 2.62h2.9l-5.64-14.06h-2.22L306.4 80Zm4.72-4.9 2.04-5.32 2 5.32h-4.04Zm10.461 4.9h2.72v-5.22h2.82c2.68 0 4.72-1.72 4.72-4.42s-2.04-4.42-4.72-4.42h-5.54V80Zm5.26-11.84c1.3 0 2.28.84 2.28 2.2 0 1.38-.98 2.2-2.28 2.2h-2.54v-4.4h2.54ZM333.768 80h2.72v-5.88h.46l4.5 5.88h3.3l-4.7-5.92c2.3-.3 3.78-1.82 3.78-4.04 0-2.38-1.84-4.1-4.56-4.1h-5.5V80Zm5.26-11.84c1.34 0 2.1.84 2.1 1.92 0 1.2-.76 1.92-2.1 1.92h-2.54v-3.84h2.54Zm8.893 6c.96 0 1.64-.72 1.64-1.66s-.68-1.66-1.64-1.66c-.96 0-1.64.72-1.64 1.66s.68 1.66 1.64 1.66Zm0 6.04c.96 0 1.64-.72 1.64-1.66s-.68-1.66-1.64-1.66c-.96 0-1.64.72-1.64 1.66s.68 1.66 1.64 1.66Zm9.951-.2h2.68V65.94h-5.44v2.36h2.76V80Zm4.644 0h9.84v-2.36h-5.64l3.08-3.14c1.68-1.72 2.26-2.76 2.26-4.5 0-2.56-1.8-4.28-4.56-4.28-2.18 0-3.84.98-4.96 2.88l1.86 1.58c.82-1.38 1.72-2 2.96-2 1.2 0 2.04.72 2.04 1.88 0 .9-.46 1.66-1.58 2.84l-5.3 5.54V80Zm13.495.2c.94 0 1.62-.72 1.62-1.66s-.68-1.66-1.62-1.66c-.96 0-1.64.72-1.64 1.66s.68 1.66 1.64 1.66Zm8.189 0c2.86 0 5.1-2.18 5.1-4.94 0-2.68-2.04-4.58-4.54-4.58-.3 0-.56.02-.78.06l3.44-4.8h-3.12l-3.9 5.64c-.88 1.28-1.28 2.46-1.28 3.74 0 2.74 2.2 4.88 5.08 4.88Zm0-2.44c-1.4 0-2.42-1.08-2.42-2.52 0-1.42 1.02-2.5 2.42-2.5 1.38 0 2.42 1.06 2.42 2.5s-1.04 2.52-2.42 2.52Zm9.307-6.24c1.66 0 2.92-1.28 2.92-2.9 0-1.62-1.28-2.88-2.92-2.88-1.62 0-2.88 1.26-2.88 2.88 0 1.62 1.28 2.9 2.88 2.9Zm-2.5 8.48h2.48l8.72-14.06h-2.48L391.007 80Zm2.52-10.38c-.58 0-.96-.4-.96-1 0-.58.38-1 .96-1 .56 0 .96.42.96 1 0 .6-.38 1-.96 1Zm6.14 10.58c1.66 0 2.92-1.26 2.92-2.9 0-1.62-1.28-2.88-2.92-2.88s-2.9 1.26-2.9 2.88c0 1.64 1.28 2.9 2.9 2.9Zm0-1.9c-.56 0-.96-.42-.96-1 0-.56.4-.98.96-.98.56 0 1 .42 1 .98 0 .58-.42 1-1 1Z" fill="#27326F"/><rect x="306" y="94" width="64" height="23" rx="11.5" fill="#74FFC5"/><path d="M319.366 108.602v-5.897h1.339v5.897h-1.339Zm-2.279-2.28v-1.338h5.897v1.338h-5.897Zm7.458 3.678v-1.142l3.03-2.97c.29-.293.531-.553.724-.78.194-.227.338-.447.435-.661.097-.213.145-.44.145-.681a1.29 1.29 0 0 0-.188-.708 1.242 1.242 0 0 0-.515-.46 1.666 1.666 0 0 0-.746-.162c-.287 0-.538.06-.754.179a1.233 1.233 0 0 0-.503.499 1.596 1.596 0 0 0-.175.771h-1.504c0-.554.126-1.036.379-1.445a2.558 2.558 0 0 1 1.044-.95c.446-.224.958-.337 1.534-.337.586 0 1.1.11 1.543.329.443.218.787.518 1.031.899.247.38.371.815.371 1.304 0 .326-.063.647-.188.963-.125.315-.345.664-.66 1.048-.313.384-.751.848-1.317 1.393l-1.504 1.53v.06h3.801V110h-5.983Zm8.421.094a.912.912 0 0 1-.665-.273.881.881 0 0 1-.273-.665.872.872 0 0 1 .273-.656.912.912 0 0 1 .665-.273.9.9 0 0 1 .652.273.899.899 0 0 1 .149 1.129.985.985 0 0 1-.341.341.882.882 0 0 1-.46.124Zm5.352.025c-.614 0-1.159-.105-1.637-.315a2.74 2.74 0 0 1-1.125-.878 2.278 2.278 0 0 1-.438-1.3h1.602c.014.236.092.442.234.618.142.174.331.309.567.405.236.097.5.145.793.145.312 0 .589-.054.831-.162.241-.111.43-.264.566-.46.137-.196.203-.422.201-.678a1.186 1.186 0 0 0-.205-.699 1.376 1.376 0 0 0-.605-.473c-.261-.113-.577-.17-.946-.17h-.771v-1.219h.771c.304 0 .569-.052.797-.157.23-.106.41-.253.541-.444.131-.193.195-.416.192-.669a1.166 1.166 0 0 0-.166-.643 1.13 1.13 0 0 0-.473-.431 1.56 1.56 0 0 0-.712-.153c-.267 0-.514.048-.742.145a1.35 1.35 0 0 0-.549.413c-.14.176-.213.387-.222.631h-1.521a2.21 2.21 0 0 1 .422-1.287 2.712 2.712 0 0 1 1.091-.869c.454-.21.964-.316 1.529-.316.583 0 1.088.11 1.517.329a2.47 2.47 0 0 1 1.002.873c.236.367.354.771.354 1.215.002.491-.142.903-.435 1.235-.29.333-.671.55-1.142.652v.069c.613.085 1.084.312 1.41.681.33.367.493.823.49 1.368 0 .489-.139.926-.417 1.313-.276.383-.656.684-1.142.903-.483.219-1.037.328-1.662.328Zm4.684-.119v-1.142l3.03-2.97c.29-.293.531-.553.724-.78.194-.227.338-.447.435-.661.097-.213.145-.44.145-.681a1.29 1.29 0 0 0-.188-.708 1.242 1.242 0 0 0-.515-.46 1.666 1.666 0 0 0-.746-.162c-.287 0-.538.06-.754.179a1.233 1.233 0 0 0-.503.499 1.596 1.596 0 0 0-.175.771h-1.504c0-.554.126-1.036.379-1.445a2.558 2.558 0 0 1 1.044-.95c.446-.224.958-.337 1.534-.337.586 0 1.1.11 1.543.329.443.218.787.518 1.031.899.247.38.371.815.371 1.304 0 .326-.063.647-.188.963-.125.315-.345.664-.66 1.048-.313.384-.751.848-1.317 1.393l-1.504 1.53v.06h3.801V110h-5.983Zm12.119-1.636v-.461c0-.338.071-.649.214-.933.144-.284.355-.513.63-.686.276-.173.61-.26 1.002-.26.403 0 .741.087 1.014.26.273.171.479.398.618.682.142.284.213.596.213.937v.461c0 .338-.071.649-.213.933a1.69 1.69 0 0 1-.627.686c-.272.173-.608.26-1.005.26-.398 0-.735-.087-1.01-.26a1.69 1.69 0 0 1-.627-.686 2.094 2.094 0 0 1-.209-.933Zm1.113-.461v.461c0 .224.054.43.162.618.108.187.298.281.571.281.275 0 .464-.093.566-.277.105-.188.158-.395.158-.622v-.461c0-.227-.05-.434-.149-.622-.1-.19-.291-.285-.575-.285-.267 0-.456.095-.567.285a1.2 1.2 0 0 0-.166.622Zm-5.549-4.534v-.46c0-.341.073-.653.218-.937.145-.285.355-.512.63-.682.276-.174.61-.26 1.002-.26.4 0 .737.086 1.01.26.275.17.483.397.622.682.139.284.209.596.209.937v.46c0 .341-.071.654-.213.938-.14.281-.347.507-.623.677-.275.171-.61.256-1.005.256-.401 0-.739-.085-1.014-.256a1.668 1.668 0 0 1-.623-.681 2.064 2.064 0 0 1-.213-.934Zm1.121-.46v.46c0 .228.053.435.158.622.108.185.298.277.571.277.273 0 .46-.092.562-.277.105-.187.158-.394.158-.622v-.46c0-.227-.05-.435-.149-.622-.1-.19-.29-.286-.571-.286-.27 0-.459.096-.567.286-.108.19-.162.398-.162.622Zm-.635 7.091 6-8.727h1.066l-6 8.727h-1.066Z" fill="#27326F"/><defs><linearGradient id="c" x1="187.805" y1="102.531" x2="187.805" y2="173.308" gradientUnits="userSpaceOnUse"><stop stop-color="#00BB29"/><stop offset="1" stop-color="#00BB29" stop-opacity="0"/></linearGradient><linearGradient id="d" x1="80.784" y1="172.917" x2="80.784" y2="146.661" gradientUnits="userSpaceOnUse"><stop stop-color="#00BB29" stop-opacity="0"/><stop offset="1" stop-color="#00BB29"/></linearGradient><linearGradient id="e" x1="47.528" y1="180.427" x2="80.213" y2="180.427" gradientUnits="userSpaceOnUse"><stop stop-color="#fff"/><stop offset="1" stop-color="#fff" stop-opacity="0"/></linearGradient><filter id="a" x="0" y="0" width="315" height="241" filterUnits="userSpaceOnUse" color-interpolation-filters="sRGB"><feFlood flood-opacity="0" result="BackgroundImageFix"/><feColorMatrix in="SourceAlpha" values="0 0 0 0 0 0 0 0 0 0 0 0 0 0 0 0 0 0 127 0" result="hardAlpha"/><feOffset dx="9" dy="9"/><feGaussianBlur stdDeviation="18"/><feComposite in2="hardAlpha" operator="out"/><feColorMatrix values="0 0 0 0 0.133611 0 0 0 0 0.181567 0 0 0 0 0.433333 0 0 0 0.1 0"/><feBlend in2="BackgroundImageFix" result="effect1_dropShadow_120_294"/><feBlend in="SourceGraphic" in2="effect1_dropShadow_120_294" result="shape"/></filter><filter id="f" x="156" y="123" width="232" height="181" filterUnits="userSpaceOnUse" color-interpolation-filters="sRGB"><feFlood flood-opacity="0" result="BackgroundImageFix"/><feColorMatrix in="SourceAlpha" values="0 0 0 0 0 0 0 0 0 0 0 0 0 0 0 0 0 0 127 0" result="hardAlpha"/><feOffset dx="9" dy="9"/><feGaussianBlur stdDeviation="18"/><feComposite in2="hardAlpha" operator="out"/><feColorMatrix values="0 0 0 0 0.133611 0 0 0 0 0.181567 0 0 0 0 0.433333 0 0 0 0.1 0"/><feBlend in2="BackgroundImageFix" result="effect1_dropShadow_120_294"/><feBlend in="SourceGraphic" in2="effect1_dropShadow_120_294" result="shape"/></filter><filter id="g" x="263" y="1" width="199" height="173" filterUnits="userSpaceOnUse" color-interpolation-filters="sRGB"><feFlood flood-opacity="0" result="BackgroundImageFix"/><feColorMatrix in="SourceAlpha" values="0 0 0 0 0 0 0 0 0 0 0 0 0 0 0 0 0 0 127 0" result="hardAlpha"/><feOffset dx="9" dy="9"/><feGaussianBlur stdDeviation="18"/><feComposite in2="hardAlpha" operator="out"/><feColorMatrix values="0 0 0 0 0.133611 0 0 0 0 0.181567 0 0 0 0 0.433333 0 0 0 0.1 0"/><feBlend in2="BackgroundImageFix" result="effect1_dropShadow_120_294"/><feBlend in="SourceGraphic" in2="effect1_dropShadow_120_294" result="shape"/></filter></defs></svg>