<svg width="880" height="257" fill="none" xmlns="http://www.w3.org/2000/svg"><path d="M287.622 174.718h4.716v-28.706h-4.716v28.706Zm10.318 0h4.511V162.99c0-2.625 1.886-4.142 4.306-4.142 2.419 0 4.265 1.517 4.265 4.142v11.728h4.511V162.99c0-2.625 1.886-4.142 4.306-4.142 2.419 0 4.265 1.517 4.265 4.142v11.728h4.511v-12.713c0-4.552-3.404-7.381-7.628-7.381-2.747 0-5.085 1.23-6.561 3.28-1.272-2.091-3.609-3.28-6.316-3.28-2.296 0-4.306.861-5.659 2.419v-2.009h-4.511v19.684Zm35.323 8.202h4.511v-10.334c1.394 1.599 3.526 2.543 6.028 2.543 5.331 0 9.473-4.471 9.473-10.212 0-5.782-4.142-10.293-9.473-10.293-2.502 0-4.634.984-6.028 2.583v-2.173h-4.511v27.886Zm9.801-12.056c-3.322 0-5.577-2.461-5.577-5.988 0-3.527 2.255-5.987 5.577-5.987 3.281 0 5.577 2.46 5.577 5.987s-2.296 5.988-5.577 5.988Zm23.133 4.265c3.075 0 5.905-1.149 7.832-3.404l-2.87-2.912c-1.19 1.394-2.994 2.092-5.003 2.092-2.953 0-5.086-1.641-5.742-4.347h14.682c.164-.821.246-1.477.246-2.133 0-5.659-3.937-9.801-9.392-9.801-5.7 0-10.17 4.47-10.17 10.252 0 5.865 4.511 10.253 10.417 10.253Zm-.329-16.363c2.748 0 4.471 1.476 5.045 4.101h-10.499c.656-2.543 2.666-4.101 5.454-4.101Zm13.09 15.952h4.511v-10.949c0-3.363 1.804-4.921 4.347-4.921 1.148 0 1.968.328 2.707 1.066l2.952-3.035c-1.353-1.558-2.911-2.255-4.88-2.255-2.296 0-4.019.902-5.126 2.46v-2.05h-4.511v19.684Zm16.7 0h4.511V162.99c0-2.625 1.887-4.142 4.306-4.142 2.42 0 4.265 1.517 4.265 4.142v11.728h4.511V162.99c0-2.625 1.887-4.142 4.306-4.142 2.42 0 4.265 1.517 4.265 4.142v11.728h4.511v-12.713c0-4.552-3.403-7.381-7.627-7.381-2.748 0-5.086 1.23-6.562 3.28-1.271-2.091-3.609-3.28-6.315-3.28-2.297 0-4.306.861-5.66 2.419v-2.009h-4.511v19.684Zm43.566.411c2.502 0 4.634-.944 6.028-2.543v2.132h4.511v-19.684h-4.511v2.173c-1.394-1.599-3.526-2.583-6.028-2.583-5.331 0-9.473 4.511-9.473 10.293 0 5.741 4.142 10.212 9.473 10.212Zm.738-4.265c-3.281 0-5.577-2.461-5.577-5.988 0-3.527 2.296-5.987 5.577-5.987 3.322 0 5.577 2.46 5.577 5.987s-2.255 5.988-5.577 5.988Zm14.808 3.854h4.511v-11.359c0-2.625 1.886-4.511 4.511-4.511s4.47 1.886 4.47 4.511v11.359h4.511v-12.343c0-3.855-3.199-7.751-7.628-7.751-2.419 0-4.511.984-5.864 2.665v-2.255h-4.511v19.684Zm31.732.411c3.076 0 5.906-1.149 7.833-3.404l-2.87-2.912c-1.19 1.394-2.994 2.092-5.004 2.092-2.952 0-5.085-1.641-5.741-4.347h14.681c.165-.821.247-1.477.247-2.133 0-5.659-3.937-9.801-9.392-9.801-5.7 0-10.17 4.47-10.17 10.252 0 5.865 4.511 10.253 10.416 10.253Zm-.328-16.363c2.748 0 4.47 1.476 5.044 4.101H480.72c.656-2.543 2.666-4.101 5.454-4.101Zm13.09 15.952h4.511v-11.359c0-2.625 1.886-4.511 4.511-4.511s4.47 1.886 4.47 4.511v11.359h4.511v-12.343c0-3.855-3.199-7.751-7.628-7.751-2.419 0-4.511.984-5.864 2.665v-2.255h-4.511v19.684Zm25.341 0h4.511v-15.583h4.716v-4.101h-4.716v-8.202h-4.511v8.202h-4.717v4.101h4.717v15.583Zm20.715 0h4.511v-29.527h-4.511v29.527Zm18.553.411c5.824 0 10.335-4.512 10.335-10.294 0-5.741-4.552-10.211-10.335-10.211-5.782 0-10.293 4.511-10.293 10.211 0 5.741 4.552 10.294 10.293 10.294Zm0-4.347c-3.322 0-5.659-2.461-5.659-5.947 0-3.404 2.337-5.864 5.659-5.864 3.322 0 5.701 2.419 5.701 5.864 0 3.486-2.338 5.947-5.701 5.947Zm20.525 4.347c4.593 0 7.463-2.379 7.463-6.234 0-7.259-10.211-5.331-10.211-8.571 0-1.025 1.025-1.599 2.83-1.599 1.927 0 3.362.697 4.511 2.132l2.87-2.871c-1.64-2.214-4.101-3.362-7.258-3.362-4.511 0-7.259 2.296-7.259 6.069 0 7.136 10.211 5.003 10.211 8.571 0 1.148-1.066 1.764-3.075 1.764-2.256 0-4.019-.78-5.373-2.379l-2.87 2.871c1.886 2.296 4.839 3.609 8.161 3.609Zm17.621 0c4.593 0 7.464-2.379 7.464-6.234 0-7.259-10.212-5.331-10.212-8.571 0-1.025 1.026-1.599 2.83-1.599 1.928 0 3.363.697 4.511 2.132l2.871-2.871c-1.641-2.214-4.101-3.362-7.259-3.362-4.511 0-7.259 2.296-7.259 6.069 0 7.136 10.212 5.003 10.212 8.571 0 1.148-1.066 1.764-3.076 1.764-2.255 0-4.019-.78-5.372-2.379l-2.871 2.871c1.887 2.296 4.839 3.609 8.161 3.609Z" fill="#27326F"/><path d="M690.074 21h2.197V7.624h-2.197V21Zm4.808 0h2.102v-5.465c0-1.223.879-1.93 2.006-1.93 1.127 0 1.987.707 1.987 1.93V21h2.102v-5.465c0-1.223.879-1.93 2.007-1.93 1.127 0 1.987.707 1.987 1.93V21h2.102v-5.924c0-2.121-1.586-3.44-3.554-3.44-1.28 0-2.37.574-3.058 1.53-.592-.975-1.681-1.53-2.942-1.53-1.07 0-2.007.402-2.637 1.128v-.936h-2.102V21Zm16.459 3.822h2.102v-4.816c.65.746 1.643 1.185 2.809 1.185 2.484 0 4.414-2.083 4.414-4.758 0-2.694-1.93-4.796-4.414-4.796-1.166 0-2.159.458-2.809 1.203v-1.012h-2.102v12.994Zm4.567-5.618c-1.548 0-2.599-1.147-2.599-2.79 0-1.644 1.051-2.79 2.599-2.79 1.529 0 2.599 1.146 2.599 2.79 0 1.643-1.07 2.79-2.599 2.79Zm10.779 1.987c1.433 0 2.752-.535 3.65-1.586l-1.338-1.357c-.554.65-1.395.975-2.331.975-1.376 0-2.37-.764-2.675-2.026h6.841c.076-.382.114-.688.114-.993 0-2.638-1.834-4.568-4.376-4.568-2.656 0-4.739 2.083-4.739 4.778 0 2.732 2.102 4.777 4.854 4.777Zm-.153-7.624c1.281 0 2.083.687 2.351 1.91h-4.892c.305-1.184 1.242-1.91 2.541-1.91ZM732.633 21h2.103v-5.102c0-1.567.84-2.293 2.025-2.293.535 0 .917.153 1.261.497l1.376-1.415c-.63-.726-1.357-1.05-2.274-1.05-1.07 0-1.873.42-2.388 1.146v-.955h-2.103V21Zm7.782 0h2.102v-5.465c0-1.223.879-1.93 2.007-1.93 1.127 0 1.987.707 1.987 1.93V21h2.102v-5.465c0-1.223.879-1.93 2.007-1.93 1.127 0 1.987.707 1.987 1.93V21h2.102v-5.924c0-2.121-1.586-3.44-3.554-3.44-1.281 0-2.37.574-3.058 1.53-.592-.975-1.681-1.53-2.943-1.53-1.07 0-2.006.402-2.637 1.128v-.936h-2.102V21Zm20.301.191c1.165 0 2.159-.44 2.809-1.185V21h2.102v-9.172h-2.102v1.012c-.65-.745-1.644-1.204-2.809-1.204-2.485 0-4.415 2.103-4.415 4.797 0 2.675 1.93 4.758 4.415 4.758Zm.344-1.987c-1.529 0-2.599-1.147-2.599-2.79 0-1.644 1.07-2.79 2.599-2.79 1.547 0 2.598 1.146 2.598 2.79 0 1.643-1.051 2.79-2.598 2.79ZM767.959 21h2.102v-5.293c0-1.223.879-2.102 2.102-2.102 1.223 0 2.083.879 2.083 2.102V21h2.102v-5.752c0-1.796-1.49-3.611-3.554-3.611-1.127 0-2.102.458-2.733 1.242v-1.051h-2.102V21Zm14.787.191c1.433 0 2.752-.535 3.65-1.586l-1.338-1.357c-.554.65-1.395.975-2.331.975-1.376 0-2.37-.764-2.676-2.026h6.842c.076-.382.114-.688.114-.993 0-2.638-1.834-4.568-4.376-4.568-2.656 0-4.739 2.083-4.739 4.778 0 2.732 2.102 4.777 4.854 4.777Zm-.153-7.624c1.28 0 2.083.687 2.35 1.91h-4.892c.306-1.184 1.243-1.91 2.542-1.91ZM788.692 21h2.102v-5.293c0-1.223.879-2.102 2.102-2.102 1.223 0 2.083.879 2.083 2.102V21h2.102v-5.752c0-1.796-1.49-3.611-3.554-3.611-1.128 0-2.102.458-2.733 1.242v-1.051h-2.102V21Zm11.808 0h2.102v-7.261h2.198v-1.911h-2.198V8.006H800.5v3.822h-2.197v1.91h2.197V21Zm9.653 0h2.102V7.241h-2.102V21Zm8.645.191c2.714 0 4.816-2.102 4.816-4.796 0-2.676-2.121-4.758-4.816-4.758-2.694 0-4.796 2.101-4.796 4.758a4.763 4.763 0 0 0 4.796 4.796Zm0-2.025c-1.548 0-2.637-1.147-2.637-2.771 0-1.586 1.089-2.733 2.637-2.733s2.656 1.127 2.656 2.733c0 1.624-1.089 2.77-2.656 2.77Zm9.564 2.025c2.14 0 3.478-1.108 3.478-2.904 0-3.383-4.758-2.485-4.758-3.994 0-.478.477-.746 1.318-.746.898 0 1.567.325 2.102.994l1.338-1.338c-.765-1.031-1.911-1.566-3.383-1.566-2.102 0-3.382 1.07-3.382 2.828 0 3.325 4.758 2.331 4.758 3.994 0 .535-.496.821-1.433.821-1.051 0-1.873-.363-2.503-1.108l-1.338 1.337c.879 1.07 2.255 1.682 3.803 1.682Zm8.211 0c2.14 0 3.478-1.108 3.478-2.904 0-3.383-4.758-2.485-4.758-3.994 0-.478.477-.746 1.318-.746.898 0 1.567.325 2.102.994l1.338-1.338c-.765-1.031-1.911-1.566-3.383-1.566-2.102 0-3.382 1.07-3.382 2.828 0 3.325 4.758 2.331 4.758 3.994 0 .535-.496.821-1.433.821-1.051 0-1.873-.363-2.503-1.108l-1.338 1.337c.879 1.07 2.255 1.682 3.803 1.682ZM183.433 23.563h2.197V10.187h-2.197v13.376Zm4.808 0h2.102v-5.465c0-1.223.879-1.93 2.006-1.93 1.128 0 1.988.707 1.988 1.93v5.465h2.102v-5.465c0-1.223.879-1.93 2.006-1.93 1.128 0 1.987.707 1.987 1.93v5.465h2.103V17.64c0-2.12-1.587-3.44-3.555-3.44-1.28 0-2.369.574-3.057 1.53-.593-.975-1.682-1.53-2.943-1.53-1.07 0-2.007.402-2.637 1.128v-.936h-2.102v9.172Zm16.459 3.822h2.102v-4.816c.65.746 1.644 1.185 2.809 1.185 2.484 0 4.414-2.083 4.414-4.758 0-2.694-1.93-4.796-4.414-4.796-1.165 0-2.159.458-2.809 1.204V14.39H204.7v12.994Zm4.567-5.618c-1.548 0-2.599-1.147-2.599-2.79s1.051-2.79 2.599-2.79c1.529 0 2.599 1.146 2.599 2.79 0 1.643-1.07 2.79-2.599 2.79Zm10.779 1.987c1.434 0 2.752-.535 3.65-1.586l-1.337-1.357c-.555.65-1.395.975-2.332.975-1.376 0-2.369-.764-2.675-2.026h6.841c.076-.382.115-.688.115-.993 0-2.637-1.835-4.567-4.376-4.567-2.656 0-4.739 2.082-4.739 4.777 0 2.732 2.102 4.777 4.853 4.777Zm-.153-7.624c1.281 0 2.083.688 2.351 1.91h-4.892c.306-1.184 1.242-1.91 2.541-1.91Zm6.1 7.433h2.102v-5.102c0-1.567.841-2.293 2.025-2.293.535 0 .918.153 1.262.497l1.375-1.414c-.63-.727-1.356-1.051-2.274-1.051-1.07 0-1.872.42-2.388 1.146v-.955h-2.102v9.172Zm7.782 0h2.102v-5.465c0-1.223.879-1.93 2.006-1.93 1.127 0 1.987.707 1.987 1.93v5.465h2.102v-5.465c0-1.223.879-1.93 2.007-1.93 1.127 0 1.987.707 1.987 1.93v5.465h2.102V17.64c0-2.12-1.586-3.44-3.554-3.44-1.28 0-2.37.574-3.058 1.53-.592-.975-1.681-1.53-2.942-1.53-1.07 0-2.007.402-2.637 1.128v-.936h-2.102v9.172Zm20.3.191c1.165 0 2.159-.44 2.809-1.185v.994h2.102v-9.172h-2.102v1.012c-.65-.745-1.644-1.203-2.809-1.203-2.484 0-4.414 2.102-4.414 4.796 0 2.675 1.93 4.758 4.414 4.758Zm.344-1.987c-1.529 0-2.599-1.147-2.599-2.79s1.07-2.79 2.599-2.79c1.548 0 2.599 1.146 2.599 2.79 0 1.643-1.051 2.79-2.599 2.79Zm6.9 1.796h2.102V18.27c0-1.223.879-2.102 2.102-2.102 1.223 0 2.083.879 2.083 2.102v5.293h2.102v-5.752c0-1.796-1.491-3.611-3.555-3.611-1.127 0-2.102.458-2.732 1.242V14.39h-2.102v9.172Zm14.786.191c1.433 0 2.752-.535 3.65-1.586l-1.338-1.357c-.554.65-1.395.975-2.331.975-1.376 0-2.37-.764-2.675-2.026h6.841c.076-.382.114-.688.114-.993 0-2.637-1.834-4.567-4.376-4.567-2.656 0-4.739 2.082-4.739 4.777 0 2.732 2.102 4.777 4.854 4.777Zm-.153-7.624c1.281 0 2.083.688 2.351 1.91h-4.892c.305-1.184 1.242-1.91 2.541-1.91Zm6.099 7.433h2.102V18.27c0-1.223.88-2.102 2.103-2.102 1.222 0 2.082.879 2.082 2.102v5.293h2.102v-5.752c0-1.796-1.49-3.611-3.554-3.611-1.127 0-2.102.458-2.733 1.242V14.39h-2.102v9.172Zm11.808 0h2.103v-7.261h2.197V14.39h-2.197v-3.822h-2.103v3.822h-2.197v1.91h2.197v7.262Zm9.653 0h2.102V9.804h-2.102v13.76Zm8.645.191c2.714 0 4.816-2.102 4.816-4.796 0-2.675-2.121-4.758-4.816-4.758-2.694 0-4.796 2.102-4.796 4.758a4.763 4.763 0 0 0 4.796 4.796Zm0-2.025c-1.547 0-2.637-1.147-2.637-2.771 0-1.586 1.09-2.733 2.637-2.733 1.548 0 2.657 1.128 2.657 2.733 0 1.624-1.09 2.77-2.657 2.77Zm9.564 2.025c2.14 0 3.478-1.108 3.478-2.904 0-3.383-4.758-2.485-4.758-3.994 0-.478.478-.746 1.318-.746.899 0 1.567.325 2.102.994l1.338-1.337c-.764-1.032-1.911-1.567-3.382-1.567-2.102 0-3.383 1.07-3.383 2.828 0 3.325 4.759 2.331 4.759 3.994 0 .535-.497.821-1.434.821-1.051 0-1.872-.363-2.503-1.108l-1.338 1.338c.879 1.07 2.255 1.681 3.803 1.681Zm8.211 0c2.14 0 3.478-1.108 3.478-2.904 0-3.383-4.758-2.485-4.758-3.994 0-.478.478-.746 1.318-.746.899 0 1.567.325 2.102.994l1.338-1.337c-.764-1.032-1.911-1.567-3.382-1.567-2.102 0-3.383 1.07-3.383 2.828 0 3.325 4.759 2.331 4.759 3.994 0 .535-.497.821-1.434.821-1.051 0-1.872-.363-2.503-1.108l-1.338 1.338c.879 1.07 2.255 1.681 3.803 1.681Z" fill="#BDBDBD"/><path d="M1.485 115.835h2.247v-13.677H1.485v13.677Zm4.916 0h2.15v-5.588c0-1.251.898-1.973 2.05-1.973 1.153 0 2.033.722 2.033 1.973v5.588h2.149v-5.588c0-1.251.899-1.973 2.051-1.973 1.153 0 2.033.722 2.033 1.973v5.588h2.149v-6.057c0-2.169-1.622-3.517-3.634-3.517-1.31 0-2.423.586-3.127 1.563-.605-.996-1.719-1.563-3.009-1.563-1.094 0-2.051.41-2.696 1.153v-.958H6.4v9.379Zm16.83 3.908h2.148v-4.924c.665.762 1.68 1.211 2.872 1.211 2.54 0 4.514-2.129 4.514-4.865 0-2.755-1.974-4.904-4.514-4.904-1.191 0-2.207.469-2.872 1.231v-1.036H23.23v13.287Zm4.669-5.745c-1.583 0-2.657-1.172-2.657-2.852 0-1.681 1.074-2.853 2.657-2.853 1.563 0 2.657 1.172 2.657 2.853 0 1.68-1.094 2.852-2.657 2.852Zm11.021 2.032c1.466 0 2.814-.547 3.732-1.621l-1.368-1.388c-.566.665-1.426.997-2.383.997-1.407 0-2.423-.782-2.736-2.071h6.995c.078-.391.117-.704.117-1.016 0-2.697-1.875-4.67-4.474-4.67-2.716 0-4.846 2.13-4.846 4.885 0 2.794 2.15 4.884 4.963 4.884Zm-.156-7.796c1.309 0 2.13.704 2.403 1.954h-5.002c.313-1.211 1.27-1.954 2.599-1.954ZM45 115.835h2.15v-5.217c0-1.602.86-2.344 2.07-2.344.548 0 .938.156 1.29.508l1.407-1.446c-.645-.743-1.387-1.075-2.325-1.075-1.094 0-1.915.43-2.443 1.172v-.977h-2.149v9.379Zm7.957 0h2.15v-5.588c0-1.251.898-1.973 2.05-1.973 1.153 0 2.033.722 2.033 1.973v5.588h2.149v-5.588c0-1.251.899-1.973 2.051-1.973 1.153 0 2.033.722 2.033 1.973v5.588h2.149v-6.057c0-2.169-1.622-3.517-3.634-3.517-1.31 0-2.423.586-3.127 1.563-.605-.996-1.719-1.563-3.009-1.563-1.094 0-2.051.41-2.696 1.153v-.958h-2.15v9.379Zm20.756.195c1.192 0 2.208-.449 2.873-1.211v1.016h2.149v-9.379h-2.15v1.036c-.664-.762-1.68-1.231-2.872-1.231-2.54 0-4.513 2.149-4.513 4.904 0 2.736 1.973 4.865 4.513 4.865Zm.352-2.032c-1.563 0-2.657-1.172-2.657-2.852 0-1.681 1.094-2.853 2.657-2.853 1.583 0 2.657 1.172 2.657 2.853 0 1.68-1.074 2.852-2.657 2.852Zm7.055 1.837h2.15v-5.412c0-1.251.898-2.149 2.148-2.149 1.251 0 2.13.898 2.13 2.149v5.412h2.15v-5.881c0-1.837-1.525-3.693-3.635-3.693-1.152 0-2.149.469-2.794 1.27v-1.075h-2.149v9.379Zm15.119.195c1.465 0 2.813-.547 3.732-1.621l-1.368-1.388c-.567.665-1.427.997-2.384.997-1.407 0-2.423-.782-2.735-2.071h6.995c.078-.391.117-.704.117-1.016 0-2.697-1.876-4.67-4.475-4.67-2.716 0-4.845 2.13-4.845 4.885 0 2.794 2.15 4.884 4.963 4.884Zm-.157-7.796c1.31 0 2.13.704 2.404 1.954h-5.002c.312-1.211 1.27-1.954 2.598-1.954Zm6.237 7.601h2.149v-5.412c0-1.251.899-2.149 2.149-2.149 1.251 0 2.13.898 2.13 2.149v5.412h2.149v-5.881c0-1.837-1.524-3.693-3.634-3.693-1.153 0-2.149.469-2.794 1.27v-1.075h-2.149v9.379Zm12.073 0h2.149v-7.425h2.247v-1.954h-2.247v-3.907h-2.149v3.907h-2.247v1.954h2.247v7.425Zm9.869 0h2.15v-14.068h-2.15v14.068Zm8.84.195c2.775 0 4.924-2.149 4.924-4.904 0-2.735-2.169-4.865-4.924-4.865-2.755 0-4.904 2.149-4.904 4.865a4.87 4.87 0 0 0 4.904 4.904Zm0-2.071c-1.582 0-2.696-1.172-2.696-2.833 0-1.622 1.114-2.794 2.696-2.794 1.583 0 2.716 1.153 2.716 2.794 0 1.661-1.114 2.833-2.716 2.833Zm9.779 2.071c2.188 0 3.556-1.133 3.556-2.97 0-3.458-4.865-2.54-4.865-4.083 0-.489.488-.762 1.348-.762.918 0 1.602.332 2.149 1.016l1.368-1.368c-.782-1.055-1.954-1.602-3.458-1.602-2.15 0-3.459 1.094-3.459 2.892 0 3.399 4.865 2.383 4.865 4.083 0 .547-.508.84-1.465.84-1.075 0-1.915-.371-2.56-1.133l-1.367 1.368c.898 1.094 2.305 1.719 3.888 1.719Zm8.395 0c2.189 0 3.556-1.133 3.556-2.97 0-3.458-4.865-2.54-4.865-4.083 0-.489.489-.762 1.348-.762.919 0 1.603.332 2.15 1.016l1.367-1.368c-.781-1.055-1.953-1.602-3.458-1.602-2.149 0-3.458 1.094-3.458 2.892 0 3.399 4.865 2.383 4.865 4.083 0 .547-.508.84-1.466.84-1.074 0-1.914-.371-2.559-1.133l-1.368 1.368c.899 1.094 2.306 1.719 3.888 1.719Z" fill="#5DC5C5"/><path d="M79.248 170.007c4.644 0 7.566-2.399 7.566-6.275 0-7.997-10.211-5.567-10.211-10.119 0-1.569 1.26-2.461 3.414-2.461 1.722 0 2.983.677 4.214 2.061l2.399-2.399c-1.415-1.722-3.691-2.953-6.521-2.953-3.968 0-7.043 2.215-7.043 5.998 0 7.689 10.211 5.044 10.211 10.088 0 1.723-1.538 2.769-3.906 2.769-2.553 0-4.06-1.015-5.26-2.738l-2.399 2.399c1.876 2.399 4.122 3.63 7.536 3.63Zm17.31 0c2.307 0 4.429-.862 5.875-2.553l-2.153-2.184c-.892 1.046-2.246 1.569-3.753 1.569-2.214 0-3.814-1.231-4.306-3.261h11.011c.124-.615.185-1.107.185-1.599 0-4.245-2.953-7.351-7.043-7.351-4.276 0-7.628 3.353-7.628 7.689 0 4.399 3.383 7.69 7.812 7.69Zm-.246-12.273c2.06 0 3.353 1.108 3.783 3.076h-7.874c.492-1.907 2-3.076 4.091-3.076Zm16.676 12.273c2.307 0 4.429-.862 5.875-2.553l-2.153-2.184c-.892 1.046-2.246 1.569-3.753 1.569-2.214 0-3.814-1.231-4.306-3.261h11.011c.123-.615.185-1.107.185-1.599 0-4.245-2.953-7.351-7.043-7.351-4.276 0-7.628 3.353-7.628 7.689 0 4.399 3.383 7.69 7.812 7.69Zm-.246-12.273c2.061 0 3.353 1.108 3.783 3.076h-7.874c.492-1.907 2-3.076 4.091-3.076Zm15.999 12.273c1.877 0 3.476-.708 4.522-1.907v1.599h3.383v-22.145h-3.383v9.012c-1.046-1.2-2.645-1.938-4.522-1.938-3.998 0-7.105 3.383-7.105 7.72 0 4.306 3.107 7.659 7.105 7.659Zm.554-3.199c-2.461 0-4.183-1.846-4.183-4.491 0-2.645 1.722-4.49 4.183-4.49 2.491 0 4.183 1.845 4.183 4.49 0 2.645-1.692 4.491-4.183 4.491Zm17.725 2.891h3.537v-8.12h4.459c4.06 0 7.136-2.645 7.136-6.705 0-4.06-3.076-6.705-7.136-6.705h-7.996v21.53Zm7.812-18.454c2.214 0 3.783 1.415 3.783 3.629 0 2.215-1.569 3.629-3.783 3.629h-4.275v-7.258h4.275Zm10.289 18.454h3.383v-8.52c0-1.968 1.415-3.383 3.383-3.383 1.969 0 3.353 1.415 3.353 3.383v8.52h3.383v-9.258c0-3.414-2.43-5.813-5.721-5.813-1.814 0-3.383.738-4.398 1.999v-9.073h-3.383v22.145Zm16.94 0h3.384v-8.212c0-2.522 1.353-3.691 3.26-3.691.861 0 1.476.246 2.03.8l2.214-2.276c-1.015-1.169-2.183-1.692-3.66-1.692-1.722 0-3.014.677-3.844 1.845v-1.537h-3.384v14.763Zm18.257.308c1.876 0 3.476-.708 4.521-1.907v1.599h3.384v-14.763h-3.384v1.63c-1.045-1.2-2.645-1.938-4.521-1.938-3.998 0-7.105 3.383-7.105 7.72 0 4.306 3.107 7.659 7.105 7.659Zm.554-3.199c-2.461 0-4.183-1.846-4.183-4.491 0-2.645 1.722-4.49 4.183-4.49 2.491 0 4.183 1.845 4.183 4.49 0 2.645-1.692 4.491-4.183 4.491Zm15.934 3.199c3.445 0 5.598-1.784 5.598-4.675 0-5.445-7.658-3.999-7.658-6.429 0-.769.769-1.199 2.122-1.199 1.446 0 2.522.523 3.383 1.599l2.153-2.153c-1.23-1.661-3.075-2.522-5.444-2.522-3.383 0-5.444 1.722-5.444 4.552 0 5.352 7.659 3.752 7.659 6.428 0 .862-.8 1.323-2.307 1.323-1.692 0-3.014-.585-4.029-1.784l-2.153 2.153c1.415 1.722 3.629 2.707 6.12 2.707Zm15.246 0c2.307 0 4.429-.862 5.875-2.553l-2.153-2.184c-.892 1.046-2.245 1.569-3.752 1.569-2.215 0-3.814-1.231-4.306-3.261h11.011c.123-.615.184-1.107.184-1.599 0-4.245-2.952-7.351-7.043-7.351-4.275 0-7.628 3.353-7.628 7.689 0 4.399 3.383 7.69 7.812 7.69Zm-.246-12.273c2.061 0 3.353 1.108 3.783 3.076h-7.873c.492-1.907 1.999-3.076 4.09-3.076Z" fill="#27326F"/><path d="M719.17 74.317c4.645 0 7.566-2.399 7.566-6.274 0-7.997-10.211-5.567-10.211-10.12 0-1.568 1.261-2.46 3.414-2.46 1.723 0 2.984.677 4.214 2.06l2.399-2.398c-1.415-1.723-3.691-2.953-6.521-2.953-3.967 0-7.043 2.215-7.043 5.998 0 7.689 10.211 5.044 10.211 10.088 0 1.723-1.537 2.768-3.906 2.768-2.553 0-4.06-1.015-5.259-2.737l-2.399 2.399c1.876 2.399 4.121 3.63 7.535 3.63Zm17.311 0c2.306 0 4.429-.86 5.874-2.553l-2.153-2.183c-.892 1.045-2.245 1.568-3.752 1.568-2.215 0-3.814-1.23-4.306-3.26h11.011c.123-.615.184-1.107.184-1.6 0-4.244-2.952-7.35-7.043-7.35-4.275 0-7.628 3.352-7.628 7.689 0 4.398 3.383 7.69 7.813 7.69Zm-.247-12.272c2.061 0 3.353 1.107 3.784 3.076h-7.874c.492-1.907 1.999-3.076 4.09-3.076Zm16.676 12.272c2.307 0 4.429-.86 5.875-2.553l-2.153-2.183c-.892 1.045-2.245 1.568-3.752 1.568-2.215 0-3.814-1.23-4.306-3.26h11.011c.123-.615.184-1.107.184-1.6 0-4.244-2.952-7.35-7.043-7.35-4.275 0-7.628 3.352-7.628 7.689 0 4.398 3.383 7.69 7.812 7.69Zm-.246-12.272c2.061 0 3.353 1.107 3.784 3.076h-7.874c.492-1.907 1.999-3.076 4.09-3.076Zm16 12.272c1.876 0 3.475-.707 4.521-1.907v1.6h3.383V51.864h-3.383v9.012c-1.046-1.2-2.645-1.937-4.521-1.937-3.999 0-7.105 3.383-7.105 7.72 0 4.306 3.106 7.658 7.105 7.658Zm.553-3.198c-2.46 0-4.183-1.846-4.183-4.491 0-2.645 1.723-4.49 4.183-4.49 2.492 0 4.183 1.845 4.183 4.49 0 2.645-1.691 4.49-4.183 4.49Zm17.725 2.89h3.537v-8.12h4.46c4.06 0 7.136-2.644 7.136-6.704s-3.076-6.705-7.136-6.705h-7.997v21.53Zm7.812-18.454c2.215 0 3.783 1.415 3.783 3.63 0 2.214-1.568 3.63-3.783 3.63h-4.275v-7.26h4.275Zm10.289 18.455h3.383v-8.52c0-1.968 1.415-3.383 3.384-3.383 1.968 0 3.352 1.415 3.352 3.383v8.52h3.384v-9.258c0-3.414-2.43-5.813-5.721-5.813-1.815 0-3.384.738-4.399 1.999v-9.074h-3.383V74.01Zm16.941 0h3.383v-8.213c0-2.522 1.353-3.69 3.26-3.69.861 0 1.477.246 2.03.8l2.215-2.277c-1.015-1.169-2.184-1.691-3.66-1.691-1.723 0-3.015.676-3.845 1.845v-1.538h-3.383V74.01Zm18.256.307c1.877 0 3.476-.707 4.522-1.907v1.6h3.383V59.246h-3.383v1.63c-1.046-1.2-2.645-1.937-4.522-1.937-3.998 0-7.104 3.383-7.104 7.72 0 4.306 3.106 7.658 7.104 7.658Zm.554-3.198c-2.46 0-4.183-1.846-4.183-4.491 0-2.645 1.723-4.49 4.183-4.49 2.491 0 4.183 1.845 4.183 4.49 0 2.645-1.692 4.49-4.183 4.49Zm15.935 3.198c3.445 0 5.598-1.784 5.598-4.675 0-5.444-7.659-3.998-7.659-6.428 0-.769.769-1.2 2.122-1.2 1.446 0 2.522.523 3.384 1.6l2.153-2.153c-1.231-1.661-3.076-2.522-5.444-2.522-3.384 0-5.444 1.722-5.444 4.552 0 5.352 7.658 3.752 7.658 6.428 0 .861-.8 1.323-2.307 1.323-1.691 0-3.014-.585-4.029-1.784l-2.153 2.153c1.415 1.722 3.629 2.706 6.121 2.706Zm15.246 0c2.307 0 4.429-.86 5.874-2.553l-2.153-2.183c-.892 1.045-2.245 1.568-3.752 1.568-2.215 0-3.814-1.23-4.306-3.26h11.011c.123-.615.185-1.107.185-1.6 0-4.244-2.953-7.35-7.044-7.35-4.275 0-7.628 3.352-7.628 7.689 0 4.398 3.384 7.69 7.813 7.69Zm-.246-12.272c2.06 0 3.352 1.107 3.783 3.076h-7.874c.492-1.907 1.999-3.076 4.091-3.076ZM485.977 204.727c2.768 0 4.509-1.43 4.509-3.739 0-4.766-6.085-3.318-6.085-6.031 0-.935.751-1.466 2.034-1.466 1.027 0 1.778.403 2.512 1.228l1.429-1.43c-.843-1.026-2.199-1.76-3.886-1.76-2.364 0-4.197 1.32-4.197 3.575 0 4.582 6.085 3.006 6.085 6.012 0 1.026-.916 1.65-2.327 1.65-1.522 0-2.42-.605-3.135-1.632l-1.43 1.43c1.118 1.43 2.457 2.163 4.491 2.163Zm10.316 0c1.375 0 2.64-.513 3.502-1.521l-1.284-1.302c-.531.623-1.338.935-2.236.935-1.32 0-2.273-.733-2.566-1.943h6.562c.073-.367.11-.66.11-.953 0-2.53-1.76-4.381-4.197-4.381-2.548 0-4.546 1.998-4.546 4.582 0 2.622 2.016 4.583 4.655 4.583Zm-.146-7.314c1.228 0 1.998.66 2.254 1.833h-4.692c.293-1.136 1.191-1.833 2.438-1.833Zm9.938 7.314c1.375 0 2.64-.513 3.501-1.521l-1.283-1.302c-.532.623-1.338.935-2.236.935-1.32 0-2.273-.733-2.566-1.943h6.562c.073-.367.11-.66.11-.953 0-2.53-1.76-4.381-4.198-4.381-2.548 0-4.546 1.998-4.546 4.582 0 2.622 2.017 4.583 4.656 4.583Zm-.147-7.314c1.229 0 1.998.66 2.255 1.833h-4.692c.293-1.136 1.191-1.833 2.437-1.833Zm9.535 7.314c1.118 0 2.072-.422 2.695-1.136v.953h2.016v-13.198h-2.016v5.371c-.623-.715-1.577-1.155-2.695-1.155-2.383 0-4.234 2.016-4.234 4.601 0 2.566 1.851 4.564 4.234 4.564Zm.33-1.906c-1.466 0-2.493-1.1-2.493-2.677 0-1.576 1.027-2.676 2.493-2.676 1.485 0 2.493 1.1 2.493 2.676 0 1.577-1.008 2.677-2.493 2.677Zm10.563 1.723h2.108v-4.839h2.658c2.42 0 4.253-1.577 4.253-3.996 0-2.42-1.833-3.996-4.253-3.996h-4.766v12.831Zm4.656-10.998c1.32 0 2.255.843 2.255 2.163 0 1.319-.935 2.163-2.255 2.163h-2.548v-4.326h2.548Zm6.132 10.998h2.016v-5.078c0-1.173.843-2.016 2.017-2.016 1.173 0 1.998.843 1.998 2.016v5.078h2.016v-5.518c0-2.034-1.448-3.464-3.409-3.464-1.082 0-2.017.44-2.622 1.191v-5.407h-2.016v13.198Zm10.096 0h2.016v-4.894c0-1.504.807-2.2 1.943-2.2.513 0 .88.147 1.21.477l1.32-1.357c-.605-.696-1.302-1.008-2.182-1.008-1.026 0-1.796.403-2.291 1.1v-.917h-2.016v8.799Zm10.88.183c1.118 0 2.072-.422 2.695-1.136v.953h2.016v-8.799h-2.016v.972c-.623-.715-1.577-1.155-2.695-1.155-2.383 0-4.234 2.016-4.234 4.601 0 2.566 1.851 4.564 4.234 4.564Zm.33-1.906c-1.466 0-2.493-1.1-2.493-2.677 0-1.576 1.027-2.676 2.493-2.676 1.485 0 2.493 1.1 2.493 2.676 0 1.577-1.008 2.677-2.493 2.677Zm9.497 1.906c2.053 0 3.336-1.063 3.336-2.786 0-3.245-4.565-2.383-4.565-3.831 0-.458.459-.715 1.265-.715.862 0 1.503.312 2.017.953l1.283-1.283c-.734-.99-1.833-1.503-3.245-1.503-2.016 0-3.244 1.026-3.244 2.713 0 3.189 4.564 2.236 4.564 3.831 0 .513-.477.788-1.375.788-1.008 0-1.796-.348-2.401-1.063l-1.283 1.283c.843 1.026 2.163 1.613 3.648 1.613Zm9.086 0c1.374 0 2.639-.513 3.501-1.521l-1.283-1.302c-.532.623-1.339.935-2.237.935-1.32 0-2.273-.733-2.566-1.943h6.562c.074-.367.11-.66.11-.953 0-2.53-1.759-4.381-4.197-4.381-2.548 0-4.546 1.998-4.546 4.582 0 2.622 2.016 4.583 4.656 4.583Zm-.147-7.314c1.228 0 1.998.66 2.255 1.833h-4.693c.293-1.136 1.191-1.833 2.438-1.833Z" fill="#5DC5C5"/><path d="M330.579 127.369c2.345 0 3.821-1.212 3.821-3.169 0-4.039-5.157-2.812-5.157-5.111 0-.792.637-1.242 1.724-1.242.87 0 1.507.341 2.128 1.04l1.212-1.211c-.715-.87-1.864-1.492-3.293-1.492-2.004 0-3.558 1.119-3.558 3.03 0 3.883 5.158 2.547 5.158 5.095 0 .87-.777 1.398-1.973 1.398-1.29 0-2.051-.513-2.657-1.383l-1.211 1.212c.947 1.212 2.081 1.833 3.806 1.833Zm8.742 0c1.165 0 2.237-.435 2.967-1.289l-1.087-1.103c-.451.528-1.134.792-1.895.792-1.119 0-1.927-.621-2.175-1.647h5.561a4.03 4.03 0 0 0 .093-.807c0-2.144-1.491-3.713-3.557-3.713-2.159 0-3.852 1.693-3.852 3.883 0 2.222 1.708 3.884 3.945 3.884Zm-.124-6.198c1.041 0 1.693.559 1.911 1.553h-3.977c.248-.963 1.01-1.553 2.066-1.553Zm8.422 6.198c1.165 0 2.237-.435 2.967-1.289l-1.087-1.103c-.451.528-1.134.792-1.895.792-1.119 0-1.927-.621-2.175-1.647h5.561a4.03 4.03 0 0 0 .093-.807c0-2.144-1.491-3.713-3.557-3.713-2.159 0-3.852 1.693-3.852 3.883 0 2.222 1.708 3.884 3.945 3.884Zm-.124-6.198c1.041 0 1.693.559 1.911 1.553h-3.977c.248-.963 1.01-1.553 2.066-1.553Zm8.08 6.198c.948 0 1.756-.357 2.284-.963v.808h1.709v-11.185h-1.709v4.552c-.528-.606-1.336-.979-2.284-.979-2.019 0-3.588 1.709-3.588 3.899 0 2.175 1.569 3.868 3.588 3.868Zm.28-1.616c-1.243 0-2.113-.932-2.113-2.268 0-1.336.87-2.268 2.113-2.268 1.258 0 2.113.932 2.113 2.268 0 1.336-.855 2.268-2.113 2.268Zm8.952 1.461h1.786v-4.101h2.253c2.05 0 3.603-1.336 3.603-3.387 0-2.05-1.553-3.386-3.603-3.386h-4.039v10.874Zm3.945-9.321c1.119 0 1.911.715 1.911 1.833 0 1.119-.792 1.833-1.911 1.833h-2.159v-3.666h2.159Zm5.197 9.321h1.708v-4.303c0-.995.715-1.709 1.709-1.709.994 0 1.693.714 1.693 1.709v4.303h1.709v-4.676c0-1.724-1.227-2.936-2.889-2.936-.917 0-1.709.373-2.222 1.01v-4.583h-1.708v11.185Zm8.556 0h1.708v-4.148c0-1.274.684-1.864 1.647-1.864.435 0 .746.124 1.025.404l1.119-1.15c-.513-.59-1.103-.854-1.849-.854-.87 0-1.522.342-1.942.932v-.777h-1.708v7.457Zm9.22.155c.948 0 1.756-.357 2.284-.963v.808h1.708v-7.457h-1.708v.824c-.528-.606-1.336-.979-2.284-.979-2.019 0-3.588 1.709-3.588 3.899 0 2.175 1.569 3.868 3.588 3.868Zm.28-1.616c-1.243 0-2.113-.932-2.113-2.268 0-1.336.87-2.268 2.113-2.268 1.258 0 2.112.932 2.112 2.268 0 1.336-.854 2.268-2.112 2.268Zm8.048 1.616c1.739 0 2.827-.901 2.827-2.361 0-2.75-3.868-2.02-3.868-3.247 0-.388.388-.606 1.072-.606.73 0 1.273.264 1.708.808l1.088-1.087c-.622-.839-1.554-1.274-2.75-1.274-1.708 0-2.749.87-2.749 2.299 0 2.703 3.868 1.895 3.868 3.247 0 .434-.404.668-1.165.668-.855 0-1.523-.296-2.035-.901l-1.088 1.087c.715.87 1.833 1.367 3.092 1.367Zm7.7 0c1.165 0 2.237-.435 2.967-1.289l-1.088-1.103c-.45.528-1.134.792-1.895.792-1.118 0-1.926-.621-2.175-1.647h5.562a4.03 4.03 0 0 0 .093-.807c0-2.144-1.492-3.713-3.558-3.713-2.159 0-3.852 1.693-3.852 3.883 0 2.222 1.709 3.884 3.946 3.884Zm-.125-6.198c1.041 0 1.694.559 1.911 1.553h-3.977c.249-.963 1.01-1.553 2.066-1.553Z" fill="#27326F"/><path d="M370.588 39.288c4.644 0 7.566-2.399 7.566-6.274 0-7.997-10.211-5.567-10.211-10.12 0-1.568 1.261-2.46 3.414-2.46 1.722 0 2.983.677 4.213 2.06l2.399-2.398c-1.414-1.723-3.69-2.953-6.52-2.953-3.968 0-7.044 2.214-7.044 5.998 0 7.689 10.212 5.044 10.212 10.088 0 1.722-1.538 2.768-3.906 2.768-2.553 0-4.06-1.015-5.26-2.737l-2.399 2.399c1.876 2.399 4.122 3.63 7.536 3.63Zm17.31 0c2.307 0 4.429-.861 5.875-2.553l-2.153-2.184c-.892 1.046-2.246 1.57-3.753 1.57-2.214 0-3.814-1.231-4.306-3.261h11.011c.123-.615.185-1.107.185-1.6 0-4.244-2.953-7.35-7.044-7.35-4.275 0-7.627 3.352-7.627 7.689 0 4.398 3.383 7.69 7.812 7.69Zm-.246-12.272c2.061 0 3.352 1.107 3.783 3.076h-7.874c.492-1.907 1.999-3.076 4.091-3.076Zm16.676 12.272c2.307 0 4.429-.861 5.875-2.553l-2.153-2.184c-.892 1.046-2.246 1.57-3.753 1.57-2.214 0-3.814-1.231-4.306-3.261h11.011c.123-.615.185-1.107.185-1.6 0-4.244-2.953-7.35-7.044-7.35-4.275 0-7.627 3.352-7.627 7.689 0 4.398 3.383 7.69 7.812 7.69Zm-.246-12.272c2.061 0 3.352 1.107 3.783 3.076h-7.874c.492-1.907 1.999-3.076 4.091-3.076Zm15.999 12.272c1.876 0 3.476-.707 4.521-1.907v1.6h3.384V16.835h-3.384v9.012c-1.045-1.2-2.645-1.938-4.521-1.938-3.998 0-7.105 3.384-7.105 7.72 0 4.307 3.107 7.66 7.105 7.66Zm.554-3.199c-2.461 0-4.183-1.845-4.183-4.49 0-2.645 1.722-4.49 4.183-4.49 2.491 0 4.183 1.845 4.183 4.49 0 2.645-1.692 4.49-4.183 4.49Zm17.724 2.892h3.537v-8.12h4.46c4.06 0 7.136-2.646 7.136-6.705 0-4.06-3.076-6.705-7.136-6.705h-7.997v21.53Zm7.813-18.455c2.214 0 3.783 1.415 3.783 3.63 0 2.214-1.569 3.629-3.783 3.629h-4.276v-7.259h4.276Zm10.289 18.455h3.383v-8.52c0-1.969 1.415-3.383 3.383-3.383 1.969 0 3.353 1.414 3.353 3.383v8.52h3.383v-9.258c0-3.414-2.43-5.813-5.721-5.813-1.815 0-3.383.738-4.398 1.999v-9.074h-3.383v22.146Zm16.94 0h3.383v-8.213c0-2.522 1.354-3.69 3.261-3.69.861 0 1.476.246 2.03.8l2.214-2.277c-1.015-1.169-2.184-1.691-3.66-1.691-1.722 0-3.014.676-3.845 1.845v-1.538h-3.383v14.764Zm18.257.307c1.876 0 3.476-.707 4.521-1.907v1.6h3.384V24.217h-3.384v1.63c-1.045-1.2-2.645-1.938-4.521-1.938-3.999 0-7.105 3.384-7.105 7.72 0 4.307 3.106 7.66 7.105 7.66Zm.554-3.199c-2.461 0-4.183-1.845-4.183-4.49 0-2.645 1.722-4.49 4.183-4.49 2.491 0 4.183 1.845 4.183 4.49 0 2.645-1.692 4.49-4.183 4.49Zm15.934 3.2c3.445 0 5.598-1.785 5.598-4.676 0-5.444-7.658-3.998-7.658-6.428 0-.77.768-1.2 2.122-1.2 1.445 0 2.522.523 3.383 1.6l2.153-2.153c-1.23-1.661-3.076-2.522-5.444-2.522-3.383 0-5.444 1.722-5.444 4.552 0 5.351 7.659 3.752 7.659 6.428 0 .861-.8 1.322-2.307 1.322-1.692 0-3.014-.584-4.029-1.784l-2.153 2.154c1.414 1.722 3.629 2.706 6.12 2.706Zm15.246 0c2.307 0 4.429-.862 5.875-2.554l-2.153-2.184c-.892 1.046-2.245 1.57-3.753 1.57-2.214 0-3.813-1.231-4.306-3.261h11.012c.123-.615.184-1.107.184-1.6 0-4.244-2.953-7.35-7.043-7.35-4.276 0-7.628 3.352-7.628 7.689 0 4.398 3.383 7.69 7.812 7.69Zm-.246-12.273c2.061 0 3.353 1.107 3.783 3.076h-7.874c.493-1.907 2-3.076 4.091-3.076Z" fill="#BDBDBD"/><path d="M178.904 212.961h1.87l6.663-16.363h-2.876l-4.698 11.945-4.652-11.945h-2.922l6.615 16.363Zm13.502.234c1.753 0 3.366-.655 4.465-1.94l-1.637-1.66c-.678.795-1.706 1.192-2.852 1.192-1.683 0-2.898-.935-3.272-2.478h8.368c.094-.467.141-.841.141-1.215 0-3.226-2.244-5.587-5.353-5.587-3.25 0-5.798 2.548-5.798 5.844 0 3.343 2.572 5.844 5.938 5.844Zm-.187-9.327c1.566 0 2.548.842 2.875 2.338h-5.984c.374-1.45 1.519-2.338 3.109-2.338Zm11.131 9.327c2.618 0 4.254-1.356 4.254-3.553 0-4.138-5.82-3.039-5.82-4.886 0-.584.584-.911 1.613-.911 1.098 0 1.916.397 2.571 1.215l1.636-1.636c-.935-1.262-2.337-1.917-4.137-1.917-2.572 0-4.138 1.309-4.138 3.46 0 4.067 5.821 2.852 5.821 4.885 0 .655-.608 1.005-1.753 1.005-1.286 0-2.291-.444-3.063-1.355l-1.636 1.636c1.075 1.309 2.758 2.057 4.652 2.057Zm8.08-.234h2.572v-8.883h2.688v-2.337h-2.688v-4.675h-2.572v4.675h-2.688v2.337h2.688v8.883Zm8.437-13.277c.889 0 1.52-.678 1.52-1.543 0-.865-.631-1.543-1.52-1.543-.888 0-1.519.678-1.519 1.543 0 .865.631 1.543 1.519 1.543Zm-1.285 13.277h2.571v-11.22h-2.571v11.22Zm5.455 0h2.571v-6.475c0-1.496 1.076-2.571 2.572-2.571s2.547 1.075 2.547 2.571v6.475h2.572v-7.036c0-2.197-1.823-4.418-4.348-4.418-1.379 0-2.571.561-3.343 1.52v-1.286h-2.571v11.22Zm17.433-.234c1.449 0 2.665-.537 3.46-1.449v1.216c0 1.823-1.263 2.922-3.296 2.922-1.613 0-2.735-.561-3.624-1.683l-1.683 1.683c1.099 1.566 2.899 2.454 5.26 2.454 3.506 0 5.914-2.151 5.914-5.376v-10.753h-2.571v1.192c-.795-.888-2.011-1.426-3.46-1.426-3.015 0-5.283 2.408-5.283 5.587 0 3.202 2.268 5.633 5.283 5.633Zm.514-2.431c-1.87 0-3.155-1.285-3.155-3.179 0-1.893 1.285-3.179 3.155-3.179 1.87 0 3.109 1.263 3.109 3.179 0 1.917-1.239 3.179-3.109 3.179ZM220.113 121.243l1.938-1.723c-2.707-2.491-4.276-6.582-4.276-11.565 0-4.982 1.569-9.073 4.276-11.564l-1.938-1.723c-3.26 2.891-5.29 7.936-5.29 13.287 0 5.352 2.03 10.396 5.29 13.288Zm10.237-3.353c4.675 0 7.812-2.891 7.812-7.074 0-3.783-2.491-6.305-5.721-6.398l5.475-6.274v-2.092h-13.318v3.168h8.243l-4.921 5.721v2.092a8.116 8.116 0 0 1 2.184-.308c2.799 0 4.49 1.477 4.49 3.906 0 2.369-1.691 3.937-4.306 3.937-1.845 0-3.506-.83-4.367-2.153l-2.399 2.399c1.599 2 3.967 3.076 6.828 3.076Zm10.109 3.291 1.876 1.015 2.276-4.183c.584-1.107.769-1.784.769-2.307 0-1.322-1.077-2.368-2.307-2.368-1.322 0-2.307 1.077-2.307 2.368 0 1.046.708 1.877 1.507 2.061l-1.814 3.414Zm14.19-3.291c4.675 0 7.813-2.891 7.813-7.074 0-3.783-2.492-6.305-5.721-6.398l5.474-6.274v-2.092h-13.317v3.168h8.243l-4.922 5.721v2.092a8.122 8.122 0 0 1 2.184-.308c2.799 0 4.491 1.477 4.491 3.906 0 2.369-1.692 3.937-4.306 3.937-1.846 0-3.507-.83-4.368-2.153l-2.399 2.399c1.599 2 3.968 3.076 6.828 3.076Zm11.72 3.353c3.26-2.892 5.29-7.936 5.29-13.288 0-5.351-2.03-10.395-5.29-13.287l-1.938 1.723c2.707 2.491 4.275 6.582 4.275 11.564 0 4.983-1.568 9.074-4.275 11.565l1.938 1.723Z" fill="#27326F"/><path d="m121.946 23.27 1.201-1.069c-1.678-1.544-2.651-4.08-2.651-7.17 0-3.089.973-5.625 2.651-7.17l-1.201-1.068c-2.022 1.793-3.28 4.92-3.28 8.238 0 3.318 1.258 6.446 3.28 8.238Zm6.347-2.08c2.898 0 4.843-1.792 4.843-4.385 0-2.346-1.544-3.91-3.547-3.967l3.395-3.89V7.651h-8.257v1.965h5.11l-3.051 3.546v1.297c.381-.114.896-.19 1.354-.19 1.735 0 2.784.915 2.784 2.421 0 1.469-1.049 2.441-2.67 2.441-1.144 0-2.174-.515-2.707-1.335l-1.488 1.488c.992 1.24 2.46 1.907 4.234 1.907Zm6.267 2.041 1.163.63 1.412-2.594c.362-.686.476-1.106.476-1.43 0-.82-.667-1.469-1.43-1.469-.82 0-1.43.668-1.43 1.469 0 .648.438 1.163.934 1.277l-1.125 2.117Zm8.798-2.04c2.899 0 4.844-1.793 4.844-4.386 0-2.346-1.545-3.91-3.547-3.967l3.394-3.89V7.651h-8.257v1.965h5.111l-3.051 3.546v1.297c.381-.114.896-.19 1.354-.19 1.735 0 2.784.915 2.784 2.421 0 1.469-1.049 2.441-2.67 2.441-1.144 0-2.174-.515-2.708-1.335l-1.487 1.488c.991 1.24 2.46 1.907 4.233 1.907Zm7.266 2.078c2.022-1.792 3.28-4.92 3.28-8.238 0-3.318-1.258-6.445-3.28-8.238l-1.201 1.068c1.678 1.545 2.651 4.081 2.651 7.17 0 3.09-.973 5.626-2.651 7.17l1.201 1.068Z" fill="#BDBDBD"/><path d="m539.043 74.416.996-.885c-1.392-1.282-2.198-3.386-2.198-5.948 0-2.563.806-4.666 2.198-5.948l-.996-.885c-1.677 1.486-2.721 4.08-2.721 6.833 0 2.752 1.044 5.346 2.721 6.833Zm5.265-1.724c2.404 0 4.017-1.487 4.017-3.638 0-1.946-1.281-3.243-2.942-3.29l2.816-3.227v-1.076h-6.849v1.63h4.239l-2.531 2.942v1.075a4.181 4.181 0 0 1 1.123-.158c1.439 0 2.309.76 2.309 2.01 0 1.217-.87 2.024-2.214 2.024-.949 0-1.803-.427-2.246-1.107l-1.234 1.233c.822 1.028 2.04 1.582 3.512 1.582Zm5.199 1.693.964.522 1.171-2.152c.3-.569.395-.917.395-1.186 0-.68-.553-1.218-1.186-1.218-.68 0-1.186.554-1.186 1.218 0 .538.363.965.775 1.06l-.933 1.756Zm7.297-1.693c2.405 0 4.018-1.487 4.018-3.638 0-1.946-1.281-3.243-2.942-3.29l2.816-3.227v-1.076h-6.85v1.63h4.24l-2.531 2.942v1.075a4.181 4.181 0 0 1 1.123-.158c1.439 0 2.309.76 2.309 2.01 0 1.217-.87 2.024-2.214 2.024-.949 0-1.803-.427-2.246-1.107l-1.234 1.233c.822 1.028 2.04 1.582 3.511 1.582Zm6.028 1.724c1.676-1.487 2.72-4.08 2.72-6.833 0-2.752-1.044-5.346-2.72-6.833l-.997.885c1.392 1.282 2.199 3.385 2.199 5.948 0 2.563-.807 4.666-2.199 5.948l.997.885ZM621.916 198.3l.997-.886c-1.392-1.281-2.199-3.385-2.199-5.948 0-2.562.807-4.666 2.199-5.947l-.997-.886c-1.676 1.487-2.72 4.081-2.72 6.833 0 2.753 1.044 5.347 2.72 6.834Zm5.265-1.724c2.404 0 4.018-1.487 4.018-3.638 0-1.946-1.281-3.243-2.942-3.291l2.815-3.227v-1.075h-6.849v1.629h4.239l-2.531 2.942v1.076a4.19 4.19 0 0 1 1.124-.158c1.439 0 2.309.759 2.309 2.009 0 1.218-.87 2.024-2.215 2.024-.949 0-1.803-.427-2.246-1.107l-1.234 1.234c.823 1.028 2.041 1.582 3.512 1.582Zm5.199 1.692.965.522 1.17-2.151c.301-.57.396-.918.396-1.186 0-.681-.554-1.218-1.186-1.218-.681 0-1.187.553-1.187 1.218 0 .537.364.964.775 1.059l-.933 1.756Zm7.298-1.692c2.404 0 4.018-1.487 4.018-3.638 0-1.946-1.282-3.243-2.942-3.291l2.815-3.227v-1.075h-6.849v1.629h4.239l-2.531 2.942v1.076a4.189 4.189 0 0 1 1.123-.158c1.44 0 2.31.759 2.31 2.009 0 1.218-.87 2.024-2.215 2.024-.949 0-1.803-.427-2.246-1.107l-1.234 1.234c.823 1.028 2.041 1.582 3.512 1.582Zm6.027 1.724c1.677-1.487 2.721-4.081 2.721-6.834 0-2.752-1.044-5.346-2.721-6.833l-.996.886c1.392 1.281 2.198 3.385 2.198 5.947 0 2.563-.806 4.667-2.198 5.948l.996.886ZM311.879 90.825h15.208v-3.588h-11.278V66.903h-3.93v23.922Zm20.19-19.411c1.299 0 2.222-.991 2.222-2.255 0-1.265-.923-2.256-2.222-2.256-1.298 0-2.221.991-2.221 2.255 0 1.265.923 2.256 2.221 2.256Zm-1.879 19.411h3.759V74.421h-3.759v16.404Zm14.844.342c2.085 0 3.862-.786 5.024-2.119v8.612h3.759V74.421h-3.759v1.812c-1.162-1.333-2.939-2.153-5.024-2.153-4.442 0-7.894 3.759-7.894 8.578 0 4.784 3.452 8.509 7.894 8.509Zm.616-3.554c-2.734 0-4.648-2.05-4.648-4.99 0-2.939 1.914-4.99 4.648-4.99 2.768 0 4.647 2.051 4.647 4.99 0 2.94-1.879 4.99-4.647 4.99Zm19.072 3.554c4.237 0 7.142-2.905 7.142-7.21V74.42h-3.759v9.364c0 2.427-1.196 3.76-3.383 3.76-2.153 0-3.384-1.368-3.384-3.76v-9.364h-3.759v9.535c0 4.238 2.939 7.211 7.143 7.211Zm12.836-19.753c1.298 0 2.221-.991 2.221-2.255 0-1.265-.923-2.256-2.221-2.256-1.299 0-2.222.991-2.222 2.255 0 1.265.923 2.256 2.222 2.256Zm-1.88 19.411h3.759V74.421h-3.759v16.404Zm14.845.342c2.085 0 3.862-.786 5.024-2.119v1.777h3.759V66.22h-3.759v10.014c-1.162-1.333-2.939-2.153-5.024-2.153-4.443 0-7.894 3.759-7.894 8.578 0 4.784 3.451 8.509 7.894 8.509Zm.615-3.554c-2.734 0-4.648-2.05-4.648-4.99 0-2.939 1.914-4.99 4.648-4.99 2.768 0 4.648 2.051 4.648 4.99 0 2.94-1.88 4.99-4.648 4.99Zm14.254-16.199c1.298 0 2.221-.991 2.221-2.255 0-1.265-.923-2.256-2.221-2.256-1.299 0-2.222.991-2.222 2.255 0 1.265.923 2.256 2.222 2.256Zm-1.88 19.411h3.759V74.421h-3.759v16.404Zm10.47 0h3.759V77.84h3.931V74.42h-3.931v-6.835h-3.759v6.835h-3.93v3.418h3.93v12.986Zm10.831 6.835h4.17l3.041-6.664 7.621-16.575h-4.169l-4.443 10.697-4.203-10.697h-4.136l6.22 14.764-4.101 8.475Zm24.633-6.835h3.93v-9.022h4.955c4.511 0 7.929-2.939 7.929-7.45s-3.418-7.45-7.929-7.45h-8.885v23.922Zm8.68-20.505c2.461 0 4.203 1.572 4.203 4.033 0 2.46-1.742 4.033-4.203 4.033h-4.75V70.32h4.75Zm18.116 20.847c4.853 0 8.612-3.76 8.612-8.578 0-4.784-3.793-8.51-8.612-8.51s-8.578 3.76-8.578 8.51c0 4.785 3.794 8.578 8.578 8.578Zm0-3.623c-2.768 0-4.716-2.05-4.716-4.955 0-2.836 1.948-4.887 4.716-4.887 2.768 0 4.75 2.017 4.75 4.887 0 2.905-1.948 4.956-4.75 4.956Zm19.257 3.623c4.853 0 8.612-3.76 8.612-8.578 0-4.784-3.794-8.51-8.612-8.51-4.819 0-8.578 3.76-8.578 8.51 0 4.785 3.793 8.578 8.578 8.578Zm0-3.623c-2.768 0-4.716-2.05-4.716-4.955 0-2.836 1.948-4.887 4.716-4.887 2.768 0 4.75 2.017 4.75 4.887 0 2.905-1.948 4.956-4.75 4.956Zm11.738 3.281h3.759V66.22h-3.759v24.606Z" fill="#27326F"/><path d="M17.69 204.689h8.526v-2.012h-6.323v-11.4h-2.204v13.412Zm11.32-10.883c.728 0 1.245-.556 1.245-1.265 0-.709-.517-1.264-1.245-1.264-.729 0-1.246.555-1.246 1.264s.517 1.265 1.245 1.265Zm-1.054 10.883h2.107v-9.197h-2.107v9.197Zm8.323.192c1.168 0 2.165-.441 2.816-1.188v4.828h2.108v-13.029h-2.108v1.016c-.651-.748-1.648-1.207-2.816-1.207-2.491 0-4.427 2.107-4.427 4.809 0 2.682 1.936 4.771 4.427 4.771Zm.344-1.993c-1.532 0-2.605-1.149-2.605-2.797 0-1.648 1.073-2.798 2.605-2.798 1.553 0 2.606 1.15 2.606 2.798 0 1.648-1.053 2.797-2.605 2.797Zm10.694 1.993c2.376 0 4.004-1.629 4.004-4.043v-5.346h-2.107v5.25c0 1.361-.671 2.108-1.897 2.108-1.207 0-1.897-.767-1.897-2.108v-5.25h-2.108v5.346c0 2.376 1.648 4.043 4.005 4.043Zm7.197-11.075c.728 0 1.245-.556 1.245-1.265 0-.709-.517-1.264-1.245-1.264-.729 0-1.246.555-1.246 1.264s.517 1.265 1.245 1.265Zm-1.054 10.883h2.107v-9.197H53.46v9.197Zm8.323.192c1.168 0 2.165-.441 2.816-1.188v.996h2.108v-13.795h-2.108v5.614c-.651-.748-1.648-1.207-2.816-1.207-2.491 0-4.427 2.107-4.427 4.809 0 2.682 1.936 4.771 4.427 4.771Zm.344-1.993c-1.532 0-2.605-1.149-2.605-2.797 0-1.648 1.073-2.798 2.605-2.798 1.552 0 2.606 1.15 2.606 2.798 0 1.648-1.054 2.797-2.606 2.797Zm7.992-9.082c.728 0 1.246-.556 1.246-1.265 0-.709-.518-1.264-1.246-1.264s-1.245.555-1.245 1.264.517 1.265 1.245 1.265Zm-1.054 10.883h2.108v-9.197h-2.108v9.197Zm5.87 0h2.108v-7.281h2.204v-1.916h-2.204v-3.832h-2.107v3.832h-2.204v1.916h2.204v7.281Zm6.073 3.832h2.338l1.705-3.736 4.273-9.293h-2.338l-2.49 5.997-2.357-5.997H79.82l3.488 8.278-2.3 4.751Zm13.81-3.832h2.204v-5.058H99.8c2.53 0 4.446-1.648 4.446-4.177s-1.916-4.177-4.445-4.177h-4.982v13.412Zm4.868-11.496c1.379 0 2.356.881 2.356 2.261 0 1.379-.977 2.261-2.356 2.261h-2.664v-4.522h2.664Zm10.157 11.688c2.721 0 4.828-2.108 4.828-4.809 0-2.683-2.127-4.771-4.828-4.771-2.702 0-4.81 2.107-4.81 4.771a4.776 4.776 0 0 0 4.81 4.809Zm0-2.031c-1.552 0-2.644-1.15-2.644-2.778 0-1.591 1.092-2.74 2.644-2.74s2.663 1.13 2.663 2.74c0 1.628-1.092 2.778-2.663 2.778Zm10.796 2.031c2.721 0 4.829-2.108 4.829-4.809 0-2.683-2.127-4.771-4.829-4.771-2.701 0-4.809 2.107-4.809 4.771a4.776 4.776 0 0 0 4.809 4.809Zm0-2.031c-1.552 0-2.644-1.15-2.644-2.778 0-1.591 1.092-2.74 2.644-2.74s2.664 1.13 2.664 2.74c0 1.628-1.092 2.778-2.664 2.778Zm6.582 1.839h2.107v-13.795h-2.107v13.795Z" fill="#5DC5C5"/><path d="M651.173 162.699h10.848v-2.56h-8.045v-14.504h-2.803v17.064Zm14.402-13.846c.926 0 1.585-.707 1.585-1.609s-.659-1.609-1.585-1.609c-.926 0-1.584.707-1.584 1.609s.658 1.609 1.584 1.609Zm-1.341 13.846h2.682v-11.701h-2.682v11.701Zm10.589.244c1.487 0 2.755-.561 3.584-1.512v6.143h2.681v-16.576h-2.681v1.292c-.829-.951-2.097-1.536-3.584-1.536-3.169 0-5.631 2.682-5.631 6.119 0 3.413 2.462 6.07 5.631 6.07Zm.439-2.535c-1.95 0-3.315-1.463-3.315-3.559 0-2.097 1.365-3.56 3.315-3.56 1.975 0 3.315 1.463 3.315 3.56 0 2.096-1.34 3.559-3.315 3.559Zm13.604 2.535c3.023 0 5.095-2.072 5.095-5.144v-6.801h-2.681v6.679c0 1.731-.853 2.682-2.414 2.682-1.535 0-2.413-.975-2.413-2.682v-6.679h-2.681v6.801c0 3.023 2.096 5.144 5.094 5.144Zm9.156-14.09c.927 0 1.585-.707 1.585-1.609s-.658-1.609-1.585-1.609c-.926 0-1.584.707-1.584 1.609s.658 1.609 1.584 1.609Zm-1.34 13.846h2.681v-11.701h-2.681v11.701Zm10.589.244c1.487 0 2.754-.561 3.583-1.512v1.268h2.682v-17.552h-2.682v7.143c-.829-.951-2.096-1.536-3.583-1.536-3.169 0-5.632 2.682-5.632 6.119 0 3.413 2.463 6.07 5.632 6.07Zm.438-2.535c-1.95 0-3.315-1.463-3.315-3.559 0-2.097 1.365-3.56 3.315-3.56 1.975 0 3.316 1.463 3.316 3.56 0 2.096-1.341 3.559-3.316 3.559Zm10.168-11.555c.926 0 1.584-.707 1.584-1.609s-.658-1.609-1.584-1.609c-.927 0-1.585.707-1.585 1.609s.658 1.609 1.585 1.609Zm-1.341 13.846h2.681v-11.701h-2.681v11.701Zm7.468 0h2.682v-9.263h2.803v-2.438h-2.803v-4.875h-2.682v4.875h-2.803v2.438h2.803v9.263Zm7.726 4.875h2.974l2.17-4.753 5.436-11.823h-2.974l-3.169 7.63-2.999-7.63h-2.949l4.436 10.531-2.925 6.045Zm17.571-4.875h2.803v-6.436h3.535c3.218 0 5.655-2.096 5.655-5.314s-2.437-5.314-5.655-5.314h-6.338v17.064Zm6.191-14.626c1.756 0 2.999 1.121 2.999 2.876s-1.243 2.877-2.999 2.877h-3.388v-5.753h3.388Zm12.923 14.87c3.461 0 6.143-2.682 6.143-6.119 0-3.413-2.706-6.07-6.143-6.07s-6.119 2.682-6.119 6.07a6.077 6.077 0 0 0 6.119 6.119Zm0-2.584c-1.975 0-3.364-1.463-3.364-3.535 0-2.023 1.389-3.486 3.364-3.486 1.974 0 3.388 1.438 3.388 3.486 0 2.072-1.389 3.535-3.388 3.535Zm13.736 2.584c3.461 0 6.143-2.682 6.143-6.119 0-3.413-2.706-6.07-6.143-6.07s-6.119 2.682-6.119 6.07a6.077 6.077 0 0 0 6.119 6.119Zm0-2.584c-1.975 0-3.364-1.463-3.364-3.535 0-2.023 1.389-3.486 3.364-3.486 1.974 0 3.388 1.438 3.388 3.486 0 2.072-1.389 3.535-3.388 3.535Zm8.373 2.34h2.681v-17.552h-2.681v17.552Z" fill="#27326F"/><path d="M292.235 231.021h10.245v-2.417h-7.597v-13.698h-2.648v16.115Zm13.601-13.076c.875 0 1.497-.668 1.497-1.52s-.622-1.519-1.497-1.519c-.875 0-1.496.667-1.496 1.519 0 .852.621 1.52 1.496 1.52Zm-1.266 13.076h2.532v-11.05h-2.532v11.05Zm10 .23c1.404 0 2.602-.529 3.384-1.427v5.801h2.533v-15.654h-2.533v1.22c-.782-.898-1.98-1.451-3.384-1.451-2.993 0-5.318 2.533-5.318 5.779 0 3.223 2.325 5.732 5.318 5.732Zm.414-2.394c-1.841 0-3.13-1.381-3.13-3.361 0-1.98 1.289-3.361 3.13-3.361 1.865 0 3.131 1.381 3.131 3.361 0 1.98-1.266 3.361-3.131 3.361Zm12.848 2.394c2.855 0 4.812-1.957 4.812-4.857v-6.423h-2.533v6.307c0 1.635-.805 2.533-2.279 2.533-1.45 0-2.279-.921-2.279-2.533v-6.307h-2.532v6.423c0 2.854 1.98 4.857 4.811 4.857Zm8.647-13.306c.875 0 1.497-.668 1.497-1.52s-.622-1.519-1.497-1.519c-.875 0-1.496.667-1.496 1.519 0 .852.621 1.52 1.496 1.52Zm-1.266 13.076h2.532v-11.05h-2.532v11.05Zm10 .23c1.404 0 2.601-.529 3.384-1.427v1.197h2.532v-16.576h-2.532v6.746c-.783-.898-1.98-1.451-3.384-1.451-2.993 0-5.318 2.533-5.318 5.779 0 3.223 2.325 5.732 5.318 5.732Zm.414-2.394c-1.841 0-3.131-1.381-3.131-3.361 0-1.98 1.29-3.361 3.131-3.361 1.865 0 3.131 1.381 3.131 3.361 0 1.98-1.266 3.361-3.131 3.361Zm9.602-10.912c.875 0 1.496-.668 1.496-1.52s-.621-1.519-1.496-1.519-1.496.667-1.496 1.519c0 .852.621 1.52 1.496 1.52Zm-1.266 13.076h2.532v-11.05h-2.532v11.05Zm7.053 0h2.532v-8.748h2.648v-2.302h-2.648v-4.605h-2.532v4.605h-2.647v2.302h2.647v8.748Zm7.296 4.604h2.809l2.049-4.489 5.134-11.165h-2.809l-2.993 7.205-2.831-7.205h-2.786l4.19 9.945-2.763 5.709Zm16.594-4.604h2.647v-6.078h3.338c3.039 0 5.341-1.98 5.341-5.018 0-3.039-2.302-5.019-5.341-5.019h-5.985v16.115Zm5.847-13.813c1.658 0 2.832 1.059 2.832 2.717 0 1.657-1.174 2.716-2.832 2.716h-3.2v-5.433h3.2Zm12.204 14.043c3.269 0 5.801-2.532 5.801-5.778 0-3.223-2.555-5.733-5.801-5.733s-5.779 2.533-5.779 5.733a5.738 5.738 0 0 0 5.779 5.778Zm0-2.44c-1.865 0-3.177-1.381-3.177-3.338 0-1.911 1.312-3.292 3.177-3.292s3.2 1.358 3.2 3.292c0 1.957-1.312 3.338-3.2 3.338Zm12.972 2.44c3.269 0 5.801-2.532 5.801-5.778 0-3.223-2.555-5.733-5.801-5.733s-5.779 2.533-5.779 5.733a5.738 5.738 0 0 0 5.779 5.778Zm0-2.44c-1.865 0-3.177-1.381-3.177-3.338 0-1.911 1.312-3.292 3.177-3.292s3.2 1.358 3.2 3.292c0 1.957-1.312 3.338-3.2 3.338Zm7.907 2.21h2.533v-16.576h-2.533v16.576Z" fill="#BDBDBD"/><path d="M578.633 114.33h3.008l5.827-18.458 5.826 18.458h3.008l8.646-26.314H600.7l-5.94 18.495-5.789-18.495h-3.007l-5.789 18.495-5.94-18.495h-4.248l8.646 26.314Zm25.053 0h4.587l2.029-5.075h11.316l1.992 5.075h4.662L617.52 88.016h-3.007l-10.827 26.314Zm8.12-8.834 4.173-10.488 4.135 10.488h-8.308Zm30.237 9.21c7.444 0 12.857-4.624 12.857-14.022v-.601h-13.007v3.947h8.383c-.677 4.285-3.684 6.541-8.308 6.541-4.962 0-8.684-3.872-8.684-9.436 0-5.526 3.647-9.36 9.06-9.36 3.007 0 5.752 1.203 7.33 3.42l2.933-2.932c-2.406-2.932-6.09-4.623-10.263-4.623-7.631 0-13.496 5.977-13.496 13.495 0 7.519 5.94 13.571 13.195 13.571Zm17.16-.376h4.323V97.489l7.142 11.729h3.008l7.142-11.73v16.842h4.323V88.016h-3.007l-9.962 16.39-9.962-16.39h-3.007v26.314Zm31.645 0h4.323V88.016h-4.323v26.314ZM267.888 199.689h1.215l2.353-7.456 2.354 7.456h1.215l3.493-10.63h-1.716l-2.399 7.472-2.339-7.472h-1.215l-2.339 7.472-2.399-7.472h-1.716l3.493 10.63Zm10.12 0h1.853l.82-2.05h4.571l.805 2.05h1.883l-4.343-10.63h-1.215l-4.374 10.63Zm3.281-3.568 1.685-4.237 1.671 4.237h-3.356Zm12.215 3.72c3.006 0 5.193-1.868 5.193-5.664v-.243h-5.254v1.594h3.386c-.273 1.732-1.488 2.643-3.356 2.643-2.004 0-3.508-1.564-3.508-3.812 0-2.232 1.473-3.781 3.66-3.781 1.215 0 2.324.486 2.961 1.382l1.185-1.185c-.972-1.185-2.46-1.868-4.146-1.868-3.083 0-5.452 2.415-5.452 5.452s2.4 5.482 5.331 5.482Zm6.932-.152h1.746v-6.803l2.885 4.738h1.215l2.886-4.738v6.803h1.746v-10.63h-1.215l-4.024 6.621-4.025-6.621h-1.214v10.63Zm12.783 0h1.747v-10.63h-1.747v10.63Z" fill="#5DC5C5"/><path d="M732.42 227.107h3.007l5.827-18.458 5.827 18.458h3.007l8.646-26.315h-4.248l-5.939 18.496-5.789-18.496h-3.008l-5.789 18.496-5.94-18.496h-4.247l8.646 26.315Zm25.053 0h4.586l2.03-5.075h11.315l1.993 5.075h4.661l-10.751-26.315h-3.008l-10.826 26.315Zm8.12-8.834 4.172-10.489 4.135 10.489h-8.307Zm30.237 9.21c7.443 0 12.856-4.624 12.856-14.022v-.602h-13.007v3.948h8.383c-.676 4.285-3.684 6.541-8.308 6.541-4.962 0-8.683-3.872-8.683-9.436 0-5.526 3.646-9.361 9.059-9.361 3.008 0 5.752 1.203 7.331 3.421l2.932-2.932c-2.406-2.932-6.09-4.624-10.263-4.624-7.631 0-13.495 5.977-13.495 13.496 0 7.518 5.939 13.571 13.195 13.571Zm17.159-.376h4.323v-16.842l7.143 11.729h3.007l7.143-11.729v16.842h4.323v-26.315h-3.008l-9.962 16.39-9.962-16.39h-3.007v26.315Zm31.645 0h4.323v-26.315h-4.323v26.315ZM499.843 246.592h3.538v-9.504l7.873-12.026h-4.029l-5.598 8.797-5.597-8.797h-4.091l7.904 12.149v9.381Zm14.511-17.47c1.169 0 2-.892 2-2.03s-.831-2.03-2-2.03c-1.168 0-1.999.892-1.999 2.03s.831 2.03 1.999 2.03Zm-1.691 17.47h3.383v-14.763h-3.383v14.763Zm14.037.308c2.306 0 4.429-.861 5.874-2.553l-2.153-2.184c-.892 1.046-2.245 1.569-3.752 1.569-2.215 0-3.814-1.23-4.306-3.26h11.011c.123-.616.185-1.108.185-1.6 0-4.244-2.953-7.351-7.044-7.351-4.275 0-7.628 3.353-7.628 7.689 0 4.399 3.384 7.69 7.813 7.69Zm-.246-12.272c2.06 0 3.352 1.107 3.783 3.075h-7.874c.492-1.907 1.999-3.075 4.091-3.075Zm9.817 11.964h3.383v-22.145h-3.383v22.145Zm13.331.308c1.876 0 3.475-.708 4.521-1.907v1.599h3.383v-22.145h-3.383v9.012c-1.046-1.2-2.645-1.938-4.521-1.938-3.999 0-7.105 3.383-7.105 7.72 0 4.306 3.106 7.659 7.105 7.659Zm.553-3.199c-2.46 0-4.183-1.845-4.183-4.491 0-2.645 1.723-4.49 4.183-4.49 2.492 0 4.183 1.845 4.183 4.49 0 2.646-1.691 4.491-4.183 4.491Zm17.725 2.891h3.537v-9.227h9.842v-3.229h-9.842v-5.844h10.365v-3.23H567.88v21.53Zm22.601.308c1.876 0 3.476-.708 4.521-1.907v1.599h3.384v-14.763h-3.384v1.63c-1.045-1.2-2.645-1.938-4.521-1.938-3.998 0-7.105 3.383-7.105 7.72 0 4.306 3.107 7.659 7.105 7.659Zm.554-3.199c-2.461 0-4.183-1.845-4.183-4.491 0-2.645 1.722-4.49 4.183-4.49 2.491 0 4.183 1.845 4.183 4.49 0 2.646-1.692 4.491-4.183 4.491Zm11.106 2.891h3.383v-8.212c0-2.522 1.353-3.691 3.26-3.691.861 0 1.476.246 2.03.8l2.215-2.276c-1.015-1.169-2.184-1.692-3.661-1.692-1.722 0-3.014.677-3.844 1.846v-1.538h-3.383v14.763Zm12.525 0h3.383v-8.796c0-1.969 1.415-3.107 3.23-3.107 1.814 0 3.198 1.138 3.198 3.107v8.796h3.384v-8.796c0-1.969 1.414-3.107 3.229-3.107 1.815 0 3.199 1.138 3.199 3.107v8.796h3.383v-9.535c0-3.414-2.553-5.536-5.721-5.536-2.06 0-3.814.923-4.921 2.461-.953-1.569-2.707-2.461-4.736-2.461-1.723 0-3.23.646-4.245 1.815v-1.507h-3.383v14.763Zm28.214-17.47c1.169 0 1.999-.892 1.999-2.03s-.83-2.03-1.999-2.03-1.999.892-1.999 2.03.83 2.03 1.999 2.03Zm-1.691 17.47h3.383v-14.763h-3.383v14.763Zm7.178 0h3.383v-8.52c0-1.968 1.415-3.383 3.383-3.383 1.969 0 3.353 1.415 3.353 3.383v8.52h3.383v-9.258c0-2.891-2.399-5.813-5.721-5.813-1.815 0-3.383.738-4.398 1.999v-1.691h-3.383v14.763Zm22.938-.307c1.907 0 3.506-.708 4.552-1.907v1.599c0 2.399-1.661 3.845-4.337 3.845-2.122 0-3.599-.738-4.767-2.215l-2.215 2.215c1.446 2.06 3.814 3.229 6.921 3.229 4.613 0 7.781-2.829 7.781-7.074v-14.148h-3.383v1.568c-1.046-1.168-2.645-1.876-4.552-1.876-3.968 0-6.951 3.168-6.951 7.351 0 4.214 2.983 7.413 6.951 7.413Zm.676-3.199c-2.46 0-4.152-1.692-4.152-4.183 0-2.491 1.692-4.183 4.152-4.183 2.461 0 4.091 1.661 4.091 4.183s-1.63 4.183-4.091 4.183ZM83.24 245.699h2.263v-6.083l5.04-7.696h-2.58l-3.582 5.63-3.582-5.63H78.18l5.059 7.775v6.004Zm9.287-11.181c.748 0 1.28-.571 1.28-1.299s-.532-1.299-1.28-1.299-1.28.571-1.28 1.299.532 1.299 1.28 1.299Zm-1.083 11.181h2.165v-9.449h-2.165v9.449Zm8.984.197c1.476 0 2.834-.551 3.759-1.634l-1.378-1.398c-.57.67-1.437 1.004-2.401 1.004-1.418 0-2.441-.787-2.756-2.086h7.047c.079-.394.118-.709.118-1.024 0-2.716-1.89-4.704-4.508-4.704-2.736 0-4.881 2.145-4.881 4.921 0 2.815 2.165 4.921 5 4.921Zm-.158-7.854c1.319 0 2.146.708 2.421 1.968h-5.039c.315-1.22 1.28-1.968 2.618-1.968Zm6.283 7.657h2.165v-14.173h-2.165v14.173Zm8.532.197c1.201 0 2.224-.453 2.893-1.221v1.024h2.166v-14.173h-2.166v5.768c-.669-.768-1.692-1.24-2.893-1.24-2.559 0-4.547 2.165-4.547 4.94 0 2.756 1.988 4.902 4.547 4.902Zm.354-2.047c-1.575 0-2.677-1.181-2.677-2.874s1.102-2.874 2.677-2.874c1.595 0 2.677 1.181 2.677 2.874s-1.082 2.874-2.677 2.874Zm11.344 1.85h2.264v-5.905h6.299v-2.067h-6.299v-3.74h6.633v-2.067h-8.897v13.779Zm14.465.197c1.2 0 2.224-.453 2.893-1.221v1.024h2.166v-9.449h-2.166v1.044c-.669-.768-1.693-1.24-2.893-1.24-2.559 0-4.547 2.165-4.547 4.94 0 2.756 1.988 4.902 4.547 4.902Zm.354-2.047c-1.575 0-2.677-1.181-2.677-2.874s1.102-2.874 2.677-2.874c1.594 0 2.677 1.181 2.677 2.874s-1.083 2.874-2.677 2.874Zm7.108 1.85h2.165v-5.256c0-1.614.866-2.362 2.087-2.362.551 0 .944.158 1.299.512l1.417-1.457c-.65-.748-1.398-1.082-2.342-1.082-1.103 0-1.93.433-2.461 1.181v-.985h-2.165v9.449Zm8.016 0h2.165v-5.63c0-1.26.906-1.988 2.067-1.988s2.047.728 2.047 1.988v5.63h2.166v-5.63c0-1.26.905-1.988 2.066-1.988 1.162 0 2.048.728 2.048 1.988v5.63h2.165v-6.102c0-2.185-1.634-3.543-3.661-3.543-1.319 0-2.441.59-3.15 1.574-.61-1.004-1.732-1.574-3.031-1.574-1.103 0-2.067.413-2.717 1.161v-.965h-2.165v9.449Zm18.057-11.181c.748 0 1.28-.571 1.28-1.299s-.532-1.299-1.28-1.299-1.279.571-1.279 1.299.531 1.299 1.279 1.299Zm-1.083 11.181h2.166v-9.449H173.7v9.449Zm4.594 0h2.166v-5.453c0-1.259.905-2.165 2.165-2.165s2.146.906 2.146 2.165v5.453h2.165v-5.925c0-1.85-1.535-3.72-3.661-3.72-1.162 0-2.166.472-2.815 1.279v-1.083h-2.166v9.449Zm14.681-.197c1.22 0 2.244-.453 2.913-1.22v1.023c0 1.536-1.063 2.461-2.775 2.461-1.359 0-2.304-.473-3.052-1.417l-1.417 1.417c.925 1.319 2.441 2.067 4.429 2.067 2.953 0 4.98-1.811 4.98-4.528v-9.055h-2.165v1.004c-.669-.748-1.693-1.2-2.913-1.2-2.54 0-4.449 2.027-4.449 4.704 0 2.697 1.909 4.744 4.449 4.744Zm.433-2.047c-1.575 0-2.658-1.083-2.658-2.677 0-1.595 1.083-2.677 2.658-2.677s2.618 1.063 2.618 2.677-1.043 2.677-2.618 2.677ZM567.093 42.706c4.644 0 7.566-2.4 7.566-6.275 0-7.997-10.212-5.567-10.212-10.119 0-1.569 1.261-2.46 3.414-2.46 1.723 0 2.984.676 4.214 2.06l2.399-2.399c-1.415-1.722-3.691-2.953-6.52-2.953-3.968 0-7.044 2.215-7.044 5.998 0 7.69 10.212 5.044 10.212 10.089 0 1.722-1.538 2.768-3.906 2.768-2.553 0-4.06-1.015-5.26-2.738l-2.399 2.4c1.876 2.398 4.121 3.629 7.536 3.629Zm12.877-.308h3.383V30.71h3.537v-3.075h-3.537v-6.152h-3.383v6.152h-3.538v3.075h3.538v11.688Zm15.14.308c1.876 0 3.476-.708 4.521-1.907v1.6h3.384V27.634h-3.384v1.63c-1.045-1.2-2.645-1.938-4.521-1.938-3.998 0-7.105 3.383-7.105 7.72 0 4.306 3.107 7.659 7.105 7.659Zm.554-3.2c-2.461 0-4.183-1.845-4.183-4.49 0-2.645 1.722-4.49 4.183-4.49 2.491 0 4.183 1.845 4.183 4.49 0 2.645-1.692 4.49-4.183 4.49Zm11.105 2.892h3.384V35.17l5.997 7.228h4.306l-6.52-7.69 6.213-7.073h-4.029l-5.967 6.95V20.254h-3.384v22.145Zm16.891-17.47c1.169 0 1.999-.892 1.999-2.03s-.83-2.03-1.999-2.03-1.999.892-1.999 2.03.83 2.03 1.999 2.03Zm-1.691 17.47h3.383V27.635h-3.383v14.763Zm7.178 0h3.383v-8.52c0-1.968 1.415-3.383 3.383-3.383 1.969 0 3.353 1.415 3.353 3.383v8.52h3.383V33.14c0-2.891-2.399-5.813-5.721-5.813-1.815 0-3.383.738-4.398 2v-1.692h-3.383v14.763Zm22.938-.308c1.907 0 3.506-.707 4.552-1.907v1.6c0 2.399-1.661 3.845-4.337 3.845-2.122 0-3.599-.739-4.767-2.215l-2.215 2.215c1.446 2.06 3.814 3.23 6.921 3.23 4.613 0 7.781-2.83 7.781-7.075V27.635h-3.383v1.568c-1.046-1.169-2.645-1.876-4.552-1.876-3.968 0-6.951 3.168-6.951 7.351 0 4.214 2.983 7.413 6.951 7.413Zm.676-3.198c-2.46 0-4.152-1.692-4.152-4.183 0-2.492 1.692-4.183 4.152-4.183 2.461 0 4.091 1.66 4.091 4.183 0 2.522-1.63 4.183-4.091 4.183Z" fill="#BDBDBD"/><path d="M769.661 114.165c2.787 0 4.54-1.439 4.54-3.765 0-4.798-6.127-3.34-6.127-6.071 0-.941.757-1.476 2.049-1.476 1.033 0 1.79.406 2.528 1.236l1.439-1.439c-.849-1.034-2.214-1.772-3.912-1.772-2.381 0-4.226 1.329-4.226 3.599 0 4.613 6.127 3.026 6.127 6.053 0 1.033-.923 1.661-2.344 1.661-1.532 0-2.436-.609-3.156-1.643l-1.439 1.44c1.126 1.439 2.473 2.177 4.521 2.177Zm7.726-.184h2.03v-7.013h2.123v-1.846h-2.123v-3.69h-2.03v3.69h-2.122v1.846h2.122v7.013Zm9.085.184c1.125 0 2.085-.424 2.713-1.144v.96h2.03v-8.859h-2.03v.979c-.628-.72-1.588-1.163-2.713-1.163-2.399 0-4.263 2.03-4.263 4.632 0 2.584 1.864 4.595 4.263 4.595Zm.332-1.919c-1.476 0-2.51-1.107-2.51-2.694 0-1.588 1.034-2.695 2.51-2.695 1.495 0 2.51 1.107 2.51 2.695 0 1.587-1.015 2.694-2.51 2.694Zm6.663 1.735h2.03v-4.337l3.599 4.337h2.584l-3.913-4.614 3.728-4.245h-2.417l-3.581 4.171v-8.6h-2.03v13.288Zm10.135-10.482c.701 0 1.199-.536 1.199-1.218 0-.683-.498-1.218-1.199-1.218-.701 0-1.2.535-1.2 1.218 0 .682.499 1.218 1.2 1.218Zm-1.015 10.482h2.03v-8.859h-2.03v8.859Zm4.307 0h2.03v-5.112c0-1.181.849-2.03 2.03-2.03 1.181 0 2.011.849 2.011 2.03v5.112h2.03v-5.555c0-1.735-1.439-3.488-3.432-3.488-1.089 0-2.03.443-2.639 1.199v-1.015h-2.03v8.859Zm13.763-.185c1.144 0 2.103-.424 2.731-1.144v.96c0 1.439-.997 2.306-2.602 2.306-1.274 0-2.159-.443-2.861-1.328l-1.328 1.328c.867 1.237 2.288 1.938 4.152 1.938 2.768 0 4.669-1.698 4.669-4.244v-8.49h-2.03v.942c-.628-.702-1.587-1.126-2.731-1.126-2.381 0-4.171 1.901-4.171 4.411 0 2.528 1.79 4.447 4.171 4.447Zm.406-1.919c-1.477 0-2.492-1.015-2.492-2.51 0-1.495 1.015-2.51 2.492-2.51 1.476 0 2.454.997 2.454 2.51s-.978 2.51-2.454 2.51Z" fill="#5DC5C5"/><path d="M468.189 123.879c3.158 0 5.145-1.631 5.145-4.267 0-5.437-6.944-3.785-6.944-6.881 0-1.066.858-1.673 2.322-1.673 1.171 0 2.029.46 2.865 1.402l1.632-1.632c-.962-1.171-2.51-2.008-4.434-2.008-2.698 0-4.79 1.506-4.79 4.079 0 5.228 6.944 3.43 6.944 6.86 0 1.171-1.046 1.882-2.656 1.882-1.736 0-2.761-.69-3.577-1.861l-1.631 1.631c1.276 1.631 2.803 2.468 5.124 2.468Zm8.756-.209h2.301v-7.948h2.405v-2.091h-2.405v-4.183h-2.301v4.183h-2.405v2.091h2.405v7.948Zm10.296.209c1.276 0 2.363-.481 3.074-1.297v1.088h2.301v-10.039h-2.301v1.108c-.711-.815-1.798-1.317-3.074-1.317-2.719 0-4.831 2.3-4.831 5.249 0 2.928 2.112 5.208 4.831 5.208Zm.376-2.175c-1.673 0-2.844-1.255-2.844-3.054 0-1.798 1.171-3.053 2.844-3.053 1.695 0 2.845 1.255 2.845 3.053 0 1.799-1.15 3.054-2.845 3.054Zm7.552 1.966h2.301v-4.915l4.078 4.915h2.929l-4.434-5.229 4.224-4.81h-2.739l-4.058 4.727v-9.747h-2.301v15.059Zm11.486-11.88c.795 0 1.36-.606 1.36-1.38 0-.774-.565-1.381-1.36-1.381-.795 0-1.359.607-1.359 1.381s.564 1.38 1.359 1.38Zm-1.15 11.88h2.3v-10.039h-2.3v10.039Zm4.881 0h2.3v-5.794c0-1.338.963-2.3 2.301-2.3 1.339 0 2.28.962 2.28 2.3v5.794h2.3v-6.295c0-1.966-1.631-3.953-3.89-3.953-1.234 0-2.3.502-2.991 1.359v-1.15h-2.3v10.039Zm15.598-.209c1.297 0 2.384-.481 3.095-1.297v1.088c0 1.631-1.129 2.614-2.949 2.614-1.443 0-2.447-.502-3.242-1.506l-1.506 1.506c.983 1.401 2.594 2.196 4.706 2.196 3.138 0 5.292-1.924 5.292-4.81v-9.621h-2.301v1.066c-.711-.794-1.798-1.275-3.095-1.275-2.698 0-4.727 2.154-4.727 4.998 0 2.866 2.029 5.041 4.727 5.041Zm.46-2.175c-1.673 0-2.824-1.151-2.824-2.845 0-1.694 1.151-2.844 2.824-2.844 1.673 0 2.782 1.129 2.782 2.844 0 1.715-1.109 2.845-2.782 2.845Z" fill="#27326F"/><path d="M15.17 54.667c4.644 0 7.566-2.4 7.566-6.275 0-7.997-10.21-5.567-10.21-10.119 0-1.569 1.26-2.46 3.413-2.46 1.723 0 2.984.676 4.214 2.06l2.399-2.399c-1.415-1.722-3.69-2.952-6.52-2.952-3.968 0-7.044 2.214-7.044 5.997 0 7.69 10.211 5.044 10.211 10.089 0 1.722-1.538 2.768-3.906 2.768-2.553 0-4.06-1.015-5.26-2.738l-2.398 2.4c1.876 2.399 4.121 3.629 7.535 3.629Zm12.877-.308h3.383V42.671h3.538v-3.075H31.43v-6.152h-3.383v6.152H24.51v3.075h3.537V54.36Zm15.14.308c1.877 0 3.476-.708 4.522-1.907v1.6h3.383V39.595H47.71v1.63c-1.046-1.2-2.645-1.938-4.521-1.938-3.999 0-7.105 3.383-7.105 7.72 0 4.306 3.106 7.659 7.105 7.659Zm.554-3.199c-2.46 0-4.183-1.845-4.183-4.49 0-2.646 1.723-4.491 4.183-4.491 2.492 0 4.183 1.845 4.183 4.49 0 2.646-1.691 4.491-4.183 4.491Zm11.106 2.891h3.383v-7.228l5.998 7.228h4.306l-6.52-7.69 6.212-7.073h-4.029l-5.967 6.95V32.215h-3.383v22.145Zm16.89-17.47c1.17 0 2-.892 2-2.03s-.83-2.03-2-2.03c-1.168 0-1.998.892-1.998 2.03s.83 2.03 1.999 2.03Zm-1.69 17.47h3.383V39.596h-3.384v14.763Zm7.177 0h3.383v-8.52c0-1.968 1.415-3.383 3.384-3.383 1.968 0 3.352 1.415 3.352 3.383v8.52h3.384v-9.258c0-2.89-2.4-5.813-5.721-5.813-1.815 0-3.383.738-4.398 2v-1.692h-3.384v14.763Zm22.938-.307c1.907 0 3.507-.708 4.552-1.907v1.599c0 2.4-1.66 3.845-4.336 3.845-2.123 0-3.599-.739-4.768-2.215l-2.214 2.215c1.445 2.06 3.814 3.23 6.92 3.23 4.614 0 7.782-2.83 7.782-7.075V39.596h-3.384v1.568c-1.045-1.169-2.645-1.876-4.552-1.876-3.967 0-6.95 3.168-6.95 7.351 0 4.214 2.983 7.413 6.95 7.413Zm.677-3.2c-2.46 0-4.152-1.69-4.152-4.182 0-2.492 1.692-4.183 4.152-4.183 2.461 0 4.091 1.66 4.091 4.183 0 2.522-1.63 4.183-4.091 4.183ZM401.374 199.372c1.804 0 2.939-.932 2.939-2.437 0-3.107-3.967-2.163-3.967-3.931 0-.609.49-.956 1.326-.956.669 0 1.159.263 1.637.801l.932-.932c-.55-.669-1.434-1.147-2.533-1.147-1.541 0-2.736.86-2.736 2.33 0 2.986 3.967 1.959 3.967 3.918 0 .669-.598 1.076-1.518 1.076-.991 0-1.577-.395-2.043-1.064l-.931.932c.728.932 1.601 1.41 2.927 1.41Zm5.001-.12h1.315v-4.539h1.374v-1.195h-1.374v-2.39h-1.315v2.39h-1.373v1.195h1.373v4.539Zm5.881.12c.729 0 1.35-.275 1.757-.741v.621h1.314v-5.734h-1.314v.633c-.407-.466-1.028-.753-1.757-.753-1.553 0-2.759 1.315-2.759 2.999 0 1.673 1.206 2.975 2.759 2.975Zm.216-1.243c-.956 0-1.625-.716-1.625-1.744 0-1.027.669-1.744 1.625-1.744.967 0 1.624.717 1.624 1.744 0 1.028-.657 1.744-1.624 1.744Zm4.313 1.123h1.314v-2.807l2.33 2.807h1.673l-2.533-2.986 2.413-2.748h-1.565l-2.318 2.7v-5.567h-1.314v8.601Zm6.561-6.785c.454 0 .777-.347.777-.789 0-.442-.323-.788-.777-.788s-.776.346-.776.788c0 .442.322.789.776.789Zm-.657 6.785h1.314v-5.734h-1.314v5.734Zm2.788 0h1.314v-3.309c0-.765.55-1.314 1.315-1.314.764 0 1.302.549 1.302 1.314v3.309h1.314v-3.596c0-1.123-.932-2.258-2.222-2.258-.705 0-1.314.287-1.709.777v-.657h-1.314v5.734Zm8.91-.119c.741 0 1.362-.275 1.768-.741v.622c0 .931-.645 1.493-1.684 1.493-.825 0-1.398-.287-1.852-.86l-.86.86c.561.8 1.481 1.254 2.688 1.254 1.792 0 3.022-1.099 3.022-2.747v-5.496h-1.314v.609c-.406-.454-1.027-.729-1.768-.729-1.541 0-2.7 1.231-2.7 2.856 0 1.636 1.159 2.879 2.7 2.879Zm.263-1.243c-.956 0-1.613-.657-1.613-1.624 0-.968.657-1.625 1.613-1.625s1.589.645 1.589 1.625c0 .979-.633 1.624-1.589 1.624Z" fill="#5DC5C5"/><path d="M230.003 59.642c2.956 0 4.815-1.526 4.815-3.992 0-5.09-6.498-3.543-6.498-6.44 0-.998.802-1.566 2.173-1.566 1.096 0 1.898.43 2.681 1.312l1.527-1.527c-.901-1.096-2.349-1.88-4.15-1.88-2.525 0-4.482 1.41-4.482 3.818 0 4.893 6.498 3.21 6.498 6.42 0 1.096-.978 1.761-2.486 1.761-1.624 0-2.583-.646-3.346-1.742l-1.527 1.527c1.194 1.526 2.623 2.31 4.795 2.31Zm8.195-.195h2.153v-7.438h2.251v-1.957h-2.251v-3.915h-2.153v3.915h-2.251v1.957h2.251v7.438Zm9.635.195c1.193 0 2.211-.45 2.877-1.213v1.018h2.153v-9.395h-2.153v1.037c-.666-.763-1.684-1.233-2.877-1.233-2.545 0-4.522 2.153-4.522 4.913 0 2.74 1.977 4.873 4.522 4.873Zm.352-2.035c-1.566 0-2.662-1.175-2.662-2.858s1.096-2.858 2.662-2.858c1.585 0 2.662 1.175 2.662 2.858s-1.077 2.858-2.662 2.858Zm7.067 1.84h2.153v-4.6l3.817 4.6h2.74l-4.149-4.894 3.953-4.501h-2.564l-3.797 4.423v-9.12h-2.153v14.092Zm10.749-11.118c.744 0 1.272-.567 1.272-1.292 0-.724-.528-1.291-1.272-1.291s-1.272.567-1.272 1.291c0 .725.528 1.292 1.272 1.292Zm-1.077 11.118h2.153v-9.395h-2.153v9.395Zm4.568 0h2.153v-5.422c0-1.253.9-2.153 2.153-2.153 1.253 0 2.134.9 2.134 2.153v5.422h2.153v-5.892c0-1.84-1.527-3.7-3.641-3.7-1.155 0-2.153.47-2.799 1.273v-1.076h-2.153v9.395Zm14.597-.196c1.214 0 2.231-.45 2.897-1.214v1.018c0 1.527-1.057 2.447-2.76 2.447-1.35 0-2.29-.47-3.034-1.41l-1.409 1.41c.92 1.311 2.427 2.055 4.404 2.055 2.936 0 4.952-1.8 4.952-4.502v-9.003h-2.153v.998c-.666-.744-1.683-1.194-2.897-1.194-2.525 0-4.423 2.016-4.423 4.678 0 2.681 1.898 4.717 4.423 4.717Zm.431-2.036c-1.566 0-2.643-1.076-2.643-2.662 0-1.585 1.077-2.661 2.643-2.661 1.566 0 2.603 1.056 2.603 2.661s-1.037 2.662-2.603 2.662Z" fill="#27326F"/><path d="M119.495 85.117h3.753l1.661-4.153h9.258l1.63 4.153h3.814l-8.797-21.53h-2.46l-8.859 21.53Zm6.644-7.228 3.414-8.582 3.383 8.582h-6.797Zm16.312 7.228h3.537v-13.78l5.844 9.596h2.46l5.844-9.596v13.78h3.537v-21.53h-2.46l-8.151 13.41-8.151-13.41h-2.46v21.53Zm25.891 0h3.537v-13.78l5.844 9.596h2.461l5.844-9.596v13.78h3.537v-21.53h-2.461l-8.151 13.41-8.15-13.41h-2.461v21.53Z" fill="#5DC5C5"/></svg>