<svg width="880" height="257" viewBox="0 0 880 257" fill="none" xmlns="http://www.w3.org/2000/svg">
<path d="M287.622 174.718H292.338V146.012H287.622V174.718ZM297.94 174.718H302.451V162.99C302.451 160.365 304.337 158.848 306.757 158.848C309.176 158.848 311.022 160.365 311.022 162.99V174.718H315.533V162.99C315.533 160.365 317.419 158.848 319.839 158.848C322.258 158.848 324.104 160.365 324.104 162.99V174.718H328.615V162.005C328.615 157.453 325.211 154.624 320.987 154.624C318.24 154.624 315.902 155.854 314.426 157.904C313.154 155.813 310.817 154.624 308.11 154.624C305.814 154.624 303.804 155.485 302.451 157.043V155.034H297.94V174.718ZM333.263 182.92H337.774V172.586C339.168 174.185 341.3 175.129 343.802 175.129C349.133 175.129 353.275 170.658 353.275 164.917C353.275 159.135 349.133 154.624 343.802 154.624C341.3 154.624 339.168 155.608 337.774 157.207V155.034H333.263V182.92ZM343.064 170.864C339.742 170.864 337.487 168.403 337.487 164.876C337.487 161.349 339.742 158.889 343.064 158.889C346.345 158.889 348.641 161.349 348.641 164.876C348.641 168.403 346.345 170.864 343.064 170.864ZM366.197 175.129C369.272 175.129 372.102 173.98 374.029 171.725L371.159 168.813C369.969 170.207 368.165 170.905 366.156 170.905C363.203 170.905 361.07 169.264 360.414 166.558H375.096C375.26 165.737 375.342 165.081 375.342 164.425C375.342 158.766 371.405 154.624 365.95 154.624C360.25 154.624 355.78 159.094 355.78 164.876C355.78 170.741 360.291 175.129 366.197 175.129ZM365.868 158.766C368.616 158.766 370.339 160.242 370.913 162.867H360.414C361.07 160.324 363.08 158.766 365.868 158.766ZM378.958 174.718H383.469V163.769C383.469 160.406 385.273 158.848 387.816 158.848C388.964 158.848 389.784 159.176 390.523 159.914L393.475 156.879C392.122 155.321 390.564 154.624 388.595 154.624C386.299 154.624 384.576 155.526 383.469 157.084V155.034H378.958V174.718ZM395.658 174.718H400.169V162.99C400.169 160.365 402.056 158.848 404.475 158.848C406.895 158.848 408.74 160.365 408.74 162.99V174.718H413.251V162.99C413.251 160.365 415.138 158.848 417.557 158.848C419.977 158.848 421.822 160.365 421.822 162.99V174.718H426.333V162.005C426.333 157.453 422.93 154.624 418.706 154.624C415.958 154.624 413.62 155.854 412.144 157.904C410.873 155.813 408.535 154.624 405.829 154.624C403.532 154.624 401.523 155.485 400.169 157.043V155.034H395.658V174.718ZM439.224 175.129C441.726 175.129 443.858 174.185 445.252 172.586V174.718H449.763V155.034H445.252V157.207C443.858 155.608 441.726 154.624 439.224 154.624C433.893 154.624 429.751 159.135 429.751 164.917C429.751 170.658 433.893 175.129 439.224 175.129ZM439.962 170.864C436.681 170.864 434.385 168.403 434.385 164.876C434.385 161.349 436.681 158.889 439.962 158.889C443.284 158.889 445.539 161.349 445.539 164.876C445.539 168.403 443.284 170.864 439.962 170.864ZM454.77 174.718H459.281V163.359C459.281 160.734 461.167 158.848 463.792 158.848C466.417 158.848 468.262 160.734 468.262 163.359V174.718H472.773V162.375C472.773 158.52 469.574 154.624 465.145 154.624C462.726 154.624 460.634 155.608 459.281 157.289V155.034H454.77V174.718ZM486.502 175.129C489.578 175.129 492.408 173.98 494.335 171.725L491.465 168.813C490.275 170.207 488.471 170.905 486.461 170.905C483.509 170.905 481.376 169.264 480.72 166.558H495.401C495.566 165.737 495.648 165.081 495.648 164.425C495.648 158.766 491.711 154.624 486.256 154.624C480.556 154.624 476.086 159.094 476.086 164.876C476.086 170.741 480.597 175.129 486.502 175.129ZM486.174 158.766C488.922 158.766 490.644 160.242 491.218 162.867H480.72C481.376 160.324 483.386 158.766 486.174 158.766ZM499.264 174.718H503.775V163.359C503.775 160.734 505.661 158.848 508.286 158.848C510.911 158.848 512.756 160.734 512.756 163.359V174.718H517.267V162.375C517.267 158.52 514.068 154.624 509.639 154.624C507.22 154.624 505.128 155.608 503.775 157.289V155.034H499.264V174.718ZM524.605 174.718H529.116V159.135H533.832V155.034H529.116V146.832H524.605V155.034H519.888V159.135H524.605V174.718ZM545.32 174.718H549.831V145.191H545.32V174.718ZM563.873 175.129C569.697 175.129 574.208 170.617 574.208 164.835C574.208 159.094 569.656 154.624 563.873 154.624C558.091 154.624 553.58 159.135 553.58 164.835C553.58 170.576 558.132 175.129 563.873 175.129ZM563.873 170.782C560.551 170.782 558.214 168.321 558.214 164.835C558.214 161.431 560.551 158.971 563.873 158.971C567.195 158.971 569.574 161.39 569.574 164.835C569.574 168.321 567.236 170.782 563.873 170.782ZM584.398 175.129C588.991 175.129 591.861 172.75 591.861 168.895C591.861 161.636 581.65 163.564 581.65 160.324C581.65 159.299 582.675 158.725 584.48 158.725C586.407 158.725 587.842 159.422 588.991 160.857L591.861 157.986C590.221 155.772 587.76 154.624 584.603 154.624C580.092 154.624 577.344 156.92 577.344 160.693C577.344 167.829 587.555 165.696 587.555 169.264C587.555 170.412 586.489 171.028 584.48 171.028C582.224 171.028 580.461 170.248 579.107 168.649L576.237 171.52C578.123 173.816 581.076 175.129 584.398 175.129ZM602.019 175.129C606.612 175.129 609.483 172.75 609.483 168.895C609.483 161.636 599.271 163.564 599.271 160.324C599.271 159.299 600.297 158.725 602.101 158.725C604.029 158.725 605.464 159.422 606.612 160.857L609.483 157.986C607.842 155.772 605.382 154.624 602.224 154.624C597.713 154.624 594.965 156.92 594.965 160.693C594.965 167.829 605.177 165.696 605.177 169.264C605.177 170.412 604.111 171.028 602.101 171.028C599.846 171.028 598.082 170.248 596.729 168.649L593.858 171.52C595.745 173.816 598.697 175.129 602.019 175.129Z" fill="#27326F"/>
<path d="M690.074 21H692.271V7.62353H690.074V21ZM694.882 21H696.984V15.5348C696.984 14.3118 697.863 13.6047 698.99 13.6047C700.117 13.6047 700.977 14.3118 700.977 15.5348V21H703.079V15.5348C703.079 14.3118 703.958 13.6047 705.086 13.6047C706.213 13.6047 707.073 14.3118 707.073 15.5348V21H709.175V15.0761C709.175 12.955 707.589 11.6365 705.621 11.6365C704.341 11.6365 703.251 12.2098 702.563 13.1652C701.971 12.1906 700.882 11.6365 699.621 11.6365C698.551 11.6365 697.614 12.0378 696.984 12.7639V11.8276H694.882V21ZM711.341 24.8218H713.443V20.0063C714.093 20.7516 715.086 21.1911 716.252 21.1911C718.736 21.1911 720.666 19.1082 720.666 16.4329C720.666 13.7385 718.736 11.6365 716.252 11.6365C715.086 11.6365 714.093 12.0951 713.443 12.8404V11.8276H711.341V24.8218ZM715.908 19.2037C714.36 19.2037 713.309 18.0572 713.309 16.4138C713.309 14.7704 714.36 13.6238 715.908 13.6238C717.437 13.6238 718.507 14.7704 718.507 16.4138C718.507 18.0572 717.437 19.2037 715.908 19.2037ZM726.687 21.1911C728.12 21.1911 729.439 20.656 730.337 19.605L728.999 18.2483C728.445 18.898 727.604 19.2228 726.668 19.2228C725.292 19.2228 724.298 18.4585 723.993 17.1973H730.834C730.91 16.8151 730.948 16.5093 730.948 16.2036C730.948 13.5665 729.114 11.6365 726.572 11.6365C723.916 11.6365 721.833 13.7194 721.833 16.4138C721.833 19.1464 723.935 21.1911 726.687 21.1911ZM726.534 13.5665C727.815 13.5665 728.617 14.2544 728.885 15.4774H723.993C724.298 14.2927 725.235 13.5665 726.534 13.5665ZM732.633 21H734.736V15.8978C734.736 14.3309 735.576 13.6047 736.761 13.6047C737.296 13.6047 737.678 13.7576 738.022 14.1016L739.398 12.6875C738.768 11.9613 738.041 11.6365 737.124 11.6365C736.054 11.6365 735.251 12.0569 734.736 12.783V11.8276H732.633V21ZM740.415 21H742.517V15.5348C742.517 14.3118 743.396 13.6047 744.524 13.6047C745.651 13.6047 746.511 14.3118 746.511 15.5348V21H748.613V15.5348C748.613 14.3118 749.492 13.6047 750.62 13.6047C751.747 13.6047 752.607 14.3118 752.607 15.5348V21H754.709V15.0761C754.709 12.955 753.123 11.6365 751.155 11.6365C749.874 11.6365 748.785 12.2098 748.097 13.1652C747.505 12.1906 746.416 11.6365 745.154 11.6365C744.084 11.6365 743.148 12.0378 742.517 12.7639V11.8276H740.415V21ZM760.716 21.1911C761.881 21.1911 762.875 20.7516 763.525 20.0063V21H765.627V11.8276H763.525V12.8404C762.875 12.0951 761.881 11.6365 760.716 11.6365C758.231 11.6365 756.301 13.7385 756.301 16.4329C756.301 19.1082 758.231 21.1911 760.716 21.1911ZM761.06 19.2037C759.531 19.2037 758.461 18.0572 758.461 16.4138C758.461 14.7704 759.531 13.6238 761.06 13.6238C762.607 13.6238 763.658 14.7704 763.658 16.4138C763.658 18.0572 762.607 19.2037 761.06 19.2037ZM767.959 21H770.061V15.7067C770.061 14.4838 770.94 13.6047 772.163 13.6047C773.386 13.6047 774.246 14.4838 774.246 15.7067V21H776.348V15.2481C776.348 13.4519 774.858 11.6365 772.794 11.6365C771.667 11.6365 770.692 12.0951 770.061 12.8786V11.8276H767.959V21ZM782.746 21.1911C784.179 21.1911 785.498 20.656 786.396 19.605L785.058 18.2483C784.504 18.898 783.663 19.2228 782.727 19.2228C781.351 19.2228 780.357 18.4585 780.051 17.1973H786.893C786.969 16.8151 787.007 16.5093 787.007 16.2036C787.007 13.5665 785.173 11.6365 782.631 11.6365C779.975 11.6365 777.892 13.7194 777.892 16.4138C777.892 19.1464 779.994 21.1911 782.746 21.1911ZM782.593 13.5665C783.873 13.5665 784.676 14.2544 784.943 15.4774H780.051C780.357 14.2927 781.294 13.5665 782.593 13.5665ZM788.692 21H790.794V15.7067C790.794 14.4838 791.673 13.6047 792.896 13.6047C794.119 13.6047 794.979 14.4838 794.979 15.7067V21H797.081V15.2481C797.081 13.4519 795.591 11.6365 793.527 11.6365C792.399 11.6365 791.425 12.0951 790.794 12.8786V11.8276H788.692V21ZM800.5 21H802.602V13.7385H804.8V11.8276H802.602V8.00572H800.5V11.8276H798.303V13.7385H800.5V21ZM810.153 21H812.255V7.24135H810.153V21ZM818.798 21.1911C821.512 21.1911 823.614 19.0891 823.614 16.3947C823.614 13.7194 821.493 11.6365 818.798 11.6365C816.104 11.6365 814.002 13.7385 814.002 16.3947C814.002 19.07 816.123 21.1911 818.798 21.1911ZM818.798 19.1655C817.25 19.1655 816.161 18.019 816.161 16.3947C816.161 14.8086 817.25 13.6621 818.798 13.6621C820.346 13.6621 821.454 14.7895 821.454 16.3947C821.454 18.019 820.365 19.1655 818.798 19.1655ZM828.362 21.1911C830.502 21.1911 831.84 20.0828 831.84 18.2865C831.84 14.9042 827.082 15.8023 827.082 14.2927C827.082 13.8149 827.559 13.5474 828.4 13.5474C829.298 13.5474 829.967 13.8723 830.502 14.5411L831.84 13.2034C831.075 12.1715 829.929 11.6365 828.457 11.6365C826.355 11.6365 825.075 12.7066 825.075 14.4646C825.075 17.7896 829.833 16.796 829.833 18.4585C829.833 18.9935 829.337 19.2802 828.4 19.2802C827.349 19.2802 826.527 18.9171 825.897 18.1718L824.559 19.5095C825.438 20.5796 826.814 21.1911 828.362 21.1911ZM836.573 21.1911C838.713 21.1911 840.051 20.0828 840.051 18.2865C840.051 14.9042 835.293 15.8023 835.293 14.2927C835.293 13.8149 835.77 13.5474 836.611 13.5474C837.509 13.5474 838.178 13.8723 838.713 14.5411L840.051 13.2034C839.286 12.1715 838.14 11.6365 836.668 11.6365C834.566 11.6365 833.286 12.7066 833.286 14.4646C833.286 17.7896 838.044 16.796 838.044 18.4585C838.044 18.9935 837.548 19.2802 836.611 19.2802C835.56 19.2802 834.738 18.9171 834.108 18.1718L832.77 19.5095C833.649 20.5796 835.025 21.1911 836.573 21.1911Z" fill="#BDBDBD"/>
<path d="M183.433 23.5631H185.63V10.1866H183.433V23.5631ZM188.241 23.5631H190.343V18.0979C190.343 16.8749 191.222 16.1678 192.349 16.1678C193.477 16.1678 194.337 16.8749 194.337 18.0979V23.5631H196.439V18.0979C196.439 16.8749 197.318 16.1678 198.445 16.1678C199.573 16.1678 200.432 16.8749 200.432 18.0979V23.5631H202.535V17.6392C202.535 15.5181 200.948 14.1996 198.98 14.1996C197.7 14.1996 196.611 14.7729 195.923 15.7283C195.33 14.7538 194.241 14.1996 192.98 14.1996C191.91 14.1996 190.973 14.6009 190.343 15.327V14.3907H188.241V23.5631ZM204.7 27.385H206.802V22.5694C207.452 23.3147 208.446 23.7542 209.611 23.7542C212.095 23.7542 214.025 21.6713 214.025 18.996C214.025 16.3016 212.095 14.1996 209.611 14.1996C208.446 14.1996 207.452 14.6582 206.802 15.4035V14.3907H204.7V27.385ZM209.267 21.7668C207.719 21.7668 206.668 20.6203 206.668 18.9769C206.668 17.3335 207.719 16.1869 209.267 16.1869C210.796 16.1869 211.866 17.3335 211.866 18.9769C211.866 20.6203 210.796 21.7668 209.267 21.7668ZM220.046 23.7542C221.48 23.7542 222.798 23.2191 223.696 22.1681L222.359 20.8114C221.804 21.4611 220.964 21.786 220.027 21.786C218.651 21.786 217.658 21.0216 217.352 19.7604H224.193C224.269 19.3782 224.308 19.0724 224.308 18.7667C224.308 16.1296 222.473 14.1996 219.932 14.1996C217.276 14.1996 215.193 16.2825 215.193 18.9769C215.193 21.7095 217.295 23.7542 220.046 23.7542ZM219.893 16.1296C221.174 16.1296 221.976 16.8175 222.244 18.0405H217.352C217.658 16.8558 218.594 16.1296 219.893 16.1296ZM225.993 23.5631H228.095V18.4609C228.095 16.894 228.936 16.1678 230.12 16.1678C230.655 16.1678 231.038 16.3207 231.382 16.6647L232.757 15.2506C232.127 14.5244 231.401 14.1996 230.483 14.1996C229.413 14.1996 228.611 14.62 228.095 15.3461V14.3907H225.993V23.5631ZM233.775 23.5631H235.877V18.0979C235.877 16.8749 236.756 16.1678 237.883 16.1678C239.01 16.1678 239.87 16.8749 239.87 18.0979V23.5631H241.972V18.0979C241.972 16.8749 242.851 16.1678 243.979 16.1678C245.106 16.1678 245.966 16.8749 245.966 18.0979V23.5631H248.068V17.6392C248.068 15.5181 246.482 14.1996 244.514 14.1996C243.234 14.1996 242.144 14.7729 241.456 15.7283C240.864 14.7538 239.775 14.1996 238.514 14.1996C237.444 14.1996 236.507 14.6009 235.877 15.327V14.3907H233.775V23.5631ZM254.075 23.7542C255.24 23.7542 256.234 23.3147 256.884 22.5694V23.5631H258.986V14.3907H256.884V15.4035C256.234 14.6582 255.24 14.1996 254.075 14.1996C251.591 14.1996 249.661 16.3016 249.661 18.996C249.661 21.6713 251.591 23.7542 254.075 23.7542ZM254.419 21.7668C252.89 21.7668 251.82 20.6203 251.82 18.9769C251.82 17.3335 252.89 16.1869 254.419 16.1869C255.967 16.1869 257.018 17.3335 257.018 18.9769C257.018 20.6203 255.967 21.7668 254.419 21.7668ZM261.319 23.5631H263.421V18.2699C263.421 17.0469 264.3 16.1678 265.523 16.1678C266.746 16.1678 267.606 17.0469 267.606 18.2699V23.5631H269.708V17.8112C269.708 16.015 268.217 14.1996 266.153 14.1996C265.026 14.1996 264.051 14.6582 263.421 15.4417V14.3907H261.319V23.5631ZM276.105 23.7542C277.538 23.7542 278.857 23.2191 279.755 22.1681L278.417 20.8114C277.863 21.4611 277.022 21.786 276.086 21.786C274.71 21.786 273.716 21.0216 273.411 19.7604H280.252C280.328 19.3782 280.366 19.0724 280.366 18.7667C280.366 16.1296 278.532 14.1996 275.99 14.1996C273.334 14.1996 271.251 16.2825 271.251 18.9769C271.251 21.7095 273.353 23.7542 276.105 23.7542ZM275.952 16.1296C277.233 16.1296 278.035 16.8175 278.303 18.0405H273.411C273.716 16.8558 274.653 16.1296 275.952 16.1296ZM282.051 23.5631H284.153V18.2699C284.153 17.0469 285.033 16.1678 286.256 16.1678C287.478 16.1678 288.338 17.0469 288.338 18.2699V23.5631H290.44V17.8112C290.44 16.015 288.95 14.1996 286.886 14.1996C285.759 14.1996 284.784 14.6582 284.153 15.4417V14.3907H282.051V23.5631ZM293.859 23.5631H295.962V16.3016H298.159V14.3907H295.962V10.5688H293.859V14.3907H291.662V16.3016H293.859V23.5631ZM303.512 23.5631H305.614V9.80446H303.512V23.5631ZM312.157 23.7542C314.871 23.7542 316.973 21.6522 316.973 18.9578C316.973 16.2825 314.852 14.1996 312.157 14.1996C309.463 14.1996 307.361 16.3016 307.361 18.9578C307.361 21.6331 309.482 23.7542 312.157 23.7542ZM312.157 21.7286C310.61 21.7286 309.52 20.5821 309.52 18.9578C309.52 17.3717 310.61 16.2252 312.157 16.2252C313.705 16.2252 314.814 17.3526 314.814 18.9578C314.814 20.5821 313.724 21.7286 312.157 21.7286ZM321.721 23.7542C323.861 23.7542 325.199 22.6459 325.199 20.8496C325.199 17.4673 320.441 18.3654 320.441 16.8558C320.441 16.378 320.919 16.1105 321.759 16.1105C322.658 16.1105 323.326 16.4354 323.861 17.1042L325.199 15.7665C324.435 14.7346 323.288 14.1996 321.817 14.1996C319.715 14.1996 318.434 15.2697 318.434 17.0278C318.434 20.3528 323.193 19.3591 323.193 21.0216C323.193 21.5566 322.696 21.8433 321.759 21.8433C320.708 21.8433 319.887 21.4802 319.256 20.7349L317.918 22.0726C318.797 23.1427 320.173 23.7542 321.721 23.7542ZM329.932 23.7542C332.072 23.7542 333.41 22.6459 333.41 20.8496C333.41 17.4673 328.652 18.3654 328.652 16.8558C328.652 16.378 329.13 16.1105 329.97 16.1105C330.869 16.1105 331.537 16.4354 332.072 17.1042L333.41 15.7665C332.646 14.7346 331.499 14.1996 330.028 14.1996C327.926 14.1996 326.645 15.2697 326.645 17.0278C326.645 20.3528 331.404 19.3591 331.404 21.0216C331.404 21.5566 330.907 21.8433 329.97 21.8433C328.919 21.8433 328.098 21.4802 327.467 20.7349L326.129 22.0726C327.008 23.1427 328.384 23.7542 329.932 23.7542Z" fill="#BDBDBD"/>
<path d="M1.48494 115.835H3.73188V102.158H1.48494V115.835ZM6.40089 115.835H8.55015V110.247C8.55015 108.996 9.44892 108.274 10.6017 108.274C11.7545 108.274 12.6337 108.996 12.6337 110.247V115.835H14.783V110.247C14.783 108.996 15.6818 108.274 16.8345 108.274C17.9873 108.274 18.8666 108.996 18.8666 110.247V115.835H21.0158V109.778C21.0158 107.609 19.3941 106.261 17.3816 106.261C16.0725 106.261 14.9588 106.847 14.2554 107.824C13.6497 106.828 12.536 106.261 11.2465 106.261C10.1523 106.261 9.19492 106.671 8.55015 107.414V106.456H6.40089V115.835ZM23.2301 119.743H25.3793V114.819C26.0437 115.581 27.0597 116.03 28.2515 116.03C30.7915 116.03 32.765 113.901 32.765 111.165C32.765 108.41 30.7915 106.261 28.2515 106.261C27.0597 106.261 26.0437 106.73 25.3793 107.492V106.456H23.2301V119.743ZM27.8998 113.998C26.3172 113.998 25.2426 112.826 25.2426 111.146C25.2426 109.465 26.3172 108.293 27.8998 108.293C29.4629 108.293 30.5571 109.465 30.5571 111.146C30.5571 112.826 29.4629 113.998 27.8998 113.998ZM38.9212 116.03C40.3866 116.03 41.7347 115.483 42.653 114.409L41.2853 113.021C40.7187 113.686 39.859 114.018 38.9016 114.018C37.4948 114.018 36.4788 113.236 36.1662 111.947H43.161C43.2392 111.556 43.2783 111.243 43.2783 110.931C43.2783 108.234 41.4026 106.261 38.8039 106.261C36.0881 106.261 33.9583 108.391 33.9583 111.146C33.9583 113.94 36.1076 116.03 38.9212 116.03ZM38.7648 108.234C40.0739 108.234 40.8946 108.938 41.1681 110.188H36.1662C36.4788 108.977 37.4362 108.234 38.7648 108.234ZM45.0012 115.835H47.1504V110.618C47.1504 109.016 48.0101 108.274 49.2215 108.274C49.7686 108.274 50.1594 108.43 50.5111 108.782L51.9179 107.336C51.2731 106.593 50.5306 106.261 49.5928 106.261C48.4986 106.261 47.678 106.691 47.1504 107.433V106.456H45.0012V115.835ZM52.9578 115.835H55.1071V110.247C55.1071 108.996 56.0059 108.274 57.1587 108.274C58.3114 108.274 59.1907 108.996 59.1907 110.247V115.835H61.3399V110.247C61.3399 108.996 62.2387 108.274 63.3915 108.274C64.5443 108.274 65.4235 108.996 65.4235 110.247V115.835H67.5728V109.778C67.5728 107.609 65.9511 106.261 63.9386 106.261C62.6295 106.261 61.5158 106.847 60.8124 107.824C60.2067 106.828 59.093 106.261 57.8034 106.261C56.7093 106.261 55.7519 106.671 55.1071 107.414V106.456H52.9578V115.835ZM73.7143 116.03C74.9062 116.03 75.9222 115.581 76.5865 114.819V115.835H78.7357V106.456H76.5865V107.492C75.9222 106.73 74.9062 106.261 73.7143 106.261C71.1743 106.261 69.2009 108.41 69.2009 111.165C69.2009 113.901 71.1743 116.03 73.7143 116.03ZM74.066 113.998C72.5029 113.998 71.4088 112.826 71.4088 111.146C71.4088 109.465 72.5029 108.293 74.066 108.293C75.6486 108.293 76.7233 109.465 76.7233 111.146C76.7233 112.826 75.6486 113.998 74.066 113.998ZM81.121 115.835H83.2702V110.423C83.2702 109.172 84.169 108.274 85.4195 108.274C86.67 108.274 87.5492 109.172 87.5492 110.423V115.835H89.6985V109.954C89.6985 108.117 88.1744 106.261 86.0643 106.261C84.9115 106.261 83.915 106.73 83.2702 107.531V106.456H81.121V115.835ZM96.2396 116.03C97.705 116.03 99.0532 115.483 99.9715 114.409L98.6038 113.021C98.0372 113.686 97.1775 114.018 96.2201 114.018C94.8133 114.018 93.7973 113.236 93.4847 111.947H100.48C100.558 111.556 100.597 111.243 100.597 110.931C100.597 108.234 98.721 106.261 96.1224 106.261C93.4065 106.261 91.2768 108.391 91.2768 111.146C91.2768 113.94 93.4261 116.03 96.2396 116.03ZM96.0833 108.234C97.3924 108.234 98.213 108.938 98.4866 110.188H93.4847C93.7973 108.977 94.7547 108.234 96.0833 108.234ZM102.32 115.835H104.469V110.423C104.469 109.172 105.368 108.274 106.618 108.274C107.869 108.274 108.748 109.172 108.748 110.423V115.835H110.897V109.954C110.897 108.117 109.373 106.261 107.263 106.261C106.11 106.261 105.114 106.73 104.469 107.531V106.456H102.32V115.835ZM114.393 115.835H116.542V108.41H118.789V106.456H116.542V102.549H114.393V106.456H112.146V108.41H114.393V115.835ZM124.262 115.835H126.412V101.767H124.262V115.835ZM133.102 116.03C135.877 116.03 138.026 113.881 138.026 111.126C138.026 108.391 135.857 106.261 133.102 106.261C130.347 106.261 128.198 108.41 128.198 111.126C128.198 113.862 130.367 116.03 133.102 116.03ZM133.102 113.959C131.52 113.959 130.406 112.787 130.406 111.126C130.406 109.504 131.52 108.332 133.102 108.332C134.685 108.332 135.818 109.485 135.818 111.126C135.818 112.787 134.704 113.959 133.102 113.959ZM142.881 116.03C145.069 116.03 146.437 114.897 146.437 113.06C146.437 109.602 141.572 110.52 141.572 108.977C141.572 108.488 142.06 108.215 142.92 108.215C143.838 108.215 144.522 108.547 145.069 109.231L146.437 107.863C145.655 106.808 144.483 106.261 142.979 106.261C140.829 106.261 139.52 107.355 139.52 109.153C139.52 112.552 144.385 111.536 144.385 113.236C144.385 113.783 143.877 114.076 142.92 114.076C141.845 114.076 141.005 113.705 140.36 112.943L138.993 114.311C139.891 115.405 141.298 116.03 142.881 116.03ZM151.276 116.03C153.465 116.03 154.832 114.897 154.832 113.06C154.832 109.602 149.967 110.52 149.967 108.977C149.967 108.488 150.456 108.215 151.315 108.215C152.234 108.215 152.918 108.547 153.465 109.231L154.832 107.863C154.051 106.808 152.879 106.261 151.374 106.261C149.225 106.261 147.916 107.355 147.916 109.153C147.916 112.552 152.781 111.536 152.781 113.236C152.781 113.783 152.273 114.076 151.315 114.076C150.241 114.076 149.401 113.705 148.756 112.943L147.388 114.311C148.287 115.405 149.694 116.03 151.276 116.03Z" fill="#5DC5C5"/>
<path d="M79.2478 170.007C83.8922 170.007 86.8141 167.608 86.8141 163.732C86.8141 155.735 76.6027 158.165 76.6027 153.613C76.6027 152.044 77.8637 151.152 80.0168 151.152C81.7392 151.152 83.0002 151.829 84.2305 153.213L86.6296 150.814C85.2147 149.092 82.9387 147.861 80.109 147.861C76.1413 147.861 73.0656 150.076 73.0656 153.859C73.0656 161.548 83.277 158.903 83.277 163.947C83.277 165.67 81.7392 166.716 79.3709 166.716C76.818 166.716 75.3109 165.701 74.1114 163.978L71.7123 166.377C73.5885 168.776 75.8338 170.007 79.2478 170.007ZM96.5582 170.007C98.865 170.007 100.987 169.145 102.433 167.454L100.28 165.27C99.3878 166.316 98.0345 166.839 96.5274 166.839C94.3129 166.839 92.7135 165.608 92.2214 163.578H103.232C103.356 162.963 103.417 162.471 103.417 161.979C103.417 157.734 100.464 154.628 96.3736 154.628C92.0984 154.628 88.7458 157.981 88.7458 162.317C88.7458 166.716 92.1291 170.007 96.5582 170.007ZM96.3121 157.734C98.3728 157.734 99.6646 158.842 100.095 160.81H92.2214C92.7135 158.903 94.2206 157.734 96.3121 157.734ZM112.988 170.007C115.295 170.007 117.417 169.145 118.863 167.454L116.71 165.27C115.818 166.316 114.464 166.839 112.957 166.839C110.743 166.839 109.143 165.608 108.651 163.578H119.662C119.785 162.963 119.847 162.471 119.847 161.979C119.847 157.734 116.894 154.628 112.804 154.628C108.528 154.628 105.176 157.981 105.176 162.317C105.176 166.716 108.559 170.007 112.988 170.007ZM112.742 157.734C114.803 157.734 116.095 158.842 116.525 160.81H108.651C109.143 158.903 110.651 157.734 112.742 157.734ZM128.741 170.007C130.618 170.007 132.217 169.299 133.263 168.1V169.699H136.646V147.554H133.263V156.566C132.217 155.366 130.618 154.628 128.741 154.628C124.743 154.628 121.636 158.011 121.636 162.348C121.636 166.654 124.743 170.007 128.741 170.007ZM129.295 166.808C126.834 166.808 125.112 164.962 125.112 162.317C125.112 159.672 126.834 157.827 129.295 157.827C131.786 157.827 133.478 159.672 133.478 162.317C133.478 164.962 131.786 166.808 129.295 166.808ZM147.02 169.699H150.557V161.579H155.016C159.076 161.579 162.152 158.934 162.152 154.874C162.152 150.814 159.076 148.169 155.016 148.169H147.02V169.699ZM154.832 151.245C157.046 151.245 158.615 152.66 158.615 154.874C158.615 157.089 157.046 158.503 154.832 158.503H150.557V151.245H154.832ZM165.121 169.699H168.504V161.179C168.504 159.211 169.919 157.796 171.887 157.796C173.856 157.796 175.24 159.211 175.24 161.179V169.699H178.623V160.441C178.623 157.027 176.193 154.628 172.902 154.628C171.088 154.628 169.519 155.366 168.504 156.627V147.554H165.121V169.699ZM182.061 169.699H185.445V161.487C185.445 158.965 186.798 157.796 188.705 157.796C189.566 157.796 190.181 158.042 190.735 158.596L192.949 156.32C191.934 155.151 190.766 154.628 189.289 154.628C187.567 154.628 186.275 155.305 185.445 156.473V154.936H182.061V169.699ZM200.318 170.007C202.194 170.007 203.794 169.299 204.839 168.1V169.699H208.223V154.936H204.839V156.566C203.794 155.366 202.194 154.628 200.318 154.628C196.32 154.628 193.213 158.011 193.213 162.348C193.213 166.654 196.32 170.007 200.318 170.007ZM200.872 166.808C198.411 166.808 196.689 164.962 196.689 162.317C196.689 159.672 198.411 157.827 200.872 157.827C203.363 157.827 205.055 159.672 205.055 162.317C205.055 164.962 203.363 166.808 200.872 166.808ZM216.806 170.007C220.251 170.007 222.404 168.223 222.404 165.332C222.404 159.887 214.746 161.333 214.746 158.903C214.746 158.134 215.515 157.704 216.868 157.704C218.314 157.704 219.39 158.227 220.251 159.303L222.404 157.15C221.174 155.489 219.329 154.628 216.96 154.628C213.577 154.628 211.516 156.35 211.516 159.18C211.516 164.532 219.175 162.932 219.175 165.608C219.175 166.47 218.375 166.931 216.868 166.931C215.176 166.931 213.854 166.346 212.839 165.147L210.686 167.3C212.101 169.022 214.315 170.007 216.806 170.007ZM232.052 170.007C234.359 170.007 236.481 169.145 237.927 167.454L235.774 165.27C234.882 166.316 233.529 166.839 232.022 166.839C229.807 166.839 228.208 165.608 227.716 163.578H238.727C238.85 162.963 238.911 162.471 238.911 161.979C238.911 157.734 235.959 154.628 231.868 154.628C227.593 154.628 224.24 157.981 224.24 162.317C224.24 166.716 227.623 170.007 232.052 170.007ZM231.806 157.734C233.867 157.734 235.159 158.842 235.589 160.81H227.716C228.208 158.903 229.715 157.734 231.806 157.734Z" fill="#27326F"/>
<path d="M719.17 74.3173C723.815 74.3173 726.736 71.9182 726.736 68.0428C726.736 60.0459 716.525 62.4757 716.525 57.9236C716.525 56.355 717.786 55.4631 719.939 55.4631C721.662 55.4631 722.923 56.1397 724.153 57.5238L726.552 55.1247C725.137 53.4023 722.861 52.172 720.031 52.172C716.064 52.172 712.988 54.3866 712.988 58.1697C712.988 65.859 723.199 63.2139 723.199 68.2581C723.199 69.9805 721.662 71.0262 719.293 71.0262C716.74 71.0262 715.233 70.0113 714.034 68.2888L711.635 70.6879C713.511 73.087 715.756 74.3173 719.17 74.3173ZM736.481 74.3173C738.787 74.3173 740.91 73.4561 742.355 71.7644L740.202 69.5807C739.31 70.6264 737.957 71.1493 736.45 71.1493C734.235 71.1493 732.636 69.919 732.144 67.889H743.155C743.278 67.2739 743.339 66.7817 743.339 66.2896C743.339 62.0451 740.387 58.9386 736.296 58.9386C732.021 58.9386 728.668 62.2912 728.668 66.628C728.668 71.0262 732.051 74.3173 736.481 74.3173ZM736.234 62.0451C738.295 62.0451 739.587 63.1524 740.018 65.1208H732.144C732.636 63.2139 734.143 62.0451 736.234 62.0451ZM752.91 74.3173C755.217 74.3173 757.339 73.4561 758.785 71.7644L756.632 69.5807C755.74 70.6264 754.387 71.1493 752.88 71.1493C750.665 71.1493 749.066 69.919 748.574 67.889H759.585C759.708 67.2739 759.769 66.7817 759.769 66.2896C759.769 62.0451 756.817 58.9386 752.726 58.9386C748.451 58.9386 745.098 62.2912 745.098 66.628C745.098 71.0262 748.481 74.3173 752.91 74.3173ZM752.664 62.0451C754.725 62.0451 756.017 63.1524 756.448 65.1208H748.574C749.066 63.2139 750.573 62.0451 752.664 62.0451ZM768.664 74.3173C770.54 74.3173 772.139 73.6099 773.185 72.4103V74.0097H776.568V51.8645H773.185V60.8763C772.139 59.6768 770.54 58.9386 768.664 58.9386C764.665 58.9386 761.559 62.3219 761.559 66.6587C761.559 70.9647 764.665 74.3173 768.664 74.3173ZM769.217 71.1185C766.757 71.1185 765.034 69.2731 765.034 66.628C765.034 63.9828 766.757 62.1374 769.217 62.1374C771.709 62.1374 773.4 63.9828 773.4 66.628C773.4 69.2731 771.709 71.1185 769.217 71.1185ZM786.942 74.0097H790.479V65.8898H794.939C798.999 65.8898 802.075 63.2447 802.075 59.1847C802.075 55.1247 798.999 52.4796 794.939 52.4796H786.942V74.0097ZM794.754 55.5553C796.969 55.5553 798.537 56.9702 798.537 59.1847C798.537 61.3992 796.969 62.8141 794.754 62.8141H790.479V55.5553H794.754ZM805.043 74.0097H808.426V65.4899C808.426 63.5215 809.841 62.1066 811.81 62.1066C813.778 62.1066 815.162 63.5215 815.162 65.4899V74.0097H818.546V64.7518C818.546 61.3377 816.116 58.9386 812.825 58.9386C811.01 58.9386 809.441 59.6768 808.426 60.9379V51.8645H805.043V74.0097ZM821.984 74.0097H825.367V65.7975C825.367 63.2754 826.72 62.1066 828.627 62.1066C829.488 62.1066 830.104 62.3527 830.657 62.9063L832.872 60.6303C831.857 59.4615 830.688 58.9386 829.212 58.9386C827.489 58.9386 826.197 59.6153 825.367 60.7841V59.2462H821.984V74.0097ZM840.24 74.3173C842.117 74.3173 843.716 73.6099 844.762 72.4103V74.0097H848.145V59.2462H844.762V60.8763C843.716 59.6768 842.117 58.9386 840.24 58.9386C836.242 58.9386 833.136 62.3219 833.136 66.6587C833.136 70.9647 836.242 74.3173 840.24 74.3173ZM840.794 71.1185C838.334 71.1185 836.611 69.2731 836.611 66.628C836.611 63.9828 838.334 62.1374 840.794 62.1374C843.285 62.1374 844.977 63.9828 844.977 66.628C844.977 69.2731 843.285 71.1185 840.794 71.1185ZM856.729 74.3173C860.174 74.3173 862.327 72.5334 862.327 69.6422C862.327 64.1981 854.668 65.6437 854.668 63.2139C854.668 62.445 855.437 62.0144 856.79 62.0144C858.236 62.0144 859.312 62.5372 860.174 63.6137L862.327 61.4607C861.096 59.7998 859.251 58.9386 856.883 58.9386C853.499 58.9386 851.439 60.661 851.439 63.4907C851.439 68.8425 859.097 67.2431 859.097 69.919C859.097 70.7802 858.297 71.2415 856.79 71.2415C855.099 71.2415 853.776 70.6572 852.761 69.4576L850.608 71.6106C852.023 73.333 854.237 74.3173 856.729 74.3173ZM871.975 74.3173C874.282 74.3173 876.404 73.4561 877.849 71.7644L875.696 69.5807C874.804 70.6264 873.451 71.1493 871.944 71.1493C869.729 71.1493 868.13 69.919 867.638 67.889H878.649C878.772 67.2739 878.834 66.7817 878.834 66.2896C878.834 62.0451 875.881 58.9386 871.79 58.9386C867.515 58.9386 864.162 62.2912 864.162 66.628C864.162 71.0262 867.546 74.3173 871.975 74.3173ZM871.729 62.0451C873.789 62.0451 875.081 63.1524 875.512 65.1208H867.638C868.13 63.2139 869.637 62.0451 871.729 62.0451Z" fill="#5DC5C5"/>
<path d="M485.977 204.727C488.745 204.727 490.486 203.297 490.486 200.988C490.486 196.222 484.401 197.67 484.401 194.957C484.401 194.022 485.152 193.491 486.435 193.491C487.462 193.491 488.213 193.894 488.947 194.719L490.376 193.289C489.533 192.263 488.177 191.529 486.49 191.529C484.126 191.529 482.293 192.849 482.293 195.104C482.293 199.686 488.378 198.11 488.378 201.116C488.378 202.142 487.462 202.766 486.051 202.766C484.529 202.766 483.631 202.161 482.916 201.134L481.486 202.564C482.604 203.994 483.943 204.727 485.977 204.727ZM496.293 204.727C497.668 204.727 498.933 204.214 499.795 203.206L498.511 201.904C497.98 202.527 497.173 202.839 496.275 202.839C494.955 202.839 494.002 202.106 493.709 200.896H500.271C500.344 200.529 500.381 200.236 500.381 199.943C500.381 197.413 498.621 195.562 496.184 195.562C493.636 195.562 491.638 197.56 491.638 200.144C491.638 202.766 493.654 204.727 496.293 204.727ZM496.147 197.413C497.375 197.413 498.145 198.073 498.401 199.246H493.709C494.002 198.11 494.9 197.413 496.147 197.413ZM506.085 204.727C507.46 204.727 508.725 204.214 509.586 203.206L508.303 201.904C507.771 202.527 506.965 202.839 506.067 202.839C504.747 202.839 503.794 202.106 503.501 200.896H510.063C510.136 200.529 510.173 200.236 510.173 199.943C510.173 197.413 508.413 195.562 505.975 195.562C503.427 195.562 501.429 197.56 501.429 200.144C501.429 202.766 503.446 204.727 506.085 204.727ZM505.938 197.413C507.167 197.413 507.936 198.073 508.193 199.246H503.501C503.794 198.11 504.692 197.413 505.938 197.413ZM515.473 204.727C516.591 204.727 517.545 204.305 518.168 203.591V204.544H520.184V191.346H518.168V196.717C517.545 196.002 516.591 195.562 515.473 195.562C513.09 195.562 511.239 197.578 511.239 200.163C511.239 202.729 513.09 204.727 515.473 204.727ZM515.803 202.821C514.337 202.821 513.31 201.721 513.31 200.144C513.31 198.568 514.337 197.468 515.803 197.468C517.288 197.468 518.296 198.568 518.296 200.144C518.296 201.721 517.288 202.821 515.803 202.821ZM526.366 204.544H528.474V199.705H531.132C533.552 199.705 535.385 198.128 535.385 195.709C535.385 193.289 533.552 191.713 531.132 191.713H526.366V204.544ZM531.022 193.546C532.342 193.546 533.277 194.389 533.277 195.709C533.277 197.028 532.342 197.872 531.022 197.872H528.474V193.546H531.022ZM537.154 204.544H539.17V199.466C539.17 198.293 540.013 197.45 541.187 197.45C542.36 197.45 543.185 198.293 543.185 199.466V204.544H545.201V199.026C545.201 196.992 543.753 195.562 541.792 195.562C540.71 195.562 539.775 196.002 539.17 196.753V191.346H537.154V204.544ZM547.25 204.544H549.266V199.65C549.266 198.146 550.073 197.45 551.209 197.45C551.722 197.45 552.089 197.597 552.419 197.927L553.739 196.57C553.134 195.874 552.437 195.562 551.557 195.562C550.531 195.562 549.761 195.965 549.266 196.662V195.745H547.25V204.544ZM558.13 204.727C559.248 204.727 560.202 204.305 560.825 203.591V204.544H562.841V195.745H560.825V196.717C560.202 196.002 559.248 195.562 558.13 195.562C555.747 195.562 553.896 197.578 553.896 200.163C553.896 202.729 555.747 204.727 558.13 204.727ZM558.46 202.821C556.994 202.821 555.967 201.721 555.967 200.144C555.967 198.568 556.994 197.468 558.46 197.468C559.945 197.468 560.953 198.568 560.953 200.144C560.953 201.721 559.945 202.821 558.46 202.821ZM567.957 204.727C570.01 204.727 571.293 203.664 571.293 201.941C571.293 198.696 566.728 199.558 566.728 198.11C566.728 197.652 567.187 197.395 567.993 197.395C568.855 197.395 569.496 197.707 570.01 198.348L571.293 197.065C570.559 196.075 569.46 195.562 568.048 195.562C566.032 195.562 564.804 196.588 564.804 198.275C564.804 201.464 569.368 200.511 569.368 202.106C569.368 202.619 568.891 202.894 567.993 202.894C566.985 202.894 566.197 202.546 565.592 201.831L564.309 203.114C565.152 204.14 566.472 204.727 567.957 204.727ZM577.043 204.727C578.417 204.727 579.682 204.214 580.544 203.206L579.261 201.904C578.729 202.527 577.922 202.839 577.024 202.839C575.704 202.839 574.751 202.106 574.458 200.896H581.02C581.094 200.529 581.13 200.236 581.13 199.943C581.13 197.413 579.371 195.562 576.933 195.562C574.385 195.562 572.387 197.56 572.387 200.144C572.387 202.766 574.403 204.727 577.043 204.727ZM576.896 197.413C578.124 197.413 578.894 198.073 579.151 199.246H574.458C574.751 198.11 575.649 197.413 576.896 197.413Z" fill="#5DC5C5"/>
<path d="M330.579 127.369C332.924 127.369 334.4 126.157 334.4 124.2C334.4 120.161 329.243 121.388 329.243 119.089C329.243 118.297 329.88 117.847 330.967 117.847C331.837 117.847 332.474 118.188 333.095 118.887L334.307 117.676C333.592 116.806 332.443 116.184 331.014 116.184C329.01 116.184 327.456 117.303 327.456 119.214C327.456 123.097 332.614 121.761 332.614 124.309C332.614 125.179 331.837 125.707 330.641 125.707C329.351 125.707 328.59 125.194 327.984 124.324L326.773 125.536C327.72 126.748 328.854 127.369 330.579 127.369ZM339.321 127.369C340.486 127.369 341.558 126.934 342.288 126.08L341.201 124.977C340.75 125.505 340.067 125.769 339.306 125.769C338.187 125.769 337.379 125.148 337.131 124.122H342.692C342.754 123.812 342.785 123.563 342.785 123.315C342.785 121.171 341.294 119.602 339.228 119.602C337.069 119.602 335.376 121.295 335.376 123.485C335.376 125.707 337.084 127.369 339.321 127.369ZM339.197 121.171C340.238 121.171 340.89 121.73 341.108 122.724H337.131C337.379 121.761 338.141 121.171 339.197 121.171ZM347.619 127.369C348.784 127.369 349.856 126.934 350.586 126.08L349.499 124.977C349.048 125.505 348.365 125.769 347.604 125.769C346.485 125.769 345.677 125.148 345.429 124.122H350.99C351.052 123.812 351.083 123.563 351.083 123.315C351.083 121.171 349.592 119.602 347.526 119.602C345.367 119.602 343.674 121.295 343.674 123.485C343.674 125.707 345.382 127.369 347.619 127.369ZM347.495 121.171C348.536 121.171 349.188 121.73 349.406 122.724H345.429C345.677 121.761 346.439 121.171 347.495 121.171ZM355.575 127.369C356.523 127.369 357.331 127.012 357.859 126.406V127.214H359.568V116.029H357.859V120.581C357.331 119.975 356.523 119.602 355.575 119.602C353.556 119.602 351.987 121.311 351.987 123.501C351.987 125.676 353.556 127.369 355.575 127.369ZM355.855 125.753C354.612 125.753 353.742 124.821 353.742 123.485C353.742 122.149 354.612 121.217 355.855 121.217C357.113 121.217 357.968 122.149 357.968 123.485C357.968 124.821 357.113 125.753 355.855 125.753ZM364.807 127.214H366.593V123.113H368.846C370.896 123.113 372.449 121.777 372.449 119.726C372.449 117.676 370.896 116.34 368.846 116.34H364.807V127.214ZM368.752 117.893C369.871 117.893 370.663 118.608 370.663 119.726C370.663 120.845 369.871 121.559 368.752 121.559H366.593V117.893H368.752ZM373.949 127.214H375.657V122.911C375.657 121.916 376.372 121.202 377.366 121.202C378.36 121.202 379.059 121.916 379.059 122.911V127.214H380.768V122.538C380.768 120.814 379.541 119.602 377.879 119.602C376.962 119.602 376.17 119.975 375.657 120.612V116.029H373.949V127.214ZM382.505 127.214H384.213V123.066C384.213 121.792 384.897 121.202 385.86 121.202C386.295 121.202 386.606 121.326 386.885 121.606L388.004 120.456C387.491 119.866 386.901 119.602 386.155 119.602C385.285 119.602 384.633 119.944 384.213 120.534V119.757H382.505V127.214ZM391.725 127.369C392.673 127.369 393.481 127.012 394.009 126.406V127.214H395.717V119.757H394.009V120.581C393.481 119.975 392.673 119.602 391.725 119.602C389.706 119.602 388.137 121.311 388.137 123.501C388.137 125.676 389.706 127.369 391.725 127.369ZM392.005 125.753C390.762 125.753 389.892 124.821 389.892 123.485C389.892 122.149 390.762 121.217 392.005 121.217C393.263 121.217 394.117 122.149 394.117 123.485C394.117 124.821 393.263 125.753 392.005 125.753ZM400.053 127.369C401.792 127.369 402.88 126.468 402.88 125.008C402.88 122.258 399.012 122.988 399.012 121.761C399.012 121.373 399.4 121.155 400.084 121.155C400.814 121.155 401.357 121.419 401.792 121.963L402.88 120.876C402.258 120.037 401.326 119.602 400.13 119.602C398.422 119.602 397.381 120.472 397.381 121.901C397.381 124.604 401.249 123.796 401.249 125.148C401.249 125.582 400.845 125.816 400.084 125.816C399.229 125.816 398.561 125.52 398.049 124.915L396.961 126.002C397.676 126.872 398.794 127.369 400.053 127.369ZM407.753 127.369C408.918 127.369 409.99 126.934 410.72 126.08L409.632 124.977C409.182 125.505 408.498 125.769 407.737 125.769C406.619 125.769 405.811 125.148 405.562 124.122H411.124C411.186 123.812 411.217 123.563 411.217 123.315C411.217 121.171 409.725 119.602 407.659 119.602C405.5 119.602 403.807 121.295 403.807 123.485C403.807 125.707 405.516 127.369 407.753 127.369ZM407.628 121.171C408.669 121.171 409.322 121.73 409.539 122.724H405.562C405.811 121.761 406.572 121.171 407.628 121.171Z" fill="#27326F"/>
<path d="M370.588 39.2882C375.232 39.2882 378.154 36.8891 378.154 33.0137C378.154 25.0168 367.943 27.4466 367.943 22.8945C367.943 21.3259 369.204 20.4339 371.357 20.4339C373.079 20.4339 374.34 21.1106 375.57 22.4947L377.969 20.0956C376.555 18.3732 374.279 17.1429 371.449 17.1429C367.481 17.1429 364.405 19.3574 364.405 23.1406C364.405 30.8299 374.617 28.1848 374.617 33.229C374.617 34.9514 373.079 35.9971 370.711 35.9971C368.158 35.9971 366.651 34.9821 365.451 33.2597L363.052 35.6588C364.928 38.0579 367.174 39.2882 370.588 39.2882ZM387.898 39.2882C390.205 39.2882 392.327 38.427 393.773 36.7353L391.62 34.5515C390.728 35.5973 389.374 36.1202 387.867 36.1202C385.653 36.1202 384.053 34.8899 383.561 32.8599H394.572C394.695 32.2447 394.757 31.7526 394.757 31.2605C394.757 27.016 391.804 23.9095 387.713 23.9095C383.438 23.9095 380.086 27.2621 380.086 31.5988C380.086 35.9971 383.469 39.2882 387.898 39.2882ZM387.652 27.016C389.713 27.016 391.004 28.1233 391.435 30.0917H383.561C384.053 28.1848 385.56 27.016 387.652 27.016ZM404.328 39.2882C406.635 39.2882 408.757 38.427 410.203 36.7353L408.05 34.5515C407.158 35.5973 405.804 36.1202 404.297 36.1202C402.083 36.1202 400.483 34.8899 399.991 32.8599H411.002C411.125 32.2447 411.187 31.7526 411.187 31.2605C411.187 27.016 408.234 23.9095 404.143 23.9095C399.868 23.9095 396.516 27.2621 396.516 31.5988C396.516 35.9971 399.899 39.2882 404.328 39.2882ZM404.082 27.016C406.143 27.016 407.434 28.1233 407.865 30.0917H399.991C400.483 28.1848 401.99 27.016 404.082 27.016ZM420.081 39.2882C421.957 39.2882 423.557 38.5807 424.602 37.3812V38.9806H427.986V16.8353H424.602V25.8472C423.557 24.6477 421.957 23.9095 420.081 23.9095C416.083 23.9095 412.976 27.2928 412.976 31.6296C412.976 35.9356 416.083 39.2882 420.081 39.2882ZM420.635 36.0894C418.174 36.0894 416.452 34.244 416.452 31.5988C416.452 28.9537 418.174 27.1083 420.635 27.1083C423.126 27.1083 424.818 28.9537 424.818 31.5988C424.818 34.244 423.126 36.0894 420.635 36.0894ZM438.359 38.9806H441.896V30.8607H446.356C450.416 30.8607 453.492 28.2155 453.492 24.1556C453.492 20.0956 450.416 17.4505 446.356 17.4505H438.359V38.9806ZM446.172 20.5262C448.386 20.5262 449.955 21.9411 449.955 24.1556C449.955 26.3701 448.386 27.7849 446.172 27.7849H441.896V20.5262H446.172ZM456.461 38.9806H459.844V30.4608C459.844 28.4924 461.259 27.0775 463.227 27.0775C465.196 27.0775 466.58 28.4924 466.58 30.4608V38.9806H469.963V29.7226C469.963 26.3086 467.533 23.9095 464.242 23.9095C462.427 23.9095 460.859 24.6477 459.844 25.9087V16.8353H456.461V38.9806ZM473.401 38.9806H476.784V30.7684C476.784 28.2463 478.138 27.0775 480.045 27.0775C480.906 27.0775 481.521 27.3236 482.075 27.8772L484.289 25.6012C483.274 24.4324 482.105 23.9095 480.629 23.9095C478.907 23.9095 477.615 24.5862 476.784 25.755V24.2171H473.401V38.9806ZM491.658 39.2882C493.534 39.2882 495.134 38.5807 496.179 37.3812V38.9806H499.563V24.2171H496.179V25.8472C495.134 24.6477 493.534 23.9095 491.658 23.9095C487.659 23.9095 484.553 27.2928 484.553 31.6296C484.553 35.9356 487.659 39.2882 491.658 39.2882ZM492.212 36.0894C489.751 36.0894 488.029 34.244 488.029 31.5988C488.029 28.9537 489.751 27.1083 492.212 27.1083C494.703 27.1083 496.395 28.9537 496.395 31.5988C496.395 34.244 494.703 36.0894 492.212 36.0894ZM508.146 39.2882C511.591 39.2882 513.744 37.5042 513.744 34.6131C513.744 29.169 506.086 30.6146 506.086 28.1848C506.086 27.4159 506.854 26.9853 508.208 26.9853C509.653 26.9853 510.73 27.5081 511.591 28.5846L513.744 26.4316C512.514 24.7707 510.668 23.9095 508.3 23.9095C504.917 23.9095 502.856 25.6319 502.856 28.4616C502.856 33.8134 510.515 32.214 510.515 34.8899C510.515 35.7511 509.715 36.2124 508.208 36.2124C506.516 36.2124 505.194 35.628 504.179 34.4285L502.026 36.5815C503.44 38.3039 505.655 39.2882 508.146 39.2882ZM523.392 39.2882C525.699 39.2882 527.821 38.427 529.267 36.7353L527.114 34.5515C526.222 35.5973 524.869 36.1202 523.361 36.1202C521.147 36.1202 519.548 34.8899 519.055 32.8599H530.067C530.19 32.2447 530.251 31.7526 530.251 31.2605C530.251 27.016 527.298 23.9095 523.208 23.9095C518.932 23.9095 515.58 27.2621 515.58 31.5988C515.58 35.9971 518.963 39.2882 523.392 39.2882ZM523.146 27.016C525.207 27.016 526.499 28.1233 526.929 30.0917H519.055C519.548 28.1848 521.055 27.016 523.146 27.016Z" fill="#BDBDBD"/>
<path d="M178.904 212.961H180.774L187.437 196.598H184.561L179.863 208.543L175.211 196.598H172.289L178.904 212.961ZM192.406 213.195C194.159 213.195 195.772 212.54 196.871 211.255L195.234 209.595C194.556 210.39 193.528 210.787 192.382 210.787C190.699 210.787 189.484 209.852 189.11 208.309H197.478C197.572 207.842 197.619 207.468 197.619 207.094C197.619 203.868 195.375 201.507 192.266 201.507C189.016 201.507 186.468 204.055 186.468 207.351C186.468 210.694 189.04 213.195 192.406 213.195ZM192.219 203.868C193.785 203.868 194.767 204.71 195.094 206.206H189.11C189.484 204.756 190.629 203.868 192.219 203.868ZM203.35 213.195C205.968 213.195 207.604 211.839 207.604 209.642C207.604 205.504 201.784 206.603 201.784 204.756C201.784 204.172 202.368 203.845 203.397 203.845C204.495 203.845 205.313 204.242 205.968 205.06L207.604 203.424C206.669 202.162 205.267 201.507 203.467 201.507C200.895 201.507 199.329 202.816 199.329 204.967C199.329 209.034 205.15 207.819 205.15 209.852C205.15 210.507 204.542 210.857 203.397 210.857C202.111 210.857 201.106 210.413 200.334 209.502L198.698 211.138C199.773 212.447 201.456 213.195 203.35 213.195ZM211.43 212.961H214.002V204.078H216.69V201.741H214.002V197.066H211.43V201.741H208.742V204.078H211.43V212.961ZM219.867 199.684C220.756 199.684 221.387 199.006 221.387 198.141C221.387 197.276 220.756 196.598 219.867 196.598C218.979 196.598 218.348 197.276 218.348 198.141C218.348 199.006 218.979 199.684 219.867 199.684ZM218.582 212.961H221.153V201.741H218.582V212.961ZM224.037 212.961H226.608V206.486C226.608 204.99 227.684 203.915 229.18 203.915C230.676 203.915 231.727 204.99 231.727 206.486V212.961H234.299V205.925C234.299 203.728 232.476 201.507 229.951 201.507C228.572 201.507 227.38 202.068 226.608 203.027V201.741H224.037V212.961ZM241.47 212.727C242.919 212.727 244.135 212.19 244.93 211.278V212.494C244.93 214.317 243.667 215.416 241.634 215.416C240.021 215.416 238.899 214.855 238.01 213.733L236.327 215.416C237.426 216.982 239.226 217.87 241.587 217.87C245.093 217.87 247.501 215.719 247.501 212.494V201.741H244.93V202.933C244.135 202.045 242.919 201.507 241.47 201.507C238.455 201.507 236.187 203.915 236.187 207.094C236.187 210.296 238.455 212.727 241.47 212.727ZM241.984 210.296C240.114 210.296 238.829 209.011 238.829 207.117C238.829 205.224 240.114 203.938 241.984 203.938C243.854 203.938 245.093 205.201 245.093 207.117C245.093 209.034 243.854 210.296 241.984 210.296Z" fill="#27326F"/>
<path d="M220.113 121.243L222.051 119.52C219.344 117.029 217.775 112.938 217.775 107.955C217.775 102.973 219.344 98.8821 222.051 96.3908L220.113 94.6683C216.853 97.5595 214.823 102.604 214.823 107.955C214.823 113.307 216.853 118.351 220.113 121.243ZM230.35 117.89C235.025 117.89 238.162 114.999 238.162 110.816C238.162 107.033 235.671 104.511 232.441 104.418L237.916 98.1439V96.0524H224.598V99.2204H232.841L227.92 104.941V107.033C228.535 106.848 229.365 106.725 230.104 106.725C232.903 106.725 234.594 108.202 234.594 110.631C234.594 113 232.903 114.568 230.288 114.568C228.443 114.568 226.782 113.738 225.921 112.415L223.522 114.814C225.121 116.814 227.489 117.89 230.35 117.89ZM240.459 121.181L242.335 122.196L244.611 118.013C245.195 116.906 245.38 116.229 245.38 115.706C245.38 114.384 244.303 113.338 243.073 113.338C241.751 113.338 240.766 114.415 240.766 115.706C240.766 116.752 241.474 117.583 242.273 117.767L240.459 121.181ZM254.649 117.89C259.324 117.89 262.462 114.999 262.462 110.816C262.462 107.033 259.97 104.511 256.741 104.418L262.215 98.1439V96.0524H248.898V99.2204H257.141L252.219 104.941V107.033C252.834 106.848 253.665 106.725 254.403 106.725C257.202 106.725 258.894 108.202 258.894 110.631C258.894 113 257.202 114.568 254.588 114.568C252.742 114.568 251.081 113.738 250.22 112.415L247.821 114.814C249.42 116.814 251.789 117.89 254.649 117.89ZM266.369 121.243C269.629 118.351 271.659 113.307 271.659 107.955C271.659 102.604 269.629 97.5595 266.369 94.6683L264.431 96.3908C267.138 98.8821 268.706 102.973 268.706 107.955C268.706 112.938 267.138 117.029 264.431 119.52L266.369 121.243Z" fill="#27326F"/>
<path d="M121.946 23.2693L123.147 22.2014C121.469 20.6567 120.496 18.1205 120.496 15.0312C120.496 11.942 121.469 9.40574 123.147 7.86111L121.946 6.79321C119.924 8.58575 118.666 11.7131 118.666 15.0312C118.666 18.3493 119.924 21.4767 121.946 23.2693ZM128.293 21.1907C131.191 21.1907 133.136 19.3982 133.136 16.8047C133.136 14.4592 131.592 12.8955 129.589 12.8382L132.984 8.94807V7.65134H124.727V9.6155H129.837L126.786 13.1624V14.4592C127.167 14.3447 127.682 14.2685 128.14 14.2685C129.875 14.2685 130.924 15.1838 130.924 16.6903C130.924 18.1586 129.875 19.1312 128.254 19.1312C127.11 19.1312 126.08 18.6163 125.547 17.7963L124.059 19.2837C125.051 20.5233 126.519 21.1907 128.293 21.1907ZM134.56 23.2311L135.723 23.8604L137.135 21.267C137.497 20.5805 137.611 20.1609 137.611 19.8368C137.611 19.0168 136.944 18.3684 136.181 18.3684C135.361 18.3684 134.751 19.0358 134.751 19.8368C134.751 20.4851 135.189 21 135.685 21.1144L134.56 23.2311ZM143.358 21.1907C146.257 21.1907 148.202 19.3982 148.202 16.8047C148.202 14.4592 146.657 12.8955 144.655 12.8382L148.049 8.94807V7.65134H139.792V9.6155H144.903L141.852 13.1624V14.4592C142.233 14.3447 142.748 14.2685 143.206 14.2685C144.941 14.2685 145.99 15.1838 145.99 16.6903C145.99 18.1586 144.941 19.1312 143.32 19.1312C142.176 19.1312 141.146 18.6163 140.612 17.7963L139.125 19.2837C140.116 20.5233 141.585 21.1907 143.358 21.1907ZM150.624 23.2693C152.646 21.4767 153.904 18.3493 153.904 15.0312C153.904 11.7131 152.646 8.58575 150.624 6.79321L149.423 7.86111C151.101 9.40574 152.074 11.942 152.074 15.0312C152.074 18.1205 151.101 20.6567 149.423 22.2014L150.624 23.2693Z" fill="#BDBDBD"/>
<path d="M539.043 74.4163L540.039 73.5305C538.647 72.2493 537.841 70.1455 537.841 67.583C537.841 65.0204 538.647 62.9166 540.039 61.6354L539.043 60.7496C537.366 62.2365 536.322 64.8306 536.322 67.583C536.322 70.3353 537.366 72.9294 539.043 74.4163ZM544.308 72.6922C546.712 72.6922 548.325 71.2053 548.325 69.054C548.325 67.1084 547.044 65.8113 545.383 65.7639L548.199 62.537V61.4614H541.35V63.0906H545.589L543.058 66.0328V67.1084C543.374 67.0135 543.801 66.9502 544.181 66.9502C545.62 66.9502 546.49 67.7095 546.49 68.9591C546.49 70.1771 545.62 70.9838 544.276 70.9838C543.327 70.9838 542.473 70.5567 542.03 69.8766L540.796 71.1104C541.618 72.1385 542.836 72.6922 544.308 72.6922ZM549.507 74.3847L550.471 74.9067L551.642 72.7554C551.942 72.186 552.037 71.838 552.037 71.5691C552.037 70.8889 551.484 70.3511 550.851 70.3511C550.171 70.3511 549.665 70.9047 549.665 71.5691C549.665 72.1069 550.028 72.534 550.44 72.6289L549.507 74.3847ZM556.804 72.6922C559.209 72.6922 560.822 71.2053 560.822 69.054C560.822 67.1084 559.541 65.8113 557.88 65.7639L560.696 62.537V61.4614H553.846V63.0906H558.086L555.555 66.0328V67.1084C555.871 67.0135 556.298 66.9502 556.678 66.9502C558.117 66.9502 558.987 67.7095 558.987 68.9591C558.987 70.1771 558.117 70.9838 556.773 70.9838C555.824 70.9838 554.97 70.5567 554.527 69.8766L553.293 71.1104C554.115 72.1385 555.333 72.6922 556.804 72.6922ZM562.832 74.4163C564.508 72.9294 565.552 70.3353 565.552 67.583C565.552 64.8306 564.508 62.2365 562.832 60.7496L561.835 61.6354C563.227 62.9166 564.034 65.0204 564.034 67.583C564.034 70.1455 563.227 72.2493 561.835 73.5305L562.832 74.4163Z" fill="#27326F"/>
<path d="M621.916 198.3L622.913 197.414C621.521 196.133 620.714 194.029 620.714 191.466C620.714 188.904 621.521 186.8 622.913 185.519L621.916 184.633C620.24 186.12 619.196 188.714 619.196 191.466C619.196 194.219 620.24 196.813 621.916 198.3ZM627.181 196.576C629.585 196.576 631.199 195.089 631.199 192.938C631.199 190.992 629.918 189.695 628.257 189.647L631.072 186.42V185.345H624.223V186.974H628.462L625.931 189.916V190.992C626.248 190.897 626.675 190.834 627.055 190.834C628.494 190.834 629.364 191.593 629.364 192.843C629.364 194.061 628.494 194.867 627.149 194.867C626.2 194.867 625.346 194.44 624.903 193.76L623.669 194.994C624.492 196.022 625.71 196.576 627.181 196.576ZM632.38 198.268L633.345 198.79L634.515 196.639C634.816 196.069 634.911 195.721 634.911 195.453C634.911 194.772 634.357 194.235 633.725 194.235C633.044 194.235 632.538 194.788 632.538 195.453C632.538 195.99 632.902 196.417 633.313 196.512L632.38 198.268ZM639.678 196.576C642.082 196.576 643.696 195.089 643.696 192.938C643.696 190.992 642.414 189.695 640.754 189.647L643.569 186.42V185.345H636.72V186.974H640.959L638.428 189.916V190.992C638.745 190.897 639.172 190.834 639.551 190.834C640.991 190.834 641.861 191.593 641.861 192.843C641.861 194.061 640.991 194.867 639.646 194.867C638.697 194.867 637.843 194.44 637.4 193.76L636.166 194.994C636.989 196.022 638.207 196.576 639.678 196.576ZM645.705 198.3C647.382 196.813 648.426 194.219 648.426 191.466C648.426 188.714 647.382 186.12 645.705 184.633L644.709 185.519C646.101 186.8 646.907 188.904 646.907 191.466C646.907 194.029 646.101 196.133 644.709 197.414L645.705 198.3Z" fill="#27326F"/>
<path d="M311.879 90.8253H327.087V87.2369H315.809V66.9029H311.879V90.8253ZM332.069 71.414C333.368 71.414 334.291 70.4229 334.291 69.1585C334.291 67.894 333.368 66.9029 332.069 66.9029C330.771 66.9029 329.848 67.894 329.848 69.1585C329.848 70.4229 330.771 71.414 332.069 71.414ZM330.19 90.8253H333.949V74.4214H330.19V90.8253ZM345.034 91.167C347.119 91.167 348.896 90.381 350.058 89.0482V97.6602H353.817V74.4214H350.058V76.2326C348.896 74.8998 347.119 74.0796 345.034 74.0796C340.592 74.0796 337.14 77.8388 337.14 82.6575C337.14 87.442 340.592 91.167 345.034 91.167ZM345.65 87.6128C342.916 87.6128 341.002 85.5623 341.002 82.6233C341.002 79.6843 342.916 77.6338 345.65 77.6338C348.418 77.6338 350.297 79.6843 350.297 82.6233C350.297 85.5623 348.418 87.6128 345.65 87.6128ZM364.722 91.167C368.959 91.167 371.864 88.2621 371.864 83.9561V74.4214H368.105V83.7853C368.105 86.2117 366.909 87.5445 364.722 87.5445C362.569 87.5445 361.338 86.1775 361.338 83.7853V74.4214H357.579V83.9561C357.579 88.1938 360.518 91.167 364.722 91.167ZM377.558 71.414C378.856 71.414 379.779 70.4229 379.779 69.1585C379.779 67.894 378.856 66.9029 377.558 66.9029C376.259 66.9029 375.336 67.894 375.336 69.1585C375.336 70.4229 376.259 71.414 377.558 71.414ZM375.678 90.8253H379.437V74.4214H375.678V90.8253ZM390.523 91.167C392.608 91.167 394.385 90.381 395.547 89.0482V90.8253H399.306V66.2194H395.547V76.2326C394.385 74.8998 392.608 74.0796 390.523 74.0796C386.08 74.0796 382.629 77.8388 382.629 82.6575C382.629 87.442 386.08 91.167 390.523 91.167ZM391.138 87.6128C388.404 87.6128 386.49 85.5623 386.49 82.6233C386.49 79.6843 388.404 77.6338 391.138 77.6338C393.906 77.6338 395.786 79.6843 395.786 82.6233C395.786 85.5623 393.906 87.6128 391.138 87.6128ZM405.392 71.414C406.69 71.414 407.613 70.4229 407.613 69.1585C407.613 67.894 406.69 66.9029 405.392 66.9029C404.093 66.9029 403.17 67.894 403.17 69.1585C403.17 70.4229 404.093 71.414 405.392 71.414ZM403.512 90.8253H407.271V74.4214H403.512V90.8253ZM413.982 90.8253H417.741V77.8388H421.672V74.4214H417.741V67.5864H413.982V74.4214H410.052V77.8388H413.982V90.8253ZM424.813 97.6602H428.983L432.024 90.9961L439.645 74.4214H435.476L431.033 85.1181L426.83 74.4214H422.694L428.914 89.1849L424.813 97.6602ZM449.446 90.8253H453.376V81.8031H458.331C462.842 81.8031 466.26 78.8641 466.26 74.353C466.26 69.842 462.842 66.9029 458.331 66.9029H449.446V90.8253ZM458.126 70.3204C460.587 70.3204 462.329 71.8924 462.329 74.353C462.329 76.8136 460.587 78.3856 458.126 78.3856H453.376V70.3204H458.126ZM476.242 91.167C481.095 91.167 484.854 87.4078 484.854 82.5891C484.854 77.8047 481.061 74.0796 476.242 74.0796C471.423 74.0796 467.664 77.8388 467.664 82.5891C467.664 87.3736 471.458 91.167 476.242 91.167ZM476.242 87.5445C473.474 87.5445 471.526 85.494 471.526 82.5891C471.526 79.7526 473.474 77.7021 476.242 77.7021C479.01 77.7021 480.992 79.7185 480.992 82.5891C480.992 85.494 479.044 87.5445 476.242 87.5445ZM495.499 91.167C500.352 91.167 504.111 87.4078 504.111 82.5891C504.111 77.8047 500.317 74.0796 495.499 74.0796C490.68 74.0796 486.921 77.8388 486.921 82.5891C486.921 87.3736 490.714 91.167 495.499 91.167ZM495.499 87.5445C492.731 87.5445 490.783 85.494 490.783 82.5891C490.783 79.7526 492.731 77.7021 495.499 77.7021C498.267 77.7021 500.249 79.7185 500.249 82.5891C500.249 85.494 498.301 87.5445 495.499 87.5445ZM507.237 90.8253H510.996V66.2194H507.237V90.8253Z" fill="#27326F"/>
<path d="M17.6892 204.689H26.2158V202.677H19.8927V191.277H17.6892V204.689ZM29.0095 193.806C29.7376 193.806 30.255 193.25 30.255 192.541C30.255 191.832 29.7376 191.277 29.0095 191.277C28.2814 191.277 27.7641 191.832 27.7641 192.541C27.7641 193.25 28.2814 193.806 29.0095 193.806ZM27.9557 204.689H30.0633V195.492H27.9557V204.689ZM36.2786 204.881C37.4474 204.881 38.4438 204.44 39.0952 203.693V208.521H41.2029V195.492H39.0952V196.508C38.4438 195.76 37.4474 195.301 36.2786 195.301C33.7877 195.301 31.8525 197.408 31.8525 200.11C31.8525 202.792 33.7877 204.881 36.2786 204.881ZM36.6235 202.888C35.0906 202.888 34.0176 201.739 34.0176 200.091C34.0176 198.443 35.0906 197.293 36.6235 197.293C38.1755 197.293 39.2294 198.443 39.2294 200.091C39.2294 201.739 38.1755 202.888 36.6235 202.888ZM47.3167 204.881C49.6926 204.881 51.3213 203.252 51.3213 200.838V195.492H49.2136V200.742C49.2136 202.103 48.543 202.85 47.3167 202.85C46.1096 202.85 45.4198 202.083 45.4198 200.742V195.492H43.3121V200.838C43.3121 203.214 44.9599 204.881 47.3167 204.881ZM54.5135 193.806C55.2416 193.806 55.759 193.25 55.759 192.541C55.759 191.832 55.2416 191.277 54.5135 191.277C53.7854 191.277 53.2681 191.832 53.2681 192.541C53.2681 193.25 53.7854 193.806 54.5135 193.806ZM53.4597 204.689H55.5673V195.492H53.4597V204.689ZM61.7826 204.881C62.9514 204.881 63.9478 204.44 64.5992 203.693V204.689H66.7069V190.894H64.5992V196.508C63.9478 195.76 62.9514 195.301 61.7826 195.301C59.2917 195.301 57.3565 197.408 57.3565 200.11C57.3565 202.792 59.2917 204.881 61.7826 204.881ZM62.1275 202.888C60.5946 202.888 59.5216 201.739 59.5216 200.091C59.5216 198.443 60.5946 197.293 62.1275 197.293C63.6795 197.293 64.7334 198.443 64.7334 200.091C64.7334 201.739 63.6795 202.888 62.1275 202.888ZM70.119 193.806C70.8471 193.806 71.3645 193.25 71.3645 192.541C71.3645 191.832 70.8471 191.277 70.119 191.277C69.3909 191.277 68.8736 191.832 68.8736 192.541C68.8736 193.25 69.3909 193.806 70.119 193.806ZM69.0652 204.689H71.1729V195.492H69.0652V204.689ZM74.9356 204.689H77.0432V197.408H79.2467V195.492H77.0432V191.66H74.9356V195.492H72.7321V197.408H74.9356V204.689ZM81.0082 208.521H83.3458L85.0511 204.785L89.3239 195.492H86.9863L84.4954 201.489L82.1387 195.492H79.8202L83.3075 203.77L81.0082 208.521ZM94.8187 204.689H97.0222V199.631H99.8005C102.33 199.631 104.246 197.983 104.246 195.454C104.246 192.925 102.33 191.277 99.8005 191.277H94.8187V204.689ZM99.6856 193.193C101.065 193.193 102.042 194.074 102.042 195.454C102.042 196.833 101.065 197.715 99.6856 197.715H97.0222V193.193H99.6856ZM109.843 204.881C112.564 204.881 114.671 202.773 114.671 200.072C114.671 197.389 112.544 195.301 109.843 195.301C107.141 195.301 105.033 197.408 105.033 200.072C105.033 202.754 107.16 204.881 109.843 204.881ZM109.843 202.85C108.291 202.85 107.199 201.7 107.199 200.072C107.199 198.481 108.291 197.332 109.843 197.332C111.395 197.332 112.506 198.462 112.506 200.072C112.506 201.7 111.414 202.85 109.843 202.85ZM120.639 204.881C123.36 204.881 125.468 202.773 125.468 200.072C125.468 197.389 123.341 195.301 120.639 195.301C117.938 195.301 115.83 197.408 115.83 200.072C115.83 202.754 117.957 204.881 120.639 204.881ZM120.639 202.85C119.087 202.85 117.995 201.7 117.995 200.072C117.995 198.481 119.087 197.332 120.639 197.332C122.191 197.332 123.303 198.462 123.303 200.072C123.303 201.7 122.211 202.85 120.639 202.85ZM127.221 204.689H129.328V190.894H127.221V204.689Z" fill="#5DC5C5"/>
<path d="M651.173 162.699H662.021V160.139H653.976V145.635H651.173V162.699ZM665.575 148.853C666.501 148.853 667.16 148.146 667.16 147.244C667.16 146.342 666.501 145.635 665.575 145.635C664.649 145.635 663.991 146.342 663.991 147.244C663.991 148.146 664.649 148.853 665.575 148.853ZM664.234 162.699H666.916V150.998H664.234V162.699ZM674.823 162.943C676.31 162.943 677.578 162.382 678.407 161.431V167.574H681.088V150.998H678.407V152.29C677.578 151.339 676.31 150.754 674.823 150.754C671.654 150.754 669.192 153.436 669.192 156.873C669.192 160.286 671.654 162.943 674.823 162.943ZM675.262 160.408C673.312 160.408 671.947 158.945 671.947 156.849C671.947 154.752 673.312 153.289 675.262 153.289C677.237 153.289 678.577 154.752 678.577 156.849C678.577 158.945 677.237 160.408 675.262 160.408ZM688.866 162.943C691.889 162.943 693.961 160.871 693.961 157.799V150.998H691.28V157.677C691.28 159.408 690.427 160.359 688.866 160.359C687.331 160.359 686.453 159.384 686.453 157.677V150.998H683.772V157.799C683.772 160.822 685.868 162.943 688.866 162.943ZM698.022 148.853C698.949 148.853 699.607 148.146 699.607 147.244C699.607 146.342 698.949 145.635 698.022 145.635C697.096 145.635 696.438 146.342 696.438 147.244C696.438 148.146 697.096 148.853 698.022 148.853ZM696.682 162.699H699.363V150.998H696.682V162.699ZM707.271 162.943C708.758 162.943 710.025 162.382 710.854 161.431V162.699H713.536V145.147H710.854V152.29C710.025 151.339 708.758 150.754 707.271 150.754C704.102 150.754 701.639 153.436 701.639 156.873C701.639 160.286 704.102 162.943 707.271 162.943ZM707.709 160.408C705.759 160.408 704.394 158.945 704.394 156.849C704.394 154.752 705.759 153.289 707.709 153.289C709.684 153.289 711.025 154.752 711.025 156.849C711.025 158.945 709.684 160.408 707.709 160.408ZM717.877 148.853C718.803 148.853 719.461 148.146 719.461 147.244C719.461 146.342 718.803 145.635 717.877 145.635C716.95 145.635 716.292 146.342 716.292 147.244C716.292 148.146 716.95 148.853 717.877 148.853ZM716.536 162.699H719.217V150.998H716.536V162.699ZM724.004 162.699H726.686V153.436H729.489V150.998H726.686V146.123H724.004V150.998H721.201V153.436H724.004V162.699ZM731.73 167.574H734.704L736.874 162.821L742.31 150.998H739.336L736.167 158.628L733.168 150.998H730.219L734.655 161.529L731.73 167.574ZM749.301 162.699H752.104V156.263H755.639C758.857 156.263 761.294 154.167 761.294 150.949C761.294 147.731 758.857 145.635 755.639 145.635H749.301V162.699ZM755.492 148.073C757.248 148.073 758.491 149.194 758.491 150.949C758.491 152.704 757.248 153.826 755.492 153.826H752.104V148.073H755.492ZM768.415 162.943C771.876 162.943 774.558 160.261 774.558 156.824C774.558 153.411 771.852 150.754 768.415 150.754C764.978 150.754 762.296 153.436 762.296 156.824C762.296 160.237 765.002 162.943 768.415 162.943ZM768.415 160.359C766.44 160.359 765.051 158.896 765.051 156.824C765.051 154.801 766.44 153.338 768.415 153.338C770.389 153.338 771.803 154.776 771.803 156.824C771.803 158.896 770.414 160.359 768.415 160.359ZM782.151 162.943C785.612 162.943 788.294 160.261 788.294 156.824C788.294 153.411 785.588 150.754 782.151 150.754C778.714 150.754 776.032 153.436 776.032 156.824C776.032 160.237 778.738 162.943 782.151 162.943ZM782.151 160.359C780.176 160.359 778.787 158.896 778.787 156.824C778.787 154.801 780.176 153.338 782.151 153.338C784.125 153.338 785.539 154.776 785.539 156.824C785.539 158.896 784.15 160.359 782.151 160.359ZM790.524 162.699H793.205V145.147H790.524V162.699Z" fill="#27326F"/>
<path d="M292.235 231.021H302.48V228.604H294.883V214.906H292.235V231.021ZM305.836 217.945C306.711 217.945 307.333 217.277 307.333 216.425C307.333 215.573 306.711 214.906 305.836 214.906C304.961 214.906 304.34 215.573 304.34 216.425C304.34 217.277 304.961 217.945 305.836 217.945ZM304.57 231.021H307.102V219.971H304.57V231.021ZM314.57 231.251C315.974 231.251 317.172 230.722 317.954 229.824V235.625H320.487V219.971H317.954V221.191C317.172 220.293 315.974 219.74 314.57 219.74C311.577 219.74 309.252 222.273 309.252 225.519C309.252 228.742 311.577 231.251 314.57 231.251ZM314.984 228.857C313.143 228.857 311.854 227.476 311.854 225.496C311.854 223.516 313.143 222.135 314.984 222.135C316.849 222.135 318.115 223.516 318.115 225.496C318.115 227.476 316.849 228.857 314.984 228.857ZM327.832 231.251C330.687 231.251 332.644 229.294 332.644 226.394V219.971H330.111V226.278C330.111 227.913 329.306 228.811 327.832 228.811C326.382 228.811 325.553 227.89 325.553 226.278V219.971H323.021V226.394C323.021 229.248 325.001 231.251 327.832 231.251ZM336.479 217.945C337.354 217.945 337.976 217.277 337.976 216.425C337.976 215.573 337.354 214.906 336.479 214.906C335.604 214.906 334.983 215.573 334.983 216.425C334.983 217.277 335.604 217.945 336.479 217.945ZM335.213 231.021H337.745V219.971H335.213V231.021ZM345.213 231.251C346.617 231.251 347.814 230.722 348.597 229.824V231.021H351.129V214.445H348.597V221.191C347.814 220.293 346.617 219.74 345.213 219.74C342.22 219.74 339.895 222.273 339.895 225.519C339.895 228.742 342.22 231.251 345.213 231.251ZM345.627 228.857C343.786 228.857 342.496 227.476 342.496 225.496C342.496 223.516 343.786 222.135 345.627 222.135C347.492 222.135 348.758 223.516 348.758 225.496C348.758 227.476 347.492 228.857 345.627 228.857ZM355.229 217.945C356.104 217.945 356.725 217.277 356.725 216.425C356.725 215.573 356.104 214.906 355.229 214.906C354.354 214.906 353.733 215.573 353.733 216.425C353.733 217.277 354.354 217.945 355.229 217.945ZM353.963 231.021H356.495V219.971H353.963V231.021ZM361.016 231.021H363.548V222.273H366.196V219.971H363.548V215.366H361.016V219.971H358.369V222.273H361.016V231.021ZM368.312 235.625H371.121L373.17 231.136L378.304 219.971H375.495L372.502 227.176L369.671 219.971H366.885L371.075 229.916L368.312 235.625ZM384.906 231.021H387.553V224.943H390.891C393.93 224.943 396.232 222.963 396.232 219.925C396.232 216.886 393.93 214.906 390.891 214.906H384.906V231.021ZM390.753 217.208C392.411 217.208 393.585 218.267 393.585 219.925C393.585 221.582 392.411 222.641 390.753 222.641H387.553V217.208H390.753ZM402.957 231.251C406.226 231.251 408.758 228.719 408.758 225.473C408.758 222.25 406.203 219.74 402.957 219.74C399.711 219.74 397.178 222.273 397.178 225.473C397.178 228.696 399.734 231.251 402.957 231.251ZM402.957 228.811C401.092 228.811 399.78 227.43 399.78 225.473C399.78 223.562 401.092 222.181 402.957 222.181C404.822 222.181 406.157 223.539 406.157 225.473C406.157 227.43 404.845 228.811 402.957 228.811ZM415.929 231.251C419.198 231.251 421.73 228.719 421.73 225.473C421.73 222.25 419.175 219.74 415.929 219.74C412.683 219.74 410.15 222.273 410.15 225.473C410.15 228.696 412.706 231.251 415.929 231.251ZM415.929 228.811C414.064 228.811 412.752 227.43 412.752 225.473C412.752 223.562 414.064 222.181 415.929 222.181C417.794 222.181 419.129 223.539 419.129 225.473C419.129 227.43 417.817 228.811 415.929 228.811ZM423.836 231.021H426.369V214.445H423.836V231.021Z" fill="#BDBDBD"/>
<path d="M578.633 114.33H581.641L587.468 95.8723L593.294 114.33H596.302L604.948 88.0155H600.7L594.76 106.511L588.971 88.0155H585.964L580.175 106.511L574.235 88.0155H569.987L578.633 114.33ZM603.686 114.33H608.273L610.302 109.255H621.618L623.61 114.33H628.272L617.52 88.0155H614.513L603.686 114.33ZM611.806 105.496L615.979 95.0077L620.114 105.496H611.806ZM642.043 114.706C649.487 114.706 654.9 110.082 654.9 100.684V100.083H641.893V104.03H650.276C649.599 108.315 646.592 110.571 641.968 110.571C637.006 110.571 633.284 106.699 633.284 101.135C633.284 95.6091 636.931 91.7747 642.344 91.7747C645.351 91.7747 648.096 92.9777 649.674 95.1956L652.607 92.2634C650.201 89.3312 646.517 87.6396 642.344 87.6396C634.713 87.6396 628.848 93.6168 628.848 101.135C628.848 108.654 634.788 114.706 642.043 114.706ZM659.203 114.33H663.526V97.4888L670.668 109.218H673.676L680.818 97.4888V114.33H685.141V88.0155H682.134L672.172 104.406L662.21 88.0155H659.203V114.33ZM690.848 114.33H695.171V88.0155H690.848V114.33Z" fill="#5DC5C5"/>
<path d="M267.888 199.689H269.103L271.456 192.233L273.81 199.689H275.025L278.518 189.059H276.802L274.403 196.531L272.064 189.059H270.849L268.51 196.531L266.111 189.059H264.395L267.888 199.689ZM278.008 199.689H279.861L280.681 197.639H285.252L286.057 199.689H287.94L283.597 189.059H282.382L278.008 199.689ZM281.289 196.121L282.974 191.884L284.645 196.121H281.289ZM293.504 199.841C296.51 199.841 298.697 197.973 298.697 194.177V193.934H293.443V195.528H296.829C296.556 197.26 295.341 198.171 293.473 198.171C291.469 198.171 289.965 196.607 289.965 194.359C289.965 192.127 291.438 190.578 293.625 190.578C294.84 190.578 295.949 191.064 296.586 191.96L297.771 190.775C296.799 189.59 295.311 188.907 293.625 188.907C290.542 188.907 288.173 191.322 288.173 194.359C288.173 197.396 290.573 199.841 293.504 199.841ZM300.436 199.689H302.182V192.886L305.067 197.624H306.282L309.168 192.886V199.689H310.914V189.059H309.699L305.675 195.68L301.65 189.059H300.436V199.689ZM313.219 199.689H314.966V189.059H313.219V199.689Z" fill="#5DC5C5"/>
<path d="M732.42 227.107H735.427L741.254 208.649L747.081 227.107H750.088L758.734 200.792H754.486L748.547 219.288L742.758 200.792H739.75L733.961 219.288L728.021 200.792H723.774L732.42 227.107ZM757.473 227.107H762.059L764.089 222.032H775.404L777.397 227.107H782.058L771.307 200.792H768.299L757.473 227.107ZM765.593 218.273L769.765 207.784L773.9 218.273H765.593ZM795.83 227.483C803.273 227.483 808.686 222.859 808.686 213.461V212.859H795.679V216.807H804.062C803.386 221.092 800.378 223.348 795.754 223.348C790.792 223.348 787.071 219.476 787.071 213.912C787.071 208.386 790.717 204.551 796.13 204.551C799.138 204.551 801.882 205.754 803.461 207.972L806.393 205.04C803.987 202.108 800.303 200.416 796.13 200.416C788.499 200.416 782.635 206.393 782.635 213.912C782.635 221.43 788.574 227.483 795.83 227.483ZM812.989 227.107H817.312V210.265L824.455 221.994H827.462L834.605 210.265V227.107H838.928V200.792H835.92L825.958 217.182L815.996 200.792H812.989V227.107ZM844.634 227.107H848.957V200.792H844.634V227.107Z" fill="#BDBDBD"/>
<path d="M499.843 246.592H503.381V237.088L511.254 225.062H507.225L501.627 233.859L496.03 225.062H491.939L499.843 237.211V246.592ZM514.354 229.122C515.523 229.122 516.354 228.23 516.354 227.092C516.354 225.954 515.523 225.062 514.354 225.062C513.186 225.062 512.355 225.954 512.355 227.092C512.355 228.23 513.186 229.122 514.354 229.122ZM512.663 246.592H516.046V231.829H512.663V246.592ZM526.7 246.9C529.006 246.9 531.129 246.039 532.574 244.347L530.421 242.163C529.529 243.209 528.176 243.732 526.669 243.732C524.454 243.732 522.855 242.502 522.363 240.472H533.374C533.497 239.856 533.559 239.364 533.559 238.872C533.559 234.628 530.606 231.521 526.515 231.521C522.24 231.521 518.887 234.874 518.887 239.21C518.887 243.609 522.271 246.9 526.7 246.9ZM526.454 234.628C528.514 234.628 529.806 235.735 530.237 237.703H522.363C522.855 235.796 524.362 234.628 526.454 234.628ZM536.271 246.592H539.654V224.447H536.271V246.592ZM549.602 246.9C551.478 246.9 553.077 246.192 554.123 244.993V246.592H557.506V224.447H554.123V233.459C553.077 232.259 551.478 231.521 549.602 231.521C545.603 231.521 542.497 234.904 542.497 239.241C542.497 243.547 545.603 246.9 549.602 246.9ZM550.155 243.701C547.695 243.701 545.972 241.856 545.972 239.21C545.972 236.565 547.695 234.72 550.155 234.72C552.647 234.72 554.338 236.565 554.338 239.21C554.338 241.856 552.647 243.701 550.155 243.701ZM567.88 246.592H571.417V237.365H581.259V234.136H571.417V228.292H581.782V225.062H567.88V246.592ZM590.481 246.9C592.357 246.9 593.957 246.192 595.002 244.993V246.592H598.386V231.829H595.002V233.459C593.957 232.259 592.357 231.521 590.481 231.521C586.483 231.521 583.376 234.904 583.376 239.241C583.376 243.547 586.483 246.9 590.481 246.9ZM591.035 243.701C588.574 243.701 586.852 241.856 586.852 239.21C586.852 236.565 588.574 234.72 591.035 234.72C593.526 234.72 595.218 236.565 595.218 239.21C595.218 241.856 593.526 243.701 591.035 243.701ZM602.141 246.592H605.524V238.38C605.524 235.858 606.877 234.689 608.784 234.689C609.645 234.689 610.26 234.935 610.814 235.489L613.029 233.213C612.014 232.044 610.845 231.521 609.368 231.521C607.646 231.521 606.354 232.198 605.524 233.367V231.829H602.141V246.592ZM614.666 246.592H618.049V237.796C618.049 235.827 619.464 234.689 621.279 234.689C623.093 234.689 624.477 235.827 624.477 237.796V246.592H627.861V237.796C627.861 235.827 629.275 234.689 631.09 234.689C632.905 234.689 634.289 235.827 634.289 237.796V246.592H637.672V237.057C637.672 233.643 635.119 231.521 631.951 231.521C629.891 231.521 628.137 232.444 627.03 233.982C626.077 232.413 624.323 231.521 622.294 231.521C620.571 231.521 619.064 232.167 618.049 233.336V231.829H614.666V246.592ZM642.88 229.122C644.049 229.122 644.879 228.23 644.879 227.092C644.879 225.954 644.049 225.062 642.88 225.062C641.711 225.062 640.881 225.954 640.881 227.092C640.881 228.23 641.711 229.122 642.88 229.122ZM641.189 246.592H644.572V231.829H641.189V246.592ZM648.367 246.592H651.75V238.072C651.75 236.104 653.165 234.689 655.133 234.689C657.102 234.689 658.486 236.104 658.486 238.072V246.592H661.869V237.334C661.869 234.443 659.47 231.521 656.148 231.521C654.333 231.521 652.765 232.259 651.75 233.52V231.829H648.367V246.592ZM671.305 246.285C673.212 246.285 674.811 245.577 675.857 244.378V245.977C675.857 248.376 674.196 249.822 671.52 249.822C669.398 249.822 667.921 249.084 666.753 247.607L664.538 249.822C665.984 251.882 668.352 253.051 671.459 253.051C676.072 253.051 679.24 250.222 679.24 245.977V231.829H675.857V233.397C674.811 232.229 673.212 231.521 671.305 231.521C667.337 231.521 664.354 234.689 664.354 238.872C664.354 243.086 667.337 246.285 671.305 246.285ZM671.981 243.086C669.521 243.086 667.829 241.394 667.829 238.903C667.829 236.412 669.521 234.72 671.981 234.72C674.442 234.72 676.072 236.381 676.072 238.903C676.072 241.425 674.442 243.086 671.981 243.086Z" fill="#BDBDBD"/>
<path d="M83.2396 245.699H85.5033V239.616L90.5426 231.92H87.9639L84.3813 237.55L80.7987 231.92H78.1806L83.2396 239.695V245.699ZM92.5266 234.518C93.2746 234.518 93.8061 233.947 93.8061 233.219C93.8061 232.491 93.2746 231.92 92.5266 231.92C91.7786 231.92 91.2471 232.491 91.2471 233.219C91.2471 233.947 91.7786 234.518 92.5266 234.518ZM91.4439 245.699H93.6092V236.25H91.4439V245.699ZM100.428 245.896C101.904 245.896 103.262 245.345 104.187 244.262L102.809 242.864C102.239 243.534 101.372 243.868 100.408 243.868C98.9905 243.868 97.9669 243.081 97.652 241.782H104.699C104.778 241.388 104.817 241.073 104.817 240.758C104.817 238.042 102.927 236.054 100.309 236.054C97.5732 236.054 95.4276 238.199 95.4276 240.975C95.4276 243.79 97.5929 245.896 100.428 245.896ZM100.27 238.042C101.589 238.042 102.416 238.75 102.691 240.01H97.652C97.9669 238.79 98.9315 238.042 100.27 238.042ZM106.553 245.699H108.718V231.526H106.553V245.699ZM115.085 245.896C116.286 245.896 117.309 245.443 117.978 244.675V245.699H120.144V231.526H117.978V237.294C117.309 236.526 116.286 236.054 115.085 236.054C112.526 236.054 110.538 238.219 110.538 240.994C110.538 243.75 112.526 245.896 115.085 245.896ZM115.439 243.849C113.864 243.849 112.762 242.668 112.762 240.975C112.762 239.282 113.864 238.101 115.439 238.101C117.034 238.101 118.116 239.282 118.116 240.975C118.116 242.668 117.034 243.849 115.439 243.849ZM126.783 245.699H129.047V239.794H135.346V237.727H129.047V233.987H135.68V231.92H126.783V245.699ZM141.248 245.896C142.448 245.896 143.472 245.443 144.141 244.675V245.699H146.307V236.25H144.141V237.294C143.472 236.526 142.448 236.054 141.248 236.054C138.689 236.054 136.701 238.219 136.701 240.994C136.701 243.75 138.689 245.896 141.248 245.896ZM141.602 243.849C140.027 243.849 138.925 242.668 138.925 240.975C138.925 239.282 140.027 238.101 141.602 238.101C143.196 238.101 144.279 239.282 144.279 240.975C144.279 242.668 143.196 243.849 141.602 243.849ZM148.71 245.699H150.875V240.443C150.875 238.829 151.741 238.081 152.962 238.081C153.513 238.081 153.906 238.239 154.261 238.593L155.678 237.136C155.028 236.388 154.28 236.054 153.336 236.054C152.233 236.054 151.406 236.487 150.875 237.235V236.25H148.71V245.699ZM156.726 245.699H158.891V240.069C158.891 238.809 159.797 238.081 160.958 238.081C162.119 238.081 163.005 238.809 163.005 240.069V245.699H165.171V240.069C165.171 238.809 166.076 238.081 167.237 238.081C168.399 238.081 169.285 238.809 169.285 240.069V245.699H171.45V239.597C171.45 237.412 169.816 236.054 167.789 236.054C166.47 236.054 165.348 236.644 164.639 237.628C164.029 236.624 162.907 236.054 161.608 236.054C160.505 236.054 159.541 236.467 158.891 237.215V236.25H156.726V245.699ZM174.783 234.518C175.531 234.518 176.063 233.947 176.063 233.219C176.063 232.491 175.531 231.92 174.783 231.92C174.035 231.92 173.504 232.491 173.504 233.219C173.504 233.947 174.035 234.518 174.783 234.518ZM173.7 245.699H175.866V236.25H173.7V245.699ZM178.294 245.699H180.46V240.246C180.46 238.987 181.365 238.081 182.625 238.081C183.885 238.081 184.771 238.987 184.771 240.246V245.699H186.936V239.774C186.936 237.924 185.401 236.054 183.275 236.054C182.113 236.054 181.109 236.526 180.46 237.333V236.25H178.294V245.699ZM192.975 245.502C194.195 245.502 195.219 245.049 195.888 244.282V245.305C195.888 246.841 194.825 247.766 193.113 247.766C191.754 247.766 190.809 247.293 190.061 246.349L188.644 247.766C189.569 249.085 191.085 249.833 193.073 249.833C196.026 249.833 198.053 248.022 198.053 245.305V236.25H195.888V237.254C195.219 236.506 194.195 236.054 192.975 236.054C190.435 236.054 188.526 238.081 188.526 240.758C188.526 243.455 190.435 245.502 192.975 245.502ZM193.408 243.455C191.833 243.455 190.75 242.372 190.75 240.778C190.75 239.183 191.833 238.101 193.408 238.101C194.983 238.101 196.026 239.164 196.026 240.778C196.026 242.392 194.983 243.455 193.408 243.455Z" fill="#BDBDBD"/>
<path d="M567.093 42.7056C571.737 42.7056 574.659 40.3066 574.659 36.4312C574.659 28.4343 564.447 30.8641 564.447 26.312C564.447 24.7434 565.708 23.8514 567.861 23.8514C569.584 23.8514 570.845 24.5281 572.075 25.9122L574.474 23.5131C573.059 21.7907 570.783 20.5604 567.954 20.5604C563.986 20.5604 560.91 22.7749 560.91 26.5581C560.91 34.2474 571.122 31.6023 571.122 36.6465C571.122 38.3689 569.584 39.4146 567.216 39.4146C564.663 39.4146 563.156 38.3996 561.956 36.6772L559.557 39.0763C561.433 41.4754 563.678 42.7056 567.093 42.7056ZM579.97 42.3981H583.353V30.7103H586.89V27.6346H583.353V21.4831H579.97V27.6346H576.432V30.7103H579.97V42.3981ZM595.11 42.7056C596.986 42.7056 598.586 41.9982 599.631 40.7987V42.3981H603.015V27.6346H599.631V29.2647C598.586 28.0652 596.986 27.327 595.11 27.327C591.112 27.327 588.005 30.7103 588.005 35.0471C588.005 39.3531 591.112 42.7056 595.11 42.7056ZM595.664 39.5069C593.203 39.5069 591.481 37.6614 591.481 35.0163C591.481 32.3712 593.203 30.5258 595.664 30.5258C598.155 30.5258 599.847 32.3712 599.847 35.0163C599.847 37.6614 598.155 39.5069 595.664 39.5069ZM606.769 42.3981H610.153V35.1701L616.15 42.3981H620.456L613.936 34.7088L620.149 27.6346H616.12L610.153 34.5857V20.2528H606.769V42.3981ZM623.66 24.9279C624.829 24.9279 625.659 24.036 625.659 22.898C625.659 21.7599 624.829 20.868 623.66 20.868C622.491 20.868 621.661 21.7599 621.661 22.898C621.661 24.036 622.491 24.9279 623.66 24.9279ZM621.969 42.3981H625.352V27.6346H621.969V42.3981ZM629.147 42.3981H632.53V33.8783C632.53 31.9098 633.945 30.495 635.913 30.495C637.882 30.495 639.266 31.9098 639.266 33.8783V42.3981H642.649V33.1401C642.649 30.2489 640.25 27.327 636.928 27.327C635.113 27.327 633.545 28.0652 632.53 29.3262V27.6346H629.147V42.3981ZM652.085 42.0905C653.992 42.0905 655.591 41.3831 656.637 40.1835V41.7829C656.637 44.182 654.976 45.6276 652.3 45.6276C650.178 45.6276 648.701 44.8894 647.533 43.4131L645.318 45.6276C646.764 47.6883 649.132 48.8571 652.239 48.8571C656.852 48.8571 660.02 46.0274 660.02 41.7829V27.6346H656.637V29.2032C655.591 28.0344 653.992 27.327 652.085 27.327C648.117 27.327 645.134 30.495 645.134 34.678C645.134 38.8917 648.117 42.0905 652.085 42.0905ZM652.761 38.8917C650.301 38.8917 648.609 37.2001 648.609 34.7088C648.609 32.2174 650.301 30.5258 652.761 30.5258C655.222 30.5258 656.852 32.1867 656.852 34.7088C656.852 37.2308 655.222 38.8917 652.761 38.8917Z" fill="#BDBDBD"/>
<path d="M769.661 114.165C772.448 114.165 774.201 112.726 774.201 110.4C774.201 105.602 768.074 107.06 768.074 104.329C768.074 103.388 768.831 102.853 770.123 102.853C771.156 102.853 771.913 103.259 772.651 104.089L774.09 102.65C773.241 101.616 771.876 100.878 770.178 100.878C767.797 100.878 765.952 102.207 765.952 104.477C765.952 109.09 772.079 107.503 772.079 110.53C772.079 111.563 771.156 112.191 769.735 112.191C768.203 112.191 767.299 111.582 766.579 110.548L765.14 111.988C766.266 113.427 767.613 114.165 769.661 114.165ZM777.387 113.981H779.417V106.968H781.54V105.122H779.417V101.432H777.387V105.122H775.265V106.968H777.387V113.981ZM786.472 114.165C787.597 114.165 788.557 113.741 789.185 113.021V113.981H791.215V105.122H789.185V106.101C788.557 105.381 787.597 104.938 786.472 104.938C784.073 104.938 782.209 106.968 782.209 109.57C782.209 112.154 784.073 114.165 786.472 114.165ZM786.804 112.246C785.328 112.246 784.294 111.139 784.294 109.552C784.294 107.964 785.328 106.857 786.804 106.857C788.299 106.857 789.314 107.964 789.314 109.552C789.314 111.139 788.299 112.246 786.804 112.246ZM793.467 113.981H795.497V109.644L799.096 113.981H801.68L797.767 109.367L801.495 105.122H799.078L795.497 109.293V100.693H793.467V113.981ZM803.602 103.499C804.303 103.499 804.801 102.963 804.801 102.281C804.801 101.598 804.303 101.063 803.602 101.063C802.901 101.063 802.402 101.598 802.402 102.281C802.402 102.963 802.901 103.499 803.602 103.499ZM802.587 113.981H804.617V105.122H802.587V113.981ZM806.894 113.981H808.924V108.869C808.924 107.688 809.773 106.839 810.954 106.839C812.135 106.839 812.965 107.688 812.965 108.869V113.981H814.995V108.426C814.995 106.691 813.556 104.938 811.563 104.938C810.474 104.938 809.533 105.381 808.924 106.137V105.122H806.894V113.981ZM820.657 113.796C821.801 113.796 822.76 113.372 823.388 112.652V113.612C823.388 115.051 822.391 115.918 820.786 115.918C819.512 115.918 818.627 115.475 817.925 114.59L816.597 115.918C817.464 117.155 818.885 117.856 820.749 117.856C823.517 117.856 825.418 116.158 825.418 113.612V105.122H823.388V106.064C822.76 105.362 821.801 104.938 820.657 104.938C818.276 104.938 816.486 106.839 816.486 109.349C816.486 111.877 818.276 113.796 820.657 113.796ZM821.063 111.877C819.586 111.877 818.571 110.862 818.571 109.367C818.571 107.872 819.586 106.857 821.063 106.857C822.539 106.857 823.517 107.854 823.517 109.367C823.517 110.88 822.539 111.877 821.063 111.877Z" fill="#5DC5C5"/>
<path d="M468.189 123.879C471.347 123.879 473.334 122.248 473.334 119.612C473.334 114.175 466.39 115.827 466.39 112.731C466.39 111.665 467.248 111.058 468.712 111.058C469.883 111.058 470.741 111.518 471.577 112.46L473.209 110.828C472.247 109.657 470.699 108.82 468.775 108.82C466.077 108.82 463.985 110.326 463.985 112.899C463.985 118.127 470.929 116.329 470.929 119.759C470.929 120.93 469.883 121.641 468.273 121.641C466.537 121.641 465.512 120.951 464.696 119.78L463.065 121.411C464.341 123.042 465.868 123.879 468.189 123.879ZM476.945 123.67H479.246V115.722H481.651V113.631H479.246V109.448H476.945V113.631H474.54V115.722H476.945V123.67ZM487.241 123.879C488.517 123.879 489.604 123.398 490.315 122.582V123.67H492.616V113.631H490.315V114.739C489.604 113.924 488.517 113.422 487.241 113.422C484.522 113.422 482.41 115.722 482.41 118.671C482.41 121.599 484.522 123.879 487.241 123.879ZM487.617 121.704C485.944 121.704 484.773 120.449 484.773 118.65C484.773 116.852 485.944 115.597 487.617 115.597C489.312 115.597 490.462 116.852 490.462 118.65C490.462 120.449 489.312 121.704 487.617 121.704ZM495.169 123.67H497.47V118.755L501.548 123.67H504.477L500.043 118.441L504.267 113.631H501.528L497.47 118.358V108.611H495.169V123.67ZM506.655 111.79C507.45 111.79 508.015 111.184 508.015 110.41C508.015 109.636 507.45 109.029 506.655 109.029C505.86 109.029 505.296 109.636 505.296 110.41C505.296 111.184 505.86 111.79 506.655 111.79ZM505.505 123.67H507.805V113.631H505.505V123.67ZM510.386 123.67H512.686V117.876C512.686 116.538 513.649 115.576 514.987 115.576C516.326 115.576 517.267 116.538 517.267 117.876V123.67H519.567V117.375C519.567 115.409 517.936 113.422 515.677 113.422C514.443 113.422 513.377 113.924 512.686 114.781V113.631H510.386V123.67ZM525.984 123.461C527.281 123.461 528.368 122.98 529.079 122.164V123.252C529.079 124.883 527.95 125.866 526.13 125.866C524.687 125.866 523.683 125.364 522.888 124.36L521.382 125.866C522.365 127.267 523.976 128.062 526.088 128.062C529.226 128.062 531.38 126.138 531.38 123.252V113.631H529.079V114.697C528.368 113.903 527.281 113.422 525.984 113.422C523.286 113.422 521.257 115.576 521.257 118.42C521.257 121.286 523.286 123.461 525.984 123.461ZM526.444 121.286C524.771 121.286 523.62 120.135 523.62 118.441C523.62 116.747 524.771 115.597 526.444 115.597C528.117 115.597 529.226 116.726 529.226 118.441C529.226 120.156 528.117 121.286 526.444 121.286Z" fill="#27326F"/>
<path d="M15.1702 54.6668C19.8145 54.6668 22.7365 52.2677 22.7365 48.3923C22.7365 40.3954 12.5251 42.8252 12.5251 38.2731C12.5251 36.7045 13.7861 35.8125 15.9391 35.8125C17.6615 35.8125 18.9226 36.4892 20.1529 37.8733L22.5519 35.4742C21.1371 33.7518 18.8611 32.5215 16.0314 32.5215C12.0637 32.5215 8.98797 34.736 8.98797 38.5192C8.98797 46.2085 19.1994 43.5634 19.1994 48.6076C19.1994 50.33 17.6615 51.3757 15.2932 51.3757C12.7404 51.3757 11.2333 50.3607 10.0337 48.6383L7.63465 51.0374C9.51084 53.4365 11.7561 54.6668 15.1702 54.6668ZM28.0472 54.3592H31.4305V42.6714H34.9675V39.5957H31.4305V33.4442H28.0472V39.5957H24.5101V42.6714H28.0472V54.3592ZM43.1877 54.6668C45.0639 54.6668 46.6632 53.9593 47.709 52.7598V54.3592H51.0923V39.5957H47.709V41.2258C46.6632 40.0263 45.0639 39.2881 43.1877 39.2881C39.1892 39.2881 36.0827 42.6714 36.0827 47.0082C36.0827 51.3142 39.1892 54.6668 43.1877 54.6668ZM43.7413 51.468C41.2807 51.468 39.5583 49.6226 39.5583 46.9774C39.5583 44.3323 41.2807 42.4869 43.7413 42.4869C46.2326 42.4869 47.9243 44.3323 47.9243 46.9774C47.9243 49.6226 46.2326 51.468 43.7413 51.468ZM54.8471 54.3592H58.2304V47.1312L64.2281 54.3592H68.5341L62.0135 46.6699L68.2265 39.5957H64.1973L58.2304 46.5468V32.2139H54.8471V54.3592ZM71.7379 36.8891C72.9066 36.8891 73.7371 35.9971 73.7371 34.8591C73.7371 33.7211 72.9066 32.8291 71.7379 32.8291C70.5691 32.8291 69.7386 33.7211 69.7386 34.8591C69.7386 35.9971 70.5691 36.8891 71.7379 36.8891ZM70.0462 54.3592H73.4295V39.5957H70.0462V54.3592ZM77.2242 54.3592H80.6075V45.8394C80.6075 43.871 82.0223 42.4561 83.9908 42.4561C85.9593 42.4561 87.3433 43.871 87.3433 45.8394V54.3592H90.7266V45.1012C90.7266 42.2101 88.3276 39.2881 85.0058 39.2881C83.1911 39.2881 81.6225 40.0263 80.6075 41.2873V39.5957H77.2242V54.3592ZM100.162 54.0516C102.069 54.0516 103.669 53.3442 104.714 52.1447V53.744C104.714 56.1431 103.054 57.5887 100.378 57.5887C98.2555 57.5887 96.7791 56.8505 95.6103 55.3742L93.3958 57.5887C94.8414 59.6494 97.2097 60.8182 100.316 60.8182C104.93 60.8182 108.098 57.9886 108.098 53.744V39.5957H104.714V41.1643C103.669 39.9955 102.069 39.2881 100.162 39.2881C96.1947 39.2881 93.2113 42.4561 93.2113 46.6391C93.2113 50.8529 96.1947 54.0516 100.162 54.0516ZM100.839 50.8529C98.3785 50.8529 96.6868 49.1612 96.6868 46.6699C96.6868 44.1785 98.3785 42.4869 100.839 42.4869C103.3 42.4869 104.93 44.1478 104.93 46.6699C104.93 49.192 103.3 50.8529 100.839 50.8529Z" fill="#5DC5C5"/>
<path d="M401.374 199.372C403.178 199.372 404.313 198.44 404.313 196.935C404.313 193.828 400.346 194.772 400.346 193.004C400.346 192.395 400.836 192.048 401.672 192.048C402.341 192.048 402.831 192.311 403.309 192.849L404.241 191.917C403.691 191.248 402.807 190.77 401.708 190.77C400.167 190.77 398.972 191.63 398.972 193.1C398.972 196.086 402.939 195.059 402.939 197.018C402.939 197.687 402.341 198.094 401.421 198.094C400.43 198.094 399.844 197.699 399.378 197.03L398.447 197.962C399.175 198.894 400.048 199.372 401.374 199.372ZM406.375 199.252H407.69V194.713H409.064V193.518H407.69V191.128H406.375V193.518H405.002V194.713H406.375V199.252ZM412.256 199.372C412.985 199.372 413.606 199.097 414.013 198.631V199.252H415.327V193.518H414.013V194.151C413.606 193.685 412.985 193.398 412.256 193.398C410.703 193.398 409.497 194.713 409.497 196.397C409.497 198.07 410.703 199.372 412.256 199.372ZM412.472 198.129C411.516 198.129 410.847 197.413 410.847 196.385C410.847 195.358 411.516 194.641 412.472 194.641C413.439 194.641 414.096 195.358 414.096 196.385C414.096 197.413 413.439 198.129 412.472 198.129ZM416.785 199.252H418.099V196.445L420.429 199.252H422.102L419.569 196.266L421.982 193.518H420.417L418.099 196.218V190.651H416.785V199.252ZM423.346 192.467C423.8 192.467 424.123 192.12 424.123 191.678C424.123 191.236 423.8 190.89 423.346 190.89C422.892 190.89 422.57 191.236 422.57 191.678C422.57 192.12 422.892 192.467 423.346 192.467ZM422.689 199.252H424.003V193.518H422.689V199.252ZM425.477 199.252H426.791V195.943C426.791 195.178 427.341 194.629 428.106 194.629C428.87 194.629 429.408 195.178 429.408 195.943V199.252H430.722V195.656C430.722 194.533 429.79 193.398 428.5 193.398C427.795 193.398 427.186 193.685 426.791 194.175V193.518H425.477V199.252ZM434.387 199.133C435.128 199.133 435.749 198.858 436.155 198.392V199.014C436.155 199.945 435.51 200.507 434.471 200.507C433.646 200.507 433.073 200.22 432.619 199.647L431.759 200.507C432.32 201.307 433.24 201.761 434.447 201.761C436.239 201.761 437.469 200.662 437.469 199.014V193.518H436.155V194.127C435.749 193.673 435.128 193.398 434.387 193.398C432.846 193.398 431.687 194.629 431.687 196.254C431.687 197.89 432.846 199.133 434.387 199.133ZM434.65 197.89C433.694 197.89 433.037 197.233 433.037 196.266C433.037 195.298 433.694 194.641 434.65 194.641C435.606 194.641 436.239 195.286 436.239 196.266C436.239 197.245 435.606 197.89 434.65 197.89Z" fill="#5DC5C5"/>
<path d="M230.003 59.6423C232.959 59.6423 234.818 58.1156 234.818 55.6495C234.818 50.5605 228.32 52.1068 228.32 49.21C228.32 48.2118 229.122 47.6442 230.493 47.6442C231.589 47.6442 232.391 48.0748 233.174 48.9556L234.701 47.4289C233.8 46.3328 232.352 45.5499 230.551 45.5499C228.026 45.5499 226.069 46.9591 226.069 49.3666C226.069 54.2598 232.567 52.5765 232.567 55.7865C232.567 56.8826 231.589 57.548 230.081 57.548C228.457 57.548 227.498 56.9021 226.735 55.8061L225.208 57.3327C226.402 58.8594 227.831 59.6423 230.003 59.6423ZM238.198 59.4466H240.351V52.0089H242.602V50.0516H240.351V46.1371H238.198V50.0516H235.947V52.0089H238.198V59.4466ZM247.833 59.6423C249.026 59.6423 250.044 59.1921 250.71 58.4288V59.4466H252.863V50.0516H250.71V51.089C250.044 50.3257 249.026 49.8559 247.833 49.8559C245.288 49.8559 243.311 52.0089 243.311 54.7687C243.311 57.5089 245.288 59.6423 247.833 59.6423ZM248.185 57.6067C246.619 57.6067 245.523 56.4324 245.523 54.7491C245.523 53.0659 246.619 51.8915 248.185 51.8915C249.77 51.8915 250.847 53.0659 250.847 54.7491C250.847 56.4324 249.77 57.6067 248.185 57.6067ZM255.252 59.4466H257.405V54.847L261.222 59.4466H263.962L259.813 54.5534L263.766 50.0516H261.202L257.405 54.4751V45.3542H255.252V59.4466ZM266.001 48.3292C266.745 48.3292 267.273 47.7616 267.273 47.0374C267.273 46.3132 266.745 45.7456 266.001 45.7456C265.257 45.7456 264.729 46.3132 264.729 47.0374C264.729 47.7616 265.257 48.3292 266.001 48.3292ZM264.924 59.4466H267.077V50.0516H264.924V59.4466ZM269.492 59.4466H271.645V54.0249C271.645 52.7723 272.545 51.8719 273.798 51.8719C275.051 51.8719 275.932 52.7723 275.932 54.0249V59.4466H278.085V53.5552C278.085 51.7153 276.558 49.8559 274.444 49.8559C273.289 49.8559 272.291 50.3257 271.645 51.1281V50.0516H269.492V59.4466ZM284.089 59.2509C285.303 59.2509 286.32 58.8007 286.986 58.0374V59.0551C286.986 60.5818 285.929 61.5017 284.226 61.5017C282.876 61.5017 281.936 61.032 281.192 60.0925L279.783 61.5017C280.703 62.8131 282.21 63.5569 284.187 63.5569C287.123 63.5569 289.139 61.7562 289.139 59.0551V50.0516H286.986V51.0499C286.32 50.3061 285.303 49.8559 284.089 49.8559C281.564 49.8559 279.666 51.8719 279.666 54.5338C279.666 57.2153 281.564 59.2509 284.089 59.2509ZM284.52 57.2153C282.954 57.2153 281.877 56.1388 281.877 54.5534C281.877 52.968 282.954 51.8915 284.52 51.8915C286.086 51.8915 287.123 52.9484 287.123 54.5534C287.123 56.1584 286.086 57.2153 284.52 57.2153Z" fill="#27326F"/>
<path d="M119.495 85.1165H123.248L124.909 80.9643H134.167L135.797 85.1165H139.611L130.814 63.5864H128.354L119.495 85.1165ZM126.139 77.8886L129.553 69.3073L132.936 77.8886H126.139ZM142.451 85.1165H145.988V71.3373L151.832 80.9335H154.292L160.136 71.3373V85.1165H163.673V63.5864H161.213L153.062 76.9966L144.911 63.5864H142.451V85.1165ZM168.342 85.1165H171.879V71.3373L177.723 80.9335H180.184L186.028 71.3373V85.1165H189.565V63.5864H187.104L178.953 76.9966L170.803 63.5864H168.342V85.1165Z" fill="#5DC5C5"/>
</svg>
