<?xml version="1.0" encoding="UTF-8"?>
<!DOCTYPE svg PUBLIC "-//W3C//DTD SVG 1.1//EN" "http://www.w3.org/Graphics/SVG/1.1/DTD/svg11.dtd">
<!-- Creator: CorelDRAW X5 -->
<svg xmlns="http://www.w3.org/2000/svg" xml:space="preserve" width="135.467mm" height="27.432mm" style="shape-rendering:geometricPrecision; text-rendering:geometricPrecision; image-rendering:optimizeQuality; fill-rule:evenodd; clip-rule:evenodd"
viewBox="0 0 13547 2743"
 xmlns:xlink="http://www.w3.org/1999/xlink"
 xmlns:svg="http://www.w3.org/2000/svg">
 <defs>
  <style type="text/css">
   <![CDATA[
    .fil1 {fill:#E84142}
    .fil0 {fill:black;fill-rule:nonzero}
   ]]>
  </style>
 </defs>
 <g id="Layer_x0020_1">
  <metadata id="CorelCorpID_0Corel-Layer"/>
 </g>
 <g id="Layer_x0020_1_0">
  <metadata id="CorelCorpID_1Corel-Layer"/>
  <g id="Avalanche_x0020_Logo.cdr">
   <path class="fil0" d="M3664 893l147 0 412 957 -195 0 -89 -219 -415 0 -86 219 -191 0 416 -957zm216 592l0 0 -147 -389 -150 389 297 0z"/>
   <polygon class="fil0" points="4406,893 4602,893 4863,1616 5132,893 5316,893 4929,1850 4782,1850 "/>
   <path class="fil0" d="M5924 893l147 0 412 957 -195 0 -89 -219 -415 0 -86 219 -190 0 416 -957zm216 592l0 0 -147 -389 -150 389 297 0z"/>
   <polygon class="fil0" points="6860,893 7030,893 7030,1696 7437,1696 7437,1850 6860,1850 "/>
   <path class="fil0" d="M8140 893l147 0 412 957 -195 0 -89 -219 -415 0 -86 219 -190 0 416 -957zm216 592l0 0 -147 -389 -150 389 297 0z"/>
   <polygon class="fil0" points="9076,893 9302,893 9765,1604 9768,1604 9768,893 9938,893 9938,1850 9722,1850 9249,1116 9246,1116 9246,1850 9076,1850 "/>
   <path class="fil0" d="M11078 1117c-35,-38 -69,-63 -103,-76 -32,-13 -65,-19 -99,-19 -50,0 -95,9 -135,27 -40,17 -74,41 -103,73 -29,31 -51,67 -68,108 -15,41 -23,86 -23,134 0,51 8,99 23,142 16,43 39,81 68,112 29,32 63,56 103,74 41,18 86,27 135,27 39,0 76,-9 112,-27 37,-19 71,-49 103,-89l140 100c-43,59 -96,103 -158,130 -62,27 -128,41 -199,41 -74,0 -142,-12 -204,-35 -61,-24 -114,-58 -159,-101 -44,-44 -79,-97 -104,-158 -25,-61 -38,-129 -38,-204 0,-77 13,-146 38,-208 25,-63 60,-117 104,-161 45,-44 98,-78 159,-101 62,-24 130,-36 204,-36 65,0 125,12 180,35 56,23 108,61 155,116l-132 97z"/>
   <polygon class="fil0" points="11617,893 11787,893 11787,1274 12234,1274 12234,893 12405,893 12405,1850 12234,1850 12234,1428 11787,1428 11787,1850 11617,1850 "/>
   <polygon class="fil0" points="12889,893 13522,893 13522,1047 13059,1047 13059,1282 13498,1282 13498,1436 13059,1436 13059,1696 13547,1696 13547,1850 12889,1850 "/>
   <path class="fil1" d="M2744 1372c0,758 -614,1372 -1372,1372 -758,0 -1372,-614 -1372,-1372 0,-758 614,-1372 1372,-1372 758,0 1372,614 1372,1372zm-1761 546l0 0 -266 0c-56,0 -84,0 -100,-11 -18,-12 -29,-31 -31,-53 -1,-20 13,-44 40,-93l658 -1159c28,-49 42,-74 60,-83 19,-10 42,-10 61,0 18,9 32,34 60,83l135 236 1 1c30,53 46,80 52,108 7,31 7,63 0,94 -7,28 -22,55 -53,109l-345 611 -1 2c-30,53 -46,80 -67,101 -23,22 -51,38 -82,48 -28,8 -59,8 -122,8zm672 0l0 0 382 0c56,0 85,0 101,-11 18,-12 30,-32 31,-53 1,-19 -13,-43 -39,-88 -1,-2 -2,-3 -3,-5l-191 -327 -2 -4c-27,-45 -40,-68 -58,-77 -19,-10 -42,-10 -61,0 -18,9 -32,33 -60,81l-190 327 -1 1c-28,48 -42,72 -41,92 1,22 12,41 31,53 17,11 45,11 101,11z"/>
  </g>
 </g>
</svg>
