<svg xmlns="http://www.w3.org/2000/svg" xml:space="preserve" width="512.001" height="103.68" style="shape-rendering:geometricPrecision;text-rendering:geometricPrecision;image-rendering:optimizeQuality;fill-rule:evenodd;clip-rule:evenodd" viewBox="0 0 13547 2743"><defs><style>.fil0{fill:#000;fill-rule:nonzero}</style></defs><g id="Layer_x0020_1_0"><g id="Avalanche_x0020_Logo.cdr"><path class="fil0" d="M3664 893h147l412 957h-195l-89-219h-415l-86 219h-191l416-957zm216 592-147-389-150 389h297zM4406 893h196l261 723 269-723h184l-387 957h-147zM5924 893h147l412 957h-195l-89-219h-415l-86 219h-190l416-957zm216 592-147-389-150 389h297zM6860 893h170v803h407v154h-577zM8140 893h147l412 957h-195l-89-219h-415l-86 219h-190l416-957zm216 592-147-389-150 389h297zM9076 893h226l463 711h3V893h170v957h-216l-473-734h-3v734h-170zM11078 1117c-35-38-69-63-103-76-32-13-65-19-99-19-50 0-95 9-135 27-40 17-74 41-103 73-29 31-51 67-68 108-15 41-23 86-23 134 0 51 8 99 23 142 16 43 39 81 68 112 29 32 63 56 103 74 41 18 86 27 135 27 39 0 76-9 112-27 37-19 71-49 103-89l140 100c-43 59-96 103-158 130s-128 41-199 41c-74 0-142-12-204-35-61-24-114-58-159-101-44-44-79-97-104-158s-38-129-38-204c0-77 13-146 38-208 25-63 60-117 104-161 45-44 98-78 159-101 62-24 130-36 204-36 65 0 125 12 180 35 56 23 108 61 155 116l-132 97zM11617 893h170v381h447V893h171v957h-171v-422h-447v422h-170zM12889 893h633v154h-463v235h439v154h-439v260h488v154h-658z"/><path d="M2744 1372c0 758-614 1372-1372 1372S0 2130 0 1372 614 0 1372 0s1372 614 1372 1372zM983 1918H717c-56 0-84 0-100-11-18-12-29-31-31-53-1-20 13-44 40-93l658-1159c28-49 42-74 60-83 19-10 42-10 61 0 18 9 32 34 60 83l135 236 1 1c30 53 46 80 52 108 7 31 7 63 0 94-7 28-22 55-53 109l-345 611-1 2c-30 53-46 80-67 101-23 22-51 38-82 48-28 8-59 8-122 8zm672 0h382c56 0 85 0 101-11 18-12 30-32 31-53 1-19-13-43-39-88-1-2-2-3-3-5l-191-327-2-4c-27-45-40-68-58-77-19-10-42-10-61 0-18 9-32 33-60 81l-190 327-1 1c-28 48-42 72-41 92 1 22 12 41 31 53 17 11 45 11 101 11z" style="fill:#e84142"/></g></g></svg>