<svg width="1024" height="225" fill="none" xmlns="http://www.w3.org/2000/svg"><g clip-path="url(#a)"><path d="M400.613 71.67c6.282 3.798 11.598 9.02 14.98 16.14 3.866 7.12 5.799 15.665 5.799 25.158 0 9.494-1.933 17.564-6.282 24.684-3.866 7.12-9.665 12.342-16.914 15.664-7.248 3.798-15.947 5.697-25.128 5.697-5.316 0-10.149-.95-14.981-2.848-4.833-1.424-9.182-4.273-12.565-7.595v49.367h-28.028V67.873h24.162l2.417 10.444c10.631-8.545 22.229-12.817 34.31-12.817 8.215 0 15.947 1.899 22.23 6.17Zm-15.464 58.862c4.832-4.272 7.248-9.969 7.248-17.089 0-7.12-2.416-12.816-6.765-17.563-4.349-4.747-10.148-6.646-16.43-6.646-5.316 0-10.149.95-14.015 3.323-3.866 1.899-6.765 5.221-9.181 9.494v21.36c1.449 4.273 4.349 7.595 7.732 9.969 3.866 2.373 8.215 3.797 13.531 3.797 7.248 0 13.047-2.373 17.88-6.645ZM437.821 88.275c4.35-6.646 10.148-12.342 17.88-16.14 7.732-3.797 16.431-6.17 26.096-6.17s18.363 1.899 26.095 6.17c7.249 3.798 13.048 9.494 17.397 16.615 4.349 7.12 6.282 14.715 6.282 23.734 0 9.019-1.933 16.614-6.282 23.734-4.349 7.12-9.665 12.816-17.397 16.614-7.249 3.797-16.43 6.171-26.095 6.171s-18.364-1.899-26.096-5.696c-7.732-3.798-13.53-9.019-17.88-16.14-3.866-7.12-6.282-15.19-6.282-24.683 0-9.019 2.416-17.089 6.282-24.209Zm28.512 41.297c3.866 4.747 9.182 6.646 15.464 6.646s11.598-2.373 15.464-6.646c3.866-4.272 5.799-10.443 5.799-17.088 0-7.12-1.933-12.817-5.799-17.089-4.35-4.747-9.182-7.12-15.947-7.12-6.283 0-11.115 2.373-15.464 6.645-3.866 4.747-5.799 10.444-5.799 17.564 0 6.645 1.933 12.342 6.282 17.088ZM577.001.464v156.171h-28.028V.464h28.028ZM692.01 70.24l-57.023 128.165h-27.061l21.262-46.044-40.592-82.12h31.894l23.196 51.265 23.196-51.266h25.128ZM799.287 70.237v86.392c0 8.07-2.416 15.665-7.249 22.311-4.832 6.645-11.115 11.867-19.33 15.664-8.215 3.798-16.913 5.696-26.578 5.696-7.249 0-13.531-.949-18.847-2.373-5.316-1.899-9.665-3.798-13.048-5.696-3.865-2.374-7.731-5.222-12.081-9.019l16.431-18.988c3.866 3.798 8.215 6.646 12.081 8.545 3.866 1.898 9.182 3.322 14.981 3.322 7.248 0 13.047-1.898 17.88-5.221 4.832-3.323 7.248-8.544 7.248-14.715v-12.342c-2.899 4.272-6.765 8.07-12.564 10.918-5.799 2.848-12.564 4.272-20.296 4.272-7.732 0-15.464-1.899-22.23-6.171-6.765-3.798-12.081-9.494-16.43-16.614-3.866-7.12-6.282-14.715-6.282-23.259 0-8.545 1.933-16.614 6.282-23.735 4.349-7.12 9.665-12.816 16.913-17.088 6.766-4.272 14.015-6.171 21.747-6.171 7.248 0 13.53.95 19.329 2.848 5.799 1.899 10.149 4.747 13.048 8.07l2.9-6.646h26.095Zm-28.512 53.165v-21.361c-1.933-4.272-4.832-7.595-9.181-9.969-4.35-2.373-9.182-3.797-14.981-3.797-6.765 0-12.564 2.373-17.397 6.645-4.832 4.273-7.249 9.969-7.249 17.089 0 6.646 2.417 12.817 7.249 17.563 4.833 4.747 10.632 7.121 17.397 7.121 11.115-.475 19.33-4.747 24.162-13.291ZM822.491 88.285c4.349-7.12 10.148-12.342 17.88-16.614 7.732-3.798 16.431-6.171 26.096-6.171s18.363 1.899 26.095 6.17c7.249 3.798 13.048 9.495 17.397 16.615 3.866 7.12 6.282 14.715 6.282 23.734 0 9.019-1.933 16.614-6.282 23.734-3.866 7.12-9.665 12.817-17.397 16.614-7.249 3.798-16.43 6.171-26.095 6.171s-18.364-1.899-26.096-5.696c-7.732-3.798-13.531-9.019-17.88-16.139-4.349-7.121-6.282-15.19-6.282-25.159 0-8.069 1.933-16.139 6.282-23.26Zm28.029 41.297c3.866 4.747 9.181 6.646 15.463 6.646 6.283 0 11.598-2.374 15.464-6.646 3.866-4.272 5.799-10.443 5.799-17.088 0-7.121-1.933-12.817-5.799-17.089-3.866-4.272-9.181-6.645-15.464-6.645-6.282 0-11.114 2.373-15.463 6.645-4.35 4.272-6.283 10.443-6.283 17.089.484 6.645 2.417 12.341 6.283 17.088ZM1015.31 73.085c5.8 4.747 8.21 10.918 8.69 18.513v65.031h-28.507v-54.588c-.483-8.544-4.832-12.817-13.048-12.817-6.282 0-11.597 2.848-15.463 9.02-3.866 6.17-5.799 13.765-5.799 22.784v35.601h-28.029V70.237h25.612l1.933 13.766c3.383-5.696 7.732-9.969 13.531-13.291 5.799-3.323 12.565-4.747 20.297-4.747 8.213 0 15.463 2.373 20.783 7.12Z" fill="#212121"/><path d="M197.648 68.824c-4.833-2.848-11.115-2.848-16.43 0l-37.694 21.835-25.612 14.241-37.693 21.835c-4.832 2.848-11.115 2.848-16.43 0l-29.962-17.089c-4.832-2.848-8.215-8.069-8.215-13.765V62.178c0-5.696 2.9-10.918 8.215-13.766l29.478-16.614c4.833-2.848 11.115-2.848 16.43 0l29.479 16.614c4.832 2.848 8.215 8.07 8.215 13.766v21.836l25.612-14.716V47.463c0-5.696-2.899-10.918-8.215-13.766L80.219 2.368c-4.832-2.848-11.115-2.848-16.43 0L8.215 33.698C2.9 36.544 0 41.766 0 47.462v63.133c0 5.696 2.9 10.918 8.215 13.766l55.574 31.329c4.832 2.848 11.114 2.848 16.43 0l37.693-21.361 25.612-14.715 37.694-21.36c4.832-2.849 11.114-2.849 16.43 0l29.478 16.613c4.832 2.848 8.215 8.07 8.215 13.766v33.702c0 5.697-2.899 10.918-8.215 13.766l-29.478 17.089c-4.833 2.848-11.115 2.848-16.43 0l-29.478-16.614c-4.833-2.848-8.216-8.07-8.216-13.766v-21.835l-25.612 14.715v21.835c0 5.696 2.9 10.918 8.215 13.766l55.574 31.329c4.832 2.848 11.114 2.848 16.43 0l55.574-31.329c4.832-2.848 8.215-8.07 8.215-13.766v-63.133c0-5.696-2.9-10.917-8.215-13.765l-56.057-31.804Z" fill="#8247E5"/></g><defs><clipPath id="a"><path fill="#fff" d="M0 0h1024v225H0z"/></clipPath></defs></svg>