<svg width="159" height="24" fill="none" xmlns="http://www.w3.org/2000/svg"><g clip-path="url(#a)"><path d="M27.246 18.722 22.93 23.35a1 1 0 0 1-.731.319H1.739a.501.501 0 0 1-.367-.843l4.31-4.628a.999.999 0 0 1 .731-.319h20.46a.499.499 0 0 1 .373.843ZM22.93 9.401a1.008 1.008 0 0 0-.731-.32H1.739a.502.502 0 0 0-.367.844l4.31 4.63a1.007 1.007 0 0 0 .731.319h20.46a.502.502 0 0 0 .365-.843l-4.308-4.63ZM1.74 6.076h20.459a.998.998 0 0 0 .73-.319l4.317-4.628a.5.5 0 0 0-.373-.842H6.413a.999.999 0 0 0-.73.319L1.372 5.234a.502.502 0 0 0 .367.842Z" fill="url(#b)"/><path d="M52.19 10.176H41.242V6.57h13.79V2.966H41.208a3.597 3.597 0 0 0-3.617 3.578v3.654a3.598 3.598 0 0 0 3.617 3.583h10.96v3.604H37.85v3.605h14.34a3.597 3.597 0 0 0 3.616-3.578V13.76a3.594 3.594 0 0 0-2.238-3.316 3.596 3.596 0 0 0-1.379-.267ZM73.394 2.966H62.407a3.599 3.599 0 0 0-3.627 3.578v10.868a3.592 3.592 0 0 0 1.07 2.542 3.596 3.596 0 0 0 2.557 1.036h10.987a3.596 3.596 0 0 0 3.617-3.578V6.544a3.596 3.596 0 0 0-3.617-3.578Zm-.027 14.42H62.433V6.57h10.93l.004 10.815ZM111.877 2.966H101.16a3.598 3.598 0 0 0-3.617 3.578V20.99h3.654v-5.921h10.668v5.921h3.654V6.544a3.6 3.6 0 0 0-3.642-3.578Zm-.026 8.498h-10.669V6.571h10.669v4.893ZM154.538 2.966h-10.717a3.597 3.597 0 0 0-3.617 3.578V20.99h3.654v-5.92h10.643v5.92h3.654V6.544a3.609 3.609 0 0 0-.281-1.375 3.611 3.611 0 0 0-1.958-1.936 3.597 3.597 0 0 0-1.378-.267Zm-.037 8.498h-10.668V6.571h10.668v4.893ZM133.311 17.385h-1.461l-5.225-12.909a2.41 2.41 0 0 0-2.231-1.51h-3.242a2.4 2.4 0 0 0-2.411 2.387V20.99h3.653V6.571h1.462l5.222 12.91a2.411 2.411 0 0 0 2.241 1.5h3.242a2.4 2.4 0 0 0 2.411-2.388V2.966h-3.661v14.42ZM83.892 2.966h-3.654v14.446a3.594 3.594 0 0 0 2.247 3.315 3.6 3.6 0 0 0 1.382.263h10.96v-3.605H83.893V2.966Z" fill="#9A46FF"/></g><defs><linearGradient id="b" x1="3.444" y1="24.227" x2="24.898" y2=".041" gradientUnits="userSpaceOnUse"><stop offset=".08" stop-color="#9945FF"/><stop offset=".3" stop-color="#8752F3"/><stop offset=".5" stop-color="#5497D5"/><stop offset=".6" stop-color="#43B4CA"/><stop offset=".72" stop-color="#28E0B9"/><stop offset=".97" stop-color="#19FB9B"/></linearGradient><clipPath id="a"><path fill="#fff" transform="translate(.811 .287)" d="M0 0h157.343v23.382H0z"/></clipPath></defs></svg>