<svg width="255" height="97" viewBox="0 0 255 97" fill="none" xmlns="http://www.w3.org/2000/svg">
<circle cx="2.20455" cy="2.20455" r="2.20455" fill="#E7F0FC" fill-opacity="0.1"/>
<circle cx="2.20455" cy="15.4316" r="2.20455" fill="#E7F0FC" fill-opacity="0.1"/>
<circle cx="2.20455" cy="28.6591" r="2.20455" fill="#E7F0FC" fill-opacity="0.1"/>
<circle cx="2.20455" cy="41.8862" r="2.20455" fill="#E7F0FC" fill-opacity="0.1"/>
<circle cx="2.20455" cy="55.1137" r="2.20455" fill="#E7F0FC" fill-opacity="0.1"/>
<circle cx="2.20455" cy="68.3408" r="2.20455" fill="#E7F0FC" fill-opacity="0.1"/>
<circle cx="2.20455" cy="81.5683" r="2.20455" fill="#E7F0FC" fill-opacity="0.1"/>
<circle cx="2.20455" cy="94.7954" r="2.20455" fill="#E7F0FC" fill-opacity="0.1"/>
<circle cx="15.4318" cy="2.20455" r="2.20455" fill="#E7F0FC" fill-opacity="0.1"/>
<circle cx="15.4318" cy="15.4316" r="2.20455" fill="#E7F0FC" fill-opacity="0.1"/>
<circle cx="15.4318" cy="28.6591" r="2.20455" fill="#E7F0FC" fill-opacity="0.1"/>
<circle cx="15.4318" cy="41.8862" r="2.20455" fill="#E7F0FC" fill-opacity="0.1"/>
<circle cx="15.4318" cy="55.1137" r="2.20455" fill="#E7F0FC" fill-opacity="0.1"/>
<circle cx="15.4318" cy="68.3408" r="2.20455" fill="#E7F0FC" fill-opacity="0.1"/>
<circle cx="15.4318" cy="81.5683" r="2.20455" fill="#E7F0FC" fill-opacity="0.1"/>
<circle cx="15.4318" cy="94.7954" r="2.20455" fill="#E7F0FC" fill-opacity="0.1"/>
<circle cx="28.6591" cy="2.20455" r="2.20455" fill="#E7F0FC" fill-opacity="0.1"/>
<circle cx="28.6591" cy="15.4316" r="2.20455" fill="#E7F0FC" fill-opacity="0.1"/>
<circle cx="28.6591" cy="28.6591" r="2.20455" fill="#E7F0FC" fill-opacity="0.1"/>
<circle cx="28.6591" cy="41.8862" r="2.20455" fill="#E7F0FC" fill-opacity="0.1"/>
<circle cx="28.6591" cy="55.1137" r="2.20455" fill="#E7F0FC" fill-opacity="0.1"/>
<circle cx="28.6591" cy="68.3408" r="2.20455" fill="#E7F0FC" fill-opacity="0.1"/>
<circle cx="28.6591" cy="81.5683" r="2.20455" fill="#E7F0FC" fill-opacity="0.1"/>
<circle cx="28.6591" cy="94.7954" r="2.20455" fill="#E7F0FC" fill-opacity="0.1"/>
<circle cx="41.8863" cy="2.20455" r="2.20455" fill="#E7F0FC" fill-opacity="0.1"/>
<circle cx="41.8863" cy="15.4316" r="2.20455" fill="#E7F0FC" fill-opacity="0.1"/>
<circle cx="41.8863" cy="28.6591" r="2.20455" fill="#E7F0FC" fill-opacity="0.1"/>
<circle cx="41.8863" cy="41.8862" r="2.20455" fill="#E7F0FC" fill-opacity="0.1"/>
<circle cx="41.8863" cy="55.1137" r="2.20455" fill="#E7F0FC" fill-opacity="0.1"/>
<circle cx="41.8863" cy="68.3408" r="2.20455" fill="#E7F0FC" fill-opacity="0.1"/>
<circle cx="41.8863" cy="81.5683" r="2.20455" fill="#E7F0FC" fill-opacity="0.1"/>
<circle cx="41.8863" cy="94.7954" r="2.20455" fill="#E7F0FC" fill-opacity="0.1"/>
<circle cx="55.1136" cy="2.20455" r="2.20455" fill="#E7F0FC" fill-opacity="0.1"/>
<circle cx="55.1136" cy="15.4316" r="2.20455" fill="#E7F0FC" fill-opacity="0.1"/>
<circle cx="55.1136" cy="28.6591" r="2.20455" fill="#E7F0FC" fill-opacity="0.1"/>
<circle cx="55.1136" cy="41.8862" r="2.20455" fill="#E7F0FC" fill-opacity="0.1"/>
<circle cx="55.1136" cy="55.1137" r="2.20455" fill="#E7F0FC" fill-opacity="0.1"/>
<circle cx="55.1136" cy="68.3408" r="2.20455" fill="#E7F0FC" fill-opacity="0.1"/>
<circle cx="55.1136" cy="81.5683" r="2.20455" fill="#E7F0FC" fill-opacity="0.1"/>
<circle cx="55.1136" cy="94.7954" r="2.20455" fill="#E7F0FC" fill-opacity="0.1"/>
<circle cx="68.3409" cy="2.20455" r="2.20455" fill="#E7F0FC" fill-opacity="0.1"/>
<circle cx="68.3409" cy="15.4316" r="2.20455" fill="#E7F0FC" fill-opacity="0.1"/>
<circle cx="68.3409" cy="28.6591" r="2.20455" fill="#E7F0FC" fill-opacity="0.1"/>
<circle cx="68.3409" cy="41.8862" r="2.20455" fill="#E7F0FC" fill-opacity="0.1"/>
<circle cx="68.3409" cy="55.1137" r="2.20455" fill="#E7F0FC" fill-opacity="0.1"/>
<circle cx="68.3409" cy="68.3408" r="2.20455" fill="#E7F0FC" fill-opacity="0.1"/>
<circle cx="68.3409" cy="81.5683" r="2.20455" fill="#E7F0FC" fill-opacity="0.1"/>
<circle cx="68.3409" cy="94.7954" r="2.20455" fill="#E7F0FC" fill-opacity="0.1"/>
<circle cx="81.5682" cy="2.20455" r="2.20455" fill="#E7F0FC" fill-opacity="0.1"/>
<circle cx="81.5682" cy="15.4316" r="2.20455" fill="#E7F0FC" fill-opacity="0.1"/>
<circle cx="81.5682" cy="28.6591" r="2.20455" fill="#E7F0FC" fill-opacity="0.1"/>
<circle cx="81.5682" cy="41.8862" r="2.20455" fill="#E7F0FC" fill-opacity="0.1"/>
<circle cx="81.5682" cy="55.1137" r="2.20455" fill="#E7F0FC" fill-opacity="0.1"/>
<circle cx="81.5682" cy="68.3408" r="2.20455" fill="#E7F0FC" fill-opacity="0.1"/>
<circle cx="81.5682" cy="81.5683" r="2.20455" fill="#E7F0FC" fill-opacity="0.1"/>
<circle cx="81.5682" cy="94.7954" r="2.20455" fill="#E7F0FC" fill-opacity="0.1"/>
<circle cx="94.7955" cy="2.20455" r="2.20455" fill="#E7F0FC" fill-opacity="0.1"/>
<circle cx="94.7955" cy="15.4316" r="2.20455" fill="#E7F0FC" fill-opacity="0.1"/>
<circle cx="94.7955" cy="28.6591" r="2.20455" fill="#E7F0FC" fill-opacity="0.1"/>
<circle cx="94.7955" cy="41.8862" r="2.20455" fill="#E7F0FC" fill-opacity="0.1"/>
<circle cx="94.7955" cy="55.1137" r="2.20455" fill="#E7F0FC" fill-opacity="0.1"/>
<circle cx="94.7955" cy="68.3408" r="2.20455" fill="#E7F0FC" fill-opacity="0.1"/>
<circle cx="94.7955" cy="81.5683" r="2.20455" fill="#E7F0FC" fill-opacity="0.1"/>
<circle cx="94.7955" cy="94.7954" r="2.20455" fill="#E7F0FC" fill-opacity="0.1"/>
<circle cx="108.023" cy="2.20455" r="2.20455" fill="#E7F0FC" fill-opacity="0.1"/>
<circle cx="108.023" cy="15.4316" r="2.20455" fill="#E7F0FC" fill-opacity="0.1"/>
<circle cx="108.023" cy="28.6591" r="2.20455" fill="#E7F0FC" fill-opacity="0.1"/>
<circle cx="108.023" cy="41.8862" r="2.20455" fill="#E7F0FC" fill-opacity="0.1"/>
<circle cx="108.023" cy="55.1137" r="2.20455" fill="#E7F0FC" fill-opacity="0.1"/>
<circle cx="108.023" cy="68.3408" r="2.20455" fill="#E7F0FC" fill-opacity="0.1"/>
<circle cx="108.023" cy="81.5683" r="2.20455" fill="#E7F0FC" fill-opacity="0.1"/>
<circle cx="108.023" cy="94.7954" r="2.20455" fill="#E7F0FC" fill-opacity="0.1"/>
<circle cx="121.25" cy="2.20455" r="2.20455" fill="#E7F0FC" fill-opacity="0.1"/>
<circle cx="121.25" cy="15.4316" r="2.20455" fill="#E7F0FC" fill-opacity="0.1"/>
<circle cx="121.25" cy="28.6591" r="2.20455" fill="#E7F0FC" fill-opacity="0.1"/>
<circle cx="121.25" cy="41.8862" r="2.20455" fill="#E7F0FC" fill-opacity="0.1"/>
<circle cx="121.25" cy="55.1137" r="2.20455" fill="#E7F0FC" fill-opacity="0.1"/>
<circle cx="121.25" cy="68.3408" r="2.20455" fill="#E7F0FC" fill-opacity="0.1"/>
<circle cx="121.25" cy="81.5683" r="2.20455" fill="#E7F0FC" fill-opacity="0.1"/>
<circle cx="121.25" cy="94.7954" r="2.20455" fill="#E7F0FC" fill-opacity="0.1"/>
<circle cx="133.205" cy="2.20455" r="2.20455" fill="#E7F0FC" fill-opacity="0.1"/>
<circle cx="133.205" cy="15.4316" r="2.20455" fill="#E7F0FC" fill-opacity="0.1"/>
<circle cx="133.205" cy="28.6591" r="2.20455" fill="#E7F0FC" fill-opacity="0.1"/>
<circle cx="133.205" cy="41.8862" r="2.20455" fill="#E7F0FC" fill-opacity="0.1"/>
<circle cx="133.205" cy="55.1137" r="2.20455" fill="#E7F0FC" fill-opacity="0.1"/>
<circle cx="133.205" cy="68.3408" r="2.20455" fill="#E7F0FC" fill-opacity="0.1"/>
<circle cx="133.205" cy="81.5683" r="2.20455" fill="#E7F0FC" fill-opacity="0.1"/>
<circle cx="133.205" cy="94.7954" r="2.20455" fill="#E7F0FC" fill-opacity="0.1"/>
<circle cx="146.432" cy="2.20455" r="2.20455" fill="#E7F0FC" fill-opacity="0.1"/>
<circle cx="146.432" cy="15.4316" r="2.20455" fill="#E7F0FC" fill-opacity="0.1"/>
<circle cx="146.432" cy="28.6591" r="2.20455" fill="#E7F0FC" fill-opacity="0.1"/>
<circle cx="146.432" cy="41.8862" r="2.20455" fill="#E7F0FC" fill-opacity="0.1"/>
<circle cx="146.432" cy="55.1137" r="2.20455" fill="#E7F0FC" fill-opacity="0.1"/>
<circle cx="146.432" cy="68.3408" r="2.20455" fill="#E7F0FC" fill-opacity="0.1"/>
<circle cx="146.432" cy="81.5683" r="2.20455" fill="#E7F0FC" fill-opacity="0.1"/>
<circle cx="146.432" cy="94.7954" r="2.20455" fill="#E7F0FC" fill-opacity="0.1"/>
<circle cx="159.659" cy="2.20455" r="2.20455" fill="#E7F0FC" fill-opacity="0.1"/>
<circle cx="159.659" cy="15.4316" r="2.20455" fill="#E7F0FC" fill-opacity="0.1"/>
<circle cx="159.659" cy="28.6591" r="2.20455" fill="#E7F0FC" fill-opacity="0.1"/>
<circle cx="159.659" cy="41.8862" r="2.20455" fill="#E7F0FC" fill-opacity="0.1"/>
<circle cx="159.659" cy="55.1137" r="2.20455" fill="#E7F0FC" fill-opacity="0.1"/>
<circle cx="159.659" cy="68.3408" r="2.20455" fill="#E7F0FC" fill-opacity="0.1"/>
<circle cx="159.659" cy="81.5683" r="2.20455" fill="#E7F0FC" fill-opacity="0.1"/>
<circle cx="159.659" cy="94.7954" r="2.20455" fill="#E7F0FC" fill-opacity="0.1"/>
<circle cx="172.886" cy="2.20455" r="2.20455" fill="#E7F0FC" fill-opacity="0.1"/>
<circle cx="172.886" cy="15.4316" r="2.20455" fill="#E7F0FC" fill-opacity="0.1"/>
<circle cx="172.886" cy="28.6591" r="2.20455" fill="#E7F0FC" fill-opacity="0.1"/>
<circle cx="172.886" cy="41.8862" r="2.20455" fill="#E7F0FC" fill-opacity="0.1"/>
<circle cx="172.886" cy="55.1137" r="2.20455" fill="#E7F0FC" fill-opacity="0.1"/>
<circle cx="172.886" cy="68.3408" r="2.20455" fill="#E7F0FC" fill-opacity="0.1"/>
<circle cx="172.886" cy="81.5683" r="2.20455" fill="#E7F0FC" fill-opacity="0.1"/>
<circle cx="172.886" cy="94.7954" r="2.20455" fill="#E7F0FC" fill-opacity="0.1"/>
<circle cx="186.114" cy="2.20455" r="2.20455" fill="#E7F0FC" fill-opacity="0.1"/>
<circle cx="186.114" cy="15.4316" r="2.20455" fill="#E7F0FC" fill-opacity="0.1"/>
<circle cx="186.114" cy="28.6591" r="2.20455" fill="#E7F0FC" fill-opacity="0.1"/>
<circle cx="186.114" cy="41.8862" r="2.20455" fill="#E7F0FC" fill-opacity="0.1"/>
<circle cx="186.114" cy="55.1137" r="2.20455" fill="#E7F0FC" fill-opacity="0.1"/>
<circle cx="186.114" cy="68.3408" r="2.20455" fill="#E7F0FC" fill-opacity="0.1"/>
<circle cx="186.114" cy="81.5683" r="2.20455" fill="#E7F0FC" fill-opacity="0.1"/>
<circle cx="186.114" cy="94.7954" r="2.20455" fill="#E7F0FC" fill-opacity="0.1"/>
<circle cx="199.341" cy="2.20455" r="2.20455" fill="#E7F0FC" fill-opacity="0.1"/>
<circle cx="199.341" cy="15.4316" r="2.20455" fill="#E7F0FC" fill-opacity="0.1"/>
<circle cx="199.341" cy="28.6591" r="2.20455" fill="#E7F0FC" fill-opacity="0.1"/>
<circle cx="199.341" cy="41.8862" r="2.20455" fill="#E7F0FC" fill-opacity="0.1"/>
<circle cx="199.341" cy="55.1137" r="2.20455" fill="#E7F0FC" fill-opacity="0.1"/>
<circle cx="199.341" cy="68.3408" r="2.20455" fill="#E7F0FC" fill-opacity="0.1"/>
<circle cx="199.341" cy="81.5683" r="2.20455" fill="#E7F0FC" fill-opacity="0.1"/>
<circle cx="199.341" cy="94.7954" r="2.20455" fill="#E7F0FC" fill-opacity="0.1"/>
<circle cx="212.568" cy="2.20455" r="2.20455" fill="#E7F0FC" fill-opacity="0.1"/>
<circle cx="212.568" cy="15.4316" r="2.20455" fill="#E7F0FC" fill-opacity="0.1"/>
<circle cx="212.568" cy="28.6591" r="2.20455" fill="#E7F0FC" fill-opacity="0.1"/>
<circle cx="212.568" cy="41.8862" r="2.20455" fill="#E7F0FC" fill-opacity="0.1"/>
<circle cx="212.568" cy="55.1137" r="2.20455" fill="#E7F0FC" fill-opacity="0.1"/>
<circle cx="212.568" cy="68.3408" r="2.20455" fill="#E7F0FC" fill-opacity="0.1"/>
<circle cx="212.568" cy="81.5683" r="2.20455" fill="#E7F0FC" fill-opacity="0.1"/>
<circle cx="212.568" cy="94.7954" r="2.20455" fill="#E7F0FC" fill-opacity="0.1"/>
<circle cx="225.795" cy="2.20455" r="2.20455" fill="#E7F0FC" fill-opacity="0.1"/>
<circle cx="225.795" cy="15.4316" r="2.20455" fill="#E7F0FC" fill-opacity="0.1"/>
<circle cx="225.795" cy="28.6591" r="2.20455" fill="#E7F0FC" fill-opacity="0.1"/>
<circle cx="225.795" cy="41.8862" r="2.20455" fill="#E7F0FC" fill-opacity="0.1"/>
<circle cx="225.795" cy="55.1137" r="2.20455" fill="#E7F0FC" fill-opacity="0.1"/>
<circle cx="225.795" cy="68.3408" r="2.20455" fill="#E7F0FC" fill-opacity="0.1"/>
<circle cx="225.795" cy="81.5683" r="2.20455" fill="#E7F0FC" fill-opacity="0.1"/>
<circle cx="225.795" cy="94.7954" r="2.20455" fill="#E7F0FC" fill-opacity="0.1"/>
<circle cx="239.023" cy="2.20455" r="2.20455" fill="#E7F0FC" fill-opacity="0.1"/>
<circle cx="239.023" cy="15.4316" r="2.20455" fill="#E7F0FC" fill-opacity="0.1"/>
<circle cx="239.023" cy="28.6591" r="2.20455" fill="#E7F0FC" fill-opacity="0.1"/>
<circle cx="239.023" cy="41.8862" r="2.20455" fill="#E7F0FC" fill-opacity="0.1"/>
<circle cx="239.023" cy="55.1137" r="2.20455" fill="#E7F0FC" fill-opacity="0.1"/>
<circle cx="239.023" cy="68.3408" r="2.20455" fill="#E7F0FC" fill-opacity="0.1"/>
<circle cx="239.023" cy="81.5683" r="2.20455" fill="#E7F0FC" fill-opacity="0.1"/>
<circle cx="239.023" cy="94.7954" r="2.20455" fill="#E7F0FC" fill-opacity="0.1"/>
<circle cx="252.25" cy="2.20455" r="2.20455" fill="#E7F0FC" fill-opacity="0.1"/>
<circle cx="252.25" cy="15.4316" r="2.20455" fill="#E7F0FC" fill-opacity="0.1"/>
<circle cx="252.25" cy="28.6591" r="2.20455" fill="#E7F0FC" fill-opacity="0.1"/>
<circle cx="252.25" cy="41.8862" r="2.20455" fill="#E7F0FC" fill-opacity="0.1"/>
<circle cx="252.25" cy="55.1137" r="2.20455" fill="#E7F0FC" fill-opacity="0.1"/>
<circle cx="252.25" cy="68.3408" r="2.20455" fill="#E7F0FC" fill-opacity="0.1"/>
<circle cx="252.25" cy="81.5683" r="2.20455" fill="#E7F0FC" fill-opacity="0.1"/>
<circle cx="252.25" cy="94.7954" r="2.20455" fill="#E7F0FC" fill-opacity="0.1"/>
</svg>
