<svg width="124" height="97" viewBox="0 0 124 97" fill="none" xmlns="http://www.w3.org/2000/svg">
<circle cx="121.25" cy="94.7955" r="2.20455" transform="rotate(-180 121.25 94.7955)" fill="#E7F0FC" fill-opacity="0.1"/>
<circle cx="121.25" cy="81.5684" r="2.20455" transform="rotate(-180 121.25 81.5684)" fill="#E7F0FC" fill-opacity="0.1"/>
<circle cx="121.25" cy="68.3409" r="2.20455" transform="rotate(-180 121.25 68.3409)" fill="#E7F0FC" fill-opacity="0.1"/>
<circle cx="121.25" cy="55.1138" r="2.20455" transform="rotate(-180 121.25 55.1138)" fill="#E7F0FC" fill-opacity="0.1"/>
<circle cx="121.25" cy="41.8863" r="2.20455" transform="rotate(-180 121.25 41.8863)" fill="#E7F0FC" fill-opacity="0.1"/>
<circle cx="121.25" cy="28.6592" r="2.20455" transform="rotate(-180 121.25 28.6592)" fill="#E7F0FC" fill-opacity="0.1"/>
<circle cx="121.25" cy="15.4317" r="2.20455" transform="rotate(-180 121.25 15.4317)" fill="#E7F0FC" fill-opacity="0.1"/>
<circle cx="121.25" cy="2.20463" r="2.20455" transform="rotate(-180 121.25 2.20463)" fill="#E7F0FC" fill-opacity="0.1"/>
<circle cx="108.023" cy="94.7955" r="2.20455" transform="rotate(-180 108.023 94.7955)" fill="#E7F0FC" fill-opacity="0.1"/>
<circle cx="108.023" cy="81.5684" r="2.20455" transform="rotate(-180 108.023 81.5684)" fill="#E7F0FC" fill-opacity="0.1"/>
<circle cx="108.023" cy="68.3409" r="2.20455" transform="rotate(-180 108.023 68.3409)" fill="#E7F0FC" fill-opacity="0.1"/>
<circle cx="108.023" cy="55.1138" r="2.20455" transform="rotate(-180 108.023 55.1138)" fill="#E7F0FC" fill-opacity="0.1"/>
<circle cx="108.023" cy="41.8863" r="2.20455" transform="rotate(-180 108.023 41.8863)" fill="#E7F0FC" fill-opacity="0.1"/>
<circle cx="108.023" cy="28.6592" r="2.20455" transform="rotate(-180 108.023 28.6592)" fill="#E7F0FC" fill-opacity="0.1"/>
<circle cx="108.023" cy="15.4317" r="2.20455" transform="rotate(-180 108.023 15.4317)" fill="#E7F0FC" fill-opacity="0.1"/>
<circle cx="108.023" cy="2.20463" r="2.20455" transform="rotate(-180 108.023 2.20463)" fill="#E7F0FC" fill-opacity="0.1"/>
<circle cx="94.7955" cy="94.7955" r="2.20455" transform="rotate(-180 94.7955 94.7955)" fill="#E7F0FC" fill-opacity="0.1"/>
<circle cx="94.7955" cy="81.5684" r="2.20455" transform="rotate(-180 94.7955 81.5684)" fill="#E7F0FC" fill-opacity="0.1"/>
<circle cx="94.7955" cy="68.3409" r="2.20455" transform="rotate(-180 94.7955 68.3409)" fill="#E7F0FC" fill-opacity="0.1"/>
<circle cx="94.7955" cy="55.1138" r="2.20455" transform="rotate(-180 94.7955 55.1138)" fill="#E7F0FC" fill-opacity="0.1"/>
<circle cx="94.7955" cy="41.8863" r="2.20455" transform="rotate(-180 94.7955 41.8863)" fill="#E7F0FC" fill-opacity="0.1"/>
<circle cx="94.7955" cy="28.6592" r="2.20455" transform="rotate(-180 94.7955 28.6592)" fill="#E7F0FC" fill-opacity="0.1"/>
<circle cx="94.7955" cy="15.4317" r="2.20455" transform="rotate(-180 94.7955 15.4317)" fill="#E7F0FC" fill-opacity="0.1"/>
<circle cx="94.7955" cy="2.20463" r="2.20455" transform="rotate(-180 94.7955 2.20463)" fill="#E7F0FC" fill-opacity="0.1"/>
<circle cx="81.5682" cy="94.7955" r="2.20455" transform="rotate(-180 81.5682 94.7955)" fill="#E7F0FC" fill-opacity="0.1"/>
<circle cx="81.5682" cy="81.5684" r="2.20455" transform="rotate(-180 81.5682 81.5684)" fill="#E7F0FC" fill-opacity="0.1"/>
<circle cx="81.5682" cy="68.3409" r="2.20455" transform="rotate(-180 81.5682 68.3409)" fill="#E7F0FC" fill-opacity="0.1"/>
<circle cx="81.5682" cy="55.1138" r="2.20455" transform="rotate(-180 81.5682 55.1138)" fill="#E7F0FC" fill-opacity="0.1"/>
<circle cx="81.5682" cy="41.8863" r="2.20455" transform="rotate(-180 81.5682 41.8863)" fill="#E7F0FC" fill-opacity="0.1"/>
<circle cx="81.5682" cy="28.6592" r="2.20455" transform="rotate(-180 81.5682 28.6592)" fill="#E7F0FC" fill-opacity="0.1"/>
<circle cx="81.5682" cy="15.4317" r="2.20455" transform="rotate(-180 81.5682 15.4317)" fill="#E7F0FC" fill-opacity="0.1"/>
<circle cx="81.5682" cy="2.20463" r="2.20455" transform="rotate(-180 81.5682 2.20463)" fill="#E7F0FC" fill-opacity="0.1"/>
<circle cx="68.3409" cy="94.7955" r="2.20455" transform="rotate(-180 68.3409 94.7955)" fill="#E7F0FC" fill-opacity="0.1"/>
<circle cx="68.3409" cy="81.5684" r="2.20455" transform="rotate(-180 68.3409 81.5684)" fill="#E7F0FC" fill-opacity="0.1"/>
<circle cx="68.3409" cy="68.3409" r="2.20455" transform="rotate(-180 68.3409 68.3409)" fill="#E7F0FC" fill-opacity="0.1"/>
<circle cx="68.3409" cy="55.1138" r="2.20455" transform="rotate(-180 68.3409 55.1138)" fill="#E7F0FC" fill-opacity="0.1"/>
<circle cx="68.3409" cy="41.8863" r="2.20455" transform="rotate(-180 68.3409 41.8863)" fill="#E7F0FC" fill-opacity="0.1"/>
<circle cx="68.3409" cy="28.6592" r="2.20455" transform="rotate(-180 68.3409 28.6592)" fill="#E7F0FC" fill-opacity="0.1"/>
<circle cx="68.3409" cy="15.4317" r="2.20455" transform="rotate(-180 68.3409 15.4317)" fill="#E7F0FC" fill-opacity="0.1"/>
<circle cx="68.3409" cy="2.20463" r="2.20455" transform="rotate(-180 68.3409 2.20463)" fill="#E7F0FC" fill-opacity="0.1"/>
<circle cx="55.1136" cy="94.7955" r="2.20455" transform="rotate(-180 55.1136 94.7955)" fill="#E7F0FC" fill-opacity="0.1"/>
<circle cx="55.1136" cy="81.5684" r="2.20455" transform="rotate(-180 55.1136 81.5684)" fill="#E7F0FC" fill-opacity="0.1"/>
<circle cx="55.1136" cy="68.3409" r="2.20455" transform="rotate(-180 55.1136 68.3409)" fill="#E7F0FC" fill-opacity="0.1"/>
<circle cx="55.1136" cy="55.1138" r="2.20455" transform="rotate(-180 55.1136 55.1138)" fill="#E7F0FC" fill-opacity="0.1"/>
<circle cx="55.1136" cy="41.8863" r="2.20455" transform="rotate(-180 55.1136 41.8863)" fill="#E7F0FC" fill-opacity="0.1"/>
<circle cx="55.1136" cy="28.6592" r="2.20455" transform="rotate(-180 55.1136 28.6592)" fill="#E7F0FC" fill-opacity="0.1"/>
<circle cx="55.1136" cy="15.4317" r="2.20455" transform="rotate(-180 55.1136 15.4317)" fill="#E7F0FC" fill-opacity="0.1"/>
<circle cx="55.1138" cy="2.20463" r="2.20455" transform="rotate(-180 55.1138 2.20463)" fill="#E7F0FC" fill-opacity="0.1"/>
<circle cx="41.8865" cy="94.7955" r="2.20455" transform="rotate(-180 41.8865 94.7955)" fill="#E7F0FC" fill-opacity="0.1"/>
<circle cx="41.8865" cy="81.5684" r="2.20455" transform="rotate(-180 41.8865 81.5684)" fill="#E7F0FC" fill-opacity="0.1"/>
<circle cx="41.8865" cy="68.3409" r="2.20455" transform="rotate(-180 41.8865 68.3409)" fill="#E7F0FC" fill-opacity="0.1"/>
<circle cx="41.8865" cy="55.1138" r="2.20455" transform="rotate(-180 41.8865 55.1138)" fill="#E7F0FC" fill-opacity="0.1"/>
<circle cx="41.8865" cy="41.8863" r="2.20455" transform="rotate(-180 41.8865 41.8863)" fill="#E7F0FC" fill-opacity="0.1"/>
<circle cx="41.8865" cy="28.6592" r="2.20455" transform="rotate(-180 41.8865 28.6592)" fill="#E7F0FC" fill-opacity="0.1"/>
<circle cx="41.8865" cy="15.4317" r="2.20455" transform="rotate(-180 41.8865 15.4317)" fill="#E7F0FC" fill-opacity="0.1"/>
<circle cx="41.8865" cy="2.20463" r="2.20455" transform="rotate(-180 41.8865 2.20463)" fill="#E7F0FC" fill-opacity="0.1"/>
<circle cx="28.6592" cy="94.7955" r="2.20455" transform="rotate(-180 28.6592 94.7955)" fill="#E7F0FC" fill-opacity="0.1"/>
<circle cx="28.6592" cy="81.5684" r="2.20455" transform="rotate(-180 28.6592 81.5684)" fill="#E7F0FC" fill-opacity="0.1"/>
<circle cx="28.6592" cy="68.3409" r="2.20455" transform="rotate(-180 28.6592 68.3409)" fill="#E7F0FC" fill-opacity="0.1"/>
<circle cx="28.6592" cy="55.1138" r="2.20455" transform="rotate(-180 28.6592 55.1138)" fill="#E7F0FC" fill-opacity="0.1"/>
<circle cx="28.6592" cy="41.8863" r="2.20455" transform="rotate(-180 28.6592 41.8863)" fill="#E7F0FC" fill-opacity="0.1"/>
<circle cx="28.6592" cy="28.6592" r="2.20455" transform="rotate(-180 28.6592 28.6592)" fill="#E7F0FC" fill-opacity="0.1"/>
<circle cx="28.6592" cy="15.4317" r="2.20455" transform="rotate(-180 28.6592 15.4317)" fill="#E7F0FC" fill-opacity="0.1"/>
<circle cx="28.6592" cy="2.20463" r="2.20455" transform="rotate(-180 28.6592 2.20463)" fill="#E7F0FC" fill-opacity="0.1"/>
<circle cx="15.4319" cy="94.7955" r="2.20455" transform="rotate(-180 15.4319 94.7955)" fill="#E7F0FC" fill-opacity="0.1"/>
<circle cx="15.4319" cy="81.5684" r="2.20455" transform="rotate(-180 15.4319 81.5684)" fill="#E7F0FC" fill-opacity="0.1"/>
<circle cx="15.4319" cy="68.3409" r="2.20455" transform="rotate(-180 15.4319 68.3409)" fill="#E7F0FC" fill-opacity="0.1"/>
<circle cx="15.4319" cy="55.1138" r="2.20455" transform="rotate(-180 15.4319 55.1138)" fill="#E7F0FC" fill-opacity="0.1"/>
<circle cx="15.4319" cy="41.8863" r="2.20455" transform="rotate(-180 15.4319 41.8863)" fill="#E7F0FC" fill-opacity="0.1"/>
<circle cx="15.4319" cy="28.6592" r="2.20455" transform="rotate(-180 15.4319 28.6592)" fill="#E7F0FC" fill-opacity="0.1"/>
<circle cx="15.4319" cy="15.4317" r="2.20455" transform="rotate(-180 15.4319 15.4317)" fill="#E7F0FC" fill-opacity="0.1"/>
<circle cx="15.4319" cy="2.20463" r="2.20455" transform="rotate(-180 15.4319 2.20463)" fill="#E7F0FC" fill-opacity="0.1"/>
<circle cx="2.20463" cy="94.7955" r="2.20455" transform="rotate(-180 2.20463 94.7955)" fill="#E7F0FC" fill-opacity="0.1"/>
<circle cx="2.20463" cy="81.5684" r="2.20455" transform="rotate(-180 2.20463 81.5684)" fill="#E7F0FC" fill-opacity="0.1"/>
<circle cx="2.20463" cy="68.3409" r="2.20455" transform="rotate(-180 2.20463 68.3409)" fill="#E7F0FC" fill-opacity="0.1"/>
<circle cx="2.20463" cy="55.1138" r="2.20455" transform="rotate(-180 2.20463 55.1138)" fill="#E7F0FC" fill-opacity="0.1"/>
<circle cx="2.20463" cy="41.8863" r="2.20455" transform="rotate(-180 2.20463 41.8863)" fill="#E7F0FC" fill-opacity="0.1"/>
<circle cx="2.20463" cy="28.6592" r="2.20455" transform="rotate(-180 2.20463 28.6592)" fill="#E7F0FC" fill-opacity="0.1"/>
<circle cx="2.20463" cy="15.4317" r="2.20455" transform="rotate(-180 2.20463 15.4317)" fill="#E7F0FC" fill-opacity="0.1"/>
<circle cx="2.20463" cy="2.20463" r="2.20455" transform="rotate(-180 2.20463 2.20463)" fill="#E7F0FC" fill-opacity="0.1"/>
</svg>
