<svg width="95" height="26" fill="none" xmlns="http://www.w3.org/2000/svg"><path opacity=".8" fill-rule="evenodd" clip-rule="evenodd" d="M21.934 17.986c0 4.044-3.327 7.322-7.432 7.322H.464v-4.881h14.038c1.368 0 2.478-1.093 2.478-2.441 0-1.348-1.11-2.44-2.478-2.44H9.548v-4.882h4.954c1.368 0 2.478-1.093 2.478-2.44 0-1.349-1.11-2.442-2.478-2.442H.464V.902h14.038c4.105 0 7.432 3.277 7.432 7.321a7.234 7.234 0 0 1-1.892 4.882 7.234 7.234 0 0 1 1.892 4.881Z" fill="#FE815F"/><path opacity=".12" d="M.464 20.427h12.057c-2.56 2.964-6.638 4.881-11.231 4.881-.277 0-.553-.007-.826-.02v-4.861Zm14.583-4.882h-4.674v-4.881h4.674a10.72 10.72 0 0 1 0 4.881Zm-2.526-9.762H.464V.922c.273-.014.549-.02.826-.02 4.593 0 8.67 1.916 11.232 4.88Z" fill="#000"/><path d="M.464.901c6.841 0 12.387 5.464 12.387 12.204S7.305 25.308.464 25.308v-4.881c4.105 0 7.432-3.279 7.432-7.322 0-4.044-3.327-7.323-7.432-7.323V.902Z" fill="#FF6238"/><path d="M42.802 8.75c0 1.032-.191 1.922-.574 2.671a5.385 5.385 0 0 1-1.514 1.847 6.314 6.314 0 0 1-2.122 1.065 8.597 8.597 0 0 1-2.396.341h-4.393V2.894h4.26c.832 0 1.653.096 2.462.29a6.18 6.18 0 0 1 2.164.966c.632.449 1.142 1.05 1.53 1.805.389.754.583 1.686.583 2.795Zm-2.962 0c0-.665-.108-1.217-.324-1.655a2.788 2.788 0 0 0-.866-1.048 3.46 3.46 0 0 0-1.231-.558 6.052 6.052 0 0 0-1.423-.166h-1.414v6.888h1.348c.51 0 1-.058 1.472-.174a3.482 3.482 0 0 0 1.248-.574c.36-.267.65-.622.866-1.065.216-.444.324-.993.324-1.648Zm10.4.832c0-.432-.136-.804-.408-1.114-.272-.311-.68-.466-1.223-.466-.266 0-.51.041-.732.124a1.897 1.897 0 0 0-.583.342c-.166.144-.3.313-.399.507-.1.194-.155.397-.166.607h3.51Zm2.512 1.049v.332c0 .111-.005.217-.017.317H46.73c.022.232.091.443.208.632.116.188.266.352.449.49.183.14.388.248.616.325.227.078.463.117.707.117.432 0 .798-.08 1.098-.242.3-.16.543-.368.732-.624l1.897 1.199a3.838 3.838 0 0 1-1.54 1.306c-.637.305-1.377.457-2.22.457a5.3 5.3 0 0 1-1.764-.291 4.283 4.283 0 0 1-1.456-.849 3.93 3.93 0 0 1-.982-1.372c-.238-.544-.358-1.165-.358-1.864 0-.677.117-1.29.35-1.839.233-.549.549-1.015.948-1.397.4-.383.871-.68 1.414-.89a4.837 4.837 0 0 1 1.764-.317c.61 0 1.17.103 1.68.308.511.205.95.502 1.315.89.366.389.652.86.857 1.415.206.554.308 1.187.308 1.897Zm11.032.615c0 .644-.128 1.184-.383 1.623-.255.438-.593.79-1.015 1.056a4.422 4.422 0 0 1-1.439.574 7.8 7.8 0 0 1-1.656.175H54.6V2.894h4.692c.455 0 .921.046 1.398.14.477.095.91.256 1.298.483.388.228.704.536.948.924s.366.882.366 1.48c0 .655-.177 1.196-.532 1.623-.355.427-.82.735-1.398.924V8.5c.333.055.646.158.94.308.294.15.55.34.766.574.216.233.388.504.516.815.127.31.191.66.191 1.048Zm-3.228-4.942c0-.399-.152-.69-.458-.873-.305-.183-.757-.275-1.356-.275h-1.397v2.43h1.53c.533 0 .946-.109 1.24-.325.294-.216.441-.535.441-.957Zm.383 4.676c0-.488-.183-.826-.55-1.015-.366-.189-.854-.283-1.464-.283h-1.58v2.696h1.597c.222 0 .452-.02.69-.059a2.17 2.17 0 0 0 .65-.208c.194-.1.352-.24.474-.424.122-.183.183-.418.183-.707Zm9.467.083h-.349c-.3 0-.602.014-.907.042a3.73 3.73 0 0 0-.815.158 1.51 1.51 0 0 0-.59.341.783.783 0 0 0-.234.59c0 .156.036.29.108.4.073.111.164.2.275.266.11.067.238.114.383.142.144.027.282.041.416.041.554 0 .978-.152 1.273-.457.294-.305.44-.719.44-1.24v-.283ZM65.398 7.52a4.778 4.778 0 0 1 1.706-1.048 5.844 5.844 0 0 1 1.988-.35c.699 0 1.29.086 1.772.258a2.64 2.64 0 0 1 1.173.799c.3.36.519.815.657 1.364.139.55.208 1.201.208 1.956v4.176h-2.496v-.882h-.05c-.21.344-.53.61-.956.799a3.4 3.4 0 0 1-1.39.283 4.25 4.25 0 0 1-1.031-.133 3.022 3.022 0 0 1-.974-.433 2.342 2.342 0 0 1-.724-.799c-.188-.332-.282-.743-.282-1.231 0-.6.163-1.082.49-1.448a3.221 3.221 0 0 1 1.265-.848 6.7 6.7 0 0 1 1.722-.4c.633-.066 1.248-.1 1.847-.1V9.35c0-.41-.144-.712-.432-.906-.289-.195-.644-.292-1.065-.292-.388 0-.763.084-1.123.25-.361.166-.669.366-.924.599l-1.381-1.48Zm14.975 7.155v-4.526c0-.233-.019-.455-.058-.665a1.832 1.832 0 0 0-.191-.558.992.992 0 0 0-.375-.383 1.186 1.186 0 0 0-.607-.141 1.38 1.38 0 0 0-.64.141 1.296 1.296 0 0 0-.458.391 1.776 1.776 0 0 0-.275.574c-.06.217-.091.441-.091.674v4.493h-2.746V6.388h2.646v1.148h.033c.1-.178.23-.352.391-.524.161-.172.35-.32.566-.441.216-.122.452-.222.707-.3.255-.078.527-.116.816-.116.554 0 1.026.1 1.414.3.388.199.702.457.94.773.239.316.41.68.516 1.09.105.41.158.82.158 1.231v5.125h-2.746Zm13.711 0h-3.378l-2.712-3.977h-.05v3.977H85.2V2.094h2.745V9.75h.05l2.646-3.361h3.311l-3.195 3.744 3.328 4.542Z" fill="#19233C"/><path opacity=".6" d="M34.842 23.697v-2.482l2.15-3.241h-1.18l-1.455 2.409-1.44-2.41h-1.244l2.15 3.242v2.482h1.019Zm3.71.114c.291 0 .566-.052.825-.154a2.05 2.05 0 0 0 .67-.424c.19-.181.34-.398.45-.651.11-.254.165-.534.165-.841 0-.307-.055-.586-.165-.837-.11-.25-.26-.465-.45-.642a1.978 1.978 0 0 0-.67-.413 2.33 2.33 0 0 0-.825-.145 2.33 2.33 0 0 0-.824.145 1.977 1.977 0 0 0-.671.413 1.957 1.957 0 0 0-.449.642c-.11.25-.166.53-.166.837 0 .307.056.587.166.84.11.254.26.471.449.652.188.18.412.322.67.424.26.102.534.154.825.154Zm0-.809c-.194 0-.36-.038-.5-.113a1.078 1.078 0 0 1-.349-.291 1.244 1.244 0 0 1-.206-.404 1.512 1.512 0 0 1 0-.901c.046-.149.115-.282.206-.4.092-.12.208-.215.348-.288.14-.073.307-.109.501-.109s.361.036.502.11c.14.072.255.168.347.286.092.119.16.252.206.4a1.512 1.512 0 0 1 0 .902c-.045.15-.114.285-.206.404a1.08 1.08 0 0 1-.348.291c-.14.075-.307.113-.5.113Zm4.447.809c.29 0 .543-.075.755-.223.213-.148.363-.32.45-.513h.015v.622h.922v-3.88h-.97v2.134c0 .13-.019.258-.057.384a1.057 1.057 0 0 1-.165.336.837.837 0 0 1-.683.331.653.653 0 0 1-.377-.097.696.696 0 0 1-.222-.246.961.961 0 0 1-.105-.336 2.749 2.749 0 0 1-.024-.356v-2.15h-.97v2.425c0 .2.027.394.08.582.054.189.14.356.255.502.116.145.264.262.445.351.18.09.397.134.65.134Zm4.276-.114V21.62c0-.07.014-.165.04-.283.028-.119.079-.235.154-.348a.971.971 0 0 1 .316-.29c.134-.082.312-.122.533-.122a1.163 1.163 0 0 1 .3.04v-.889a.448.448 0 0 0-.114-.02 1.944 1.944 0 0 0-.121-.004c-.259 0-.485.07-.68.21-.193.14-.344.323-.452.55h-.016v-.647h-.93v3.88h.97Zm6.072 0c.371 0 .746-.055 1.123-.165.377-.11.717-.282 1.019-.514.302-.231.547-.528.735-.889.19-.361.283-.792.283-1.293 0-.54-.094-.99-.283-1.355a2.517 2.517 0 0 0-.735-.88 2.91 2.91 0 0 0-1.019-.482 4.494 4.494 0 0 0-1.123-.145h-2.03v5.723h2.03Zm-1.011-.889v-3.961h.849c.264 0 .528.027.792.08.264.055.503.154.716.3.212.145.386.347.52.606.136.259.203.593.203 1.003 0 .388-.067.708-.202.962a1.677 1.677 0 0 1-.521.602 2.064 2.064 0 0 1-.716.315 3.455 3.455 0 0 1-.792.093h-.85Zm6.968 1.003c.728 0 1.283-.26 1.666-.776l-.647-.518a1.151 1.151 0 0 1-.412.368 1.295 1.295 0 0 1-.614.133 1.14 1.14 0 0 1-.405-.073 1.228 1.228 0 0 1-.347-.198.961.961 0 0 1-.356-.683h2.95c.006-.043.009-.086.009-.129v-.13c0-.35-.047-.655-.142-.917a1.836 1.836 0 0 0-.392-.655 1.62 1.62 0 0 0-.594-.396 2.047 2.047 0 0 0-.748-.133c-.29 0-.562.05-.812.15-.25.099-.468.24-.651.42s-.327.398-.432.654c-.106.256-.158.54-.158.853 0 .318.052.603.157.853.106.25.251.462.437.635.186.172.406.306.659.4.253.094.53.142.832.142Zm-1.115-2.442a.958.958 0 0 1 .335-.675 1.09 1.09 0 0 1 .74-.263c.156 0 .292.026.408.077a.81.81 0 0 1 .287.206c.076.087.131.186.166.3.035.113.053.231.053.355h-1.99Zm4.964 2.328v-2.409h2.522v-.857h-2.522v-1.568h2.676v-.89h-3.695v5.724h1.019Zm3.912-4.616a.642.642 0 0 0 .45-.165.54.54 0 0 0 .181-.417.54.54 0 0 0-.182-.416.642.642 0 0 0-.449-.166.597.597 0 0 0-.614.582.597.597 0 0 0 .614.582Zm.494 4.616v-3.88h-.97v3.88h.97Zm5.23 0 1.342-4.292h.016l1.342 4.292h.986l1.674-5.723h-1.083l-1.132 4.203h-.016l-1.237-4.203H73.63l-1.261 4.203h-.016l-1.108-4.203h-1.116l1.674 5.723h.986Zm6.88.097c.275 0 .52-.055.735-.165.216-.11.372-.252.47-.425h.024v.493h.905v-2.36c0-.194-.026-.388-.077-.582a1.36 1.36 0 0 0-.27-.526 1.39 1.39 0 0 0-.53-.38c-.224-.097-.508-.145-.853-.145-.296 0-.589.051-.877.153a2.189 2.189 0 0 0-.764.461l.501.59a1.59 1.59 0 0 1 .469-.315c.189-.086.385-.13.59-.13.243 0 .451.059.627.174.175.116.262.296.262.538v.097c-.301 0-.61.015-.925.045-.316.03-.603.09-.861.181-.259.092-.47.224-.635.397-.164.172-.246.404-.246.695 0 .226.047.416.141.57.094.153.213.277.356.372.143.094.299.161.469.202.17.04.332.06.489.06Zm.194-.735a1.24 1.24 0 0 1-.243-.024.702.702 0 0 1-.218-.081.413.413 0 0 1-.218-.38.43.43 0 0 1 .145-.344c.097-.083.219-.148.364-.194.145-.046.305-.075.477-.089.172-.013.337-.02.493-.02h.218v.137c0 .308-.086.55-.258.728-.173.178-.426.267-.76.267Zm4.058.638v-6.111h-.97v6.111h.97Zm2.167 0v-6.111h-.97v6.111h.97Zm3.04.114c.727 0 1.282-.26 1.665-.776l-.647-.518a1.15 1.15 0 0 1-.412.368 1.294 1.294 0 0 1-.615.133 1.14 1.14 0 0 1-.404-.073 1.228 1.228 0 0 1-.348-.198.961.961 0 0 1-.356-.683h2.951c.006-.043.008-.086.008-.129v-.13a2.7 2.7 0 0 0-.141-.917 1.837 1.837 0 0 0-.392-.655 1.621 1.621 0 0 0-.594-.396 2.047 2.047 0 0 0-.748-.133c-.291 0-.562.05-.813.15-.25.099-.467.24-.65.42-.184.18-.328.398-.433.654-.105.256-.157.54-.157.853 0 .318.052.603.157.853.105.25.25.462.437.635.186.172.405.306.659.4.253.094.53.142.832.142Zm-1.116-2.442a.958.958 0 0 1 .335-.675 1.09 1.09 0 0 1 .74-.263c.156 0 .292.026.408.077.116.051.212.12.287.206.076.087.13.186.166.3.035.113.052.231.052.355h-1.988Zm5.279 2.41c.108 0 .22-.01.34-.03.118-.018.22-.043.306-.076l-.032-.76a.843.843 0 0 1-.202.06c-.076.014-.145.021-.21.021-.216 0-.355-.056-.416-.17a.885.885 0 0 1-.093-.428v-1.803h.97v-.776h-.97v-1.124h-.954v1.124h-.68v.776h.68v1.81c0 .19.017.366.052.53.035.165.1.31.194.437a.957.957 0 0 0 .384.3c.162.072.372.108.63.108Z" fill="#19233C"/></svg>