<svg width="95" height="26" viewBox="0 0 95 26" fill="none" xmlns="http://www.w3.org/2000/svg">
<path opacity="0.8" fill-rule="evenodd" clip-rule="evenodd" d="M21.9343 17.986C21.9343 22.0299 18.6069 25.3081 14.5023 25.3081H0.464233V20.4267H14.5023C15.8705 20.4267 16.9797 19.334 16.9797 17.986C16.9797 16.638 15.8705 15.5453 14.5023 15.5453H9.54772V10.6639H14.5023C15.8705 10.6639 16.9797 9.57116 16.9797 8.2232C16.9797 6.87524 15.8705 5.7825 14.5023 5.7825H0.464233V0.901093H14.5023C18.6069 0.901093 21.9343 4.17931 21.9343 8.2232C21.9343 10.0985 21.2187 11.8092 20.0419 13.1046C21.2187 14.4 21.9343 16.1107 21.9343 17.986Z" fill="#FE815F"/>
<path opacity="0.12" d="M0.464233 20.4267H12.5215C9.96039 23.3908 5.88276 25.3081 1.29 25.3081C1.0128 25.3081 0.737467 25.3011 0.464233 25.2874V20.4267ZM15.0473 15.5453H10.3735V10.6639H15.0473C15.2314 11.4525 15.3281 12.2687 15.3281 13.1046C15.3281 13.9405 15.2314 14.7567 15.0473 15.5453ZM12.5215 5.7825H0.464233V0.921855C0.737467 0.908077 1.0128 0.901093 1.29 0.901093C5.88276 0.901093 9.96039 2.81839 12.5215 5.7825Z" fill="black"/>
<path d="M0.464233 0.901093C7.30514 0.901093 12.8508 6.36479 12.8508 13.1046C12.8508 19.8444 7.30514 25.3081 0.464233 25.3081V20.4267C4.56878 20.4267 7.89617 17.1485 7.89617 13.1046C7.89617 9.06072 4.56878 5.7825 0.464233 5.7825V0.901093Z" fill="#FF6238"/>
<path d="M42.8018 8.7504C42.8018 9.78204 42.6105 10.6722 42.2278 11.421C41.8451 12.1698 41.3403 12.7854 40.7136 13.268C40.0868 13.7505 39.3797 14.1055 38.5921 14.3329C37.8045 14.5603 37.0058 14.674 36.196 14.674H31.8032V2.89335H36.0629C36.8949 2.89335 37.7157 2.99041 38.5255 3.18454C39.3353 3.37867 40.0563 3.70036 40.6886 4.14962C41.3209 4.59889 41.8312 5.20067 42.2194 5.95499C42.6077 6.70931 42.8018 7.6411 42.8018 8.7504ZM39.84 8.7504C39.84 8.08482 39.7319 7.53295 39.5156 7.09478C39.2992 6.65661 39.0108 6.30719 38.6503 6.04651C38.2898 5.78582 37.8794 5.60002 37.419 5.48909C36.9586 5.37816 36.4844 5.32269 35.9963 5.32269H34.582V12.2114H35.9298C36.44 12.2114 36.9309 12.1531 37.4024 12.0367C37.8738 11.9202 38.2898 11.7288 38.6503 11.4626C39.0108 11.1964 39.2992 10.8414 39.5156 10.3977C39.7319 9.95397 39.84 9.40488 39.84 8.7504ZM50.2396 9.58236C50.2396 9.14974 50.1037 8.77813 49.8319 8.46753C49.5602 8.15692 49.1525 8.00163 48.6089 8.00163C48.3427 8.00163 48.0987 8.04322 47.8768 8.12642C47.655 8.20962 47.4608 8.32332 47.2944 8.46753C47.128 8.61174 46.9949 8.7809 46.8951 8.97503C46.7953 9.16915 46.7398 9.3716 46.7287 9.58236H50.2396ZM52.7521 10.6306V10.9634C52.7521 11.0744 52.7466 11.1797 52.7355 11.2796H46.7287C46.7509 11.5125 46.8202 11.7233 46.9367 11.9119C47.0532 12.1004 47.2029 12.2641 47.386 12.4027C47.569 12.5414 47.7742 12.6495 48.0016 12.7272C48.229 12.8048 48.4647 12.8437 48.7088 12.8437C49.1414 12.8437 49.5075 12.7632 49.807 12.6024C50.1065 12.4416 50.3505 12.2336 50.5391 11.9784L52.436 13.1765C52.0477 13.7422 51.5347 14.1776 50.8968 14.4826C50.259 14.7877 49.5186 14.9402 48.6755 14.9402C48.0543 14.9402 47.4664 14.8432 46.9117 14.649C46.3571 14.4549 45.8718 14.172 45.4558 13.8004C45.0398 13.4288 44.7126 12.9712 44.4741 12.4277C44.2356 11.8841 44.1163 11.2629 44.1163 10.5641C44.1163 9.88741 44.2328 9.27454 44.4657 8.72544C44.6987 8.17634 45.0148 7.71044 45.4142 7.32773C45.8135 6.94503 46.285 6.64829 46.8285 6.43753C47.3721 6.22676 47.96 6.12138 48.5923 6.12138C49.2024 6.12138 49.7626 6.22399 50.2729 6.42921C50.7831 6.63443 51.2213 6.93116 51.5874 7.31941C51.9534 7.70767 52.2391 8.17911 52.4443 8.73376C52.6495 9.2884 52.7521 9.92069 52.7521 10.6306ZM63.784 11.2463C63.784 11.8897 63.6564 12.4305 63.4013 12.8686C63.1462 13.3068 62.8078 13.659 62.3863 13.9252C61.9648 14.1915 61.485 14.3828 60.947 14.4993C60.409 14.6158 59.8571 14.674 59.2914 14.674H54.5991V2.89335H59.2914C59.7462 2.89335 60.2121 2.9405 60.6891 3.03479C61.1661 3.12908 61.5987 3.28992 61.987 3.51733C62.3752 3.74473 62.6914 4.05256 62.9354 4.44081C63.1794 4.82906 63.3015 5.32269 63.3015 5.92171C63.3015 6.57619 63.124 7.11697 62.769 7.54404C62.414 7.97112 61.9481 8.27895 61.3713 8.46753V8.50081C61.7041 8.55627 62.0175 8.65888 62.3114 8.80863C62.6054 8.95839 62.8605 9.14974 63.0768 9.38269C63.2931 9.61564 63.4651 9.88741 63.5927 10.198C63.7202 10.5086 63.784 10.858 63.784 11.2463ZM60.556 6.30442C60.556 5.90507 60.4035 5.61388 60.0984 5.43085C59.7933 5.24782 59.3413 5.1563 58.7423 5.1563H57.3446V7.58564H58.8754C59.4079 7.58564 59.8211 7.47749 60.115 7.26118C60.409 7.04486 60.556 6.72595 60.556 6.30442ZM60.9387 10.9801C60.9387 10.492 60.7556 10.1536 60.3896 9.96507C60.0235 9.77649 59.5354 9.6822 58.9253 9.6822H57.3446V12.3778H58.942C59.1638 12.3778 59.394 12.3584 59.6325 12.3195C59.871 12.2807 60.0873 12.2114 60.2814 12.1115C60.4756 12.0117 60.6336 11.8703 60.7556 11.6872C60.8777 11.5042 60.9387 11.2685 60.9387 10.9801ZM70.4065 11.0633H70.057C69.7575 11.0633 69.4552 11.0771 69.1502 11.1049C68.8451 11.1326 68.5734 11.1853 68.3349 11.2629C68.0964 11.3406 67.8995 11.4543 67.7442 11.604C67.5889 11.7538 67.5112 11.9507 67.5112 12.1947C67.5112 12.35 67.5473 12.4832 67.6194 12.5941C67.6915 12.705 67.783 12.7938 67.8939 12.8603C68.0048 12.9269 68.1324 12.974 68.2766 13.0017C68.4208 13.0295 68.5595 13.0433 68.6926 13.0433C69.2473 13.0433 69.6715 12.8908 69.9655 12.5858C70.2595 12.2807 70.4065 11.8675 70.4065 11.3461V11.0633ZM65.398 7.51909C65.8861 7.05318 66.4546 6.70376 67.1036 6.47081C67.7525 6.23786 68.4153 6.12138 69.0919 6.12138C69.7908 6.12138 70.3815 6.20735 70.864 6.37929C71.3466 6.55123 71.7376 6.81746 72.0371 7.17798C72.3366 7.5385 72.5557 7.9933 72.6944 8.5424C72.833 9.0915 72.9024 9.74321 72.9024 10.4975V14.674H70.4065V13.7921H70.3565C70.1458 14.136 69.8269 14.4022 69.3998 14.5908C68.9727 14.7794 68.5096 14.8737 68.0104 14.8737C67.6776 14.8737 67.3337 14.8293 66.9788 14.7406C66.6238 14.6518 66.2993 14.5076 66.0054 14.3079C65.7114 14.1083 65.4701 13.842 65.2815 13.5092C65.093 13.1765 64.9987 12.766 64.9987 12.2779C64.9987 11.6789 65.1623 11.1964 65.4895 10.8303C65.8168 10.4642 66.2383 10.1814 66.7541 9.98171C67.2699 9.78203 67.844 9.64892 68.4763 9.58236C69.1086 9.5158 69.7242 9.48253 70.3233 9.48253V9.34941C70.3233 8.93897 70.1791 8.63669 69.8906 8.44257C69.6022 8.24844 69.2473 8.15138 68.8257 8.15138C68.4375 8.15138 68.0631 8.23458 67.7026 8.40097C67.342 8.56736 67.0342 8.76703 66.7791 8.99999L65.398 7.51909ZM80.3734 14.674V10.1481C80.3734 9.91515 80.354 9.69329 80.3152 9.48253C80.2764 9.27176 80.2126 9.08596 80.1238 8.92511C80.0351 8.76426 79.9103 8.63669 79.7494 8.5424C79.5886 8.44811 79.3861 8.40097 79.1421 8.40097C78.8981 8.40097 78.6845 8.44811 78.5015 8.5424C78.3185 8.63669 78.1659 8.76703 78.0439 8.93343C77.9219 9.09982 77.8304 9.29117 77.7694 9.50749C77.7083 9.7238 77.6778 9.94843 77.6778 10.1814V14.674H74.9324V6.38761H77.578V7.53572H77.6113C77.7111 7.35824 77.8415 7.18353 78.0023 7.01159C78.1632 6.83965 78.3517 6.69267 78.568 6.57064C78.7844 6.44862 79.0201 6.34879 79.2752 6.27114C79.5304 6.19349 79.8021 6.15466 80.0905 6.15466C80.6452 6.15466 81.1166 6.2545 81.5049 6.45417C81.8931 6.65384 82.2065 6.91175 82.445 7.2279C82.6835 7.54405 82.8554 7.90733 82.9608 8.31777C83.0662 8.72821 83.1189 9.13864 83.1189 9.54908V14.674H80.3734ZM94.0842 14.674H90.7064L87.9942 10.6972H87.9443V14.674H85.1988V2.09467H87.9443V9.74875H87.9942L90.6399 6.38761H93.9511L90.7564 10.1315L94.0842 14.674Z" fill="#19233C"/>
<path opacity="0.6" d="M34.8416 23.6974V21.2155L36.992 17.9737H35.8117L34.3566 20.3828L32.9176 17.9737H31.6726L33.823 21.2155V23.6974H34.8416ZM38.5523 23.8106C38.8433 23.8106 39.1182 23.7594 39.3769 23.657C39.6356 23.5546 39.8592 23.4131 40.0479 23.2325C40.2365 23.052 40.3861 22.8351 40.4966 22.5818C40.607 22.3284 40.6623 22.0482 40.6623 21.741C40.6623 21.4338 40.607 21.1549 40.4966 20.9043C40.3861 20.6537 40.2365 20.4394 40.0479 20.2616C39.8592 20.0837 39.6356 19.9463 39.3769 19.8493C39.1182 19.7523 38.8433 19.7038 38.5523 19.7038C38.2613 19.7038 37.9864 19.7523 37.7277 19.8493C37.469 19.9463 37.2453 20.0837 37.0567 20.2616C36.8681 20.4394 36.7185 20.6537 36.608 20.9043C36.4976 21.1549 36.4423 21.4338 36.4423 21.741C36.4423 22.0482 36.4976 22.3284 36.608 22.5818C36.7185 22.8351 36.8681 23.052 37.0567 23.2325C37.2453 23.4131 37.469 23.5546 37.7277 23.657C37.9864 23.7594 38.2613 23.8106 38.5523 23.8106ZM38.5523 23.0021C38.3583 23.0021 38.1912 22.9644 38.0511 22.889C37.9109 22.8135 37.7951 22.7165 37.7035 22.5979C37.6118 22.4794 37.5431 22.3446 37.4973 22.1937C37.4515 22.0428 37.4286 21.8919 37.4286 21.741C37.4286 21.5901 37.4515 21.4405 37.4973 21.2923C37.5431 21.1441 37.6118 21.0107 37.7035 20.8921C37.7951 20.7736 37.9109 20.6779 38.0511 20.6052C38.1912 20.5324 38.3583 20.496 38.5523 20.496C38.7463 20.496 38.9134 20.5324 39.0535 20.6052C39.1936 20.6779 39.3095 20.7736 39.4011 20.8921C39.4928 21.0107 39.5615 21.1441 39.6073 21.2923C39.6531 21.4405 39.676 21.5901 39.676 21.741C39.676 21.8919 39.6531 22.0428 39.6073 22.1937C39.5615 22.3446 39.4928 22.4794 39.4011 22.5979C39.3095 22.7165 39.1936 22.8135 39.0535 22.889C38.9134 22.9644 38.7463 23.0021 38.5523 23.0021ZM42.9986 23.8106C43.2897 23.8106 43.5416 23.7365 43.7545 23.5882C43.9674 23.44 44.1169 23.2689 44.2032 23.0749H44.2194V23.6974H45.141V19.8169H44.1708V21.9512C44.1708 22.0805 44.152 22.2085 44.1143 22.3352C44.0765 22.4618 44.0213 22.5737 43.9485 22.6707C43.8758 22.7677 43.7815 22.8472 43.6656 22.9092C43.5497 22.9711 43.4163 23.0021 43.2654 23.0021C43.1091 23.0021 42.9838 22.9698 42.8895 22.9051C42.7952 22.8405 42.7211 22.7583 42.6672 22.6586C42.6133 22.5589 42.5783 22.447 42.5621 22.3231C42.5459 22.1991 42.5378 22.0805 42.5378 21.9674V19.8169H41.5677V22.2422C41.5677 22.4416 41.5947 22.6357 41.6486 22.8243C41.7025 23.0129 41.7873 23.18 41.9032 23.3255C42.0191 23.471 42.1673 23.5882 42.3478 23.6772C42.5284 23.7661 42.7453 23.8106 42.9986 23.8106ZM47.2752 23.6974V21.6197C47.2752 21.5497 47.2887 21.4554 47.3156 21.3368C47.3426 21.2182 47.3938 21.1023 47.4692 20.9892C47.5447 20.876 47.6498 20.779 47.7845 20.6981C47.9192 20.6173 48.0971 20.5769 48.3181 20.5769C48.3612 20.5769 48.4056 20.5796 48.4515 20.5849C48.4973 20.5903 48.5525 20.6011 48.6172 20.6173V19.728C48.5848 19.7172 48.5471 19.7105 48.504 19.7078C48.4609 19.7051 48.4205 19.7038 48.3827 19.7038C48.124 19.7038 47.8977 19.7738 47.7037 19.914C47.5096 20.0541 47.3587 20.2373 47.2509 20.4637H47.2348V19.8169H46.3051V23.6974H47.2752ZM53.3465 23.6974C53.7183 23.6974 54.0929 23.6421 54.4702 23.5317C54.8474 23.4212 55.187 23.2501 55.4888 23.0183C55.7906 22.7866 56.0358 22.4901 56.2244 22.129C56.4131 21.7679 56.5074 21.3368 56.5074 20.8356C56.5074 20.2966 56.4131 19.8452 56.2244 19.4814C56.0358 19.1177 55.7906 18.8239 55.4888 18.6003C55.187 18.3766 54.8474 18.2163 54.4702 18.1193C54.0929 18.0222 53.7183 17.9737 53.3465 17.9737H51.3173V23.6974H53.3465ZM52.3359 22.8081V18.8468H53.1848C53.4489 18.8468 53.7129 18.8738 53.977 18.9277C54.2411 18.9816 54.4796 19.0813 54.6925 19.2268C54.9054 19.3723 55.0792 19.5744 55.2139 19.8331C55.3487 20.0918 55.416 20.426 55.416 20.8356C55.416 21.2236 55.3487 21.5443 55.2139 21.7976C55.0792 22.0509 54.9054 22.2516 54.6925 22.3999C54.4796 22.5481 54.2411 22.6532 53.977 22.7151C53.7129 22.7771 53.4489 22.8081 53.1848 22.8081H52.3359ZM59.3045 23.8106C60.0321 23.8106 60.5872 23.5519 60.9699 23.0345L60.3232 22.5171C60.2154 22.6734 60.0779 22.796 59.9109 22.8849C59.7438 22.9738 59.539 23.0183 59.2965 23.0183C59.1563 23.0183 59.0216 22.9941 58.8922 22.9455C58.7629 22.897 58.647 22.831 58.5446 22.7475C58.4422 22.6639 58.36 22.5642 58.2981 22.4484C58.2361 22.3325 58.1997 22.2045 58.1889 22.0644H61.1397C61.1451 22.0212 61.1478 21.9781 61.1478 21.935V21.8057C61.1478 21.4554 61.1006 21.1495 61.0063 20.8881C60.912 20.6267 60.7813 20.4084 60.6142 20.2333C60.4471 20.0581 60.2491 19.9261 60.02 19.8372C59.7909 19.7482 59.5417 19.7038 59.2722 19.7038C58.9812 19.7038 58.7104 19.7536 58.4597 19.8533C58.2091 19.953 57.9922 20.0932 57.809 20.2737C57.6257 20.4543 57.4816 20.6725 57.3765 20.9285C57.2714 21.1845 57.2188 21.4688 57.2188 21.7814C57.2188 22.0994 57.2714 22.3837 57.3765 22.6343C57.4816 22.8849 57.6271 23.0965 57.813 23.2689C57.9989 23.4414 58.2186 23.5748 58.4719 23.6691C58.7252 23.7634 59.0027 23.8106 59.3045 23.8106ZM58.1889 21.3691C58.2105 21.0943 58.3223 20.8692 58.5244 20.6941C58.7265 20.5189 58.9731 20.4313 59.2641 20.4313C59.4204 20.4313 59.5565 20.4569 59.6724 20.5081C59.7883 20.5593 59.8839 20.6281 59.9594 20.7143C60.0348 20.8005 60.0901 20.9002 60.1251 21.0134C60.1601 21.1266 60.1776 21.2452 60.1776 21.3691H58.1889ZM63.1526 23.6974V21.2883H65.6749V20.4313H63.1526V18.863H65.8285V17.9737H62.134V23.6974H63.1526ZM67.0654 19.0813C67.2433 19.0813 67.3928 19.026 67.5141 18.9156C67.6354 18.8051 67.696 18.6663 67.696 18.4992C67.696 18.3321 67.6354 18.1934 67.5141 18.0829C67.3928 17.9724 67.2433 17.9171 67.0654 17.9171C66.8876 17.9171 66.7407 17.9751 66.6248 18.091C66.509 18.2068 66.451 18.3429 66.451 18.4992C66.451 18.6555 66.509 18.7916 66.6248 18.9075C66.7407 19.0233 66.8876 19.0813 67.0654 19.0813ZM67.5586 23.6974V19.8169H66.5884V23.6974H67.5586ZM72.7891 23.6974L74.131 19.4046H74.1472L75.4892 23.6974H76.4755L78.1489 17.9737H77.0656L75.9338 22.1775H75.9177L74.6808 17.9737H73.6298L72.3687 22.1775H72.3525L71.245 17.9737H70.1293L71.8028 23.6974H72.7891ZM79.6688 23.7944C79.9436 23.7944 80.1888 23.7392 80.4044 23.6287C80.62 23.5182 80.7763 23.3767 80.8733 23.2042H80.8976V23.6974H81.803V21.3368C81.803 21.1428 81.7774 20.9487 81.7262 20.7547C81.675 20.5607 81.5847 20.3855 81.4554 20.2292C81.326 20.0729 81.1495 19.9463 80.9259 19.8493C80.7022 19.7523 80.4179 19.7038 80.073 19.7038C79.7765 19.7038 79.4842 19.755 79.1958 19.8574C78.9075 19.9598 78.6528 20.1134 78.4319 20.3182L78.9331 20.9083C79.057 20.7844 79.2133 20.6793 79.402 20.593C79.5906 20.5068 79.7873 20.4637 79.9921 20.4637C80.2346 20.4637 80.4435 20.5216 80.6187 20.6375C80.7938 20.7534 80.8814 20.9326 80.8814 21.1751V21.2721C80.5796 21.2721 80.271 21.2869 79.9557 21.3166C79.6405 21.3462 79.3535 21.4068 79.0948 21.4985C78.8361 21.5901 78.6245 21.7221 78.4602 21.8946C78.2958 22.0671 78.2136 22.2988 78.2136 22.5898C78.2136 22.8162 78.2607 23.0062 78.3551 23.1598C78.4494 23.3134 78.5679 23.4373 78.7108 23.5317C78.8536 23.626 79.0099 23.6933 79.1797 23.7338C79.3494 23.7742 79.5125 23.7944 79.6688 23.7944ZM79.8628 23.0587C79.7819 23.0587 79.7011 23.0506 79.6202 23.0345C79.5394 23.0183 79.4666 22.9914 79.402 22.9536C79.3373 22.9159 79.2847 22.8661 79.2443 22.8041C79.2039 22.7421 79.1837 22.6653 79.1837 22.5737C79.1837 22.4282 79.2322 22.3136 79.3292 22.2301C79.4262 22.1466 79.5475 22.0819 79.693 22.0361C79.8385 21.9903 79.9975 21.9606 80.17 21.9471C80.3424 21.9337 80.5068 21.9269 80.6631 21.9269H80.8814V22.0644C80.8814 22.3716 80.7952 22.6141 80.6227 22.7919C80.4502 22.9698 80.1969 23.0587 79.8628 23.0587ZM83.9211 23.6974V17.5857H82.951V23.6974H83.9211ZM86.0876 23.6974V17.5857H85.1175V23.6974H86.0876ZM89.1273 23.8106C89.8549 23.8106 90.41 23.5519 90.7927 23.0345L90.1459 22.5171C90.0381 22.6734 89.9007 22.796 89.7336 22.8849C89.5666 22.9738 89.3618 23.0183 89.1192 23.0183C88.9791 23.0183 88.8444 22.9941 88.715 22.9455C88.5857 22.897 88.4698 22.831 88.3674 22.7475C88.265 22.6639 88.1828 22.5642 88.1208 22.4484C88.0588 22.3325 88.0225 22.2045 88.0117 22.0644H90.9624C90.9678 22.0212 90.9705 21.9781 90.9705 21.935V21.8057C90.9705 21.4554 90.9234 21.1495 90.829 20.8881C90.7347 20.6267 90.604 20.4084 90.437 20.2333C90.2699 20.0581 90.0718 19.9261 89.8428 19.8372C89.6137 19.7482 89.3645 19.7038 89.095 19.7038C88.8039 19.7038 88.5331 19.7536 88.2825 19.8533C88.0319 19.953 87.815 20.0932 87.6317 20.2737C87.4485 20.4543 87.3043 20.6725 87.1992 20.9285C87.0941 21.1845 87.0416 21.4688 87.0416 21.7814C87.0416 22.0994 87.0941 22.3837 87.1992 22.6343C87.3043 22.8849 87.4498 23.0965 87.6358 23.2689C87.8217 23.4414 88.0413 23.5748 88.2946 23.6691C88.5479 23.7634 88.8255 23.8106 89.1273 23.8106ZM88.0117 21.3691C88.0332 21.0943 88.1451 20.8692 88.3472 20.6941C88.5493 20.5189 88.7959 20.4313 89.0869 20.4313C89.2432 20.4313 89.3793 20.4569 89.4951 20.5081C89.611 20.5593 89.7067 20.6281 89.7821 20.7143C89.8576 20.8005 89.9128 20.9002 89.9479 21.0134C89.9829 21.1266 90.0004 21.2452 90.0004 21.3691H88.0117ZM93.2907 23.7782C93.3985 23.7782 93.5117 23.7688 93.6302 23.7499C93.7488 23.7311 93.8512 23.7055 93.9374 23.6731L93.9051 22.9132C93.8458 22.9402 93.7784 22.9604 93.703 22.9738C93.6275 22.9873 93.5575 22.9941 93.4928 22.9941C93.2772 22.9941 93.1384 22.9375 93.0765 22.8243C93.0145 22.7111 92.9835 22.5683 92.9835 22.3958V20.593H93.9536V19.8169H92.9835V18.6932H92.0296V19.8169H91.3505V20.593H92.0296V22.4039C92.0296 22.5925 92.0471 22.769 92.0821 22.9334C92.1171 23.0978 92.1818 23.2433 92.2761 23.37C92.3704 23.4966 92.4984 23.5963 92.6601 23.6691C92.8218 23.7418 93.032 23.7782 93.2907 23.7782Z" fill="#19233C"/>
</svg>
